<svg width="502" height="502" viewBox="0 0 502 502" xmlns="http://www.w3.org/2000/svg"><title>Imported Layers</title><g fill="none" fill-rule="evenodd"><path d="M.735.722h500.937V501.66H.735V.72z" fill="#9E9E9E"/><path d="M84.505 155.642l-9.476-1.37 3.49-11.97h27.18l3.49 11.97-9.35 1.37v9.727h33.914v-9.36l-9.228-1.87-22.57-73.57H82.88l-22.814 73.7-9.228 1.745v9.353h33.665v-9.728zm.126-35.912c3-9.6 6.11-21.447 7.36-26.56h.25c.87 3.617 4.118 15.463 7.23 26.312l3.12 10.598H81.516l3.117-10.35zm90.77 36.286l-11.47-1.744v-27.184c2.12-7.48 6.98-12.096 12.22-12.096 1.37 0 2.244.125 2.744.374l1.373 8.728h9.102v-18.827c-3.243-1.87-7.48-3.242-11.723-3.242-6.982 0-13.466 5.985-14.84 12.094h-.247l-.375-10.85h-5.735l-17.957 2.24v8.98l10.226.87v38.907l-10.23 1.744v9.354h36.91v-9.354m39.644-28.303c-10.848 0-18.33 6.11-18.33 19.827 0 12.72 8.23 19.204 18.83 19.204 6.608 0 9.6-2.37 17.83-7.482h.25l1.497 6.356h7.73l15.09-2.12v-8.23l-9.727-1.247c-.248-1.37-.5-3.614-.5-5.235v-25.06c0-14.09-6.98-21.695-24.19-21.695-8.105 0-14.587 1.745-22.942 4.364v15.58h9.85l1.37-6.235c2.996-.998 6.735-1.746 9.48-1.746 7.73 0 11.223 2.493 11.223 10.1v5.61c-6.236-.248-11.722-1.994-17.46-1.994zm17.46 23.193c-6.736 3.742-8.232 5.238-12.222 5.238-6.36 0-8.974-4.24-8.974-9.85 0-7.107 3.615-9.602 8.85-9.602 2.87 0 7.86.994 12.347 1.245v12.97zm36.277 14.466h13.467l.5-5.738h.25c3.364 3.492 9.85 7.11 16.083 7.11 15.838 0 26.31-11.972 26.31-32.297 0-20.95-8.353-32.544-24.937-32.544-7.107 0-12.096 4.987-16.21 9.35h-.25V75.59h-7.48l-17.957 2.368v8.98l10.224.747v77.684zm15.213-42.025c2.494-3.363 7.107-8.726 11.97-8.726 9.103 0 13.84 5.86 13.84 19.828 0 13.84-6.107 19.576-14.338 19.576-4.114 0-9.228-3.363-11.472-6.23v-24.44zm-188.64 99.73c2.12 0 3.49.127 5.238.75l1.87 9.726h10.475v-21.072c-4.987-1.747-10.1-3.118-16.834-3.118-23.566 0-41.272 16.085-41.272 43.642 0 27.558 14.71 43.644 38.4 43.644 8.98 0 14.715-1.49 21.57-3.86l-3.99-12.844c-6.36 1.995-11.344 2.87-17.455 2.87-13.842 0-22.196-10.85-22.196-29.805 0-18.952 11.346-29.926 24.19-29.926m27.43 62.968v9.356h35.66v-9.352l-10.224-1.743v-51h-7.482l-17.955 2.244v8.98l10.223.87v38.9l-10.224 1.745m26.81-70.953c0-4.863-4.117-8.728-9.353-8.728-5.113 0-9.352 3.865-9.352 8.728 0 4.738 4.24 8.73 9.353 8.73 5.237 0 9.35-3.992 9.35-8.73m40.273 81.55c5.237 0 12.344-1.495 17.83-3.615l-3.74-11.472c-3.865 1.37-7.48 2.244-10.85 2.244-3.49 0-5.61-2-5.61-6.238v-32.67h15.338V233.3h-15.34v-16.586l-15.21 4.988V233.3h-8.353v11.595h8.354v36.91c0 9.975 7.733 14.838 17.583 14.838m31.414-81.55c0 4.738 4.24 8.73 9.354 8.73 5.234 0 9.35-3.992 9.35-8.73 0-4.863-4.116-8.728-9.35-8.728-5.115 0-9.354 3.865-9.354 8.728m27.556 70.95l-10.224-1.744v-51h-7.485l-17.955 2.24v8.98l10.225.87v38.91l-10.226 1.746v9.354h35.663v-9.353m19.948-40.278h19.577v.25c-3.367 3.74-8.605 9.473-11.722 13.09L256.3 284.05v11.347h50.875V274.32h-9.352l-1.62 8.604H274.01v-.25c2.49-2.742 5.86-6.358 8.602-9.725l23.69-28.31V233.29h-48.007v20.074h9.103l1.372-7.606m101.994 17.833c0-20.45-8.23-31.673-25.935-31.673-17.21 0-28.56 11.723-28.56 32.17 0 20.703 10.6 32.548 31.55 32.548 8.354 0 13.965-1.245 20.076-2.99l-2.62-11.348c-5.487 1.497-10.35 2.62-17.83 2.62-9.603 0-16.96-6.61-16.96-17.83h40.276v-3.49zm-12.842-5.985h-27.31c.625-8.98 6.485-15.09 14.217-15.09 8.474 0 13.09 6.485 13.09 14.84v.25zM441.34 252c0-13.84-7.728-20.076-17.83-20.076-8.105 0-16.334 4.615-19.825 10.724h-.25l-.872-9.35H396.7l-17.955 2.243v8.98l10.226.87v38.91l-10.22 1.747v9.354h33.17v-9.353l-7.73-1.744v-31.05c3.864-5.236 8.228-8.853 14.46-8.853 4.117 0 7.484 2.87 7.484 10.1v29.8l-6.734 1.743v9.354h32.172v-9.353l-10.23-1.745V252M114.31 357.585c-5.61 10.475-11.347 21.572-13.217 25.81h-.245c-1.62-4.112-7.233-15.086-12.97-25.81l-8.853-16.96H54.33v9.354l10.224 1.74v62.596L54.33 416.06v9.354h36.41v-9.355l-10.225-1.745v-20.823c0-9.353-.123-20.7-.374-24.69h.257c1.37 3.118 6.858 13.967 12.22 24.067l4.862 9.35h7.107l4.988-9.35c5.114-9.48 10.474-20.328 12.22-24.067h.25c-.25 3.99-.374 15.213-.374 24.564v20.95l-10.225 1.744v9.354h36.41v-9.355l-10.224-1.746V351.72l10.226-1.746v-9.355H123.04l-8.73 16.96m69.193 4.363c-17.207 0-28.555 11.72-28.555 32.17 0 20.7 10.6 32.546 31.548 32.546 8.354 0 13.966-1.247 20.076-2.994l-2.62-11.346c-5.485 1.498-10.35 2.62-17.83 2.62-9.602 0-16.96-6.61-16.96-17.83h40.28v-3.492c0-20.45-8.232-31.673-25.94-31.673zm13.094 25.687h-27.31c.625-8.98 6.486-15.09 14.216-15.09 8.48 0 13.094 6.486 13.094 14.84v.25zm78.425-51.996h-7.606l-17.956 2.368v8.98l10.35.747v22.942h-.25c-4.115-4.24-8.98-8.73-16.335-8.73-16.46 0-24.94 11.598-24.94 32.548 0 20.326 10.6 32.296 26.436 32.296 6.61 0 12.97-4.86 16.09-8.602h.25l.75 7.48h8.105l15.337-2.118v-8.232l-10.224-1.247v-78.43zM259.81 406.96c-1.998 2.62-7.36 6.983-11.35 6.983-8.355 0-14.59-5.61-14.59-19.45 0-13.97 4.864-19.83 13.966-19.83 4.613 0 9.228 4.365 11.97 8.107v24.19zm57.35-43.642h-7.485l-17.956 2.243v8.98l10.222.87v38.91l-10.226 1.747v9.353h35.663v-9.355l-10.225-1.745v-51m-7.98-26.935c-5.115 0-9.354 3.865-9.354 8.728 0 4.738 4.24 8.73 9.354 8.73 5.233 0 9.35-3.992 9.35-8.73 0-4.863-4.117-8.728-9.35-8.728m77.053 72.448V383.77c0-14.09-6.982-21.695-24.19-21.695-8.106 0-14.588 1.744-22.943 4.364v15.58h9.85l1.37-6.235c2.995-.998 6.735-1.746 9.48-1.746 7.73 0 11.222 2.493 11.222 10.1v5.61c-6.237-.248-11.723-1.994-17.46-1.994-10.848 0-18.33 6.11-18.33 19.828 0 12.72 8.23 19.203 18.83 19.203 6.608 0 9.6-2.37 17.83-7.48h.25l1.497 6.36h7.732l15.086-2.12v-8.23l-9.73-1.25c-.246-1.37-.5-3.613-.5-5.234zm-15.21 2.12c-6.736 3.74-8.232 5.236-12.222 5.236-6.357 0-8.975-4.24-8.975-9.85 0-7.11 3.618-9.6 8.854-9.6 2.868 0 7.857.993 12.346 1.244v12.967z" fill="#FFF"/></g></svg>