<svg width="502" height="502" viewBox="0 0 502 502" xmlns="http://www.w3.org/2000/svg"><title>Imported Layers</title><g fill="none" fill-rule="evenodd"><path d="M.735.722h500.937V501.66H.735V.72z" fill="#9E9E9E"/><path d="M84.505 155.642l-9.476-1.37 3.49-11.97h27.183l3.492 11.97-9.352 1.37v9.727h33.916v-9.355l-9.228-1.87-22.57-73.57h-19.08L60.066 154.27l-9.228 1.745v9.353h33.665v-9.728zm.126-35.912c2.995-9.6 6.11-21.447 7.36-26.56h.25c.87 3.617 4.114 15.463 7.23 26.312l3.118 10.598H81.514l3.117-10.35zm90.77 36.286l-11.473-1.744v-27.184c2.12-7.48 6.982-12.096 12.22-12.096 1.372 0 2.243.125 2.743.374l1.372 8.728h9.102v-18.827c-3.242-1.87-7.48-3.242-11.722-3.242-6.982 0-13.466 5.985-14.84 12.094h-.247l-.374-10.85h-5.735l-17.956 2.245v8.98l10.225.87v38.906l-10.226 1.745v9.353h36.91v-9.354m39.643-28.304c-10.848 0-18.33 6.11-18.33 19.828 0 12.72 8.23 19.204 18.83 19.204 6.608 0 9.6-2.37 17.83-7.483h.25l1.497 6.357h7.73l15.09-2.12v-8.23l-9.728-1.247c-.248-1.37-.5-3.613-.5-5.234V123.72c0-14.09-6.98-21.695-24.19-21.695-8.105 0-14.587 1.745-22.942 4.364v15.585h9.85l1.37-6.236c2.995-.998 6.734-1.746 9.48-1.746 7.73 0 11.222 2.493 11.222 10.1v5.61c-6.236-.248-11.722-1.994-17.46-1.994zm17.46 23.194c-6.736 3.742-8.232 5.238-12.222 5.238-6.36 0-8.975-4.24-8.975-9.85 0-7.108 3.616-9.603 8.85-9.603 2.87 0 7.86.995 12.348 1.246v12.967zm36.277 14.466h13.466l.5-5.737h.25c3.365 3.492 9.85 7.11 16.084 7.11 15.837 0 26.31-11.972 26.31-32.297 0-20.95-8.354-32.546-24.938-32.546-7.107 0-12.096 4.988-16.21 9.352h-.25V75.59h-7.48l-17.957 2.368v8.98l10.224.747v77.684zm15.212-42.024c2.494-3.365 7.107-8.728 11.97-8.728 9.103 0 13.84 5.86 13.84 19.828 0 13.84-6.107 19.575-14.338 19.575-4.114 0-9.228-3.364-11.472-6.232v-24.44zM95.354 223.07c2.12 0 3.49.126 5.238.75l1.87 9.725h10.474v-21.072c-4.987-1.747-10.1-3.118-16.834-3.118-23.567 0-41.273 16.085-41.273 43.642 0 27.558 14.712 43.644 38.404 43.644 8.978 0 14.714-1.494 21.57-3.863l-3.99-12.844c-6.36 1.995-11.345 2.87-17.456 2.87-13.842 0-22.196-10.85-22.196-29.805 0-18.952 11.346-29.926 24.19-29.926m27.428 62.968v9.354h35.663v-9.353l-10.225-1.743v-51h-7.482l-17.956 2.245v8.98l10.225.87v38.906l-10.225 1.745m26.81-70.953c0-4.863-4.116-8.728-9.352-8.728-5.114 0-9.353 3.865-9.353 8.728 0 4.738 4.24 8.73 9.353 8.73 5.236 0 9.35-3.992 9.35-8.73m40.272 81.55c5.238 0 12.345-1.495 17.83-3.615l-3.74-11.472c-3.864 1.37-7.48 2.244-10.848 2.244-3.49 0-5.61-1.995-5.61-6.234v-32.67h15.337v-11.596h-15.34v-16.585l-15.21 4.988v11.597h-8.354v11.596h8.354v36.91c0 9.975 7.732 14.838 17.582 14.838m31.414-81.55c0 4.738 4.24 8.73 9.353 8.73 5.233 0 9.35-3.992 9.35-8.73 0-4.863-4.117-8.728-9.35-8.728-5.116 0-9.355 3.865-9.355 8.728m27.558 70.95l-10.224-1.744v-51h-7.485l-17.956 2.245v8.98l10.225.87v38.907l-10.226 1.745v9.354h35.662v-9.353m19.948-40.278h19.576v.25c-3.367 3.74-8.605 9.477-11.722 13.093l-20.325 24.938v11.348h50.874V274.32h-9.352l-1.62 8.604h-22.196v-.25c2.492-2.742 5.86-6.358 8.603-9.725l23.69-28.308v-11.346h-48.007v20.074h9.103l1.372-7.605m101.994 17.832c0-20.45-8.23-31.673-25.935-31.673-17.208 0-28.556 11.722-28.556 32.17 0 20.702 10.6 32.547 31.55 32.547 8.354 0 13.965-1.245 20.076-2.99l-2.62-11.348c-5.486 1.497-10.35 2.62-17.83 2.62-9.602 0-16.96-6.61-16.96-17.83h40.277V263.6zm-12.842-5.985h-27.31c.625-8.98 6.485-15.09 14.217-15.09 8.478 0 13.093 6.485 13.093 14.84v.25zM441.34 252c0-13.84-7.728-20.076-17.83-20.076-8.105 0-16.334 4.615-19.825 10.724h-.25l-.872-9.35H396.7l-17.955 2.243v8.98l10.226.87v38.907l-10.224 1.745v9.354h33.17v-9.353l-7.73-1.744v-31.05c3.864-5.236 8.228-8.853 14.462-8.853 4.116 0 7.483 2.87 7.483 10.1V284.3l-6.734 1.744v9.354h32.173v-9.353L441.34 284.3V252M114.308 357.585c-5.61 10.475-11.347 21.572-13.217 25.81h-.247c-1.62-4.112-7.233-15.086-12.97-25.81l-8.853-16.96H54.33v9.354l10.224 1.744v62.596l-10.224 1.746v9.353h36.41v-9.355l-10.225-1.745v-20.823c0-9.353-.123-20.7-.374-24.69h.253c1.37 3.118 6.858 13.967 12.22 24.067l4.862 9.352h7.108l4.988-9.352c5.114-9.478 10.474-20.327 12.22-24.066h.25c-.25 3.99-.374 15.213-.374 24.564v20.95l-10.225 1.744v9.353h36.41v-9.355l-10.224-1.745v-62.595l10.226-1.746v-9.355H123.04l-8.73 16.96m69.193 4.365c-17.207 0-28.555 11.72-28.555 32.17 0 20.7 10.6 32.546 31.548 32.546 8.354 0 13.966-1.247 20.076-2.994l-2.62-11.346c-5.485 1.496-10.35 2.618-17.83 2.618-9.602 0-16.96-6.608-16.96-17.83h40.28v-3.492c0-20.45-8.232-31.673-25.94-31.673zm13.094 25.687h-27.31c.625-8.98 6.486-15.09 14.216-15.09 8.48 0 13.094 6.485 13.094 14.84v.25zm78.425-51.997h-7.606l-17.956 2.368v8.98l10.35.747v22.943h-.25c-4.115-4.24-8.98-8.73-16.335-8.73-16.46 0-24.94 11.598-24.94 32.548 0 20.325 10.6 32.295 26.436 32.295 6.61 0 12.97-4.86 16.087-8.602h.25l.748 7.48h8.106l15.337-2.118v-8.232l-10.224-1.247v-78.43zm-15.213 71.324c-1.997 2.62-7.36 6.983-11.35 6.983-8.354 0-14.588-5.61-14.588-19.45 0-13.97 4.863-19.83 13.965-19.83 4.613 0 9.228 4.365 11.97 8.107v24.19zm57.35-43.642h-7.484l-17.956 2.243v8.98l10.226.87v38.906l-10.226 1.747v9.353h35.664v-9.354l-10.225-1.745v-50.997m-7.98-26.936c-5.115 0-9.354 3.865-9.354 8.728 0 4.738 4.24 8.73 9.353 8.73 5.233 0 9.35-3.992 9.35-8.73 0-4.863-4.117-8.728-9.35-8.728m77.053 72.448V383.77c0-14.09-6.982-21.695-24.19-21.695-8.106 0-14.588 1.744-22.943 4.364v15.585h9.85l1.37-6.236c2.995-.998 6.735-1.746 9.48-1.746 7.73 0 11.222 2.493 11.222 10.1v5.61c-6.236-.248-11.722-1.994-17.46-1.994-10.847 0-18.328 6.11-18.328 19.828 0 12.72 8.23 19.203 18.83 19.203 6.607 0 9.6-2.37 17.83-7.48h.25l1.496 6.36h7.732l15.087-2.12v-8.23l-9.73-1.248c-.247-1.37-.5-3.614-.5-5.235zm-15.21 2.12c-6.736 3.74-8.232 5.236-12.222 5.236-6.357 0-8.975-4.236-8.975-9.85 0-7.105 3.616-9.6 8.852-9.6 2.868 0 7.857.997 12.346 1.248v12.967z" fill="#FFF"/></g></svg>