<?xml version="1.0" encoding="UTF-8" standalone="no"?>
<svg width="7601px" height="2513px" viewBox="0 0 7601 2513" version="1.1" xmlns="http://www.w3.org/2000/svg" xmlns:xlink="http://www.w3.org/1999/xlink">
    <!-- Generator: Sketch 39.1 (31720) - http://www.bohemiancoding.com/sketch -->
    <title>Bridge white</title>
    <desc>Created with Sketch.</desc>
    <defs></defs>
    <g id="Page-1" stroke="none" stroke-width="1" fill="none" fill-rule="evenodd">
        <g id="Group-Copy" transform="translate(-16646.000000, 0.000000)" fill="#FFFFFF">
            <path d="M17184,662 L17184,873 L17338.9752,873 C17379.3335,873 17412.4269,863.703158 17438.2562,845.109195 C17464.0855,826.515233 17477,797.816286 17477,759.011494 C17477,726.674168 17463.2784,702.421537 17435.8347,686.252874 C17408.391,670.08421 17372.0691,662 17326.8678,662 L17184,662 Z M17184,1244 L17184,1477 L17356.2015,1477 C17401.4754,1477 17438.2598,1466.88725 17466.556,1446.66146 C17494.8521,1426.43566 17509,1396.90644 17509,1358.07292 C17509,1335.42003 17502.9366,1316.81257 17490.8097,1302.25 C17478.6828,1287.68743 17463.7265,1275.95664 17445.9403,1267.05729 C17428.1541,1258.15794 17409.1556,1252.09029 17388.944,1248.85417 C17368.7325,1245.61804 17349.7339,1244 17331.9478,1244 L17184,1244 Z M17769.3188,1037.54802 C17809.7552,1047.24864 17849.3824,1063.0119 17888.2013,1084.83828 C17927.0203,1106.66466 17961.7951,1134.14932 17992.5268,1167.29308 C18023.2585,1200.43684 18047.52,1238.83453 18065.3121,1282.48729 C18083.1041,1326.14005 18092,1374.64239 18092,1427.99576 C18092,1521.76836 18072.9952,1600.58466 18034.9849,1664.44703 C17996.9746,1728.30941 17946.8342,1780.04524 17884.5621,1819.65607 C17822.29,1859.26691 17751.1229,1887.55994 17671.0587,1904.53602 C17590.9946,1921.51209 17508.9098,1930 17424.802,1930 L16646,1930 L16646,213 L17352.0168,213 C17421.5675,213 17495.565,218.25442 17574.0117,228.763418 C17652.4584,239.272416 17724.8386,260.290097 17791.1544,291.81709 C17857.4701,323.344084 17912.4629,369.421307 17956.1342,430.050141 C17999.8056,490.678975 18021.6409,570.30365 18021.6409,668.926554 C18021.6409,761.082382 17998.5925,837.069381 17952.495,896.889831 C17906.3974,956.71028 17845.3393,1001.17076 17769.3188,1030.2726 L17769.3188,1037.54802 Z M18142,654.962963 L18680.5038,654.962963 L18680.5038,800.518519 L18685.3552,800.518519 C18712.8465,748.765173 18753.6786,705.907577 18807.8526,671.944444 C18862.0267,637.981312 18925.4984,621 18998.2695,621 C19041.9322,621 19077.5087,625.043169 19105,633.12963 L19061.3375,1108.61111 C19043.549,1103.75923 19023.7394,1100.12038 19001.9081,1097.69444 C18980.0767,1095.26851 18960.2671,1094.05556 18942.4786,1094.05556 C18869.7074,1094.05556 18811.4914,1115.08004 18767.8287,1157.12963 C18724.166,1199.17922 18702.335,1250.93179 18702.335,1312.38889 L18702.335,1931 L18142,1931 L18142,654.962963 Z M19177,655 L19737,655 L19737,1931 L19177,1931 L19177,655 Z M19167,286.212766 C19167,247.404061 19174.6847,210.617195 19190.0544,175.851064 C19205.4241,141.084933 19226.4559,110.766087 19253.1506,84.893617 C19279.8453,59.0211472 19310.9887,38.4043321 19346.5816,23.0425532 C19382.1745,7.68077426 19420.1937,0 19460.6402,0 C19499.4688,0 19535.8701,7.68077426 19569.8452,23.0425532 C19603.8203,38.4043321 19634.1547,59.0211472 19660.8494,84.893617 C19687.5441,110.766087 19708.5759,141.084933 19723.9456,175.851064 C19739.3153,210.617195 19747,247.404061 19747,286.212766 C19747,326.6385 19739.3153,364.233869 19723.9456,399 C19708.5759,433.766131 19687.5441,463.680726 19660.8494,488.744681 C19634.1547,513.808636 19603.8203,533.616949 19569.8452,548.170213 C19535.8701,562.723477 19499.4688,570 19460.6402,570 C19420.1937,570 19382.1745,562.723477 19346.5816,548.170213 C19310.9887,533.616949 19279.8453,513.808636 19253.1506,488.744681 C19226.4559,463.680726 19205.4241,433.766131 19190.0544,399 C19174.6847,364.233869 19167,326.6385 19167,286.212766 L19167,286.212766 Z M19789,1288.15325 C19789,1205.66972 19801.5305,1124.80473 19826.592,1045.55584 C19851.6534,966.306963 19888.4365,895.14577 19936.9425,832.07013 C19985.4485,768.99449 20046.0801,718.049545 20118.8391,679.233766 C20191.5981,640.417988 20275.6739,621.01039 20371.069,621.01039 C20432.5099,621.01039 20493.9499,632.735813 20555.3908,656.187013 C20616.8317,679.638212 20666.1454,713.197184 20703.3333,756.864935 L20708.1839,756.864935 L20708.1839,97 L21266,97 L21266,1931.03636 L20763.9655,1931.03636 L20763.9655,1797.60779 L20759.1149,1797.60779 C20721.927,1849.36216 20667.7628,1890.19898 20596.6207,1920.11948 C20525.4786,1950.03998 20450.2954,1965 20371.069,1965 C20275.6739,1965 20191.5981,1945.5924 20118.8391,1906.77662 C20046.0801,1867.96084 19985.4485,1816.61157 19936.9425,1752.72727 C19888.4365,1688.84297 19851.6534,1616.4688 19826.592,1535.6026 C19801.5305,1454.73639 19789,1372.2541 19789,1288.15325 L19789,1288.15325 Z M20308,1288.07386 C20308,1349.53629 20325.7915,1400.889 20361.375,1442.13352 C20396.9585,1483.37805 20448.7156,1504 20516.6477,1504 C20582.9625,1504 20635.9326,1482.9737 20675.5597,1440.92045 C20715.1868,1398.86721 20735,1347.91886 20735,1288.07386 C20735,1231.46373 20715.1868,1182.13279 20675.5597,1140.07955 C20635.9326,1098.0263 20582.9625,1077 20516.6477,1077 C20448.7156,1077 20396.9585,1098.0263 20361.375,1140.07955 C20325.7915,1182.13279 20308,1231.46373 20308,1288.07386 L20308,1288.07386 Z M21328,1288.05128 C21328,1205.57907 21340.5305,1124.72518 21365.592,1045.48718 C21390.6534,966.249176 21427.4365,895.097751 21475.9425,832.030769 C21524.4485,768.963787 21585.0801,718.025835 21657.8391,679.215385 C21730.5981,640.404934 21814.6739,621 21910.069,621 C21977.9774,621 22044.6721,633.936623 22110.1552,659.810256 C22175.6383,685.68389 22229.3983,726.919375 22271.4368,783.517949 L22278.7126,783.517949 L22278.7126,654.958974 L22805,654.958974 L22805,1799.86154 C22805,1938.93232 22782.3642,2054.55339 22737.092,2146.72821 C22691.8197,2238.90302 22631.5923,2312.0758 22556.408,2366.24872 C22481.2238,2420.42164 22395.9353,2458.42297 22300.5402,2480.25385 C22205.1451,2502.08472 22108.1346,2513 22009.5057,2513 C21888.2408,2513 21766.9776,2497.23349 21645.7126,2465.7 C21524.4477,2434.16651 21418.5445,2387.67552 21328,2326.22564 L21572.954,1955.10256 C21634.3949,2001.99853 21699.0686,2036.36143 21766.977,2058.19231 C21834.8854,2080.02319 21899.5591,2090.93846 21961,2090.93846 C22001.4217,2090.93846 22039.8217,2085.68296 22076.2011,2075.17179 C22112.5806,2064.66063 22144.5133,2049.29839 22172,2029.08462 C22199.4867,2008.87084 22221.3141,1983.80613 22237.4828,1953.88974 C22253.6514,1923.97335 22261.7356,1889.61045 22261.7356,1850.8 L22261.7356,1795.01026 L22254.4598,1795.01026 C22223.7393,1830.5865 22178.0635,1862.11952 22117.431,1889.61026 C22056.7985,1917.10099 21987.6785,1930.84615 21910.069,1930.84615 C21811.4401,1930.84615 21725.7475,1913.46257 21652.9885,1878.69487 C21580.2295,1843.92718 21519.5979,1797.03192 21471.092,1738.00769 C21422.586,1678.98347 21386.6112,1610.66193 21363.1667,1533.04103 C21339.7221,1455.42012 21328,1373.75769 21328,1288.05128 L21328,1288.05128 Z M21848,1288.07386 C21848,1349.53629 21865.7915,1400.889 21901.375,1442.13352 C21936.9585,1483.37805 21988.7156,1504 22056.6477,1504 C22122.9625,1504 22175.9326,1482.9737 22215.5597,1440.92045 C22255.1868,1398.86721 22275,1347.91886 22275,1288.07386 C22275,1231.46373 22255.1868,1182.13279 22215.5597,1140.07955 C22175.9326,1098.0263 22122.9625,1077 22056.6477,1077 C21988.7156,1077 21936.9585,1098.0263 21901.375,1140.07955 C21865.7915,1182.13279 21848,1231.46373 21848,1288.07386 L21848,1288.07386 Z M23764,1123 C23764,1077.79144 23747.4111,1040.6564 23714.2327,1011.59375 C23681.0543,982.531105 23636.1428,968 23579.4969,968 C23517.9955,968 23470.2517,984.952955 23436.2642,1018.85938 C23402.2766,1052.76579 23382.8554,1087.47899 23378,1123 L23764,1123 Z M24247,1304.62898 C24247,1325.65264 24246.5956,1347.08028 24245.7868,1368.91254 C24244.9781,1390.74481 24243.7649,1408.93809 24242.1474,1423.49293 L23383.2316,1423.49293 C23384.8491,1446.1338 23392.5324,1466.34856 23406.2816,1484.13781 C23420.0308,1501.92706 23437.0148,1517.29028 23457.2342,1530.22792 C23477.4536,1543.16555 23500.099,1552.86864 23525.1711,1559.33746 C23550.2431,1565.80627 23575.7192,1569.04064 23601.6,1569.04064 C23653.3617,1569.04064 23696.6305,1559.74185 23731.4079,1541.14399 C23766.1853,1522.54614 23792.4701,1501.92709 23810.2632,1479.28622 L24208.1789,1680.62721 C24151.5646,1772.80788 24069.4751,1845.58101 23961.9079,1898.94876 C23854.3407,1952.31652 23729.3867,1979 23587.0421,1979 C23494.8416,1979 23405.0689,1964.44538 23317.7211,1935.33569 C23230.3732,1906.226 23153.1363,1862.96642 23086.0079,1805.55565 C23018.8795,1748.14488 22965.0967,1676.58465 22924.6579,1590.87279 C22884.2191,1505.16094 22864,1405.70434 22864,1292.5 C22864,1187.38169 22882.6016,1092.37233 22919.8053,1007.46908 C22957.009,922.56583 23007.5567,850.601296 23071.45,791.573322 C23135.3433,732.545347 23210.5583,686.859997 23297.0974,654.515901 C23383.6364,622.171805 23476.2399,606 23574.9105,606 C23675.1987,606 23766.5891,623.384691 23849.0842,658.154594 C23931.5794,692.924497 24002.3462,741.439912 24061.3868,803.702297 C24120.4275,865.964681 24166.1226,939.95069 24198.4737,1025.66254 C24230.8247,1111.3744 24247,1204.36228 24247,1304.62898 L24247,1304.62898 Z" id="Bridge-white"></path>
        </g>
    </g>
</svg>