<svg width="1188" height="308" viewBox="0 0 1188 308" xmlns="http://www.w3.org/2000/svg"><title>Imported Layers</title><g fill="none" fill-rule="evenodd"><path d="M374.998 27.195h62.445c8.678 0 17.063.886 25.157 2.665 8.084 1.775 15.283 4.736 21.6 8.875 6.31 4.144 11.343 9.572 15.09 16.28 3.75 6.706 5.627 14.992 5.627 24.856 0 11.45-3.21 21.268-9.62 29.45-6.41 8.19-15.536 13.665-27.372 16.428v.59c14.798 1.185 26.385 6.365 34.77 15.536 8.386 9.17 12.58 21.456 12.58 36.847 0 3.35-.842 8.286-2.518 14.793-1.676 6.51-5.175 12.974-10.504 19.382-5.326 6.413-13.02 11.987-23.085 16.724-10.06 4.73-23.48 7.1-40.246 7.1h-63.924V27.195zm21.31 91.74h42.91a61.36 61.36 0 0 0 15.24-1.925c5.034-1.276 9.568-3.404 13.613-6.36 4.05-2.962 7.35-6.757 9.92-11.395 2.56-4.633 3.848-10.307 3.848-17.016 0-2.17-.443-5.23-1.333-9.178-.884-3.945-2.86-7.89-5.917-11.84-3.06-3.942-7.543-7.346-13.46-10.208-5.924-2.86-13.914-4.295-23.975-4.295h-40.84v72.21zm0 98.252h40.84c7.692 0 14.89-.79 21.6-2.372 6.705-1.574 12.53-3.99 17.463-7.247 4.93-3.258 8.83-7.35 11.697-12.283 2.858-4.926 4.29-10.85 4.29-17.755 0-13.805-4.44-24.07-13.32-30.778-8.876-6.705-21.9-10.062-39.06-10.062H396.31v80.497zm153.172-75.76c0-6.116-.145-12.327-.44-18.645-.298-6.314-.547-14.5-.74-24.563h19.233v25.743h.593c1.38-3.752 3.352-7.35 5.918-10.805 2.562-3.45 5.67-6.558 9.322-9.32 3.65-2.76 7.887-4.978 12.727-6.66 4.83-1.675 10.306-2.513 16.422-2.513 5.523 0 10.358.59 14.502 1.773l-3.847 19.24c-2.566-.99-6.318-1.482-11.248-1.482-7.5 0-13.908 1.435-19.233 4.29-5.33 2.86-9.77 6.514-13.32 10.95-3.556 4.44-6.17 9.223-7.845 14.355-1.68 5.133-2.52 10.06-2.52 14.795v78.127h-19.53v-95.29m122.128-96.477c0 4.143-1.478 7.547-4.44 10.212-2.956 2.66-6.214 3.993-9.764 3.993-3.55 0-6.808-1.332-9.765-3.997-2.964-2.666-4.44-6.07-4.44-10.213 0-4.14 1.476-7.543 4.44-10.208 2.955-2.665 6.213-3.993 9.763-3.993s6.806 1.327 9.763 3.99c2.96 2.665 4.44 6.07 4.44 10.208zm-23.97 53.274h19.53v138.5h-19.53V98.22zM77.38 150.757L.227 200.21v53.808l90-55.986h102.66l94.29 56.17 1.014-.36v-53.38l-82.502-49.707H77.38zM.227.258v53.805L77.38 103.48h128.303l82.508-49.666V.434L287.18 2.2l-94.29 58.302H90.228L.226.257z" fill="#FFF"/><path d="M77.38 150.755L.227 200.21v53.808l90-55.986h102.66l94.29 56.17 1.014-.36v-53.38l-82.502-49.707H77.38zM.227.257v53.806L77.38 103.48h128.303l82.508-49.666V.434L287.18 2.2l-94.29 58.302H90.228L.226.257z"/><path d="M845.855 236.715H826.32V213.63h-.588c-3.16 4.742-6.91 8.786-11.248 12.134-4.34 3.36-8.875 6.12-13.612 8.286a65.228 65.228 0 0 1-14.65 4.74c-5.03.98-9.814 1.475-14.352 1.475-10.853 0-20.768-1.822-29.742-5.47-8.98-3.654-16.72-8.73-23.23-15.242-6.512-6.51-11.592-14.21-15.24-23.084-3.655-8.88-5.477-18.547-5.477-29.01 0-10.456 1.828-20.122 5.48-28.997 3.65-8.88 8.73-16.577 15.24-23.084 6.51-6.51 14.25-11.588 23.23-15.24 8.977-3.65 18.89-5.47 29.745-5.47 4.54 0 9.323.49 14.35 1.473a65.673 65.673 0 0 1 14.653 4.736c4.737 2.176 9.27 4.935 13.612 8.29 4.336 3.353 8.09 7.393 11.247 12.13h.59V12.992h19.533v223.723zm-126.365-69.25c0 7.7 1.23 14.902 3.697 21.603 2.467 6.713 5.97 12.533 10.508 17.463 4.535 4.94 10.01 8.838 16.423 11.69 6.408 2.87 13.66 4.3 21.752 4.3 7.887 0 15.24-1.43 22.048-4.294 6.804-2.857 12.675-6.755 17.61-11.69 4.93-4.93 8.776-10.75 11.54-17.462 2.758-6.7 4.142-13.903 4.142-21.6 0-7.694-1.384-14.893-4.143-21.6-2.763-6.707-6.61-12.526-11.54-17.465-4.934-4.926-10.805-8.83-17.61-11.69-6.807-2.855-14.16-4.29-22.047-4.29-8.093 0-15.344 1.435-21.752 4.29-6.413 2.86-11.888 6.764-16.423 11.69-4.538 4.94-8.04 10.757-10.508 17.462-2.467 6.71-3.697 13.91-3.697 21.6zm174.778 97.07c5.717 7.694 13.17 13.857 22.34 18.495 9.177 4.633 19.385 6.954 30.633 6.954 9.86 0 18.25-1.43 25.157-4.29 6.907-2.862 12.477-6.76 16.724-11.69 4.238-4.934 7.293-10.702 9.17-17.312 1.875-6.61 2.81-13.663 2.81-21.16v-24.86h-.59c-6.315 9.474-14.01 16.18-23.082 20.125-9.077 3.95-18.644 5.918-28.706 5.918-10.06 0-19.486-1.775-28.262-5.325-8.78-3.55-16.423-8.437-22.934-14.648-6.512-6.215-11.643-13.663-15.387-22.345-3.753-8.678-5.627-18.05-5.627-28.113 0-10.062 1.777-19.43 5.327-28.113 3.55-8.68 8.433-16.27 14.648-22.782 6.215-6.51 13.612-11.587 22.195-15.24 8.582-3.65 18-5.472 28.262-5.472 4.143 0 8.532.392 13.17 1.183 4.632.79 9.27 2.17 13.907 4.142 4.634 1.973 9.22 4.69 13.762 8.136 4.535 3.456 8.777 7.844 12.727 13.17h.59V98.22h19.535v137.31c0 7.497-.94 15.486-2.815 23.97-1.88 8.485-5.525 16.277-10.95 23.382-5.427 7.1-12.974 13.018-22.64 17.755-9.666 4.735-22.3 7.103-37.88 7.103-13.807 0-26.143-2.273-36.99-6.808-10.853-4.543-20.717-11.544-29.59-21.013l14.5-15.39zm3.55-98.844c0 7.308 1.333 14.168 3.993 20.57 2.67 6.42 6.32 12.04 10.957 16.87 4.634 4.84 10.062 8.68 16.277 11.546 6.215 2.863 12.97 4.294 20.27 4.294 7.104 0 13.86-1.286 20.273-3.85 6.408-2.563 12.08-6.17 17.015-10.807 4.93-4.63 8.73-10.207 11.395-16.714 2.667-6.51 3.896-13.81 3.703-21.904 0-7.293-1.182-14.152-3.55-20.565-2.37-6.41-5.824-12.033-10.36-16.87-4.542-4.83-10.06-8.676-16.572-11.543-6.51-2.853-13.812-4.288-21.9-4.288-7.3 0-14.055 1.434-20.27 4.29-6.215 2.865-11.643 6.712-16.277 11.543-4.637 4.836-8.286 10.46-10.95 16.87-2.66 6.413-3.994 13.27-3.994 20.566zm174.538 7.108c.593 6.907 2.265 13.422 5.033 19.534 2.76 6.116 6.403 11.39 10.94 15.83 4.54 4.44 9.77 7.946 15.69 10.508 5.92 2.562 12.326 3.847 19.233 3.847 10.457 0 19.483-2.412 27.082-7.25 7.59-4.832 13.36-10.406 17.307-16.72l15.094 12.43c-8.286 10.457-17.415 17.952-27.374 22.487-9.962 4.54-20.67 6.81-32.11 6.81-10.26 0-19.78-1.827-28.556-5.472-8.78-3.653-16.327-8.733-22.636-15.24-6.316-6.516-11.3-14.21-14.946-23.085-3.654-8.877-5.472-18.543-5.472-29s1.776-20.123 5.327-29.003c3.55-8.88 8.48-16.574 14.795-23.086 6.31-6.506 13.71-11.586 22.195-15.24 8.48-3.644 17.65-5.47 27.52-5.47 10.457 0 19.827 1.878 28.113 5.62 8.287 3.753 15.245 8.73 20.867 14.945 5.62 6.21 9.91 13.516 12.87 21.897 2.958 8.39 4.44 17.313 4.44 26.78v8.88h-115.417zm94.11-15.98c0-13.216-3.947-23.918-11.838-32.11-7.89-8.184-18.94-12.28-33.146-12.28-6.318 0-12.43 1.234-18.348 3.697-5.918 2.473-11.097 5.774-15.537 9.917-4.436 4.143-7.986 8.88-10.655 14.21-2.66 5.324-3.993 10.847-3.993 16.568h93.51z" fill="#FFF"/></g></svg>