<svg width="7601" height="2513" viewBox="0 0 7601 2513" xmlns="http://www.w3.org/2000/svg"><title>Bridge white</title><path d="M538 662v211h154.975c40.359 0 73.452-9.297 99.281-27.89 25.83-18.596 38.744-47.295 38.744-86.1 0-32.337-13.722-56.59-41.165-72.758C762.39 670.084 726.069 662 680.868 662H538zm0 582v233h172.201c45.274 0 82.059-10.113 110.355-30.339 28.296-20.225 42.444-49.755 42.444-88.588 0-22.653-6.063-41.26-18.19-55.823-12.127-14.563-27.083-26.293-44.87-35.193-17.786-8.9-36.784-14.967-56.996-18.203-20.212-3.236-39.21-4.854-56.996-4.854H538zm585.319-206.452c40.436 9.7 80.063 25.464 118.882 47.29 38.82 21.827 73.594 49.311 104.326 82.455 30.731 33.144 54.993 71.542 72.785 115.194 17.792 43.653 26.688 92.155 26.688 145.509 0 93.772-19.005 172.589-57.015 236.451-38.01 63.862-88.15 115.598-150.423 155.21-62.272 39.61-133.44 67.903-213.503 84.879-80.064 16.976-162.15 25.464-246.257 25.464H0V213h706.017c69.55 0 143.548 5.254 221.995 15.763 78.446 10.51 150.827 31.527 217.142 63.054 66.316 31.527 121.309 77.604 164.98 138.233 43.672 60.629 65.507 140.254 65.507 238.877 0 92.155-23.049 168.142-69.146 227.963-46.098 59.82-107.156 104.28-183.176 133.383v7.275zM1496 654.963h538.504v145.556h4.851c27.491-51.754 68.324-94.611 122.498-128.575C2216.027 637.981 2279.498 621 2352.269 621c43.663 0 79.24 4.043 106.731 12.13l-43.662 475.481c-17.789-4.852-37.599-8.49-59.43-10.917-21.831-2.425-41.64-3.638-59.43-3.638-72.77 0-130.987 21.024-174.65 63.074-43.662 42.05-65.493 93.802-65.493 155.259V1931H1496V654.963zM2531 655h560v1276h-560V655zm-10-368.787c0-38.809 7.685-75.596 23.054-110.362 15.37-34.766 36.402-65.085 63.097-90.957 26.694-25.873 57.838-46.49 93.43-61.851C2736.176 7.68 2774.195 0 2814.642 0c38.828 0 75.23 7.68 109.204 23.043 33.975 15.361 64.31 35.978 91.004 61.85 26.695 25.873 47.727 56.192 63.097 90.958 15.37 34.766 23.054 71.553 23.054 110.362 0 40.425-7.685 78.02-23.054 112.787-15.37 34.766-36.402 64.68-63.097 89.745-26.694 25.064-57.029 44.872-91.004 59.425C2889.87 562.723 2853.47 570 2814.64 570c-40.446 0-78.465-7.277-114.058-21.83-35.593-14.553-66.737-34.361-93.431-59.425-26.695-25.064-47.727-54.979-63.097-89.745-15.37-34.766-23.054-72.361-23.054-112.787zm622 1001.94c0-82.483 12.53-163.348 37.592-242.597 25.061-79.249 61.844-150.41 110.35-213.486 48.506-63.076 109.138-114.02 181.897-152.836 72.76-38.816 156.835-58.224 252.23-58.224 61.44 0 122.88 11.726 184.322 35.177 61.44 23.451 110.754 57.01 147.942 100.678h4.85V97H4620v1834.036h-502.035v-133.428h-4.85c-37.188 51.754-91.352 92.591-162.494 122.511-71.142 29.921-146.326 44.881-225.552 44.881-95.395 0-179.47-19.408-252.23-58.223-72.759-38.816-133.39-90.165-181.896-154.05-48.507-63.884-85.29-136.258-110.351-217.124-25.061-80.867-37.592-163.349-37.592-247.45zm519-.08c0 61.463 17.791 112.816 53.375 154.06 35.584 41.245 87.34 61.867 155.273 61.867 66.315 0 119.285-21.026 158.912-63.08 39.627-42.053 59.44-93.001 59.44-152.846 0-56.61-19.813-105.941-59.44-147.994-39.627-42.054-92.597-63.08-158.912-63.08-67.932 0-119.69 21.026-155.273 63.08-35.584 42.053-53.375 91.384-53.375 147.994zm1020-.022c0-82.472 12.53-163.326 37.592-242.564 25.061-79.238 61.845-150.39 110.35-213.456 48.506-63.067 109.138-114.005 181.897-152.816C5084.6 640.405 5168.674 621 5264.07 621c67.908 0 134.603 12.937 200.086 38.81 65.483 25.874 119.243 67.11 161.282 123.708h7.276V654.959H6159v1144.903c0 139.07-22.636 254.691-67.908 346.866-45.272 92.175-105.5 165.348-180.684 219.52-75.184 54.174-160.473 92.175-255.868 114.006-95.395 21.83-192.405 32.746-291.034 32.746-121.265 0-242.528-15.767-363.793-47.3-121.265-31.533-227.168-78.024-317.713-139.474l244.954-371.123c61.44 46.896 126.115 81.258 194.023 103.09 67.908 21.83 132.582 32.745 194.023 32.745 40.422 0 78.822-5.255 115.201-15.766 36.38-10.511 68.312-25.874 95.799-46.087 27.487-20.214 49.314-45.279 65.483-75.195 16.168-29.917 24.253-64.28 24.253-103.09v-55.79h-7.276c-30.72 35.576-76.396 67.11-137.029 94.6-60.632 27.491-129.752 41.236-207.362 41.236-98.629 0-184.321-17.383-257.08-52.151-72.76-34.768-133.391-81.663-181.897-140.687-48.506-59.025-84.48-127.346-107.925-204.967-23.445-77.62-35.167-159.283-35.167-244.99zm520 .023c0 61.462 17.791 112.815 53.375 154.06 35.584 41.244 87.34 61.866 155.273 61.866 66.315 0 119.285-21.026 158.912-63.08 39.627-42.053 59.44-93.001 59.44-152.846 0-56.61-19.813-105.941-59.44-147.994-39.627-42.054-92.597-63.08-158.912-63.08-67.932 0-119.69 21.026-155.273 63.08-35.584 42.053-53.375 91.384-53.375 147.994zM7118 1123c0-45.209-16.589-82.344-49.767-111.406-33.179-29.063-78.09-43.594-134.736-43.594-61.501 0-109.245 16.953-143.233 50.86-33.987 33.906-53.409 68.619-58.264 104.14h386zm483 181.629c0 21.024-.404 42.451-1.213 64.284-.809 21.832-2.022 40.025-3.64 54.58h-858.915c1.617 22.64 9.3 42.856 23.05 60.645 13.749 17.79 30.733 33.152 50.952 46.09 20.22 12.938 42.865 22.64 67.937 29.11a304.714 304.714 0 0 0 76.429 9.703c51.762 0 95.03-9.3 129.808-27.897 34.777-18.598 61.062-39.217 78.855-61.858l397.916 201.341c-56.614 92.18-138.704 164.954-246.271 218.322-107.567 53.368-232.521 80.051-374.866 80.051-92.2 0-181.973-14.555-269.32-43.664-87.349-29.11-164.586-72.37-231.714-129.78-67.129-57.411-120.911-128.971-161.35-214.683C6238.219 1505.16 6218 1405.704 6218 1292.5c0-105.118 18.602-200.128 55.805-285.03 37.204-84.904 87.752-156.869 151.645-215.897 63.893-59.028 139.108-104.713 225.647-137.057C6737.637 622.172 6830.24 606 6928.911 606c100.288 0 191.678 17.385 274.173 52.155 82.495 34.77 153.262 83.285 212.303 145.547 59.04 62.263 104.736 136.249 137.087 221.96 32.35 85.712 48.526 178.7 48.526 278.967z" fill="#FFF" fill-rule="evenodd"/></svg>