<?xml version="1.0" encoding="UTF-8" standalone="no"?>
<svg width="1188px" height="308px" viewBox="0 0 1188 308" version="1.1" xmlns="http://www.w3.org/2000/svg" xmlns:xlink="http://www.w3.org/1999/xlink" xmlns:sketch="http://www.bohemiancoding.com/sketch/ns">
    <!-- Generator: Sketch 3.2.2 (9983) - http://www.bohemiancoding.com/sketch -->
    <title>Imported Layers</title>
    <desc>Created with Sketch.</desc>
    <defs></defs>
    <g id="Page-1" stroke="none" stroke-width="1" fill="none" fill-rule="evenodd" sketch:type="MSPage">
        <g id="Imported-Layers" sketch:type="MSLayerGroup">
            <path d="M374.998,27.195 L437.443,27.195 C446.121,27.195 454.506,28.081 462.6,29.86 C470.684,31.635 477.883,34.596 484.201,38.735 C490.511,42.879 495.543,48.307 499.291,55.016 C503.039,61.721 504.917,70.007 504.917,79.871 C504.917,91.317 501.707,101.133 495.298,109.317 C488.886,117.508 479.761,122.98 467.925,125.743 L467.925,126.332 C482.723,127.518 494.31,132.698 502.695,141.869 C511.081,151.041 515.275,163.325 515.275,178.716 C515.275,182.068 514.433,187.002 512.757,193.509 C511.081,200.021 507.582,206.485 502.253,212.893 C496.927,219.306 489.234,224.88 479.168,229.617 C469.107,234.349 455.688,236.717 438.922,236.717 L374.998,236.717 L374.998,27.195 L374.998,27.195 Z M396.308,118.935 L439.219,118.935 C444.346,118.935 449.426,118.295 454.459,117.01 C459.492,115.734 464.026,113.606 468.071,110.649 C472.115,107.688 475.42,103.893 477.986,99.255 C480.548,94.622 481.833,88.948 481.833,82.239 C481.833,80.073 481.39,77.013 480.5,73.067 C479.615,69.122 477.638,65.176 474.582,61.227 C471.522,57.285 467.039,53.881 461.121,51.019 C455.198,48.161 447.208,46.725 437.147,46.725 L396.308,46.725 L396.308,118.935 L396.308,118.935 Z M396.308,217.187 L437.147,217.187 C444.84,217.187 452.039,216.396 458.749,214.815 C465.453,213.241 471.277,210.826 476.211,207.568 C481.141,204.31 485.039,200.219 487.902,195.285 C490.76,190.359 492.191,184.436 492.191,177.53 C492.191,163.725 487.751,153.461 478.872,146.752 C469.996,140.047 456.973,136.69 439.812,136.69 L396.308,136.69 L396.308,217.187 L396.308,217.187 Z" id="Fill-1" fill="#FFFFFF" sketch:type="MSShapeGroup"></path>
            <path d="M549.481,141.427 C549.481,135.311 549.335,129.1 549.039,122.782 C548.742,116.468 548.493,108.281 548.299,98.219 L567.533,98.219 L567.533,123.968 L568.126,123.968 C569.505,120.216 571.478,116.619 574.044,113.163 C576.606,109.712 579.713,106.605 583.366,103.841 C587.015,101.082 591.253,98.864 596.093,97.183 C600.924,95.507 606.399,94.669 612.515,94.669 C618.038,94.669 622.873,95.262 627.017,96.444 L623.17,115.682 C620.604,114.693 616.852,114.199 611.922,114.199 C604.422,114.199 598.014,115.635 592.689,118.489 C587.359,121.351 582.924,125.004 579.374,129.44 C575.819,133.88 573.202,138.663 571.53,143.795 C569.849,148.927 569.011,153.856 569.011,158.589 L569.011,236.717 L549.481,236.717 L549.481,141.427" id="Fill-2" fill="#FFFFFF" sketch:type="MSShapeGroup"></path>
            <path d="M671.608,44.947 C671.608,49.09 670.13,52.494 667.169,55.159 C664.212,57.824 660.954,59.156 657.404,59.156 C653.854,59.156 650.596,57.824 647.639,55.159 C644.677,52.494 643.199,49.09 643.199,44.947 C643.199,40.808 644.677,37.404 647.639,34.739 C650.596,32.075 653.854,30.747 657.404,30.747 C660.954,30.747 664.212,32.075 667.169,34.739 C670.13,37.404 671.608,40.808 671.608,44.947 L671.608,44.947 Z M647.639,98.221 L667.169,98.221 L667.169,236.719 L647.639,236.719 L647.639,98.221 Z" id="Fill-3" fill="#FFFFFF" sketch:type="MSShapeGroup"></path>
            <path d="M77.38,150.755 L0.227,200.211 L0.227,254.018 L90.226,198.032 L192.888,198.032 L287.177,254.202 L288.191,253.841 L288.191,200.461 L205.683,150.755 L77.38,150.755 L77.38,150.755 Z M0.227,0.257 L0.227,54.063 L77.38,103.481 L205.683,103.481 L288.191,53.814 L288.191,0.433 L287.177,2.2 L192.888,60.502 L90.226,60.502 L0.227,0.257 L0.227,0.257 Z" id="Fill-9" fill="#FFFFFF" sketch:type="MSShapeGroup"></path>
            <path d="M77.38,150.755 L0.227,200.211 L0.227,254.018 L90.226,198.032 L192.888,198.032 L287.177,254.202 L288.191,253.841 L288.191,200.461 L205.683,150.755 L77.38,150.755 L77.38,150.755 Z M0.227,0.257 L0.227,54.063 L77.38,103.481 L205.683,103.481 L288.191,53.814 L288.191,0.433 L287.177,2.2 L192.888,60.502 L90.226,60.502 L0.227,0.257 L0.227,0.257 Z" id="Stroke-10" sketch:type="MSShapeGroup"></path>
            <g id="Group-8" transform="translate(698.000000, 12.000000)" fill="#FFFFFF" sketch:type="MSShapeGroup">
                <path d="M147.855,224.715 L128.321,224.715 L128.321,201.631 L127.732,201.631 C124.573,206.372 120.821,210.416 116.484,213.764 C112.143,217.125 107.609,219.884 102.872,222.05 C98.136,224.225 93.254,225.798 88.221,226.791 C83.192,227.771 78.408,228.265 73.87,228.265 C63.017,228.265 53.102,226.443 44.128,222.794 C35.149,219.141 27.409,214.065 20.897,207.553 C14.386,201.042 9.306,193.344 5.657,184.469 C2.003,175.594 0.181,165.928 0.181,155.466 C0.181,145.009 2.003,135.343 5.657,126.468 C9.306,117.588 14.386,109.891 20.897,103.384 C27.409,96.872 35.149,91.796 44.128,88.143 C53.102,84.494 63.017,82.672 73.87,82.672 C78.408,82.672 83.192,83.162 88.221,84.146 C93.254,85.139 98.136,86.716 102.872,88.882 C107.609,91.057 112.143,93.816 116.484,97.169 C120.821,100.525 124.573,104.565 127.732,109.302 L128.321,109.302 L128.321,0.993 L147.855,0.993 L147.855,224.715 L147.855,224.715 Z M21.49,155.466 C21.49,163.164 22.72,170.367 25.187,177.068 C27.654,183.781 31.157,189.601 35.695,194.531 C40.23,199.465 45.705,203.363 52.118,206.221 C58.526,209.084 65.777,210.515 73.87,210.515 C81.757,210.515 89.11,209.084 95.918,206.221 C102.722,203.363 108.593,199.465 113.527,194.531 C118.457,189.601 122.304,183.781 125.067,177.068 C127.826,170.367 129.21,163.164 129.21,155.466 C129.21,147.773 127.826,140.574 125.067,133.865 C122.304,127.16 118.457,121.341 113.527,116.402 C108.593,111.477 102.722,107.574 95.918,104.712 C89.11,101.858 81.757,100.422 73.87,100.422 C65.777,100.422 58.526,101.858 52.118,104.712 C45.705,107.574 40.23,111.477 35.695,116.402 C31.157,121.341 27.654,127.16 25.187,133.865 C22.72,140.574 21.49,147.773 21.49,155.466 L21.49,155.466 Z" id="Fill-4"></path>
                <path d="M196.268,252.536 C201.985,260.229 209.437,266.392 218.609,271.03 C227.785,275.663 237.993,277.984 249.241,277.984 C259.1,277.984 267.486,276.553 274.392,273.694 C281.299,270.832 286.869,266.934 291.116,262.004 C295.354,257.07 298.409,251.302 300.288,244.692 C302.162,238.082 303.099,231.029 303.099,223.533 L303.099,198.673 L302.51,198.673 C296.192,208.146 288.498,214.851 279.425,218.797 C270.348,222.746 260.781,224.715 250.719,224.715 C240.658,224.715 231.232,222.94 222.456,219.39 C213.675,215.84 206.033,210.953 199.522,204.742 C193.01,198.527 187.879,191.079 184.135,182.397 C180.383,173.719 178.509,164.346 178.509,154.284 C178.509,144.222 180.288,134.853 183.838,126.171 C187.389,117.489 192.271,109.895 198.486,103.383 C204.701,96.872 212.098,91.796 220.681,88.143 C229.264,84.494 238.681,82.671 248.944,82.671 C253.087,82.671 257.476,83.062 262.113,83.853 C266.746,84.644 271.384,86.024 276.021,87.996 C280.655,89.969 285.24,92.685 289.783,96.132 C294.318,99.588 298.56,103.976 302.51,109.301 L303.099,109.301 L303.099,86.221 L322.633,86.221 L322.633,223.533 C322.633,231.029 321.692,239.018 319.818,247.503 C317.939,255.987 314.295,263.779 308.871,270.884 C303.442,277.984 295.895,283.902 286.229,288.639 C276.563,293.375 263.931,295.743 248.351,295.743 C234.542,295.743 222.206,293.47 211.358,288.935 C200.506,284.392 190.642,277.391 181.767,267.922 L196.268,252.536 L196.268,252.536 Z M199.818,153.691 C199.818,160.993 201.151,167.853 203.811,174.261 C206.476,180.674 210.125,186.295 214.762,191.126 C219.396,195.966 224.824,199.808 231.039,202.671 C237.254,205.533 244.01,206.964 251.308,206.964 C258.413,206.964 265.169,205.679 271.582,203.113 C277.99,200.552 283.663,196.946 288.597,192.308 C293.527,187.679 297.326,182.1 299.991,175.593 C302.656,169.082 303.885,161.784 303.692,153.691 C303.692,146.397 302.51,139.538 300.142,133.125 C297.773,126.717 294.318,121.091 289.783,116.256 C285.24,111.425 279.722,107.578 273.21,104.711 C266.699,101.857 259.397,100.422 251.308,100.422 C244.01,100.422 237.254,101.857 231.039,104.711 C224.824,107.578 219.396,111.425 214.762,116.256 C210.125,121.091 206.476,126.717 203.811,133.125 C201.151,139.538 199.818,146.397 199.818,153.691 L199.818,153.691 Z" id="Fill-6"></path>
                <path d="M374.356,160.794 C374.949,167.701 376.621,174.216 379.389,180.328 C382.149,186.444 385.798,191.718 390.336,196.157 C394.875,200.597 400.105,204.104 406.024,206.666 C411.942,209.228 418.35,210.513 425.257,210.513 C435.714,210.513 444.74,208.101 452.339,203.262 C459.929,198.431 465.701,192.857 469.647,186.543 L484.741,198.973 C476.455,209.43 467.326,216.925 457.367,221.46 C447.405,225.998 436.698,228.268 425.257,228.268 C414.998,228.268 405.478,226.441 396.701,222.796 C387.921,219.143 380.373,214.063 374.064,207.556 C367.746,201.04 362.765,193.347 359.116,184.471 C355.462,175.592 353.644,165.926 353.644,155.469 C353.644,145.012 355.419,135.346 358.97,126.466 C362.52,117.586 367.449,109.893 373.767,103.381 C380.077,96.874 387.478,91.794 395.962,88.141 C404.442,84.496 413.614,82.669 423.482,82.669 C433.939,82.669 443.309,84.548 451.595,88.291 C459.882,92.043 466.84,97.02 472.462,103.235 C478.084,109.446 482.373,116.752 485.334,125.133 C488.291,133.523 489.774,142.446 489.774,151.914 L489.774,160.794 L374.356,160.794 L374.356,160.794 Z M468.465,144.814 C468.465,131.598 464.519,120.896 456.628,112.704 C448.737,104.52 437.687,100.424 423.482,100.424 C417.164,100.424 411.052,101.658 405.134,104.121 C399.216,106.592 394.037,109.893 389.597,114.036 C385.161,118.179 381.611,122.916 378.942,128.245 C376.282,133.57 374.949,139.093 374.949,144.814 L468.465,144.814 L468.465,144.814 Z" id="Fill-7"></path>
            </g>
        </g>
    </g>
</svg>