<?xml version="1.0" encoding="UTF-8" standalone="no"?>
<svg width="7259px" height="1882px" viewBox="0 0 7259 1882" version="1.1" xmlns="http://www.w3.org/2000/svg" xmlns:xlink="http://www.w3.org/1999/xlink">
    <!-- Generator: Sketch 39.1 (31720) - http://www.bohemiancoding.com/sketch -->
    <title>Check white</title>
    <desc>Created with Sketch.</desc>
    <defs></defs>
    <g id="Page-1" stroke="none" stroke-width="1" fill="none" fill-rule="evenodd">
        <g id="Group-2-Copy" transform="translate(-37266.000000, 0.000000)" fill="#FFFFFF">
            <g id="Group">
                <path d="M37266,975 C37266,837.57507 37290.2596,713.086119 37338.7795,601.529412 C37387.2993,489.972704 37453.6088,394.585066 37537.71,315.363636 C37621.8111,236.142206 37720.871,175.110286 37834.8927,132.266043 C37948.9145,89.4218 38070.6167,68 38200.003,68 C38332.624,68 38457.9652,89.4218 38576.0302,132.266043 C38694.0953,175.110286 38792.7509,232.908727 38872,305.663102 L38517.8066,732.486631 C38485.4601,690.45077 38445.0274,658.520163 38396.5076,636.69385 C38347.9877,614.867538 38293.808,603.954545 38233.9668,603.954545 C38185.4469,603.954545 38140.1623,612.442428 38098.1118,629.418449 C38056.0612,646.39447 38019.2675,671.049749 37987.7296,703.385027 C37956.1917,735.720304 37931.5278,774.92624 37913.7372,821.004011 C37895.9465,867.081781 37887.0514,918.413264 37887.0514,975 C37887.0514,1031.58674 37896.3509,1082.10985 37914.9502,1126.57086 C37933.5494,1171.03186 37958.6177,1209.42943 37990.1556,1241.76471 C38021.6935,1274.09998 38058.4872,1298.75526 38100.5378,1315.73128 C38142.5883,1332.7073 38187.0642,1341.19519 38233.9668,1341.19519 C38300.2773,1341.19519 38357.2873,1327.4529 38404.9985,1299.96791 C38452.7097,1272.48293 38490.312,1240.14814 38517.8066,1202.96257 L38872,1627.36096 C38794.3682,1704.96563 38698.9472,1766.80592 38585.7341,1812.88369 C38472.5211,1858.96146 38343.9453,1882 38200.003,1882 C38070.6167,1882 37948.9145,1860.17402 37834.8927,1816.52139 C37720.871,1772.86877 37621.8111,1711.02848 37537.71,1630.99866 C37453.6088,1550.96885 37387.2993,1455.58121 37338.7795,1344.83289 C37290.2596,1234.08456 37266,1110.80817 37266,975 L37266,975 Z M39830.1416,524 C39919.0506,524 39993.0056,540.172678 40052.0088,572.518519 C40111.0121,604.864359 40157.8907,646.509005 40192.646,697.453704 C40227.4014,748.398403 40251.6489,805.407092 40265.3894,868.481481 C40279.1299,931.555871 40286,994.629314 40286,1057.7037 L40286,1834 L39723.4513,1834 L39723.4513,1154.74074 C39723.4513,1090.04906 39713.3482,1044.76556 39693.1416,1018.88889 C39672.935,993.012216 39642.6256,980.074074 39602.2124,980.074074 C39569.8818,980.074074 39540.7848,994.225167 39514.9204,1022.52778 C39489.0559,1050.83039 39476.1239,1095.70957 39476.1239,1157.16667 L39476.1239,1834 L38916,1834 L38916,0 L39476.1239,0 L39476.1239,698.666667 L39480.9735,698.666667 C39513.304,651.765198 39559.3743,610.929186 39619.1858,576.157407 C39678.9973,541.385629 39749.3152,524 39830.1416,524 L39830.1416,524 Z M41234,1026 C41234,980.791441 41217.4111,943.656395 41184.2327,914.59375 C41151.0543,885.531105 41106.1428,871 41049.4969,871 C40987.9955,871 40940.2517,887.952955 40906.2642,921.859375 C40872.2766,955.765795 40852.8554,990.478989 40848,1026 L41234,1026 Z M41717,1207.62898 C41717,1228.65264 41716.5956,1250.08028 41715.7868,1271.91254 C41714.9781,1293.74481 41713.7649,1311.93809 41712.1474,1326.49293 L40853.2316,1326.49293 C40854.8491,1349.1338 40862.5324,1369.34856 40876.2816,1387.13781 C40890.0308,1404.92706 40907.0148,1420.29028 40927.2342,1433.22792 C40947.4536,1446.16555 40970.099,1455.86864 40995.1711,1462.33746 C41020.2431,1468.80627 41045.7192,1472.04064 41071.6,1472.04064 C41123.3617,1472.04064 41166.6305,1462.74185 41201.4079,1444.14399 C41236.1853,1425.54614 41262.4701,1404.92709 41280.2632,1382.28622 L41678.1789,1583.62721 C41621.5646,1675.80788 41539.4751,1748.58101 41431.9079,1801.94876 C41324.3407,1855.31652 41199.3867,1882 41057.0421,1882 C40964.8416,1882 40875.0689,1867.44538 40787.7211,1838.33569 C40700.3732,1809.226 40623.1363,1765.96642 40556.0079,1708.55565 C40488.8795,1651.14488 40435.0967,1579.58465 40394.6579,1493.87279 C40354.2191,1408.16094 40334,1308.70434 40334,1195.5 C40334,1090.38169 40352.6016,995.372333 40389.8053,910.469081 C40427.009,825.56583 40477.5567,753.601296 40541.45,694.573322 C40605.3433,635.545347 40680.5583,589.859997 40767.0974,557.515901 C40853.6364,525.171805 40946.2399,509 41044.9105,509 C41145.1987,509 41236.5891,526.384691 41319.0842,561.154594 C41401.5794,595.924497 41472.3462,644.439912 41531.3868,706.702297 C41590.4275,768.964681 41636.1226,842.95069 41668.4737,928.662544 C41700.8247,1014.3744 41717,1107.36228 41717,1207.62898 L41717,1207.62898 Z M42505.6123,1882 C42397.2751,1882 42297.8328,1865.82819 42207.2823,1833.4841 C42116.7318,1801.14 42038.3098,1755.05036 41972.0139,1695.21378 C41905.718,1635.3772 41853.9757,1563.41267 41816.7853,1479.31802 C41779.5949,1395.22337 41761,1300.61831 41761,1195.5 C41761,1091.99889 41779.9991,997.798128 41817.998,912.894876 C41855.9969,827.991625 41908.9519,755.622796 41976.8648,695.786219 C42044.7777,635.949642 42124.4124,589.859997 42215.7714,557.515901 C42307.1303,525.171805 42406.1685,509 42512.8887,509 C42556.5469,509 42600.6088,512.638656 42645.0755,519.916078 C42689.5423,527.193499 42732.3914,537.300878 42773.6243,550.238516 C42814.8571,563.176154 42852.8554,577.730779 42887.6203,593.902827 C42922.3852,610.074875 42951.8945,627.863861 42976.1491,647.270318 L42697.2227,1049.9523 C42677.819,1027.31143 42652.352,1009.92674 42620.8211,997.797703 C42589.2901,985.668667 42558.9723,979.60424 42529.8668,979.60424 C42502.3783,979.60424 42475.6986,984.051487 42449.827,992.946113 C42423.9555,1001.84074 42400.914,1015.58677 42380.7018,1034.18463 C42360.4896,1052.78248 42343.9159,1075.42301 42330.9801,1102.10689 C42318.0443,1128.79077 42311.5765,1159.92149 42311.5765,1195.5 C42311.5765,1231.07851 42318.0443,1262.20923 42330.9801,1288.89311 C42343.9159,1315.57699 42360.4896,1337.40893 42380.7018,1354.38958 C42400.914,1371.37023 42423.9555,1384.30767 42449.827,1393.2023 C42475.6986,1402.09692 42502.3783,1406.54417 42529.8668,1406.54417 C42562.2063,1406.54417 42593.7368,1400.47974 42624.4592,1388.35071 C42655.1817,1376.22167 42680.2444,1359.64557 42699.6481,1338.62191 L42981,1731.60071 C42927.6399,1773.64803 42858.5153,1809.226 42773.6243,1838.33569 C42688.7332,1867.44538 42599.3968,1882 42505.6123,1882 L42505.6123,1882 Z M43564.3684,1278.46296 L43564.3684,1834 L43004,1834 L43004,0 L43564.3684,0 L43564.3684,1045.57407 L43571.6459,1045.57407 L43874.8756,557.962963 L44525,557.962963 L44112.6077,1132.90741 L44522.5742,1834 L43870.0239,1834 L43571.6459,1278.46296 L43564.3684,1278.46296 Z" id="Check-white"></path>
            </g>
        </g>
    </g>
</svg>