<svg width="7259" height="1882" viewBox="0 0 7259 1882" xmlns="http://www.w3.org/2000/svg"><title>Check white</title><path d="M0 975c0-137.425 24.26-261.914 72.78-373.47 48.52-111.557 114.829-206.945 198.93-286.166 84.101-79.222 183.161-140.254 297.183-183.098C682.914 89.422 804.617 68 934.003 68c132.621 0 257.962 21.422 376.027 64.266 118.065 42.844 216.72 100.643 295.97 173.397l-354.193 426.824c-32.347-42.036-72.78-73.967-121.3-95.793-48.52-21.826-102.699-32.74-162.54-32.74-48.52 0-93.805 8.488-135.855 25.464-42.05 16.976-78.844 41.632-110.382 73.967-31.538 32.335-56.202 71.541-73.993 117.619-17.79 46.078-26.686 97.41-26.686 153.996 0 56.587 9.3 107.11 27.9 151.57 18.598 44.462 43.667 82.86 75.205 115.195 31.538 32.335 68.331 56.99 110.382 73.966 42.05 16.976 86.526 25.464 133.429 25.464 66.31 0 123.32-13.742 171.032-41.227 47.71-27.485 85.313-59.82 112.808-97.005L1606 1627.36c-77.632 77.605-173.053 139.445-286.266 185.523C1206.521 1858.96 1077.945 1882 934.003 1882c-129.386 0-251.089-21.826-365.11-65.479C454.87 1772.87 355.81 1711.028 271.71 1631c-84.101-80.03-150.41-175.418-198.93-286.166C24.26 1234.085 0 1110.808 0 975zm2564.142-451c88.909 0 162.864 16.173 221.867 48.519 59.003 32.345 105.882 73.99 140.637 124.935 34.755 50.944 59.003 107.953 72.743 171.027C3013.13 931.556 3020 994.63 3020 1057.704V1834h-562.549v-679.26c0-64.69-10.103-109.974-30.31-135.851-20.206-25.877-50.515-38.815-90.929-38.815-32.33 0-61.427 14.151-87.292 42.454-25.864 28.302-38.796 73.182-38.796 134.639V1834H1650V0h560.124v698.667h4.85c32.33-46.902 78.4-87.738 138.212-122.51 59.811-34.771 130.13-52.157 210.956-52.157zM3968 1026c0-45.209-16.589-82.344-49.767-111.406-33.179-29.063-78.09-43.594-134.736-43.594-61.502 0-109.245 16.953-143.233 50.86-33.987 33.906-53.409 68.619-58.264 104.14h386zm483 181.629c0 21.024-.404 42.451-1.213 64.284-.809 21.832-2.022 40.025-3.64 54.58h-858.915c1.617 22.64 9.3 42.856 23.05 60.645 13.749 17.79 30.733 33.152 50.952 46.09 20.22 12.938 42.865 22.64 67.937 29.11a304.714 304.714 0 0 0 76.429 9.703c51.762 0 95.03-9.3 129.808-27.897 34.777-18.598 61.062-39.217 78.855-61.858l397.916 201.341c-56.614 92.18-138.704 164.954-246.271 218.322-107.567 53.368-232.521 80.051-374.866 80.051-92.2 0-181.973-14.555-269.32-43.664-87.349-29.11-164.586-72.37-231.714-129.78-67.128-57.411-120.911-128.971-161.35-214.683C3088.219 1408.16 3068 1308.704 3068 1195.5c0-105.118 18.602-200.128 55.805-285.03 37.204-84.904 87.752-156.869 151.645-215.897 63.893-59.028 139.108-104.713 225.647-137.057C3587.637 525.172 3680.24 509 3778.91 509c100.289 0 191.68 17.385 274.174 52.155 82.495 34.77 153.262 83.285 212.303 145.547 59.04 62.263 104.736 136.249 137.087 221.96 32.35 85.712 48.526 178.7 48.526 278.967zM5239.612 1882c-108.337 0-207.78-16.172-298.33-48.516-90.55-32.344-168.972-78.434-235.268-138.27-66.296-59.837-118.038-131.801-155.229-215.896-37.19-84.095-55.785-178.7-55.785-283.818 0-103.501 19-197.702 56.998-282.605 37.999-84.903 90.954-157.272 158.867-217.109 67.913-59.836 147.547-105.926 238.906-138.27C5041.131 525.172 5140.17 509 5246.89 509c43.658 0 87.72 3.639 132.186 10.916 44.467 7.277 87.316 17.385 128.55 30.323 41.232 12.937 79.23 27.492 113.995 43.664s64.275 33.96 88.53 53.367l-278.927 402.682c-19.404-22.64-44.871-40.025-76.402-52.154-31.53-12.13-61.849-18.194-90.954-18.194-27.489 0-54.168 4.447-80.04 13.342-25.872 8.895-48.913 22.64-69.125 41.239-20.212 18.597-36.786 41.238-49.722 67.922-12.936 26.684-19.403 57.814-19.403 93.393s6.467 66.71 19.403 93.393c12.936 26.684 29.51 48.516 49.722 65.497 20.212 16.98 43.253 29.918 69.125 38.812 25.872 8.895 52.551 13.342 80.04 13.342 32.34 0 63.87-6.064 94.592-18.193 30.723-12.13 55.785-28.705 75.19-49.73L5715 1731.602c-53.36 42.047-122.485 77.625-207.376 106.735-84.89 29.11-174.227 43.664-268.012 43.664zm1058.756-603.537V1834H5738V0h560.368v1045.574h7.278l303.23-487.611H7259l-412.392 574.944L7256.574 1834h-652.55l-298.378-555.537h-7.278z" fill="#FFF" fill-rule="evenodd"/></svg>