<svg width="220" height="69" viewBox="0 0 220 69" xmlns="http://www.w3.org/2000/svg"><title>Page-1</title><path d="M39.88 67.627c1.16-.403 2.72-1.418 3.635-2.363l.738-.76-.708-1.694-.828.794c-1.606 1.54-3.758 2.228-5.497 1.758-2.805-.758-4.33-4.225-4.33-9.837 0-5.627 1.563-8.27 4.903-8.288 2.006-.01 2.898.9 3.537 3.616.246 1.047.334 1.17.752 1.058.26-.07.7-.12.974-.13.49 0 .5-.05.5-2.65v-2.65l-1.612-.37c-2.477-.58-5.337-.673-7.05-.234-4.676 1.2-7.326 5.188-7.335 11.04-.01 4.904 1.86 8.57 5.23 10.225 2.17 1.07 4.88 1.26 7.09.493zm22.558.005c1.678-.468 2.765-1.058 3.952-2.147 2.794-2.562 4.047-6.657 3.32-10.857-.972-5.624-5-9.072-10.6-9.072-6.417 0-10.452 4.372-10.44 11.313.01 5.23 2.306 8.98 6.474 10.56 2.16.82 4.82.89 7.294.2zm-4.77-1.725c-2.335-1.4-3.526-4.923-3.54-10.462-.01-3.595.376-5.32 1.49-6.672 2.193-2.66 5.95-1.53 7.646 2.3.877 1.983 1.23 3.925 1.24 6.816.012 4.25-.948 6.97-2.845 8.05-1.22.68-2.82.67-4-.04zM117 67.74c2.357-.506 4.972-2.404 6.2-4.5 1.327-2.264 1.923-5.672 1.476-8.43-.882-5.43-4.566-8.89-9.787-9.193-3.6-.21-6.36.753-8.428 2.935-1.93 2.04-2.904 4.875-2.905 8.448-.003 7.794 5.752 12.394 13.437 10.74zm-4.286-1.754c-2.382-1.21-3.68-4.954-3.69-10.652-.01-4.09.64-6.135 2.356-7.405.903-.67 2.76-.76 3.88-.19 2.63 1.34 4.102 4.91 4.14 10.032.03 4.096-.83 6.803-2.553 8.03-1.028.732-2.885.812-4.133.178zm84.835 1.506c1.6-.592 3.34-2.314 3.85-3.81.42-1.237.49-3.342.14-4.278-.626-1.664-2.14-3.08-6.488-6.056-.946-.648-1.92-1.503-2.166-1.9-.535-.864-.58-2.268-.1-2.955.71-1.016 2.453-1.542 3.86-1.164 1.03.27 1.465.82 2.02 2.52.255.79.49 1.14.74 1.13l1.144-.06.778-.037V48.9c0-1.4-.09-2.074-.31-2.293-.17-.17-1.27-.49-2.444-.71-6.29-1.185-9.92 1.083-9.91 6.195.002 2.843.99 4.213 5.035 6.98 3.413 2.336 4.556 3.983 3.814 5.497-.55 1.12-1.383 1.54-3.087 1.54-1.35 0-1.603-.07-2.1-.57-.31-.316-.808-1.166-1.1-1.89-.57-1.4-.996-1.65-2.258-1.336-.51.13-.53.208-.53 2.213 0 1.4.09 2.15.28 2.294.15.12.926.395 1.72.613 3.083.846 4.912.86 7.105.05zm21.02-.194c1.21-.478 1.32-.58 1.385-1.272.062-.648.016-.73-.33-.598-.22.085-1.005.205-1.74.267-1.71.144-2.71-.33-3.336-1.583-.41-.824-.45-1.416-.516-8.056l-.074-7.167h4.868l.13-.64c.07-.36.192-.91.273-1.23l.15-.58H214v-5.78h-2.183l-.146.867c-.22 1.31-1.3 3.414-2.09 4.08-.71.6-1.94 1.05-2.852 1.053-.452 0-.5.11-.5 1.113v1.11h2.625l.095 7.168c.103 7.747.21 8.527 1.366 10.045.313.408 1.096 1.012 1.74 1.34 1.087.554 1.325.59 3.194.488 1.384-.075 2.434-.274 3.333-.63zm-198.114.344l.795-.132.39-3.032c.215-1.668.445-3.308.51-3.644.12-.596.096-.61-.906-.61-.98 0-1.03.028-1.03.626 0 1.113-.675 2.668-1.457 3.354-1.035.908-2.007 1.127-5.018 1.13-3.897 0-3.62.505-3.706-6.787l-.07-5.94 2.96.104c4.03.14 4.544.45 4.95 2.908.127.76.2.833.85.833h.713l.05-9.78h-.72c-.71 0-.727.02-.967 1.38-.135.776-.423 1.56-.655 1.795-.746.746-3.163 1.022-5.98.683L10 50.383V39.11l2.722.02c1.497.008 3.12.136 3.606.282 1.106.333 1.8 1.31 2.007 2.825l.155 1.12 1.62-.134v-6.445H.224v.56c0 .51.122.584 1.344.816 2.77.527 2.655-.08 2.655 14.07 0 12.87-.01 12.987-1.26 13.622-.346.175-1.104.388-1.684.473-.93.13-1.06.212-1.06.69v.54l6.943.06c3.82.03 8.194.08 9.722.11 1.526.025 3.133-.01 3.57-.08zm65.535-.364c-.005-.475-.3-.733-1.22-1.075-1.336-.497-1.416-.925-1.43-7.732-.014-6.51.07-7.08 1.287-8.5.93-1.08 1.87-1.52 3.26-1.52 3.105 0 3.805 2.216 3.61 11.41-.124 5.72-.22 6.063-1.8 6.463-.644.163-.81.314-.81.723v.517h11.14l-.07-.497c-.06-.392-.27-.527-1.046-.66-1.35-.228-1.98-.7-2.15-1.603-.077-.42-.16-3.694-.185-7.28-.038-5.414-.108-6.705-.417-7.63-.53-1.59-1.518-2.816-2.875-3.567-1.074-.594-1.37-.653-3.29-.653-2.608 0-3.65.42-5.564 2.245l-1.32 1.263v-1.09c-.004-.6-.064-1.45-.137-1.89l-.133-.8-1.41.295c-1.102.232-5.5.75-6.37.75-.09 0-.166.25-.166.556 0 .47.103.557.674.557 1.268 0 2.16.547 2.42 1.482.34 1.226.297 15.054-.05 16.067-.308.894-1.03 1.33-2.21 1.336-.74.003-.834.065-.834.558v.557h5.553c4.3 0 5.555-.063 5.553-.278zm54.853-.205c-.052-.344-.342-.572-1.02-.797-.52-.173-1.07-.53-1.22-.795-.197-.34-.297-2.28-.348-6.73-.07-6.026-.053-6.3.415-7.387.907-2.107 2.59-3.13 4.69-2.847 1.19.16 1.898.87 2.36 2.37.326 1.046.384 2.21.384 7.677 0 4.715-.075 6.57-.276 6.923-.153.265-.7.623-1.223.796-.677.224-.968.45-1.018.796l-.07.483h10.25v-.547c0-.444-.14-.57-.763-.687-1.566-.294-1.562-.274-1.635-7.6l-.068-6.567.587-1.2c.746-1.528 1.89-2.33 3.52-2.464 1.604-.133 2.474.342 3.1 1.69.46.996.48 1.332.48 8.072 0 6.58-.03 7.06-.42 7.494-.23.256-.757.528-1.168.605-.6.113-.746.245-.746.67v.532h11.05l-.102-.53c-.08-.424-.276-.553-.978-.647-1.228-.162-1.91-.68-2.18-1.653-.136-.49-.233-3.46-.234-7.185 0-6.93-.1-7.67-1.287-9.54-.426-.67-1.035-1.22-1.84-1.664-1.09-.602-1.4-.667-3.208-.667-1.747 0-2.164.08-3.282.63-.704.345-1.865 1.195-2.58 1.888l-1.298 1.26-.79-1.255c-.536-.858-1.13-1.46-1.863-1.89-.98-.577-1.27-.634-3.19-.634-2.55 0-3.564.415-5.574 2.276L138 49.16l-.003-1.413c-.002-.777-.06-1.624-.13-1.882-.12-.456-.165-.46-1.542-.172-1.112.233-5.507.75-6.38.752-.092 0-.167.25-.167.555 0 .463.106.556.633.556 1.19 0 2.07.458 2.398 1.245.46 1.11.45 15.33-.014 16.43-.353.85-1.035 1.22-2.247 1.22-.665 0-.762.07-.762.556v.557h11.143l-.07-.483zm42.618.13c-.073-.192-.134-.43-.134-.525 0-.096-.46-.227-1.023-.29-1.566-.178-1.9-.65-2.105-2.984-.094-1.078-.178-5.57-.187-9.983L180 45.4l-1.61.28c-.887.154-2.76.394-4.16.534-1.402.14-2.586.292-2.632.338-.26.26.27 1.006.717 1.006.928 0 1.917.485 2.233 1.096.414.8.662 9.208.398 13.522-.222 3.644-.393 3.99-2.08 4.21-.966.126-1.3.355-1.307.894-.01.216 1.34.278 6.02.278 5.4 0 6.01-.036 5.882-.352zm-4.78-26.213c2.225-1.15 1.96-4.6-.417-5.427-3.262-1.137-5.385 3.53-2.426 5.335a2.91 2.91 0 0 0 2.843.092zm-39.24-11.475c1.17-.286 2.63-1.146 3.835-2.257 1.27-1.17 1.455-1.535 1.133-2.243l-.26-.566-1.08 1.002c-2.63 2.463-5.942 2.795-8.037.808-1.27-1.205-2.35-4.253-2.36-6.654l-.004-.944h12.267l-.16-1.606c-.203-2.014-.573-3.082-1.58-4.553-1.51-2.203-3.64-3.097-6.932-2.906-4.13.24-7.184 3.1-8.144 7.63-.418 1.97-.418 3.84 0 5.612.443 1.88 1.053 3.01 2.386 4.42 2.204 2.33 5.38 3.13 8.946 2.253zm-6.886-13.424c.36-2.14.825-3.3 1.658-4.13.77-.77.948-.842 2.06-.842.888 0 1.418.134 1.97.5.855.566 1.868 2.44 2.087 3.857l.14.913-.85.145c-.467.08-2.28.21-4.03.29l-3.185.144.145-.87zm-35.89 12.75c0-.557-.074-.61-.834-.614-1.146-.004-1.872-.42-2.33-1.333-.355-.708-.39-1.76-.39-12.07V3.52l2.5.157c1.375.087 2.867.303 3.316.48.967.382 1.517 1.366 1.517 2.71 0 .893.016.91.778.91h.78v-6.19L90.34 1.585l-11.666-.002-.002 1.6c0 .88-.066 2.28-.145 3.114L78.38 7.81l.867-.073c.864-.07.868-.074.987-1.182.067-.61.24-1.324.384-1.584.416-.75 1.74-1.122 4.554-1.3l2.61-.16v11.48c0 12.87.034 12.58-1.5 13a10.82 10.82 0 0 1-1.388.29c-.41.043-.574.207-.622.614l-.065.555H96.67v-.61zm16 .106c0-.385-.16-.537-.674-.64-.37-.074-.87-.385-1.11-.69-.41-.52-.44-.924-.44-6.31 0-4.694.067-5.91.347-6.58.694-1.66 1.98-2.548 3.695-2.548 2.073 0 2.73.916 3.1 4.32.29 2.655.148 9.995-.21 10.89-.174.433-.49.666-1.14.84-.705.19-.9.348-.9.734v.49h10v-.5c0-.326-.132-.5-.387-.5-.213 0-.747-.1-1.186-.222-1.327-.366-1.38-.666-1.52-7.997-.127-6.29-.15-6.6-.65-7.61-.624-1.266-1.937-2.446-3.116-2.8-.474-.14-1.5-.257-2.28-.257-1.67 0-3.564.8-4.918 2.08l-.835.786V.66l-.5.108c-1.423.312-3.17.547-5.113.69-1.35.1-2.163.252-2.16.406.006.493.346.737 1.22.873 1.077.17 1.595.75 1.776 1.995.075.514.105 5.74.068 11.612-.077 12.165-.007 11.703-1.813 11.973-.9.136-1.417.57-1.163.98.05.082 2.3.148 5 .148h4.91v-.506z" fill-rule="evenodd"/></svg>