<svg width="267" height="267" viewBox="0 0 267 267" xmlns="http://www.w3.org/2000/svg"><title>Imported Layers</title><path d="M252.164 0H14.73C6.594 0 0 6.593 0 14.73v237.434c0 8.135 6.594 14.73 14.73 14.73h127.826V163.54h-34.78v-40.28h34.78V93.553c0-34.473 21.055-53.244 51.807-53.244 14.73 0 27.39 1.096 31.08 1.586v36.026l-21.328.01c-16.725 0-19.963 7.947-19.963 19.61v25.716h39.887l-5.196 40.28H184.15v103.354h68.013c8.135 0 14.73-6.595 14.73-14.73V14.73c0-8.137-6.595-14.73-14.73-14.73" fill="#FFF" fill-rule="evenodd"/></svg>