<svg xmlns="http://www.w3.org/2000/svg" width="497" height="266" viewBox="0 0 497 266"><title>firstdraft</title><g fill="none" fill-rule="evenodd"><path d="M104.71 45.174V7.784H18.037L6.764 18.824V135.26h42.084V89.59h54.61V51.95H48.85v-6.776h55.863z" fill="#CCC"/><path d="M98.7 39.402V2.764H23.797L1.002 24.847V129.49h41.834V83.82h54.36V46.427h-54.36V39.4H98.7z" fill="#FFF"/><path d="M93.69 34.885V2.515H23.045L1.002 24.595v100.378h37.075v-45.67h54.36v-32.37h-54.36v-12.05H93.69z" fill="#000"/><path d="M112.978 132.753V10.293h37.075v122.46h-37.075zm114.982 0l-16.784-38.645H197.9v38.645h-37.076V11.045h65.132c28.557 0 43.838 18.57 43.838 41.406 0 21.08-12.275 32.375-22.045 37.14l22.042 43.416H227.96v-.25zm4.258-80.553c0-6.525-5.76-9.536-12.024-9.536h-22.546v19.323h22.546c6.263-.25 12.024-3.012 12.024-9.787zm43.338 63.238l19.288-27.604c9.27 8.783 22.796 15.81 39.33 15.81 7.014 0 13.527-1.757 13.527-6.525 0-11.797-68.134.25-68.134-48.184 0-20.83 17.284-40.653 50.602-40.653 20.04 0 37.826 5.772 51.854 17.064l-19.79 26.348c-10.52-8.03-24.3-12.045-35.82-12.045-7.266 0-9.27 2.26-9.27 5.52 0 11.545 67.887 1.758 67.887 47.18 0 26.85-20.04 42.66-52.857 42.66-25.8-.25-43.587-7.78-56.613-19.573zm150.304 17.315v-90.09h-32.82v-32.37H495.5v32.37h-32.567v90.09H425.86z" stroke="#CCC" stroke-width="2.076" fill="#CCC"/><path d="M107.467 126.98V5.526h36.323V126.98h-36.323zm114.23 0l-16.784-38.644h-13.277v38.645h-36.323V5.528h64.63c28.558 0 43.84 18.067 43.84 41.154 0 21.08-12.276 32.37-22.046 37.14l22.045 43.413h-42.085v-.25zm4.51-80.552c0-6.524-5.763-9.536-12.025-9.536h-22.546v19.323h22.546c6.262 0 12.024-3.01 12.024-9.787zm43.336 63.238l19.29-27.604c9.268 8.783 22.795 15.81 39.33 15.81 7.013 0 13.526-1.757 13.526-6.525 0-11.794-68.14.25-68.14-48.18 0-20.83 17.284-40.654 50.602-40.654 20.04 0 37.826 5.772 51.854 17.064l-19.79 26.35c-10.52-8.03-24.3-12.046-35.822-12.046-7.265 0-9.27 2.26-9.27 5.524 0 11.543 67.888 1.756 67.888 47.177 0 26.85-20.04 42.66-52.856 42.66-25.802-.25-43.588-7.78-56.615-19.573zm150.554 17.314V36.893H387.53V5.525h101.706v31.367H456.67v90.09h-36.573z" stroke="#FFF" stroke-width="2.076" fill="#FFF"/><path d="M104.71 124.974V2.514h37.076v122.46H104.71zM219.693 124.974L202.91 86.328h-13.28v38.646h-37.074V2.514h65.13c28.558 0 43.84 19.07 43.84 41.907 0 21.08-12.275 32.374-22.045 37.14l22.046 43.416H219.69zm4.26-80.553c0-6.522-5.763-9.533-12.026-9.533h-22.545V54.21h22.545c6.263 0 12.025-3.013 12.025-9.788zM267.29 107.658l19.288-27.603c9.268 8.783 22.796 15.81 39.33 15.81 7.013 0 13.526-1.757 13.526-6.525 0-11.795-68.137.25-68.137-48.182C271.297 20.33 288.582.506 321.9.506c20.04 0 37.823 5.77 51.852 17.064l-19.79 26.35c-10.522-8.03-24.3-12.046-35.823-12.046-7.264 0-9.268 2.258-9.268 5.52 0 11.544 67.887 1.757 67.887 47.178 0 26.85-20.04 42.66-52.858 42.66-25.802 0-43.588-7.78-56.614-19.574zM417.592 124.974v-90.09h-32.816V2.514h102.456v32.37h-32.565v90.09h-37.075z" fill="#000"/><path d="M16.032 17.32L4.76 28.61h22.545V6.027L16.032 17.32z" fill="#FFF"/><path d="M7.515 264.75V164.12h44.84c31.564 0 55.112 18.07 55.112 50.19s-23.548 50.44-55.11 50.44H7.514zm69.14-50.44c0-13.552-7.766-23.59-24.05-23.59H38.078v47.68h14.53c15.03-.25 24.048-11.543 24.048-24.09zm94.94 50.44l-13.777-31.62h-11.022v31.62h-30.562V164.12h53.608c23.548 0 36.073 15.81 36.073 34.63 0 17.316-10.02 26.6-18.036 30.616L206.163 265h-34.57v-.25zm3.508-66.25c0-5.52-4.76-7.78-10.02-7.78h-18.538v15.81h18.538c5.26-.25 10.02-2.51 10.02-8.03zm112.227 66.25l-3.508-11.795H247.75l-3.508 11.794h-34.57l37.075-100.63h38.328l37.074 100.63h-34.82zm-21.795-70.767l-10.02 32.372h19.79l-9.77-32.372z" stroke="#CCC" stroke-width="1.708" fill="#CCC"/><path d="M2.756 259.98V159.856h44.59c31.563 0 55.11 17.566 55.11 49.687 0 32.12-23.547 50.44-55.11 50.44H2.756zm68.888-50.438c0-13.55-7.765-23.59-24.048-23.59h-14.53v47.68h14.53c15.03-.25 24.048-11.543 24.048-24.09zm94.942 50.438l-13.778-31.618h-11.022v31.62h-30.06V159.854h53.357c23.547 0 36.073 15.056 36.073 33.877 0 17.317-10.02 26.6-18.037 30.617l18.284 35.634h-34.82zm3.507-66.248c0-5.52-4.76-7.78-10.02-7.78h-18.538v15.81h18.538c5.26 0 10.02-2.51 10.02-8.03z" stroke="#FFF" stroke-width="1.708" fill="#FFF"/><path d="M.752 258.475V157.847h44.84c31.564 0 55.11 18.068 55.11 50.19 0 32.12-23.546 50.438-55.11 50.438H.752zm69.14-50.44c0-13.55-7.767-23.588-24.05-23.588h-14.53v47.68h14.53c15.03-.252 24.05-11.544 24.05-24.09zM164.832 258.475l-13.777-31.618h-11.023v31.618h-30.56V157.847h53.607c23.544 0 36.07 15.81 36.07 34.63 0 17.315-10.02 26.6-18.037 30.615l18.287 35.634h-34.57v-.25zm3.507-66.25c0-5.52-4.76-7.778-10.02-7.778h-18.54v15.81h18.536c5.26-.25 10.02-2.51 10.02-8.03z" fill="#000"/><path d="M325.907 264.75V164.12h76.154v26.6h-45.84v10.038h44.84v26.6h-44.84V265h-30.31v-.25zm112.226 0v-74.03H411.08v-26.6h84.168v26.6h-26.804v74.03h-30.31z" stroke="#CCC" stroke-width="1.708" fill="#CCC"/><path d="M282.32 259.98l-3.508-11.793H242.74l-3.508 11.794h-34.57l37.075-100.123h38.328L317.14 259.98h-34.82zm-21.795-70.765l-10.02 32.372h19.79l-9.77-32.372zm60.873 70.765V159.856H397.3v25.847h-45.84v10.038h44.84v26.6h-44.84v37.64h-30.062zm111.725 0v-74.027H406.57v-25.847h83.92v25.847h-26.805v74.028h-30.562z" stroke="#FFF" stroke-width="1.708" fill="#FFF"/><path d="M280.566 258.475l-3.507-11.794h-36.076l-3.507 11.797h-34.57L239.98 157.85h38.078l37.074 100.627h-34.57zm-21.794-71.017l-10.02 32.372h19.79l-9.77-32.372zM319.143 258.475V157.847h76.154v26.6h-45.842v10.038h44.84v26.6h-44.84v37.64h-30.312v-.25zM431.37 258.475v-74.028h-27.055v-26.6h84.17v26.6H461.68v74.028h-30.31z" fill="#000"/></g></svg>