<svg width="1000" height="400" viewBox="0 0 1000 400" xmlns="http://www.w3.org/2000/svg"><title>Imported Layers</title><path d="M0 27.367h194.648V0H0v27.367zM222.227 0v27.367H499.61S471.275 0 433.75 0H222.227zm331.796 0v27.367h167.813L711.876 0H554.022zm288.125 0l-9.96 27.367h166.29V0h-156.33zM0 80.59h194.648V53.22H0v27.37zm222.227-27.33v27.33h309.57s-3.616-21.064-9.922-27.33H222.227zm331.796 0v27.33h186.21l-9.217-27.33H554.023zm268.204 0l-9.22 27.33h185.47V53.26h-176.25zm-766.29 80.59h84.297v-27.406H55.937v27.406zm222.227 0h84.297v-27.406h-84.29v27.406zm166.29-27.406v27.406h84.296s5.352-14.473 5.352-27.406h-89.65zm165.507 0v27.406h149.46l-9.96-27.406h-139.5zm193.91 0l-10 27.406h150.2v-27.406h-140.2zM55.94 187.072h84.296v-27.367h-84.3v27.367zm222.226-27.367v27.367H493.48s18.01-14.042 23.75-27.367H278.163zm331.797 0v27.367h84.298v-15.234l5.35 15.234h154.42l5.744-15.234v15.234h84.297v-27.367H785.82l-8.398 23.18-8.438-23.18H609.96zM55.94 240.295h84.296v-27.367h-84.3v27.367zm222.226-27.367v27.367H517.23c-5.74-13.282-23.75-27.367-23.75-27.367H278.163zm331.797 27.367h84.298v-27.367h-84.3v27.367zm99.61-27.367l10.196 27.367h115.78l9.682-27.367H709.57zm150.196 27.367h84.29v-27.367h-84.29v27.367zM55.94 293.517h84.297V266.15h-84.3v27.367zm222.227 0h84.297V266.15h-84.296v27.367zm166.29-27.367v27.367H534.1c0-12.915-5.352-27.367-5.352-27.367H444.45zm165.507 27.367h84.298V266.15H609.96v27.367zm118.75-27.367l9.884 27.367h77.617l9.962-27.367h-97.46zm131.056 27.367h84.297V266.15H859.77v27.367zM1.523 346.777H196.17v-27.405H1.524v27.406zm220.704-27.405v27.406h299.648c6.306-6.276 9.922-27.406 9.922-27.406h-309.57zm333.32 27.406h138.71v-27.406h-138.71v27.406zm192.344-27.406l10.16 27.406h39.49l9.53-27.406h-59.18zm111.88 27.406H1000v-27.406H859.766v27.406zM1.525 400H196.17v-27.367H1.524V400zm220.704-27.367v27.328H433.75c37.526 0 65.86-27.32 65.86-27.32H222.226zM555.548 400h138.71v-27.367h-138.71V400zm211.6-27.367l9.766 27.29 1.68.038 9.922-27.32h-21.368zM859.765 400H1000v-27.367H859.766V400z" fill-rule="evenodd"/></svg>