<svg width="280" height="38" viewBox="0 0 280 38" xmlns="http://www.w3.org/2000/svg"><title>Imported Layers</title><g fill-rule="evenodd"><path d="M54.71 30.875V28.63c.465-.11.958-.193 1.37-.247l-5.532-6.626V28.3c.575.054 1.232.164 1.807.33v2.245h-7.75v-2.22c.713-.163 1.56-.3 2.383-.354V14.97c-.822-.054-1.67-.19-2.382-.355v-2.217h7.75v2.245c-.576.165-1.233.275-1.808.33v6.13l5.476-6.216c-.44-.028-1.013-.11-1.424-.247v-2.245h7.502v2.245c-.547.11-1.204.22-1.697.274l-5.86 6.357 6.243 7.09c.52.06 1.177.17 1.725.278v2.246H54.71m19.468 0V22.17c0-1.396-.383-2.245-1.67-2.245-1.78 0-3.176 2-3.176 4.38v4a11.49 11.49 0 0 1 2 .327v2.244h-7.887v-2.22a15.6 15.6 0 0 1 2.382-.354v-8.35a27.62 27.62 0 0 0-2.382-.275v-2.19c1.752-.22 3.86-.3 5.695-.247 0 .63-.055 1.726-.19 2.465h.026c.82-1.588 2.41-2.71 4.627-2.71 3.067 0 4.053 1.943 4.053 4.325v6.98c.794.054 1.588.192 2.218.356v2.22h-5.696m6.436 0v-2.22a15.6 15.6 0 0 1 2.382-.355v-8.35a27.62 27.62 0 0 0-2.382-.27v-2.19c1.752-.22 3.86-.3 5.886-.246V28.3c.767.054 1.56.192 2.22.356v2.22h-8.106zm4.134-15.637c-1.177 0-2.163-.93-2.163-2.11 0-1.18.986-2.14 2.163-2.14 1.205 0 2.19.93 2.19 2.135 0 1.15-.985 2.11-2.19 2.11zM95.564 37.74c-3.614 0-5.832-1.396-5.832-4.053 0-1.423.986-2.737 2.108-3.34-.82-.383-1.34-1.15-1.34-2.08 0-1.068.683-2.027 1.614-2.436-1.26-.686-2.026-1.945-2.026-3.725 0-2.74 2.026-5.147 5.996-5.147.877 0 1.48.11 2.218.302h4.628v2.738h-1.862c.438.41.684 1.013.684 1.726 0 2.9-1.943 4.9-5.832 4.9a4.85 4.85 0 0 1-1.068-.11c-.438.19-.657.546-.657.875 0 .63.52.794 2.11.85l2.107.08c2.93.11 4.628 1.37 4.628 4 0 2.928-2.958 5.42-7.476 5.42zm1.862-6.71l-2.354-.08h-.63c-.794.575-1.26 1.314-1.26 2.08 0 1.26 1.15 2.028 2.902 2.028 2.273 0 3.478-.987 3.478-2.273 0-.985-.63-1.696-2.136-1.75zm-1.478-11.52c-1.588 0-2.52 1.014-2.52 2.384 0 1.452.877 2.354 2.52 2.354 1.533 0 2.464-.875 2.464-2.326 0-1.45-.85-2.41-2.464-2.41zm18.402 11.365v-8.708c0-1.396-.385-2.245-1.67-2.245-1.78 0-3.178 2-3.178 4.408v3.97c.685.054 1.397.164 2 .33v2.245h-7.694v-2.22c.656-.163 1.45-.3 2.217-.354V13.57a27.74 27.74 0 0 0-2.3-.275v-2.19c1.697-.22 3.778-.302 5.777-.247v5.888c0 .82-.054 1.944-.22 2.765h.028c.795-1.5 2.355-2.512 4.49-2.512 3.068 0 4.053 1.944 4.053 4.326v6.98a13.96 13.96 0 0 1 2.19.357v2.22h-5.694m12.24.27c-3.018 0-3.95-1.092-3.95-4.27v-6.9h-2.355v-2.71h2.355v-4.19l3.478-.93v5.12h3.312v2.71h-3.313v5.97c0 1.75.41 2.245 1.614 2.245.578 0 1.098-.05 1.56-.19l.25 2.767c-.876.22-2 .38-2.957.38m19.768-14.02c-.11-.63-.217-1.23-.272-1.89h-3.696v5.096h3.095a8.75 8.75 0 0 1 .3-1.506h2.274v5.722h-2.273a8.176 8.176 0 0 1-.3-1.507h-3.096V28.3c.823.054 1.67.192 2.38.356v2.22h-8.32v-2.22c.71-.164 1.56-.302 2.38-.355V14.97a15.39 15.39 0 0 1-2.38-.355v-2.217h12.57v4.737h-2.66m10.52 14.015c-3.86 0-6.35-2-6.35-6.79 0-4.3 2.82-7.366 6.954-7.366 3.862 0 6.353 2.11 6.353 6.79 0 4.3-2.848 7.365-6.955 7.365zm.358-11.2c-1.59 0-3.096 1.204-3.096 4.08 0 2.71.99 4.133 3.04 4.133 1.728 0 3.04-1.396 3.04-4.08 0-2.71-.983-4.134-2.982-4.134zM175.6 30.9c0-.684.055-1.7.165-2.465h-.055c-.794 1.588-2.383 2.71-4.6 2.71-3.094 0-4.08-1.944-4.08-4.326v-6.87a26.08 26.08 0 0 0-2.19-.28v-2.217c1.588-.19 3.67-.273 5.694-.22v8.737c0 1.397.384 2.246 1.67 2.246 1.78 0 3.178-2 3.178-4.383V19.92c-.576-.08-1.316-.19-2-.246V17.43a43.972 43.972 0 0 1 5.476-.192V28.19c.658.11 1.507.22 2.218.274v2.22c-1.587.19-3.695.273-5.476.218m16.978-.027v-8.708c0-1.396-.385-2.245-1.67-2.245-1.78 0-3.178 2-3.178 4.38v4a11.43 11.43 0 0 1 1.998.327v2.24h-7.884v-2.22a15.36 15.36 0 0 1 2.38-.355v-8.35c-.656-.11-1.586-.22-2.38-.276v-2.19c1.753-.22 3.86-.3 5.694-.247 0 .63-.054 1.726-.19 2.465h.027c.82-1.59 2.41-2.71 4.628-2.71 3.065 0 4.052 1.94 4.052 4.323v6.99a12.48 12.48 0 0 1 2.217.356v2.22h-5.694m15.854.026c0-.684.054-1.56.164-2.3h-.055c-.71 1.506-2.213 2.574-4.3 2.574-3.31 0-4.95-2.49-4.95-6.38 0-4.6 2.683-7.777 7.2-7.777.577 0 1.123.02 1.727.11v-3.56a29.25 29.25 0 0 0-2.383-.28V11.1c1.727-.22 3.86-.3 5.86-.246V28.19c.66.11 1.56.22 2.246.274v2.19c-1.588.22-3.697.303-5.504.248zm-.22-10.898a8.544 8.544 0 0 0-1.834-.22c-2 0-3.423 1.26-3.423 4.628 0 2.547.74 3.86 2.328 3.86 1.834 0 2.93-2.134 2.93-4.462v-3.806zm14.87 10.898c0-.794 0-1.616.11-2.328l-.03-.027c-.656 1.533-2.326 2.6-4.352 2.6-2.437 0-3.888-1.504-3.888-3.695 0-3.26 3.23-4.792 7.858-4.846v-.794c0-1.453-.575-2.274-2.41-2.274-.657 0-1.424.137-2 .328-.053.522-.135 1.18-.272 1.782h-2.19v-3.972a16.465 16.465 0 0 1 4.71-.712c4.462 0 5.694 1.753 5.694 4.738v6.49c.658.11 1.506.218 2.218.272v2.22c-1.588.19-3.696.273-5.45.218zm-.3-6.05c-3.123 0-4.52.683-4.52 2.08 0 .903.63 1.56 1.643 1.56 1.725 0 2.875-1.615 2.875-3.286v-.355zm12.266 6.295c-3.013 0-3.944-1.093-3.944-4.27v-6.9h-2.354v-2.71h2.354v-4.19l3.478-.932v5.12h3.313v2.712h-3.313v5.97c0 1.75.41 2.244 1.616 2.244.574 0 1.095-.05 1.56-.19l.247 2.77c-.877.22-2 .38-2.957.38m4.217-.27v-2.22c.71-.164 1.56-.3 2.382-.355v-8.35c-.66-.11-1.59-.22-2.384-.274v-2.19c1.752-.22 3.86-.3 5.886-.247V28.3a13.4 13.4 0 0 1 2.22.356v2.22h-8.11zm4.135-15.64c-1.176 0-2.162-.93-2.162-2.11 0-1.176.986-2.135 2.163-2.135 1.21 0 2.19.93 2.19 2.136 0 1.15-.98 2.11-2.19 2.11zm11.337 15.907c-3.86 0-6.352-2-6.352-6.79 0-4.3 2.82-7.365 6.954-7.365 3.86 0 6.35 2.11 6.35 6.79 0 4.3-2.85 7.365-6.96 7.365zm.357-11.198c-1.59 0-3.095 1.2-3.095 4.08 0 2.71.98 4.13 3.032 4.13 1.726 0 3.04-1.4 3.04-4.08 0-2.71-.985-4.137-2.984-4.137zm18.674 10.92V22.16c0-1.396-.384-2.245-1.67-2.245-1.78 0-3.176 2-3.176 4.38v4c.657.052 1.395.162 1.998.327v2.244h-7.885v-2.22c.71-.163 1.56-.3 2.382-.354v-8.35c-.657-.11-1.59-.22-2.382-.275v-2.19c1.75-.22 3.86-.3 5.694-.247 0 .63-.06 1.726-.198 2.465h.027c.822-1.587 2.41-2.71 4.627-2.71 3.07 0 4.054 1.944 4.054 4.326V28.3c.794.054 1.588.192 2.22.356v2.22h-5.697M.33.963h9.354L.33 15.213 9.685 30.76H.33V.963"/><path d="M17.584.963H34.37V7.07H17.585v5.246H34.37v6.095H17.585v12.35L7.578 15.22 17.584.968"/></g></svg>