<svg width="184" height="98" viewBox="0 0 184 98" xmlns="http://www.w3.org/2000/svg"><title>Imported Layers</title><g fill-rule="evenodd"><path d="M22.99 89.756h14C35.016 55.466 21.466 24.286.175.06c14.657 23.083 23.15 50.463 23.15 79.836 0 3.316-.12 6.6-.334 9.86"/><path d="M70.318 33.858s-4.396 6.077-16.81 6.983c-12.41.91-15.514 12.418-16.422 16.04-.902 3.62-4.472 4.574-4.472 4.574l.335 1.34s4.02-1.376 5.3-3.975c1.273-2.607 5.17 1.643 13.57-2.607 8.407-4.25 17.33-11.617 18.493-22.35"/><path d="M32.95 62.79s4.914 4.554 8.018 5.463c3.103.905 31.03 1.16 38.784 29.347 0 .65-2.064-3.488-16.934-5.558-14.87-2.065-21.85-8.793-23.79-22.24 0 0-2.517-3.803-5.33-3.803-.75.75-.75-3.21-.75-3.21m50.605-24.11h6.412v52.36h-6.412V38.68zm39.304 52.355h-6.865L96.682 38.68h6.94l15.763 44.438 15.846-44.436h6.87l-19.24 52.356m60.89 0h-6.412V71.573H153.2V91.04h-6.415V55.884c0-10.413 7.843-18.486 18.48-18.486 10.713 0 18.486 8.072 18.486 18.485V91.04zm-6.412-35.155c0-6.79-4.977-12.374-12.07-12.374-6.87 0-12.068 5.583-12.068 12.374v9.507h24.137v-9.506z"/></g></svg>