<?xml version="1.0" encoding="UTF-8"?>
<svg width="126px" height="19px" viewBox="0 0 126 19" version="1.1" xmlns="http://www.w3.org/2000/svg" xmlns:xlink="http://www.w3.org/1999/xlink">
    <!-- Generator: Sketch 42 (36781) - http://www.bohemiancoding.com/sketch -->
    <title>meedan-wordmark</title>
    <desc>Created with Sketch.</desc>
    <defs></defs>
    <g id="Page-1" stroke="none" stroke-width="1" fill="none" fill-rule="evenodd">
        <g id="meedan-wordmark" fill-rule="nonzero" fill="#7F7F7F">
            <g id="Group">
                <polyline id="Fill-12" points="0 0.13 2.089 0.13 8.748 10.106 15.407 0.13 17.497 0.13 17.497 18.41 15.434 18.41 15.434 3.603 8.774 13.396 8.67 13.396 2.011 3.63 2.011 18.411 0 18.411 0 0.13"></polyline>
                <polyline id="Fill-13" points="25.75 0.13 38.964 0.13 38.964 2.011 27.813 2.011 27.813 8.252 37.789 8.252 37.789 10.132 27.813 10.132 27.813 16.53 39.095 16.53 39.095 18.411 25.75 18.411 25.75 0.13"></polyline>
                <polyline id="Fill-14" points="45.86 0.13 59.074 0.13 59.074 2.011 47.923 2.011 47.923 8.252 57.899 8.252 57.899 10.132 47.923 10.132 47.923 16.53 59.204 16.53 59.204 18.411 45.86 18.411 45.86 0.13"></polyline>
                <path d="M65.972,0.13 L72.318,0.13 C78.063,0.13 82.032,4.073 82.032,9.218 L82.032,9.27 C82.032,14.415 78.063,18.41 72.318,18.41 L65.972,18.41 L65.972,0.13 L65.972,0.13 Z M72.318,16.504 C76.94,16.504 79.891,13.37 79.891,9.322 L79.891,9.27 C79.891,5.223 76.94,2.036 72.318,2.036 L68.035,2.036 L68.035,16.504 L72.318,16.504 L72.318,16.504 Z" id="Fill-15"></path>
                <path d="M93.522,0 L95.455,0 L103.785,18.411 L101.565,18.411 L99.424,13.58 L89.474,13.58 L87.307,18.411 L85.191,18.411 L93.522,0 L93.522,0 Z M98.614,11.725 L94.461,2.402 L90.283,11.725 L98.614,11.725 L98.614,11.725 Z" id="Fill-16"></path>
                <polyline id="Fill-17" points="110.106 0.13 112.039 0.13 123.556 14.781 123.556 0.13 125.566 0.13 125.566 18.41 123.921 18.41 112.117 3.42 112.117 18.41 110.106 18.41 110.106 0.13"></polyline>
            </g>
        </g>
    </g>
</svg>