<svg width="103" height="80" viewBox="0 0 103 80" xmlns="http://www.w3.org/2000/svg"><title>meedan-logo</title><g fill="none"><path fill="#91A000" d="M51.705 27.032L33.957 39.863l17.748 12.83 17.748-12.83-17.748-12.831"/><path d="M17.505 2.307a10.383 10.383 0 0 1 4.086 8.262v20.355l12.365 8.939 17.748-12.831L17.505 2.307" fill="#9DC538"/><path d="M17.505 77.417a10.383 10.383 0 0 0 4.086-8.262V48.8l12.365-8.937 17.748 12.829-34.199 24.725" fill="#FBD202"/><path d="M17.505 2.307l-.51-.367A10.345 10.345 0 0 0 11.192.171C5.45.171.794 4.827.794 10.569c0 3.483 1.714 6.563 4.343 8.451v.008l16.454 11.897V10.569c0-3.368-1.603-6.361-4.086-8.262" fill="#843F18"/><path d="M21.591 69.155V48.801L5.137 60.696v.01a10.382 10.382 0 0 0-4.342 8.45c0 5.742 4.655 10.398 10.398 10.398a10.35 10.35 0 0 0 5.803-1.769l.509-.368a10.38 10.38 0 0 0 4.086-8.262" fill="#EB4918"/><path d="M5.137 19.02a10.384 10.384 0 0 1-4.343-8.451v58.57c0-3.482 1.714-6.562 4.343-8.451l16.454-11.903V30.923L5.137 19.02" fill="#F17522"/><path d="M85.904 2.307a10.383 10.383 0 0 0-4.086 8.262v20.355l-12.365 8.939-17.748-12.831L85.904 2.307" fill="#FBD202"/><path d="M85.904 77.417a10.383 10.383 0 0 1-4.086-8.262V48.8l-12.365-8.937-17.748 12.83 34.199 24.724" fill="#9DC538"/><path d="M81.819 10.569v20.354l16.454-11.895v-.01a10.38 10.38 0 0 0 4.342-8.45C102.615 4.826 97.96.17 92.217.17a10.35 10.35 0 0 0-5.803 1.769l-.509.368a10.38 10.38 0 0 0-4.086 8.262" fill="#00A013"/><path d="M85.904 77.417l.51.368a10.352 10.352 0 0 0 5.803 1.768c5.742 0 10.398-4.656 10.398-10.398 0-3.483-1.714-6.562-4.343-8.45v-.009L81.818 48.8v20.355c0 3.368 1.603 6.361 4.086 8.262" fill="#01722F"/><path d="M98.272 19.02a10.384 10.384 0 0 0 4.343-8.451v58.57c0-3.482-1.714-6.562-4.343-8.451L81.818 48.785V30.923L98.272 19.02" fill="#37A0DE"/></g></svg>