<svg width="177" height="53" viewBox="0 0 177 53" xmlns="http://www.w3.org/2000/svg"><title>Imported Layers</title><g fill="#000" fill-rule="evenodd"><path d="M.504.56H36.54v51.636H.504V.56zm5.194 46.436h25.63V5.76H5.698v41.236zM60.477 23.727h-2.23c-2.927-4.136-5.83-8.245-8.73-12.89h-.022v12.89H47.03V5.753h2.232c2.928 4.107 5.827 8.188 8.7 12.81h.053V5.752h2.463v17.974M66.334 16.613c.715-2.363 1.435-4.545 2.078-7.32h.052c.718 2.775 1.36 4.958 2.028 7.32h-4.158zm1.178-10.86l-6.21 17.974h2.67l1.562-4.905h5.422l1.41 4.905h3.443L70.08 5.753h-2.568zM78.708 23.727V8.163h-4.726v-2.41h12.53v2.41h-4.723v15.564h-3.082M87.51 5.753h3.06v17.974h-3.06V5.753zM100.07 21.463c-3.214 0-4.34-3.542-4.34-6.984 0-3.312 1.28-6.47 4.34-6.47 3.055 0 4.334 3.158 4.334 6.47 0 3.44-1.127 6.983-4.333 6.983zm0 2.568c4.698 0 7.623-4.182 7.623-9.55 0-5.032-3.23-9.037-7.622-9.037-4.388 0-7.634 4.005-7.634 9.036 0 5.368 2.934 9.55 7.635 9.55zM123.02 23.727h-2.232c-2.928-4.136-5.832-8.245-8.73-12.89h-.025v12.89h-2.46V5.753h2.23c2.926 4.107 5.827 8.188 8.697 12.81h.055V5.752h2.466v17.974M128.875 16.613c.72-2.363 1.435-4.545 2.08-7.32h.053c.72 2.775 1.36 4.958 2.026 7.32h-4.16zm1.183-10.86l-6.213 17.974h2.673l1.563-4.905h5.42l1.412 4.905h3.44l-5.726-17.974h-2.568zM139.245 5.753h3.06v15.56h6.084v2.414h-9.145V5.753M58.583 38.76v7.42c-1.644.643-3.365 1.103-5.106 1.103-5.29 0-8.628-4.108-8.628-9.397 0-4.906 3.336-9.192 8.728-9.192 1.666 0 3.336.62 4.363 1.388l-1 2.13c-.82-.51-2.107-.945-3.286-.945-3.284 0-5.52 2.593-5.52 6.677 0 4.26 2.57 6.773 5.214 6.773.817 0 1.515-.1 2.16-.435v-5.52h3.075v-.002M69.603 31.42h-5.14v4.926h5.03v2.414h-5.03v5.8h6.058v2.417h-9.14V29.002h8.223v2.418M79.102 44.715c-3.213 0-4.344-3.54-4.344-6.984 0-3.308 1.284-6.465 4.344-6.465 3.053 0 4.334 3.157 4.334 6.466 0 3.444-1.132 6.985-4.334 6.985zm0 2.567c4.696 0 7.62-4.184 7.62-9.552 0-5.03-3.232-9.038-7.62-9.038-4.396 0-7.628 4.007-7.628 9.038 0 5.37 2.922 9.552 7.628 9.552zM101.51 38.76v7.42c-1.646.643-3.36 1.103-5.11 1.103-5.287 0-8.626-4.108-8.626-9.397 0-4.906 3.34-9.192 8.732-9.192 1.67 0 3.336.62 4.36 1.388l-1.002 2.13c-.82-.51-2.097-.945-3.28-.945-3.29 0-5.525 2.593-5.525 6.677 0 4.26 2.57 6.773 5.214 6.773.824 0 1.514-.1 2.158-.435v-5.52h3.078v-.002M107.422 31.42h1.357c1.817 0 2.847 1.048 2.847 2.898 0 2.412-1.46 3.49-2.927 3.566-.308.03-1.027.057-1.278.08V31.42zm7.803 15.557l-3.628-7.444c1.98-1.05 3.113-3.187 3.113-5.343 0-3.495-2.134-5.188-5.576-5.188h-4.8v17.975h3.088v-6.78h1.385l2.896 6.78h3.522zM120.306 39.863c.717-2.365 1.436-4.545 2.08-7.318h.052c.718 2.773 1.358 4.953 2.027 7.318h-4.16zm1.18-10.86l-6.215 17.974h2.67l1.57-4.906h5.42l1.404 4.907h3.445l-5.73-17.975h-2.565zM135.554 29.002h-4.8v17.975h3.082v-6.78h1.383c3.673 0 5.908-2.978 5.908-6.007 0-3.496-2.132-5.188-5.574-5.188zm-.43 8.883c-.32.028-1.074.053-1.288.074v-6.54h1.383c1.796 0 2.826 1.048 2.826 2.898 0 2.412-1.46 3.49-2.923 3.567zM155.403 46.977h-3.082v-8.65h-6.397v8.65h-3.046V29.002h3.046v6.907h6.398v-6.857h3.083v17.924M158.352 29.002h3.06v17.975h-3.06V29.002zM175.274 32.265c-.746-.463-1.974-1-3.16-1-3.138 0-5.415 2.593-5.415 6.677 0 4.26 2.514 6.773 5.493 6.773a5.82 5.82 0 0 0 3.08-.9l.85 2.236c-.93.642-2.568 1.232-4.056 1.232-5.29 0-8.63-4.108-8.63-9.397 0-4.906 3.31-9.192 8.677-9.192 1.595 0 3.08.67 4.138 1.388l-.978 2.185"/></g></svg>