<svg width="177" height="53" viewBox="0 0 177 53" xmlns="http://www.w3.org/2000/svg"><title>Imported Layers</title><path d="M.504.56H36.54v51.636H.504V.56zm5.194 46.436h25.63V5.76H5.698v41.236zm54.78-23.27h-2.23c-2.928-4.135-5.83-8.244-8.73-12.89h-.023v12.89H47.03V5.754h2.232c2.928 4.107 5.827 8.188 8.7 12.81h.053V5.754h2.463v17.972m5.856-7.113c.715-2.363 1.435-4.545 2.078-7.32h.052c.718 2.775 1.36 4.958 2.028 7.32h-4.158zm1.178-10.86l-6.21 17.974h2.67l1.562-4.905h5.422l1.41 4.905h3.443L70.08 5.753h-2.568zm11.196 17.974V8.163h-4.726v-2.41h12.53v2.41H81.79v15.564h-3.083M87.51 5.753h3.06v17.974h-3.06V5.753zm12.56 15.71c-3.214 0-4.34-3.542-4.34-6.984 0-3.314 1.28-6.47 4.34-6.47 3.055 0 4.334 3.156 4.334 6.47 0 3.44-1.127 6.98-4.333 6.98zm0 2.568c4.698 0 7.623-4.18 7.623-9.55 0-5.03-3.23-9.035-7.622-9.035-4.386 0-7.632 4.005-7.632 9.036 0 5.37 2.934 9.55 7.635 9.55zm22.95-.302h-2.232c-2.928-4.136-5.832-8.245-8.73-12.89h-.025v12.89h-2.46V5.753h2.23c2.926 4.107 5.827 8.188 8.697 12.81h.055V5.753h2.466v17.973m5.856-7.113c.72-2.363 1.435-4.545 2.08-7.32h.053c.72 2.775 1.36 4.958 2.025 7.32h-4.16zm1.183-10.86l-6.214 17.974h2.673l1.562-4.905h5.42l1.413 4.905h3.44L132.63 5.753h-2.57zm9.186 0h3.06v15.56h6.084v2.414h-9.146V5.753M58.584 38.76v7.42c-1.645.643-3.366 1.103-5.107 1.103-5.29 0-8.628-4.108-8.628-9.397 0-4.906 3.334-9.192 8.726-9.192 1.666 0 3.336.62 4.363 1.388l-1 2.13c-.82-.51-2.108-.945-3.287-.945-3.284 0-5.52 2.593-5.52 6.677 0 4.26 2.57 6.773 5.214 6.773.817 0 1.515-.1 2.16-.435v-5.52h3.075v-.002m11.02-7.34h-5.14v4.926h5.03v2.414h-5.03v5.8h6.058v2.417h-9.14V29.002h8.224v2.418m9.498 13.295c-3.213 0-4.344-3.54-4.344-6.984 0-3.306 1.284-6.463 4.344-6.463 3.053 0 4.334 3.157 4.334 6.466 0 3.444-1.132 6.985-4.334 6.985zm0 2.567c4.696 0 7.62-4.184 7.62-9.552 0-5.03-3.232-9.038-7.62-9.038-4.396 0-7.628 4.007-7.628 9.038 0 5.37 2.922 9.552 7.628 9.552zm22.408-8.522v7.42c-1.646.643-3.36 1.103-5.11 1.103-5.287 0-8.626-4.108-8.626-9.397 0-4.906 3.34-9.192 8.732-9.192 1.67 0 3.336.62 4.36 1.388l-1.002 2.13c-.82-.51-2.097-.945-3.28-.945-3.29 0-5.525 2.593-5.525 6.677 0 4.26 2.57 6.773 5.212 6.773.824 0 1.514-.1 2.158-.435v-5.52h3.08v-.002m5.912-7.34h1.357c1.815 0 2.845 1.048 2.845 2.898 0 2.412-1.46 3.49-2.927 3.566-.31.03-1.028.057-1.28.08V31.42zm7.803 15.557l-3.628-7.444c1.98-1.05 3.113-3.187 3.113-5.343 0-3.495-2.134-5.188-5.576-5.188h-4.8v17.975h3.088v-6.78h1.385l2.896 6.78h3.522zm5.08-7.114c.718-2.365 1.437-4.545 2.08-7.318h.053c.718 2.773 1.358 4.953 2.027 7.318h-4.16zm1.18-10.86l-6.214 17.974h2.67l1.57-4.906h5.42l1.406 4.91h3.445l-5.73-17.976h-2.564zm14.07 0h-4.8v17.974h3.08v-6.78h1.384c3.67 0 5.906-2.978 5.906-6.007 0-3.496-2.132-5.188-5.574-5.188zm-.43 8.882c-.32.028-1.075.053-1.29.074v-6.54h1.384c1.794 0 2.824 1.046 2.824 2.896 0 2.412-1.46 3.49-2.923 3.567zm20.278 9.092h-3.082v-8.65h-6.395v8.65h-3.046V29.002h3.045v6.907h6.398v-6.86h3.083v17.924M158.353 29h3.06v17.975h-3.06V29.002zm16.922 3.263c-.746-.463-1.974-1-3.16-1-3.138 0-5.415 2.593-5.415 6.677 0 4.26 2.513 6.773 5.492 6.773a5.82 5.82 0 0 0 3.08-.9l.85 2.236c-.93.642-2.568 1.232-4.056 1.232-5.29 0-8.63-4.108-8.63-9.397 0-4.906 3.31-9.192 8.677-9.192 1.595 0 3.08.67 4.138 1.388l-.976 2.186" fill-rule="evenodd"/></svg>