<?xml version="1.0"?>
<svg width="615" height="102" xmlns="http://www.w3.org/2000/svg" xmlns:svg="http://www.w3.org/2000/svg">
 <g>
  <title>Layer 1</title>
  <path d="m441.003662,1.25557l-20.900024,0l0,98.59996l60.800049,0l0,-19.299988l-39.900024,0l0,-79.299982l0,0l0,0.00001zm80.600159,56.500011l-12.100037,1.099968c-11.80011,1.10004 -24.900085,3.700001 -24.900085,21.400013c0,9.900017 5.599976,20.900017 22.200012,20.900017c7.80011,0 14.500122,-2.700012 19.30011,-6.700012l2.900024,5.099983l12.699951,0l0,-42.59996c0,-14.700008 -4.599976,-24.900021 -28.099976,-24.900021c-9.400482,0 -19.300507,2.400021 -23.600494,4.299992l0,17.700008c5.900024,-2.39996 15.300018,-5.099979 23.600494,-5.099979c5.599976,0 7.799988,1.599979 7.799988,4.599979l0.200012,4.200012l0,0zm0,11.499981l0,14.5c-2.099976,2.099976 -5.599976,3.199997 -9.400024,3.199997c-4.600098,0 -7.500122,-2.900017 -7.500122,-7.799988c0,-5.100044 2.400024,-8 8.300171,-8.800049l8.599976,-1.099983l0,0l0,0.000023zm41.199951,30.299988l3.5,-5.400017c4.599976,4 10.700012,7 21.200012,7c17.099976,0 25.399963,-10.399963 25.399963,-34.599983s-8.299988,-34.59996 -25.399963,-34.59996c-7.200012,0 -12.600037,1.899971 -16.299988,4.299992l0,-35.100041l-20.900024,0l0,98.600022l12.5,-0.200012l0,0zm8.600037,-47.699989c0,0 4,-2.700012 9.400024,-2.700012c9.599976,0 11.799988,6.400021 11.799988,17.699989c0,11.200012 -2.100037,17.700012 -11.799988,17.700012c-5.400024,0 -9.400024,-2.700012 -9.400024,-2.700012l0,-29.999977l0,0z" id="svg_1" fill="black"/>
  <path fill="#A51C30" d="m73.803711,99.55555l0,-98.59996l-20.599991,0l0.5,58.89997l-31.9,-58.89997l-20.600001,0l0,98.59996l20.600001,0l-0.5,-58.900009l31.9,58.900009l20.599991,0l0,0zm8.799988,-84.59997c0,7 5.399994,12.599979 12.600014,12.599979c7,0 12.600006,-5.400028 12.600006,-12.599979c0,-7 -5.600006,-12.60003 -12.600006,-12.60003c-7.200012,0 -12.600014,5.60004 -12.600014,12.60003l0,0zm22.800018,84.59997l0,-65.59996l-20.600006,0l0,65.59996l20.600006,0l0,0zm67.700012,-25.700012c1.600006,-20.599957 -0.299988,-41.499977 -28.399994,-41.499977c-20.400017,0 -30.800018,11 -30.800018,34.600021s10.400002,34.599976 32.100006,34.599976c7.800034,0 17.100021,-1.299988 24.600021,-4.599976l0,-16.400024c-4.799988,2.400024 -12.100021,4.300003 -22,4.300003c-10.199982,0 -14.699982,-2.399963 -14.199982,-11l38.699982,0l0,0l-0.000015,-0.000023zm-28.100006,-25.999977c8,0 9.600006,5.900021 8.300018,13.100029l-18.700012,0c0.200012,-8.300037 3.5,-13.100029 10.399994,-13.100029l0,0zm130.999939,51.699989l0,-45.499981c0,-11.799988 -4.799988,-22 -21.999969,-22c-7.799957,0 -16.599945,1.900021 -21.199982,5.400021c-2.099976,-2.900021 -6.399963,-5.400021 -15.299988,-5.400021c-6.699982,0 -15.799988,2.400021 -20.599976,6.400021l-2.700012,-4.800049l-12.5,0l0,65.600021l20.899979,0l0,-46.600021c1.300034,-1.299992 5.399979,-3.5 9.600021,-3.5c4,0 5.899979,1.900021 5.899979,5.400021l0,45.299969l20.899979,0l0,-47.09996c1.300003,-1.299988 5.400024,-3.5 9.600052,-3.5c3.999985,0 5.899933,1.89996 5.899933,5.39996l0,45.30003l21.399979,0l0,-0.400017l0.100006,0l0,0.000008zm43.400024,-41.799969l-12.100037,1.099968c-11.799988,1.10004 -24.899963,3.700001 -24.899963,21.400013c0,9.899956 5.599976,20.899956 22.200012,20.899956c7.799988,0 14.5,-2.699951 19.299988,-6.699951l2.899963,5.099983l12.600037,0l0,-42.59996c0,-14.700008 -4.600037,-24.900021 -28.100037,-24.900021c-9.399963,0 -19.299988,2.400021 -23.599976,4.299992l0,17.700008c5.899811,-2.400017 15.299988,-5.099979 23.599976,-5.099979c5.600037,0 7.800049,1.599979 7.800049,4.599979l0.299988,4.200012l0,0zm0,11.499981l0,14.5c-2.100037,2.099976 -5.600037,3.199997 -9.400024,3.199997c-4.599976,0 -7.5,-2.900017 -7.5,-7.800049c0,-5.099983 2.400024,-8 8.299988,-8.799988l8.600037,-1.099983l0,0l0,0.000023zm30,-35.299973l0,65.59996l20.899963,0l0,-46.900009c1.900024,-1.299992 6.700012,-3.5 11.800049,-3.5c5.599976,0 7.199951,3.200008 7.199951,8l0,42.400009l20.900024,0l0,-45.499981c0,-12.599979 -5.100189,-22 -23,-22c-7.200012,0 -15.5,2.099979 -22.800079,6.400021l-2.699921,-4.800049l-12.300079,0.300049l0,0l0,0l0,0l0,0l0,0l0,0l0,0l0,0l0,0l0.000031,0l0.000031,0l0.000031,0z" id="svg_2"/>
 </g>
</svg>