<svg width="244" height="172" viewBox="0 0 244 172" xmlns="http://www.w3.org/2000/svg"><title>Imported Layers</title><g fill="none" fill-rule="evenodd"><path d="M96.837 49.04l57.73 38.664 8.1-4.216-65.83-34.448" fill="#E0E0E0"/><path d="M241.382 37.146s-2.38-16.838-9.685-24.253c-9.265-9.733-19.65-9.78-24.41-10.35C173.192.07 122.052.07 122.052.07h-.106s-51.14 0-85.233 2.472c-4.763.57-15.143.618-24.41 10.35C4.997 20.31 2.62 37.147 2.62 37.147S.186 56.92.186 76.694v18.538c0 19.774 2.436 39.548 2.436 39.548S5 151.618 12.304 159.033c9.268 9.733 21.442 9.425 26.863 10.445 19.49 1.875 82.834 2.455 82.834 2.455s51.193-.078 85.286-2.55c4.762-.57 15.146-.617 24.41-10.35 7.305-7.415 9.686-24.253 9.686-24.253s2.433-19.774 2.433-39.548V76.694c0-19.774-2.433-39.548-2.433-39.548zm-144.534 80.55l-.01-68.656 65.83 34.448-65.82 34.21z" fill="#FFF"/></g></svg>