<?xml version="1.0" encoding="UTF-8" standalone="no"?>
<svg width="267px" height="267px" viewBox="0 0 267 267" version="1.1" xmlns="http://www.w3.org/2000/svg" xmlns:xlink="http://www.w3.org/1999/xlink" xmlns:sketch="http://www.bohemiancoding.com/sketch/ns">
    <!-- Generator: Sketch 3.2.2 (9983) - http://www.bohemiancoding.com/sketch -->
    <title>Imported Layers</title>
    <desc>Created with Sketch.</desc>
    <defs></defs>
    <g id="Page-1" stroke="none" stroke-width="1" fill="none" fill-rule="evenodd" sketch:type="MSPage">
        <path d="M252.164,0 L14.73,0 C6.594,0 0,6.593 0,14.73 L0,252.164 C0,260.299 6.594,266.894 14.73,266.894 L142.556,266.894 L142.556,163.539 L107.775,163.539 L107.775,123.259 L142.556,123.259 L142.556,93.554 C142.556,59.081 163.611,40.31 194.363,40.31 C209.093,40.31 221.754,41.407 225.443,41.897 L225.443,77.923 L204.115,77.933 C187.39,77.933 184.152,85.88 184.152,97.542 L184.152,123.259 L224.039,123.259 L218.845,163.539 L184.152,163.539 L184.152,266.894 L252.164,266.894 C260.299,266.894 266.894,260.299 266.894,252.164 L266.894,14.73 C266.894,6.593 260.299,0 252.164,0" id="Imported-Layers" fill="#FFFFFF" sketch:type="MSShapeGroup"></path>
    </g>
</svg>