<?xml version="1.0" encoding="UTF-8"?>
<svg width="300px" height="300px" viewBox="0 0 300 300" version="1.1" xmlns="http://www.w3.org/2000/svg" xmlns:xlink="http://www.w3.org/1999/xlink">
    <!-- Generator: Sketch 43.2 (39069) - http://www.bohemiancoding.com/sketch -->
    <title>Bridge</title>
    <desc>Created with Sketch.</desc>
    <defs></defs>
    <g id="Page-1" stroke="none" stroke-width="1" fill="none" fill-rule="evenodd">
        <g id="Bridge">
            <g id="Group">
                <rect id="Rectangle-1" fill="#FF4F00" x="0" y="0" width="300" height="300" rx="21.4285714"></rect>
                <g id="Group-2" transform="translate(64.285714, 75.000000)" fill="#FFFFFF">
                    <path d="M2.64719201,3.65226215 C1.52092364,2.86866082 0.607902736,3.33680407 0.607902736,4.71056585 L0.607902736,34.834527 L45.5825735,64.7693666 L120.326748,64.7693666 L168.389058,34.7133334 L168.389058,4.82666777 C168.389058,3.46139355 167.460259,2.96286609 166.313965,3.71354401 L112.869807,38.7127249 L53.0395137,38.7127249 L2.64719201,3.65226215 Z" id="Shape"></path>
                    <path d="M2.64719201,90.1637273 C1.52092364,89.380126 0.607902736,89.8482692 0.607902736,91.222031 L0.607902736,121.345992 L45.5825735,151.280832 L120.326748,151.280832 L168.389058,121.224799 L168.389058,91.3381329 C168.389058,89.9728587 167.460259,89.4743313 166.313965,90.2250092 L112.869807,125.22419 L53.0395137,125.22419 L2.64719201,90.1637273 Z" id="Shape-Copy" transform="translate(84.498480, 120.532287) scale(1, -1) translate(-84.498480, -120.532287) "></path>
                </g>
            </g>
        </g>
    </g>
</svg>