<?xml version="1.0" encoding="UTF-8" standalone="no"?>
<svg
   xmlns:dc="http://purl.org/dc/elements/1.1/"
   xmlns:cc="http://creativecommons.org/ns#"
   xmlns:rdf="http://www.w3.org/1999/02/22-rdf-syntax-ns#"
   xmlns:svg="http://www.w3.org/2000/svg"
   xmlns="http://www.w3.org/2000/svg"
   xmlns:sodipodi="http://sodipodi.sourceforge.net/DTD/sodipodi-0.dtd"
   xmlns:inkscape="http://www.inkscape.org/namespaces/inkscape"
   version="1.1"
   id="svg2"
   viewBox="0 0 551.399 123.4506"
   width="155.61705mm"
   height="34.840504mm"
   inkscape:version="0.91 r13725"
   sodipodi:docname="BahrainWatch-logo-plain2.svg">
  <sodipodi:namedview
     pagecolor="#ffffff"
     bordercolor="#666666"
     borderopacity="1"
     objecttolerance="10"
     gridtolerance="10"
     guidetolerance="10"
     inkscape:pageopacity="0"
     inkscape:pageshadow="2"
     inkscape:window-width="1366"
     inkscape:window-height="741"
     id="namedview8"
     showgrid="false"
     inkscape:zoom="0.57127416"
     inkscape:cx="275.6995"
     inkscape:cy="61.725302"
     inkscape:window-x="0"
     inkscape:window-y="27"
     inkscape:window-maximized="1"
     inkscape:current-layer="svg2" />
  <defs
     id="defs8" />
  <metadata
     id="metadata4">
    <rdf:RDF>
      <cc:Work
         rdf:about="">
        <dc:format>image/svg+xml</dc:format>
        <dc:type
           rdf:resource="http://purl.org/dc/dcmitype/StillImage" />
        <dc:title></dc:title>
      </cc:Work>
    </rdf:RDF>
  </metadata>
  <g
     style="font-style:normal;font-variant:normal;font-weight:500;font-stretch:normal;font-size:97.23889923px;line-height:125%;font-family:'Helvetica Condensed BQ';-inkscape-font-specification:'Helvetica Condensed BQ Medium';text-align:start;letter-spacing:-3.16876292px;word-spacing:0px;writing-mode:lr-tb;text-anchor:start;fill:#000000;fill-opacity:1;stroke:none;stroke-width:1px;stroke-linecap:butt;stroke-linejoin:miter;stroke-opacity:1"
     id="text3195">
    <path
       d="m 87.062179,25.866395 0,67.872751 12.057624,0 c 1.555827,0 3.111647,0.09724 4.667467,0.09724 1.26411,0 7.29292,0.291717 11.47419,-2.917167 1.94478,-1.555822 3.59784,-3.792317 4.27851,-9.140456 0.4862,-3.500601 0.58343,-9.237696 0.58343,-9.626651 0,-6.515006 -1.84753,-10.696279 -4.08403,-12.446579 -1.16687,-0.87515 -3.30612,-1.361345 -3.59784,-1.361345 2.43097,-0.972389 3.69508,-1.653061 4.95919,-4.084034 1.55582,-2.917167 1.65306,-5.737095 1.65306,-12.154862 0,-1.069628 0.48619,-11.182473 -5.63986,-14.488596 -2.04202,-1.069628 -4.66747,-1.361345 -7.29292,-1.7503 l -19.058821,0 z m 11.279713,37.631454 c 6.320528,0 8.459788,0.680672 9.529408,4.084034 0.77791,2.430972 0.77791,5.737095 0.77791,6.223289 0,4.570228 0,6.709484 -1.45858,8.654262 -1.45858,1.847539 -4.08403,2.139256 -8.848738,2.139256 l 0,-21.100841 z M 98.43913,35.10409 c 5.54262,-0.194478 7.19568,-0.291716 8.55702,2.722689 0.97239,2.333734 0.97239,5.250901 0.97239,5.834334 0,2.430973 -0.29171,6.806723 -1.84754,8.654262 -1.65306,2.042017 -5.15366,1.847539 -7.68187,1.847539 l 0,-19.058824 z"
       style=""
       id="path4156" />
    <path
       d="m 133.52932,25.866395 -11.18248,68.067229 11.27972,0 2.52821,-18.378152 10.21008,0 2.81993,18.378152 11.37695,0 -11.86315,-68.067229 -15.16926,0 z m 4.08403,40.062426 c 0.77791,-5.445378 1.45858,-10.890756 1.94478,-16.336135 0.48619,-5.2509 0.87515,-10.501801 1.16686,-15.752701 l 4.18128,32.088836 -7.29292,0 z"
       style=""
       id="path4158" />
    <path
       d="m 163.90493,25.769156 0,68.067229 11.57143,0 0,-30.630253 10.69628,0 0,30.727492 11.37695,0 0,-68.164468 -11.37695,0 0,27.810325 -10.59904,0 0,-27.810325 -11.66867,0 z"
       style=""
       id="path4160" />
    <path
       d="m 205.27007,25.769156 0,68.164468 11.57142,0 0,-31.116447 c 1.94478,0 5.54262,0 7.29292,1.264105 2.2365,1.555823 2.33374,4.764706 2.43097,7.195679 l 0,17.891957 0.29172,4.861945 11.76591,0 -0.58344,-3.889556 -0.38895,-22.753902 c -0.0972,-2.819928 -0.29172,-5.542617 -2.43097,-7.487395 -1.36135,-1.361345 -3.59784,-1.944778 -3.9868,-2.042017 1.55582,-0.486195 2.2365,-0.680673 2.91717,-1.166867 1.16687,-0.583434 2.04202,-1.653061 2.33373,-1.944778 2.04202,-2.62545 1.84754,-5.639856 1.84754,-12.057624 0,-5.153661 -0.58343,-12.057623 -5.05642,-14.877551 -2.33373,-1.458584 -6.51501,-1.944778 -7.09844,-2.042017 l -20.90636,0 z m 11.57142,9.334934 4.08404,0 c 0.87515,0 4.27851,-0.291716 5.63985,2.819928 0.58344,1.264106 0.68068,3.111645 0.68068,6.320529 0,4.764706 -0.87515,7.487395 -2.52821,8.557023 -1.45859,0.87515 -3.9868,0.972389 -7.87636,0.972389 l 0,-18.669869 z"
       style=""
       id="path4162" />
    <path
       d="m 252.02892,25.866395 -11.18248,68.067229 11.27971,0 2.52822,-18.378152 10.21008,0 2.81993,18.378152 11.37695,0 -11.86315,-68.067229 -15.16926,0 z m 4.08403,40.062426 c 0.77791,-5.445378 1.45858,-10.890756 1.94478,-16.336135 0.48619,-5.2509 0.87515,-10.501801 1.16686,-15.752701 l 4.18128,32.088836 -7.29292,0 z"
       style=""
       id="path4164" />
    <path
       d="m 282.40454,25.671917 0,68.358946 11.47419,0 0,-68.358946 -11.47419,0 z"
       style=""
       id="path4166" />
    <path
       d="m 301.54907,25.671917 0,68.261707 10.59904,0 c 0,-9.529412 0,-18.961585 -0.29171,-28.490997 -0.0972,-7.487395 -0.4862,-14.974791 -0.87515,-22.559425 1.94477,8.459784 3.88955,17.016808 6.12605,25.476592 2.23649,8.557023 4.86194,17.114046 7.48739,25.671069 l 12.54382,0 0,-68.358946 -10.69628,0 0.0972,28.393759 c 0.29172,7.292917 0.48619,14.294118 0.77791,20.906363 -1.36134,-6.612245 -2.72269,-13.321729 -4.47299,-19.836736 -1.2641,-4.861944 -2.81993,-9.626651 -4.27851,-14.391357 -1.55582,-5.056422 -2.91717,-10.015606 -4.27851,-15.072029 l -12.7383,0 z"
       style=""
       id="path4168" />
    <path
       d="m 378.83395,25.769156 c -1.26411,9.918368 -2.62545,19.933974 -3.59784,29.949581 -0.87515,8.459784 -1.45859,16.919568 -1.94478,25.379353 -0.58343,-8.654262 -1.16687,-17.308524 -2.04202,-25.865548 -1.06963,-9.821128 -2.43097,-19.642257 -3.79231,-29.366147 l -11.37696,-0.09724 10.50181,68.261707 13.22449,0 c 1.06962,-8.459784 2.04201,-16.822329 2.91716,-25.282114 0.87515,-8.459784 1.55583,-16.919568 2.2365,-25.476591 0.48619,6.12605 0.97239,12.34934 1.65306,18.475391 0.48619,4.764706 1.16687,9.529412 1.84754,14.294118 0.87515,5.931573 1.55582,11.960384 2.33373,17.989196 l 12.93278,0 10.30732,-68.261707 -11.57143,0 -5.44538,54.259306 c -0.29172,-5.737095 -0.58343,-11.47419 -1.16687,-17.211285 -0.58343,-5.639857 -1.45858,-11.279713 -2.23649,-16.82233 -0.97239,-6.806723 -1.7503,-13.516207 -2.52821,-20.225691 l -12.2521,0 z"
       style=""
       id="path4170" />
    <path
       d="m 422.87621,25.866395 -11.18248,68.067229 11.27971,0 2.52822,-18.378152 10.21008,0 2.81993,18.378152 11.37695,0 -11.86315,-68.067229 -15.16926,0 z m 4.08403,40.062426 c 0.77791,-5.445378 1.45858,-10.890756 1.94478,-16.336135 0.48619,-5.2509 0.87515,-10.501801 1.16686,-15.752701 l 4.18128,32.088836 -7.29292,0 z"
       style=""
       id="path4172" />
    <path
       d="m 443.28938,25.866395 0,10.501801 11.96039,0 0,57.662667 11.27971,0 0,-57.662667 11.96039,0 0,-10.501801 -35.20049,0 z"
       style=""
       id="path4174" />
    <path
       d="m 513.24429,47.939625 c -0.0972,-9.140457 0,-13.321729 -2.81993,-17.114046 -1.36135,-1.750301 -2.81993,-2.819928 -3.5006,-3.306123 -3.9868,-2.62545 -7.77911,-2.62545 -9.52941,-2.62545 -2.43098,0 -4.47299,0.291717 -5.34814,0.388955 -1.94478,0.388956 -8.16807,1.264106 -10.89076,7.779112 -0.68067,1.555823 -0.97239,3.111645 -1.26411,4.764706 -0.29171,3.306123 -0.48619,6.612246 -0.68067,10.015607 -0.0972,3.695078 -0.19448,7.390156 -0.19448,11.182473 0,6.417768 0.19448,12.835535 0.38896,19.156064 0.0972,2.333733 0.38895,5.153661 1.06963,7.292917 0.29171,0.87515 0.87515,2.333734 2.13925,3.986795 0.87515,1.166867 1.65306,1.847539 2.81993,2.62545 4.08403,2.722689 10.30732,2.722689 11.57143,2.722689 10.11285,-0.09724 14.09964,-5.542617 15.26651,-10.015606 0.77791,-2.430973 0.68067,-5.34814 0.68067,-6.028812 0.0972,-3.208884 0,-6.417767 0,-9.626651 l -11.08524,0 c 0,2.042017 -0.0972,4.181273 -0.0972,6.22329 -0.0972,2.819928 0.29171,6.417767 -1.84754,8.654262 -0.87515,0.972389 -1.84754,1.361344 -3.11165,1.361344 -1.84754,0 -3.11164,-0.777911 -3.59784,-1.264106 -1.55582,-1.166866 -2.04201,-2.430972 -2.23649,-6.320528 -0.19448,-6.028812 -0.29172,-11.960385 -0.29172,-17.891957 0,-6.417768 0.19448,-12.835535 0.4862,-19.253303 0.19447,-2.62545 0.48619,-4.959183 2.72269,-6.12605 0.68067,-0.388956 1.7503,-0.680672 2.62545,-0.680672 1.16686,0 2.23649,0.388955 3.20888,1.069627 2.13925,1.750301 2.13925,3.889556 2.13925,6.417768 0.0972,2.236494 0.0972,4.472989 0.19448,6.612245 l 11.18248,0 z"
       style=""
       id="path4176" />
    <path
       d="m 517.75436,25.769156 0,68.067229 11.57143,0 0,-30.630253 10.69628,0 0,30.727492 11.37695,0 0,-68.164468 -11.37695,0 0,27.810325 -10.59904,0 0,-27.810325 -11.66867,0 z"
       style=""
       id="path4178" />
  </g>
  <path
     id="path3633"
     d="m 43.318612,123.16157 c -0.08639,-0.16131 -0.379987,-1.00276 -0.652588,-1.86988 -0.272585,-0.86711 -0.680463,-1.86791 -0.906408,-2.22398 -0.251402,-0.39619 -0.410809,-0.8384 -0.410809,-1.13964 0,-0.34261 -0.107272,-0.59302 -0.352797,-0.82371 -0.244252,-0.22946 -0.352811,-0.48141 -0.352811,-0.81888 0,-0.28004 -0.175655,-0.79492 -0.41287,-1.2102 -0.279781,-0.48982 -0.444193,-1.01848 -0.510015,-1.64009 -0.0535,-0.50451 -0.248671,-1.51166 -0.433866,-2.23813 -0.185181,-0.72644 -0.336706,-1.43418 -0.336706,-1.57273 0,-0.29525 -0.98423,-2.86021 -1.488953,-3.88029 -0.192033,-0.38808 -0.664589,-1.08188 -1.050139,-1.54178 -0.385551,-0.45992 -0.967524,-1.34899 -1.293289,-1.97571 -0.325764,-0.62675 -0.810535,-1.48115 -1.077271,-1.89867 -0.71881,-1.125105 -0.979939,-1.805155 -1.139302,-2.967015 -0.150811,-1.09959 -0.377484,-1.49511 -0.770429,-1.34433 -0.179318,0.0688 -0.23673,0.26777 -0.23673,0.8205 0,0.69905 -0.275989,1.35697 -0.569243,1.35697 -0.242021,0 -0.604458,-0.72184 -0.715677,-1.42541 -0.09512,-0.60197 -0.225731,-0.81379 -0.929951,-1.50854 -0.450586,-0.44451 -1.370639,-1.53968 -2.044566,-2.43369 -1.463438,-1.94137 -2.527278,-2.98438 -4.41956,-4.33311 -1.390177,-0.99083 -2.926846,-2.53008 -3.349355,-3.35492 -0.118715,-0.23182 -0.261987,-0.70727 -0.318355,-1.05652 -0.05636,-0.34928 -0.282585,-1.20661 -0.502722,-1.90517 -0.220136,-0.69855 -0.492408,-1.65112 -0.605029,-2.11682 -0.112708,-0.4657 -0.338466,-1.21031 -0.501834,-1.65467 -0.580801,-1.57977 -0.308129,-2.56591 1.352346,-4.89061 0.644177,-0.90189 1.346309,-1.98909 1.560253,-2.41598 0.370991,-0.74026 0.387324,-0.85884 0.35324,-2.56269 -0.04176,-2.08517 0.05278,-2.39391 1.282462,-4.18942 0.49843,-0.72782 0.806244,-1.34114 0.87198,-1.73757 0.05593,-0.33697 0.295715,-0.9651 0.532972,-1.3958 0.411782,-0.74754 0.421436,-0.80208 0.212842,-1.19956 -0.120145,-0.22901 -0.329697,-0.62942 -0.465533,-0.88979 -0.1898,-0.36381 -0.226001,-0.65189 -0.156374,-1.24443 0.07151,-0.60795 0.03047,-0.90709 -0.193977,-1.4144 -0.346919,-0.78428 -0.363338,-1.56181 -0.04691,-2.22526 0.223655,-0.46899 0.222711,-0.5776 -0.01617,-1.84557 -0.139596,-0.74102 -0.275717,-1.89053 -0.302579,-2.55449 -0.04176,-1.03439 -0.110705,-1.31692 -0.481309,-1.97357 -0.237872,-0.42147 -0.557029,-1.09791 -0.709256,-1.50316 -0.195249,-0.5198 -0.479435,-0.91085 -0.964935,-1.32769 -0.74005,-0.63541 -0.986891,-1.25206 -0.709026,-1.77122 0.128583,-0.24031 0.105703,-0.33303 -0.127726,-0.51765 -0.156431,-0.12373 -0.415773,-0.48797 -0.576323,-0.80946 -0.160537,-0.32147 -0.516381,-0.82251 -0.790755,-1.11342 -0.426414,-0.45214 -0.49883,-0.62601 -0.49883,-1.19752 0,-0.90611 -0.279108,-1.14514 -0.846922,-0.72534 -1.220715,0.90252 -2.022239,-0.40503 -1.015896,-1.65728 0.512933,-0.63827 0.534286,-0.76949 0.239917,-1.47402 -0.116426,-0.27863 -0.211984,-0.81031 -0.212342,-1.18149 0,-0.39396 -0.145847,-1.0273 -0.349449,-1.52159 -0.665475,-1.61545 -0.429762,-3.61923 0.639113,-5.43321 0.723931,-1.2286 0.786821,-1.54226 0.427358,-2.13189 -0.348205,-0.57116 -0.373349,-1.36533 -0.07066,-2.23446 0.293784,-0.84372 0.187341,-1.14558 -0.651586,-1.84797 -0.963376,-0.8066 -1.313455,-1.51549 -1.232229,-2.49516 0.09168,-1.10557 0.441547,-1.51066 1.351044,-1.56426 0.565197,-0.0334 0.737904,-0.1009 0.805959,-0.3153 0.04763,-0.15008 0.367514,-0.50305 0.710813,-0.78438 0.343329,-0.28133 0.756628,-0.72573 0.918451,-0.98756 0.495698,-0.80204 0.982972,-1.04845 2.354169,-1.19044 0.821576,-0.0851 1.80482,-0.32613 2.930007,-0.71836 2.041218,-0.71158 3.329759,-0.8437 4.711655,-0.48318 0.636467,0.16604 0.945439,0.19107 1.051353,0.0851 0.194449,-0.19447 0.934169,-0.19115 1.723951,0.007 0.800423,0.20156 1.209673,-0.0358 1.451094,-0.84161 0.481151,-1.60591 2.141612,-1.51394 4.52852,0.25084 1.395025,1.03144 2.010997,1.31043 2.868946,1.29954 1.217368,-0.0155 2.981282,-0.75128 4.982668,-2.07848 1.005456,-0.66676 1.641924,-0.90478 2.421064,-0.90537 0.425269,-2.9e-4 0.845748,-0.10466 1.136914,-0.28225 0.254135,-0.15494 0.691148,-0.28172 0.971142,-0.28172 l 0.509101,0 -0.09555,0.59976 c -0.05249,0.32988 -0.132302,1.04432 -0.177127,1.58763 -0.04677,0.5665 -0.171308,1.09052 -0.291982,1.22852 -0.261315,0.29885 -0.188584,0.87128 0.259971,2.04613 0.279795,0.73282 0.308487,0.94393 0.175984,1.29496 -0.146276,0.38751 -0.130014,0.43055 0.213587,0.56608 0.204546,0.0807 0.56242,0.18937 0.795273,0.24155 0.508499,0.114 0.774263,0.30844 0.905221,0.66249 0.07723,0.20889 0.281911,0.27637 0.986947,0.32544 1.038453,0.0723 1.389205,0.22768 1.566576,0.69423 0.207564,0.54596 -0.09197,1.16479 -0.718524,1.48443 -0.299748,0.15291 -0.768184,0.474 -1.040971,0.71351 -0.272799,0.23952 -0.925487,0.59459 -1.45042,0.78904 -0.524933,0.19445 -1.271963,0.4723 -1.660061,0.61746 -0.869463,0.32519 -1.918899,0.34622 -2.491862,0.05 -0.237344,-0.12273 -0.809863,-0.50168 -1.27225,-0.84206 -0.462385,-0.3404 -1.057146,-0.6595 -1.321694,-0.70913 -0.632534,-0.11871 -2.484153,0.29776 -2.94867,0.66315 -0.329298,0.25902 -0.36228,0.37788 -0.36228,1.30571 0,0.86721 0.05307,1.09269 0.352811,1.49897 0.249114,0.33766 0.352797,0.65882 0.352797,1.09284 0,0.33805 0.09355,0.79562 0.207993,1.01683 0.351138,0.67903 1.303315,1.38619 2.095156,1.55601 0.395692,0.0849 0.833721,0.2577 0.973375,0.38409 0.230234,0.20836 0.234068,0.26007 0.04104,0.55459 -0.202487,0.30903 -0.183692,0.35302 0.386896,0.90549 0.329841,0.31936 0.981927,0.76014 1.44909,0.97951 0.924673,0.43419 1.620255,1.03578 1.620255,1.40131 0,0.36429 -0.382948,0.81815 -0.772875,0.91602 -0.497057,0.12472 -0.45522,0.53995 0.111563,1.10672 0.257196,0.25719 0.588467,0.67218 0.736145,0.92217 0.255423,0.43241 0.70302,0.71123 0.871423,0.54283 0.04305,-0.0431 -0.219966,-0.36806 -0.584448,-0.72229 -0.87833,-0.85362 -0.857792,-1.25296 0.06751,-1.31332 0.496398,-0.0323 0.758128,0.0376 1.160241,0.31054 0.286961,0.19474 0.556314,0.29235 0.602142,0.21822 0.171163,-0.27698 0.985946,-0.11757 1.839633,0.35978 0.485771,0.27166 0.920525,0.49393 0.966137,0.49393 0.04563,0 0.08296,-0.1618 0.08296,-0.35954 0,-0.4515 -0.535603,-0.95977 -1.554633,-1.47532 -0.883565,-0.44701 -2.054793,-1.61767 -2.200897,-2.19981 -0.05377,-0.21445 -0.02631,-0.57928 0.06094,-0.81076 0.145661,-0.38587 0.118142,-0.46597 -0.331257,-0.96336 -0.381174,-0.42192 -0.49012,-0.66368 -0.49012,-1.08757 0,-0.59417 0.386924,-1.21334 0.850083,-1.36034 0.153027,-0.0486 0.319399,-0.25872 0.369703,-0.467 0.159736,-0.6613 0.584791,-1.10771 1.351716,-1.41957 0.409666,-0.1666 0.991797,-0.43617 1.293589,-0.59902 0.301807,-0.16287 0.732914,-0.34896 0.958027,-0.41352 0.394276,-0.11314 0.422039,-0.0885 0.756642,0.66807 0.434409,0.98225 0.43398,1.25098 -0.0029,2.07324 l -0.350595,0.65936 0.304726,0.24367 c 0.742409,0.59373 0.96093,0.88361 0.96093,1.27467 0,0.22481 0.158763,0.70735 0.352811,1.07229 0.466019,0.87645 0.448642,1.4301 -0.07052,2.24878 -0.252849,0.39869 -0.423368,0.8576 -0.423368,1.13932 0,1.15396 0.920452,1.05486 3.98176,-0.42864 1.261293,-0.61123 2.642817,-1.31947 3.07006,-1.57387 1.040427,-0.61952 1.39567,-0.52391 1.063268,0.28614 -0.08997,0.21931 -0.0043,0.24697 0.760504,0.24697 0.759374,0 0.861825,0.0326 0.861825,0.27424 0,0.53474 -0.52027,0.71361 -2.075546,0.71361 -1.37114,0 -1.48595,0.0232 -2.156001,0.43549 -0.708712,0.43606 -0.849296,0.62278 -0.545258,0.72413 0.08939,0.0297 0.187312,0.40022 0.217691,0.8232 l 0.05521,0.76907 -0.624081,0.38808 c -0.624997,0.38864 -1.411575,0.51195 -1.575343,0.24696 -0.150797,-0.244 -1.075441,-0.15361 -1.572741,0.15374 -0.742795,0.45908 -0.8408,0.76288 -0.410867,1.27383 0.248285,0.29506 0.360707,0.59571 0.360707,0.9646 0,0.29476 0.09726,0.81165 0.216203,1.14867 0.123578,0.35012 0.178315,0.78518 0.127868,1.01507 -0.05907,0.26883 -0.01559,0.48284 0.131159,0.64498 0.344073,0.3802 0.674971,1.2837 0.579872,1.58334 -0.0934,0.29421 -0.496872,0.354 -0.907195,0.13444 -0.32003,-0.17127 -0.721127,-0.84349 -1.241984,-2.08151 -0.221281,-0.52593 -0.694024,-1.33728 -1.050554,-1.80298 -0.35653,-0.4657 -0.732068,-1.08741 -0.834549,-1.38157 -0.10241,-0.29415 -0.298317,-0.63622 -0.43521,-0.76011 -0.228733,-0.20699 -0.256796,-0.20478 -0.345875,0.0275 -0.241234,0.62863 0.673742,2.50164 2.204803,4.51337 0.818445,1.0754 1.132066,1.69965 1.132066,2.25341 0,0.31603 -0.05865,0.35733 -0.506884,0.35733 -0.827083,0 -1.916311,0.9444 -2.149693,1.86388 -0.128011,0.50417 -0.100123,0.72864 0.195236,1.57407 0.413971,1.18486 0.429332,1.55074 0.07924,1.88391 -0.145962,0.13888 -0.298088,0.47473 -0.338108,0.74639 -0.04005,0.27167 -0.117427,0.63256 -0.171993,0.80199 -0.08539,0.26509 0,0.35822 0.610508,0.66773 1.214178,0.61528 1.539471,1.46954 0.694137,1.8229 -0.818659,0.34219 -0.84027,0.42366 -0.667534,2.51489 0.08554,1.03601 0.219622,2.12906 0.297874,2.42902 0.159149,0.61007 0.754939,1.21952 1.901279,1.94487 0.411425,0.26033 0.751092,0.57393 0.754825,0.6969 0.0043,0.123 -0.256795,0.59923 -0.578927,1.0584 -0.827541,1.17954 -0.966638,1.59123 -0.966638,2.86135 0,0.7861 -0.125723,1.60262 -0.423367,2.74883 -0.232853,0.89681 -0.423811,1.90387 -0.424355,2.23792 0,0.33403 -0.127583,1.13528 -0.282241,1.78054 -0.196279,0.81878 -0.281254,1.66161 -0.281254,2.78997 0,1.41062 -0.04605,1.72887 -0.36072,2.49596 -0.656578,1.60035 -0.985203,7.45922 -0.560762,9.99758 0.278121,1.66329 0.234454,2.01572 -0.421752,3.40428 -0.266436,0.5638 -0.580829,1.48764 -0.698629,2.05299 -0.117856,0.56534 -0.413498,1.5322 -0.657063,2.14859 l -0.442863,1.1207 0.529195,1.07102 c 0.566784,1.14708 0.555986,1.01803 0.272758,3.254995 -0.06179,0.48836 -0.01788,0.97255 0.13645,1.50349 0.305841,1.05203 0.286803,2.14655 -0.05464,3.13877 -0.350723,1.01937 -0.35018,1.38896 0.0029,2.16753 0.430892,0.9496 0.370663,1.28253 -0.362121,2.00147 -0.471798,0.4629 -0.700217,0.83425 -0.864387,1.40532 -0.355614,1.23699 -0.564738,1.52445 -1.584725,2.17824 -0.835322,0.53543 -1.045604,0.76236 -1.604922,1.73206 -0.354012,0.61374 -0.754939,1.20746 -0.890946,1.3194 -0.136021,0.11185 -0.578369,0.64804 -0.983014,1.19136 -0.404646,0.54332 -0.910599,1.14661 -1.124343,1.34067 -0.66064,0.59976 -1.197086,1.43348 -1.197086,1.86044 0,0.2238 0.150538,0.70642 0.334532,1.07252 0.183993,0.3661 0.376654,0.80184 0.428145,0.9683 0.19964,0.64536 -0.871638,1.061 -1.191953,0.46248 z M 9.591884,42.001775 c -0.881578,-0.5811 -0.957312,-0.6035 -2.211553,-0.65423 -1.173245,-0.0475 -1.377763,-0.016 -2.116826,0.32598 -0.968082,0.4479 -2.411709,0.69396 -2.9254,0.49865 -0.48786,-0.18548 -0.604673,-0.74498 -0.28101,-1.34598 0.242578,-0.45046 0.243594,-0.4934 0.01745,-0.74323 -0.13502,-0.14916 -0.23996,-0.49391 -0.23996,-0.78802 0,-0.44916 -0.07052,-0.56443 -0.499946,-0.81783 -0.483413,-0.28523 -0.496857,-0.31569 -0.406048,-0.9212 0.08395,-0.55991 0.06222,-0.63454 -0.205648,-0.70458 -0.164784,-0.0431 -0.304868,-0.11858 -0.311333,-0.16773 -0.0542,-0.41208 -0.124293,-0.72481 -0.256781,-1.14685 C 0.069729,35.265595 0,34.675225 0,34.224795 c 0,-0.75891 0.03047,-0.83647 0.416588,-1.05803 0.229134,-0.13146 0.449871,-0.37168 0.490549,-0.53374 0.04062,-0.16205 0.234225,-0.36767 0.430133,-0.45693 0.282684,-0.12887 0.356201,-0.26485 0.356201,-0.65924 0,-0.45486 0.03475,-0.49695 0.411382,-0.49695 0.420907,0 0.76601,-0.23393 1.717501,-1.16426 0.297687,-0.29106 0.639027,-0.5292 0.758529,-0.5292 0.278664,0 0.275261,-0.0267 -0.08024,-0.62933 -0.22859,-0.38743 -0.260228,-0.54935 -0.13645,-0.69844 0.32432,-0.39081 0.679691,-0.34636 1.155479,0.14454 0.399525,0.41221 0.555757,0.47762 1.140848,0.47762 0.624668,0 0.677933,0.0271 0.677933,0.34447 0,0.47008 0.196407,0.55388 0.694451,0.29635 0.602842,-0.31175 1.101557,-0.26886 1.499352,0.12886 0.304652,0.30466 0.346289,0.47042 0.345602,1.37593 -0.0014,1.18597 -0.195264,2.0247 -0.495898,2.14005 -0.300477,0.11529 -0.258998,0.34159 0.152155,0.83023 0.351266,0.41743 0.359892,0.47702 0.31754,2.18754 l -0.04362,1.75843 0.599767,0.53331 c 0.493238,0.4386 0.599766,0.62248 0.599766,1.03529 0,0.27608 -0.135449,0.73149 -0.300934,1.01202 l -0.300934,0.51004 0.381703,0.3984 c 0.291251,0.304 0.370919,0.51111 0.336205,0.87397 -0.06537,0.68346 -0.444608,0.67255 -1.531718,-0.0441 z M 64.53891,25.057495 c -0.705765,-0.74817 -1.137672,-1.63713 -1.910448,-3.93218 l -0.731124,-2.17134 0.03533,-2.1874 c 0.04277,-2.64806 -0.04906,-3.41922 -0.467192,-3.922 -0.228289,-0.27453 -0.345001,-0.65326 -0.414199,-1.34417 -0.117714,-1.1755 -0.426615,-1.9861696 -0.898141,-2.3570696 -0.448598,-0.35287 -0.646408,-0.35045 -1.405653,0.0171 -0.721985,0.34951 -1.055287,0.8826196 -0.866158,1.3854196 0.157404,0.41844 0.05535,0.52683 -0.611181,0.64928 -0.516753,0.0949 -0.520871,0.0918 -0.83126,-0.6297 C 56.095055,9.7661654 55.844295,9.5693654 55.169811,9.5693654 l -0.45083,0 0.09211,-0.69413 c 0.175828,-1.32551 0.308215,-1.52701 1.222132,-1.86023 1.329747,-0.48486 1.602562,-1.24152 0.560219,-1.55381 -0.674971,-0.20224 -1.429525,0.0223 -1.843395,0.54836 -0.268095,0.34083 -0.284157,0.48781 -0.196423,1.7976 0.07995,1.19344 0.05649,1.50186 -0.143287,1.88831 -0.190859,0.3690596 -0.208537,0.5488496 -0.08811,0.8945696 0.218048,0.62546 0.19123,0.78633 -0.195579,1.17313 -0.264606,0.26462 -0.495527,0.34638 -0.978223,0.34638 -0.55384,0 -0.670967,-0.0566 -0.948488,-0.45865 -0.174153,-0.25225 -0.657535,-0.82197 -1.074181,-1.26607 -1.123984,-1.1979796 -1.358495,-1.8225496 -1.424519,-3.7937596 -0.06436,-1.92398 0.04162,-2.22689 1.066873,-3.04765 0.368416,-0.29492 1.082864,-0.96323 1.58763,-1.48512 1.623215,-1.67823996 3.192566,-2.33858996 4.63482,-1.95023996 0.535918,0.14432 0.631161,0.23865 0.935371,0.92650996 0.395978,0.89537 0.896725,1.25817 2.047312,1.48324 1.100542,0.21529 1.522981,0.40299 1.853951,0.82373 0.250846,0.3189 0.276276,0.48813 0.194992,1.29753 -0.08138,0.81022 -0.04619,1.04301 0.271184,1.79721 0.200586,0.47653 0.426944,1.29704 0.50305,1.82334 0.165128,1.14202 0.170792,3.5235496 0.01006,3.9204896 -0.08282,0.20375 -0.03104,0.37418 0.186325,0.61278 0.274045,0.30081 0.2958,0.45312 0.241635,1.69346 -0.172222,3.94399 -0.153185,4.00727 1.218941,4.04987 0.448957,0.0143 0.905078,0.0344 1.013594,0.0452 0.108565,0.0115 0.521301,0.3703 0.917293,0.79869 0.577854,0.62514 0.858293,0.81319 1.420657,0.95258 0.839484,0.20809 1.240196,0.71048 1.50287,1.88421 0.206206,0.92146 0.07266,1.43501 -0.449457,1.72806 -0.3084,0.17309 -0.416803,0.17371 -0.768827,0.004 -0.600582,-0.28891 -1.352575,-1.369 -1.810541,-2.60049 -0.490593,-1.31919 -0.962848,-1.88087 -1.676909,-1.99437 -0.60227,-0.0957 -1.238394,0.22636 -1.23622,0.62594 0.0014,0.34529 0.740136,1.58281 1.218399,2.04232 0.221753,0.21305 0.671709,0.57761 0.99992,0.81014 0.328224,0.23255 0.636854,0.58256 0.68587,0.77782 0.213486,0.8506 -0.328052,1.90552 -0.97818,1.90552 -0.177771,0 -0.511646,-0.20356 -0.752278,-0.45864 z"
     style="fill:#000000;stroke:none" />
</svg>
