<?xml version="1.0" encoding="UTF-8"?>
<svg width="508px" height="132px" viewBox="0 0 508 132" version="1.1" xmlns="http://www.w3.org/2000/svg" xmlns:xlink="http://www.w3.org/1999/xlink">
    <!-- Generator: Sketch 46.2 (44496) - http://www.bohemiancoding.com/sketch -->
    <title>check_wordmark</title>
    <desc>Created with Sketch.</desc>
    <defs></defs>
    <g id="Page-1" stroke="none" stroke-width="1" fill="none" fill-rule="evenodd">
        <g id="check_wordmark" fill="#2E77FC">
            <path d="M0,68.3814433 C0,58.7422198 1.69752873,50.0103484 5.09263711,42.185567 C8.48774549,34.3607856 13.1276574,27.6701309 19.0125119,22.1134021 C24.8973664,16.5566732 31.8289421,12.2757882 39.8074468,9.27061856 C47.7859515,6.26544889 56.3018872,4.7628866 65.3555096,4.7628866 C74.6354725,4.7628866 83.4060376,6.26544889 91.667468,9.27061856 C99.9288984,12.2757882 106.832182,16.3298714 112.377526,21.4329897 L87.5933583,51.371134 C85.3299527,48.4226657 82.5007382,46.1829973 79.1056298,44.6520619 C75.7105214,43.1211264 71.9193739,42.3556701 67.7320736,42.3556701 C64.3369652,42.3556701 61.1682449,42.951025 58.2258176,44.1417526 C55.2833904,45.3324802 52.7088051,47.0618443 50.5019847,49.3298969 C48.2951642,51.5979495 46.5693434,54.347922 45.3244703,57.5798969 C44.0795972,60.8118718 43.45717,64.4123513 43.45717,68.3814433 C43.45717,72.3505353 44.1078894,75.8943143 45.4093476,79.0128866 C46.7108058,82.1314589 48.4649188,84.8247309 50.6717393,87.0927835 C52.8785597,89.3608361 55.4531449,91.0902002 58.3955722,92.2809278 C61.3379995,93.4716554 64.4501355,94.0670103 67.7320736,94.0670103 C72.372055,94.0670103 76.3612475,93.1031024 79.6997708,91.1752577 C83.038294,89.247413 85.6694636,86.9793945 87.5933583,84.371134 L112.377526,114.139175 C106.945352,119.582501 100.268406,123.920087 92.3464863,127.152062 C84.4245667,130.384037 75.4276645,132 65.3555096,132 C56.3018872,132 47.7859515,130.469087 39.8074468,127.407216 C31.8289421,124.345346 24.8973664,120.00776 19.0125119,114.39433 C13.1276574,108.7809 8.48774549,102.090245 5.09263711,94.3221649 C1.69752873,86.5540849 0,77.9072641 0,68.3814433 L0,68.3814433 Z M179.495871,36.742268 C185.720237,36.742268 190.897699,37.8762773 195.028414,40.1443299 C199.15913,42.4123825 202.441019,45.3324564 204.87418,48.9046392 C207.307341,52.476822 209.004869,56.4742047 209.966817,60.8969072 C210.928764,65.3196097 211.40973,69.7422459 211.40973,74.1649485 L211.40973,128.597938 L172.02667,128.597938 L172.02667,80.9690722 C172.02667,76.432967 171.319367,73.257741 169.904738,71.443299 C168.49011,69.6288569 166.368199,68.7216495 163.538942,68.7216495 C161.275536,68.7216495 159.238502,69.7139076 157.427777,71.6984536 C155.617053,73.6829996 154.711704,76.8298754 154.711704,81.1391753 L154.711704,128.597938 L115.498398,128.597938 L115.498398,0 L154.711704,0 L154.711704,48.9896907 L155.051213,48.9896907 C157.314619,45.7010145 160.539923,42.8376411 164.727224,40.3994845 C168.914524,37.961328 173.837357,36.742268 179.495871,36.742268 L179.495871,36.742268 Z M277.683724,71.9536082 C277.683724,68.7783346 276.523746,66.1701133 274.203755,64.128866 C271.883764,62.0876187 268.743336,61.0670103 264.782376,61.0670103 C260.481906,61.0670103 257.143432,62.2577201 254.766857,64.6391753 C252.390281,67.0206305 251.032258,69.4587504 250.692747,71.9536082 L277.683724,71.9536082 Z M311.464883,84.7113402 C311.464883,86.1855744 311.436591,87.6881367 311.380006,89.2190722 C311.323421,90.7500077 311.238544,92.0257681 311.125374,93.0463918 L251.032256,93.0463918 C251.145426,94.6340286 251.682977,96.0515402 252.644924,97.2989691 C253.606872,98.546398 254.795142,99.6237068 256.20977,100.530928 C257.624399,101.438149 259.208759,102.118554 260.962898,102.572165 C262.717038,103.025775 264.499443,103.252577 266.310167,103.252577 C269.931616,103.252577 272.958876,102.600522 275.392037,101.296392 C277.825198,99.9922615 279.664187,98.5463997 280.90906,96.9587629 L308.74881,111.07732 C304.78785,117.541269 299.044545,122.644311 291.518721,126.386598 C283.992897,130.128885 275.250625,132 265.29164,132 C258.840934,132 252.560078,130.979392 246.448883,128.938144 C240.337688,126.896897 234.933888,123.863422 230.237321,119.837629 C225.540755,115.811836 221.777899,110.793844 218.948642,104.783505 C216.119385,98.7731658 214.704778,91.7990088 214.704778,83.8608247 C214.704778,76.4896539 216.006217,69.8273494 218.609133,63.8737113 C221.21205,57.9200733 224.748568,52.873732 229.218794,48.7345361 C233.68902,44.5953401 238.951359,41.3917639 245.005969,39.1237113 C251.060579,36.8556588 257.53948,35.7216495 264.442867,35.7216495 C271.459424,35.7216495 277.853449,36.9407095 283.625134,39.378866 C289.396818,41.8170225 294.347943,45.2190503 298.478658,49.5850515 C302.609374,53.9510528 305.806386,59.1391452 308.069792,65.1494845 C310.333197,71.1598239 311.464883,77.6803772 311.464883,84.7113402 L311.464883,84.7113402 Z M366.698907,132 C359.116498,132 352.156631,130.865991 345.819095,128.597938 C339.481559,126.329886 333.992883,123.097959 329.352902,118.902062 C324.71292,114.706165 321.091526,109.659823 318.488609,103.762887 C315.885693,97.8659499 314.584254,91.2319956 314.584254,83.8608247 C314.584254,76.6030565 315.913985,69.9974524 318.573486,64.0438144 C321.232988,58.0901764 324.939259,53.0154849 329.692411,48.8195876 C334.445562,44.6236904 340.019115,41.3917639 346.413236,39.1237113 C352.807357,36.8556588 359.738932,35.7216495 367.208171,35.7216495 C370.263768,35.7216495 373.347612,35.9768016 376.459795,36.4871134 C379.571978,36.9974252 382.570945,37.706181 385.456787,38.6134021 C388.342629,39.5206231 391.002091,40.5412314 393.435252,41.6752577 C395.868413,42.809284 397.93374,44.0566942 399.631294,45.4175258 L380.109518,73.6546392 C378.751475,72.0670024 376.96907,70.8479424 374.762249,69.9974227 C372.555429,69.146903 370.433518,68.7216495 368.396453,68.7216495 C366.472558,68.7216495 364.605276,69.033502 362.794552,69.6572165 C360.983827,70.280931 359.371175,71.2448388 357.956547,72.5489691 C356.541918,73.8530993 355.38194,75.4407123 354.476578,77.3118557 C353.571216,79.182999 353.118541,81.3659669 353.118541,83.8608247 C353.118541,86.3556826 353.571216,88.5386504 354.476578,90.4097938 C355.38194,92.2809372 356.541918,93.8118497 357.956547,95.0025773 C359.371175,96.1933049 360.983827,97.1005123 362.794552,97.7242268 C364.605276,98.3479413 366.472558,98.6597938 368.396453,98.6597938 C370.659858,98.6597938 372.866646,98.2345403 375.016881,97.3840206 C377.167116,96.5335009 378.921229,95.3711414 380.279273,93.8969072 L399.970803,121.453608 C396.236184,124.402077 391.398227,126.896897 385.456787,128.938144 C379.515347,130.979392 373.262783,132 366.698907,132 L366.698907,132 Z M440.77719,89.6443299 L440.77719,128.597938 L401.563884,128.597938 L401.563884,0 L440.77719,0 L440.77719,73.314433 L441.286454,73.314433 L462.505775,39.1237113 L508,39.1237113 L479.141723,79.4381443 L507.830245,128.597938 L462.166266,128.597938 L441.286454,89.6443299 L440.77719,89.6443299 Z" id="Check"></path>
        </g>
    </g>
</svg>