<?xml version="1.0" encoding="UTF-8"?>
<svg width="300px" height="300px" viewBox="0 0 300 300" version="1.1" xmlns="http://www.w3.org/2000/svg" xmlns:xlink="http://www.w3.org/1999/xlink">
    <!-- Generator: Sketch 43.2 (39069) - http://www.bohemiancoding.com/sketch -->
    <title>Check</title>
    <desc>Created with Sketch.</desc>
    <defs></defs>
    <g id="Page-1" stroke="none" stroke-width="1" fill="none" fill-rule="evenodd">
        <g id="Check">
            <g id="Group">
                <rect id="Rectangle-3" fill="#2E77FC" x="0" y="0" width="300" height="300" rx="21.4285714"></rect>
                <path d="M81.7975831,120.063025 C86.3293278,109.520574 92.5226193,100.506149 100.377644,93.0194805 C108.232668,85.5328121 117.484841,79.7651081 128.134441,75.7161956 C138.784041,71.667283 150.150997,69.6428571 162.23565,69.6428571 C174.622418,69.6428571 186.32925,71.667283 197.356495,75.7161956 C208.383741,79.7651081 217.59815,85.2272383 225,92.1027502 L191.918429,132.438885 C188.897266,128.466367 185.120869,125.448826 180.589124,123.386173 C176.057379,121.323519 170.997007,120.292208 165.407855,120.292208 C160.87611,120.292208 156.646545,121.094339 152.719033,122.698625 C148.791521,124.302911 145.355,126.632911 142.409366,129.688694 C139.463731,132.744477 137.160129,136.449558 135.498489,140.804049 C133.83685,145.15854 133.006042,150.009523 133.006042,155.357143 C133.006042,160.704763 133.874614,165.479353 135.611782,169.681054 C137.348951,173.882756 139.690318,177.511444 142.635952,180.567227 C145.581586,183.62301 149.018107,185.95301 152.945619,187.557296 C156.873131,189.161582 161.027168,189.963713 165.407855,189.963713 C171.601239,189.963713 176.92596,188.665024 181.382175,186.067609 C185.838391,183.470193 189.35044,180.414456 191.918429,176.900306 L225,217.007257 C217.749208,224.341137 208.836911,230.185234 198.26284,234.539725 C187.688769,238.894216 175.679826,241.071429 162.23565,241.071429 C150.150997,241.071429 138.784041,239.008806 128.134441,234.883499 C117.484841,230.758192 108.232668,224.914094 100.377644,217.351031 C92.5226193,209.787968 86.3293278,200.773544 81.7975831,190.307487 C77.2658384,179.84143 75,168.191432 75,155.357143 C75,142.370065 77.2658384,130.605477 81.7975831,120.063025 Z" id="Path" fill="#FFFFFF"></path>
            </g>
        </g>
    </g>
</svg>