<?xml version="1.0" encoding="UTF-8"?>
<svg width="144px" height="55px" viewBox="0 0 144 55" version="1.1" xmlns="http://www.w3.org/2000/svg" xmlns:xlink="http://www.w3.org/1999/xlink">
    <!-- Generator: Sketch 49.2 (51160) - http://www.bohemiancoding.com/sketch -->
    <title>gni</title>
    <desc>Created with Sketch.</desc>
    <defs></defs>
    <g id="gni" stroke="none" stroke-width="1" fill="none" fill-rule="evenodd">
        <g id="Group" transform="translate(2.000000, 2.000000)" fill="#000000" fill-rule="nonzero">
            <polygon id="Shape" points="0.55 48.24 0.55 31.78 3.13 31.78 11.13 44.59 11.22 44.59 11.13 41.41 11.13 31.78 13.25 31.78 13.25 48.24 11 48.24 2.67 34.81 2.57 34.81 2.67 37.99 2.67 48.24"></polygon>
            <path d="M21.28,48.61 C19.7158732,48.6703832 18.2022606,48.0503491 17.13,46.91 C16.0480725,45.7452311 15.4726183,44.1986979 15.53,42.61 C15.4999577,41.0558547 16.0529261,39.546786 17.08,38.38 C18.0753838,37.2132104 19.5470675,36.5619903 21.08,36.61 C22.5870671,36.5449951 24.0476054,37.1401645 25.08,38.24 C26.131644,39.4453536 26.673162,41.0125281 26.59,42.61 L26.59,43 L17.64,43 C17.6581409,44.0102855 18.0666913,44.9743209 18.78,45.69 C19.4319029,46.3347974 20.3130915,46.6944663 21.23,46.69 C22.5774341,46.8173406 23.8432776,46.0267005 24.32,44.76 L26.2,45.54 C25.8171036,46.4328411 25.1852793,47.1965848 24.38,47.74 C23.4632937,48.3475291 22.3789499,48.6518449 21.28,48.61 Z M24.28,41.25 C24.2014241,40.5532406 23.8874603,39.9041469 23.39,39.41 C22.7490427,38.8001606 21.8830035,38.4849079 21,38.54 C20.2665051,38.5306315 19.5549966,38.7903321 19,39.27 C18.4018066,39.7940433 17.9851766,40.4942618 17.81,41.27 L24.28,41.25 Z" id="Shape"></path>
            <polygon id="Shape" points="40.42 48.24 38.26 48.24 35.45 39.6 32.67 48.24 30.53 48.24 26.89 37 29.1 37 31.61 45.51 31.61 45.51 34.41 37 36.6 37 39.38 45.51 39.38 45.51 41.89 37 44.05 37"></polygon>
            <path d="M49.36,48.61 C48.2465283,48.6596535 47.1483893,48.3358433 46.24,47.69 C45.4397634,47.1035988 44.8168953,46.3077118 44.44,45.39 L46.32,44.61 C46.7632624,45.9123521 48.0049408,46.7725999 49.38,46.73 C49.952365,46.7531171 50.517974,46.5994949 51,46.29 C51.3960227,46.0426151 51.6347097,45.6069166 51.63,45.14 C51.63,44.4 51.12,43.91 50.09,43.64 L47.82,43.09 C47.0907602,42.9001368 46.4094344,42.5594739 45.82,42.09 C45.171145,41.5937225 44.7993281,40.8166253 44.82,40 C44.8129896,39.0171009 45.3164887,38.1009595 46.15,37.58 C47.0722484,36.9463014 48.1714023,36.6207558 49.29,36.65 C50.2204854,36.6326902 51.138737,36.8639791 51.95,37.32 C52.7214174,37.7527897 53.3160976,38.4430435 53.63,39.27 L51.77,40 C51.3391681,38.9868054 50.294079,38.3768312 49.2,38.5 C48.6440927,38.4800759 48.093593,38.6151041 47.61,38.89 C47.2299513,39.1021128 46.9960185,39.5047839 47,39.94 C47,40.59 47.49,41.02 48.49,41.25 L50.72,41.78 C51.5943879,41.9537297 52.3920072,42.3980176 53,43.05 C53.4857376,43.6034984 53.755577,44.313602 53.76,45.05 C53.7687051,46.0439756 53.3047628,46.9829948 52.51,47.58 C51.6119001,48.2795243 50.4978822,48.6437904 49.36,48.61 Z" id="Shape"></path>
            <polygon id="Shape" points="61.06 48.24 61.06 31.78 63.18 31.78 63.18 48.24"></polygon>
            <path d="M68.1,37 L68.1,38.57 L68.19,38.57 C68.5419402,37.9917347 69.0427125,37.5185912 69.64,37.2 C70.2805648,36.8279194 71.009232,36.6345291 71.75,36.64 C72.967372,36.5385347 74.1643759,36.9989208 75,37.89 C75.7763304,38.8667315 76.1676851,40.0941621 76.1,41.34 L76.1,48.24 L73.94,48.24 L73.94,41.67 C73.94,39.58 73.01,38.54 71.16,38.54 C70.3114293,38.5148486 69.5044045,38.9071523 69,39.59 C68.4553356,40.2732707 68.1685766,41.1264674 68.19,42 L68.19,48.23 L66.07,48.23 L66.07,37 L68.1,37 Z" id="Shape"></path>
            <path d="M80.55,34.15 C79.9633374,34.7229167 79.0266626,34.7229167 78.44,34.15 C78.1557628,33.8708827 77.9969785,33.4883568 78,33.09 C78,32.2615729 78.6715729,31.59 79.5,31.59 C80.3284271,31.59 81,32.2615729 81,33.09 C81.0003978,33.4898281 80.8379137,33.8725683 80.55,34.15 Z M80.55,48.24 L78.44,48.24 L78.44,37 L80.55,37 L80.55,48.24 Z" id="Shape"></path>
            <path d="M87.74,48.43 C86.7498446,48.5458852 85.7609083,48.2037606 85.0540392,47.5007861 C84.3471701,46.7978116 83.999587,45.8107805 84.11,44.82 L84.11,38.91 L82.11,38.91 L82.11,37 L84.11,37 L84.11,33.52 L86.22,33.52 L86.22,37 L89,37 L89,38.94 L86.24,38.94 L86.24,44.69 C86.24,45.91 86.75,46.53 87.76,46.53 C88.1032626,46.541141 88.4447435,46.4762596 88.76,46.34 L89.49,48.16 C88.93217,48.3721601 88.3358346,48.4641662 87.74,48.43 Z" id="Shape"></path>
            <path d="M93,34.15 C92.4099455,34.7241287 91.4700545,34.7241287 90.88,34.15 C90.5984546,33.8698623 90.4431883,33.4871128 90.45,33.09 C90.4396154,32.6922302 90.5954337,32.30812 90.88,32.03 C91.4573227,31.4367237 92.406121,31.4232973 93,32 C93.2872184,32.2770945 93.4465589,32.6609603 93.44,33.06 C93.4513036,33.4687136 93.291872,33.8636692 93,34.15 Z M93,48.24 L90.88,48.24 L90.88,37 L93,37 L93,48.24 Z" id="Shape"></path>
            <path d="M99,48.61 C97.9114267,48.6542697 96.8442968,48.2985597 96,47.61 C95.2042672,46.9265797 94.7626697,45.9182654 94.8,44.87 C94.7636734,43.7337224 95.3010062,42.6552992 96.23,42 C97.2662087,41.2988297 98.49992,40.9483435 99.75,41 C100.812795,40.9583892 101.867911,41.1963076 102.81,41.69 L102.81,41.37 C102.847879,40.6083454 102.534648,39.8713307 101.96,39.37 C101.381813,38.8671335 100.635999,38.5994968 99.87,38.62 C99.2832767,38.608757 98.7050127,38.761114 98.2,39.06 C97.7381215,39.3279471 97.384399,39.7488768 97.2,40.25 L95.27,39.42 C95.5987075,38.6651316 96.13217,38.0173558 96.81,37.55 C97.6901747,36.9453675 98.7431699,36.6435089 99.81,36.69 C101.122416,36.6443962 102.403959,37.0941858 103.4,37.95 C104.381888,38.8687936 104.902562,40.1778118 104.82,41.52 L104.82,48.32 L102.82,48.32 L102.82,46.68 L102.73,46.68 C101.926492,47.9497841 100.500654,48.6875499 99,48.61 Z M99.35,46.68 C100.242634,46.66619 101.095384,46.3078918 101.73,45.68 C102.41189,45.1070127 102.803924,44.2606587 102.8,43.37 C102.012915,42.8268152 101.0637,42.5692213 100.11,42.64 C99.2829824,42.5790346 98.461088,42.8128494 97.79,43.3 C97.2985086,43.6733905 97.0069586,44.2528 97,44.87 C96.9898283,45.4036681 97.2640169,45.9025391 97.72,46.18 C98.2021022,46.5116403 98.7748774,46.6862668 99.36,46.68 L99.35,46.68 Z" id="Shape"></path>
            <path d="M111.64,48.43 C110.648223,48.5492137 109.656353,48.208569 108.947096,47.5051576 C108.237839,46.8017463 107.888998,45.8127293 108,44.82 L108,38.91 L106,38.91 L106,37 L108,37 L108,33.52 L110.11,33.52 L110.11,37 L112.87,37 L112.87,38.94 L110.11,38.94 L110.11,44.69 C110.11,45.91 110.62,46.53 111.63,46.53 C111.973263,46.541141 112.314744,46.4762596 112.63,46.34 L113.36,48.16 C112.811517,48.3680118 112.225838,48.4599497 111.64,48.43 Z" id="Shape"></path>
            <path d="M116.9,34.15 C116.309945,34.7241287 115.370055,34.7241287 114.78,34.15 C114.498455,33.8698623 114.343188,33.4871128 114.35,33.09 C114.339615,32.6922302 114.495434,32.30812 114.78,32.03 C115.365635,31.4450932 116.314365,31.4450932 116.9,32.03 C117.187218,32.3070945 117.346559,32.6909603 117.34,33.09 C117.343022,33.4883568 117.184237,33.8708827 116.9,34.15 Z M116.9,48.24 L114.78,48.24 L114.78,37 L116.9,37 L116.9,48.24 Z" id="Shape"></path>
            <polygon id="Shape" points="122.8 48.24 118.25 37 120.55 37 123.86 45.74 123.86 45.74 127.26 37 129.52 37 124.92 48.27"></polygon>
            <path d="M135.44,48.61 C133.876108,48.6690583 132.363023,48.0492403 131.29,46.91 C130.208072,45.7452311 129.632618,44.1986979 129.69,42.61 C129.659958,41.0558547 130.212926,39.546786 131.24,38.38 C132.235384,37.2132104 133.707068,36.5619903 135.24,36.61 C136.747067,36.5449951 138.207605,37.1401645 139.24,38.24 C140.291644,39.4453536 140.833162,41.0125281 140.75,42.61 L140.75,43 L131.85,43 C131.861191,44.0137431 132.274899,44.98146 133,45.69 C133.650033,46.337623 134.53245,46.6977933 135.45,46.69 C136.793895,46.8126218 138.054269,46.0228424 138.53,44.76 L140.41,45.54 C140.03277,46.4333364 139.403906,47.1977014 138.6,47.74 C137.665046,48.3565928 136.558798,48.6611611 135.44,48.61 Z M138.44,41.25 C138.367856,40.5513975 138.052898,39.9002483 137.55,39.41 C136.903833,38.7889335 136.023701,38.4725226 135.13,38.54 C134.396505,38.5306315 133.684997,38.7903321 133.13,39.27 C132.53168,39.7923047 132.117847,40.4937164 131.95,41.27 L138.44,41.25 Z" id="Shape"></path>
            <path d="M40.22,19.28 C35.0727061,19.28 30.9,15.1072939 30.9,9.96 C30.9,4.81270613 35.0727061,0.64 40.22,0.64 C42.6090101,0.602113024 44.9124908,1.52855209 46.61,3.21 L44.81,5 C43.5773519,3.81685466 41.9284226,3.16662325 40.22,3.19 C36.4810322,3.19 33.45,6.22103224 33.45,9.96 C33.45,13.6989678 36.4810322,16.73 40.22,16.73 C41.9788898,16.800691 43.6858179,16.1251833 44.92,14.87 C45.7319195,13.9872705 46.2217445,12.8560918 46.31,11.66 L40.22,11.66 L40.22,9.12 L48.79,9.12 C48.8837977,9.64465997 48.9273283,10.1770719 48.92,10.71 C48.9925508,12.9046481 48.2028408,15.0404547 46.72,16.66 C45.0301884,18.4263547 42.6624006,19.3807553 40.22,19.28 Z" id="Shape"></path>
            <path d="M62.18,13.28 C62.1359588,16.5387484 59.4663011,19.1490234 56.2073865,19.1197613 C52.9484719,19.0904993 50.3261166,16.4327067 50.340599,13.173693 C50.3550814,9.91467916 53.000954,7.28029759 56.26,7.28 C57.8474141,7.26886959 59.3718856,7.90005822 60.4868258,9.03006522 C61.601766,10.1600722 62.212436,11.6928782 62.18,13.28 Z M59.59,13.28 C59.7101341,12.0166834 59.1039656,10.7944166 58.0255635,10.1254995 C56.9471613,9.45658251 55.5828387,9.45658251 54.5044365,10.1254995 C53.4260344,10.7944166 52.8198659,12.0166834 52.94,13.28 C52.8198659,14.5433166 53.4260344,15.7655834 54.5044365,16.4345005 C55.5828387,17.1034175 56.9471613,17.1034175 58.0255635,16.4345005 C59.1039656,15.7655834 59.7101341,14.5433166 59.59,13.28 Z" id="Shape"></path>
            <path d="M75.43,13.28 C75.380474,16.5318266 72.7129498,19.13259 69.4609124,19.0996977 C66.2088751,19.0668054 63.5945014,16.4126189 63.6107592,13.1604558 C63.627017,9.90829271 66.2677963,7.28037712 69.52,7.28 C71.1065346,7.26879859 72.630038,7.90029737 73.743406,9.03062012 C74.8567739,10.1609429 75.4651766,11.6938158 75.43,13.28 Z M72.84,13.28 C72.9601341,12.0166834 72.3539656,10.7944166 71.2755635,10.1254995 C70.1971613,9.45658251 68.8328387,9.45658251 67.7544365,10.1254995 C66.6760344,10.7944166 66.0698659,12.0166834 66.19,13.28 C66.0698659,14.5433166 66.6760344,15.7655834 67.7544365,16.4345005 C68.8328387,17.1034175 70.1971613,17.1034175 71.2755635,16.4345005 C72.3539656,15.7655834 72.9601341,14.5433166 72.84,13.28 Z" id="Shape"></path>
            <path d="M88.36,7.64 L88.36,18.41 C88.36,22.85 85.75,24.66 82.65,24.66 C80.3234004,24.6743158 78.2216314,23.2731364 77.34,21.12 L79.63,20.12 C80.1059972,21.3737765 81.2895638,22.218054 82.63,22.26 C84.63,22.26 85.84,21.03 85.84,18.74 L85.84,17.87 L85.75,17.87 C84.9496671,18.7695323 83.7936392,19.2707216 82.59,19.24 C79.2762915,19.24 76.59,16.5537085 76.59,13.24 C76.59,9.9262915 79.2762915,7.24 82.59,7.24 C83.7876002,7.20841327 84.9401636,7.69715853 85.75,8.58 L85.84,8.58 L85.84,7.58 L88.36,7.64 Z M86,13.3 C86.0770663,12.3866264 85.7798689,11.4811194 85.176538,10.7910597 C84.5732071,10.101 83.7154857,9.68556855 82.8,9.64 C81.8677559,9.67356759 80.9880192,10.0800098 80.3581817,10.7681308 C79.7283442,11.4562518 79.4011451,12.368432 79.45,13.3 C79.4066811,14.225279 79.7372591,15.1291103 80.3673394,15.8080923 C80.9974196,16.4870743 81.8740679,16.8841644 82.8,16.91 C83.7090974,16.8720652 84.5636568,16.4659723 85.1672167,15.7850813 C85.7707766,15.1041903 86.0714093,14.2070821 86,13.3 Z" id="Shape"></path>
            <polygon id="Shape" points="93 1.28 93 18.91 90.36 18.91 90.36 1.28"></polygon>
            <path d="M103.34,15.25 L105.34,16.62 C104.22299,18.2869729 102.34661,19.2852074 100.34,19.28 C98.7543464,19.3000862 97.2296167,18.6700539 96.1206475,17.5365249 C95.0116783,16.4029959 94.4151907,14.8648333 94.47,13.28 C94.47,9.71 96.95,7.28 100.04,7.28 C102.384608,7.34116548 104.4397,8.86449263 105.18,11.09 L105.45,11.78 L97.45,15.1 C97.9573155,16.2427603 99.1106984,16.9601565 100.36,16.91 C101.578086,16.9268951 102.713206,16.2945801 103.34,15.25 Z M97.05,13.09 L102.41,10.87 C101.992707,10.0327659 101.113412,9.52805871 100.18,9.59 C99.2978901,9.63108303 98.4693266,10.0250522 97.8806676,10.6832971 C97.2920087,11.3415419 96.9926779,12.2087964 97.05,13.09 Z" id="Shape"></path>
        </g>
    </g>
</svg>