<svg width="1024" height="799" viewBox="0 0 1024 799" xmlns="http://www.w3.org/2000/svg"><title>Imported Layers</title><g fill="none" fill-rule="evenodd"><path d="M512.495 270L334 399l178.495 129L691 399 512.495 270" fill="#91A000"/><path d="M168 21c24.975 19.13 41.11 49.253 41.11 83.154V309.03L333.475 399 512 269.855 168 21" fill="#9DC538"/><path d="M168 777c24.975-19.13 41.11-49.254 41.11-83.156v-204.88L333.475 399 512 528.138 168 777" fill="#FBD202"/><path d="M167.928 21.536l-5.125-3.708C146.15 6.573 126.09 0 104.49 0 46.795 0 0 46.93 0 104.813c0 35.112 17.222 66.15 43.64 85.187v.084L209 310V104.813c0-33.952-16.12-64.12-41.072-83.277" fill="#843F18"/><path d="M209 694.175V489L43.632 608.9v.104C17.232 628.012 0 659.08 0 694.184 0 752.07 46.787 799 104.495 799c21.592 0 41.653-6.573 58.316-17.828l5.116-3.718C192.888 758.297 209 728.127 209 694.174" fill="#EB4918"/><path d="M43.64 188.986C17.22 170.014 0 139.02 0 104v589c0-35.02 17.222-65.986 43.64-84.986L209 488.316V308.684L43.64 188.986" fill="#F17522"/><path d="M856 21c-24.966 19.13-41.102 49.253-41.102 83.154V309.03L690.526 399 512 269.855 856 21" fill="#FBD202"/><path d="M856 777c-24.966-19.13-41.102-49.254-41.102-83.156v-204.88L690.526 399 512 528.148 856 777" fill="#9DC538"/><path d="M815 104.825V310l165.36-119.9v-.104c26.408-19.008 43.64-50.076 43.64-85.18C1024 46.93 977.213 0 919.495 0c-21.59 0-41.652 6.573-58.315 17.828l-5.116 3.718C831.112 40.703 815 70.873 815 104.826" fill="#00A013"/><path d="M856.063 777.464l5.124 3.708C877.84 792.427 897.9 799 919.5 799c57.706 0 104.5-46.93 104.5-104.816 0-35.113-17.232-66.154-43.648-85.18v-.094L815 489v205.184c0 33.952 16.12 64.122 41.063 83.28" fill="#01722F"/><path d="M980.352 188.986C1006.768 170.014 1024 139.02 1024 104v589c0-35.02-17.232-65.986-43.648-84.986L815 488.316V308.684l165.352-119.698" fill="#37A0DE"/></g></svg>