<?xml version="1.0" encoding="UTF-8" standalone="no"?>
<svg width="104px" height="80px" viewBox="0 0 104 80" version="1.1" xmlns="http://www.w3.org/2000/svg" xmlns:xlink="http://www.w3.org/1999/xlink" xmlns:sketch="http://www.bohemiancoding.com/sketch/ns">
    <!-- Generator: Sketch 3.3.2 (12043) - http://www.bohemiancoding.com/sketch -->
    <title>white</title>
    <desc>Created with Sketch.</desc>
    <defs></defs>
    <g id="Page-1" stroke="none" stroke-width="1" fill="none" fill-rule="evenodd" sketch:type="MSPage">
        <g id="white" sketch:type="MSArtboardGroup" fill="#FFFFFF">
            <g id="meedan-logo-text-copy" sketch:type="MSLayerGroup">
                <g id="Page-1" sketch:type="MSShapeGroup">
                    <g id="Imported-Layers">
                        <path d="M0.795,10.5705 C0.795,4.8285 5.451,0.1725 11.193,0.1725 C13.343,0.1725 15.339,0.8245 16.996,1.9415 L17.506,2.3085 C19.989,4.2095 21.592,7.2025 21.592,10.5705 L21.592,30.9255 L21.592,48.7865 L5.138,60.6895 C2.509,62.5785 0.795,65.6585 0.795,69.1405 L0.795,10.5705 Z M1.980625,15.394125 C2.73775,16.8355 3.8235,18.0775 5.138,19.0215 C3.8235,18.078 2.73775,16.83575 1.980625,15.394125 Z M17.505,77.417 L51.7032709,52.6925271 L51.706,52.6945 L69.454,39.8645 L51.706,27.0335 L33.9580376,39.8644728 L33.9554625,39.8633885 L33.957,39.8645 L51.705,27.0335 L17.506,2.3085 C19.989,4.2095 21.592,7.2025 21.592,10.5705 L21.592,30.9255 L33.9554625,39.8633885 L21.591,48.8 L21.591,69.155 C21.591,72.523 19.988,75.516 17.505,77.417 L16.996,77.785 C15.338,78.902 13.342,79.554 11.193,79.554 C5.45,79.554 0.795,74.898 0.795,69.156 C0.795,65.674 2.509,62.592 5.137,60.706 L5.137,60.696 L21.591,48.801 L21.591,69.155 C21.591,72.523 19.989,75.516 17.505,77.417 L17.505,77.417 Z M81.82,30.9237766 L81.82,10.5705 C81.82,7.2025 83.422,4.2095 85.906,2.3085 L86.415,1.9405 C88.073,0.8235 90.069,0.1715 92.218,0.1715 C97.961,0.1715 102.616,4.8275 102.616,10.5695 C102.616,14.0515 100.902,17.1345 98.274,19.0195 L98.274,19.0207821 C100.902435,17.1337184 102.616,14.0520585 102.616,10.5705 L102.616,69.1405 C102.616,65.6585 100.902,62.5785 98.273,60.6895 L81.819,48.7865 L81.819,30.9245 L81.82,30.9237766 Z M85.905,77.4185 L86.415,77.7865 C88.072,78.9025 90.068,79.5545 92.218,79.5545 C97.96,79.5545 102.616,74.8985 102.616,69.1565 C102.616,65.6735 100.902,62.5945 98.273,60.7065 L98.273,60.6975 L81.819,48.8015 L81.819,69.1565 C81.819,72.5245 83.422,75.5175 85.905,77.4185 Z M85.905,2.3085 C83.422,4.2095 81.819,7.2025 81.819,10.5705 L81.819,30.9255 L69.454,39.8645 L51.706,27.0335 L85.905,2.3085 Z M85.905,77.4185 C83.422,75.5175 81.819,72.5245 81.819,69.1565 L81.819,48.8015 L69.454,39.8645 L51.706,52.6945 L85.905,77.4185 Z" id="Fill-9"></path>
                    </g>
                </g>
            </g>
        </g>
    </g>
</svg>