<svg width="127" height="111" viewBox="0 0 127 111" xmlns="http://www.w3.org/2000/svg"><title>Imported Layers</title><g fill="none" fill-rule="evenodd"><path d="M63.705 27.032l-17.748 12.83 17.748 12.83 17.748-12.83-17.748-12.83" fill="#91A000"/><path d="M29.505 2.307a10.383 10.383 0 0 1 4.086 8.262v20.35l12.37 8.94 17.747-12.83L29.507 2.3" fill="#9DC538"/><path d="M29.505 77.417a10.383 10.383 0 0 0 4.086-8.262V48.8l12.37-8.937 17.75 12.83-34.2 24.724" fill="#FBD202"/><path d="M29.505 2.307l-.51-.367A10.345 10.345 0 0 0 23.192.17c-5.742 0-10.398 4.657-10.398 10.4 0 3.482 1.714 6.562 4.343 8.45v.008L33.59 30.925V10.57a10.38 10.38 0 0 0-4.085-8.263" fill="#843F18"/><path d="M33.59 69.155V48.8L17.138 60.697v.01a10.382 10.382 0 0 0-4.342 8.45c0 5.742 4.655 10.398 10.398 10.398 2.15 0 4.145-.652 5.803-1.77l.51-.367a10.38 10.38 0 0 0 4.085-8.262" fill="#EB4918"/><path d="M17.137 19.02a10.384 10.384 0 0 1-4.343-8.45v58.57c0-3.483 1.714-6.563 4.343-8.452L33.59 48.785V30.923L17.138 19.02" fill="#F17522"/><path d="M97.904 2.307a10.383 10.383 0 0 0-4.086 8.262v20.35l-12.365 8.94-17.748-12.83L97.905 2.3" fill="#FBD202"/><path d="M97.904 77.417a10.383 10.383 0 0 1-4.086-8.262V48.8l-12.365-8.937-17.748 12.83 34.2 24.724" fill="#9DC538"/><path d="M93.82 10.57v20.353l16.453-11.895v-.01a10.38 10.38 0 0 0 4.342-8.45c0-5.742-4.655-10.398-10.398-10.398-2.15 0-4.145.652-5.803 1.77l-.51.367a10.38 10.38 0 0 0-4.085 8.262" fill="#00A013"/><path d="M97.904 77.417l.51.368a10.352 10.352 0 0 0 5.803 1.768c5.742 0 10.398-4.656 10.398-10.398 0-3.483-1.714-6.562-4.343-8.45v-.01L93.818 48.8v20.355c0 3.368 1.603 6.36 4.086 8.262" fill="#01722F"/><path d="M110.272 19.02a10.384 10.384 0 0 0 4.343-8.45v58.57c0-3.483-1.714-6.563-4.343-8.452L93.818 48.785V30.923l16.454-11.903" fill="#37A0DE"/><path d="M.922 91.86h2.09l6.658 9.977 6.66-9.976h2.09v18.28h-2.064v-14.8l-6.66 9.794h-.104l-6.66-9.766v14.782H.922V91.87m25.75-.005h13.214v1.884h-11.15v6.24h9.975v1.88h-9.97v6.4h11.28v1.88H26.67V91.87m20.11-.003h13.214v1.883h-11.15v6.24h9.975v1.88h-9.977v6.4h11.28v1.88h-13.34V91.87m20.11-.002h6.346c5.744 0 9.713 3.945 9.713 9.09v.05c0 5.147-3.97 9.14-9.714 9.14H66.89V91.86zm6.346 16.376c4.62 0 7.572-3.134 7.572-7.182V101c0-4.046-2.95-7.233-7.573-7.233h-4.284v14.468h4.283zm21.203-16.51h1.933l8.33 18.413h-2.22l-2.14-4.83h-9.95l-2.168 4.83h-2.12l8.33-18.41zm5.092 11.727l-4.153-9.32-4.178 9.322h8.33zm11.492-11.594h1.933l11.52 14.653V91.87h2.01v18.28h-1.642l-11.808-15v14.99h-2.012V91.86" fill="#7F7F7F"/></g></svg>