<svg width="126" height="19" viewBox="0 0 126 19" xmlns="http://www.w3.org/2000/svg"><title>meedan-wordmark</title><path d="M0 .13h2.089l6.659 9.976L15.407.13h2.09v18.28h-2.063V3.603l-6.66 9.793H8.67L2.011 3.63v14.781H0V.13m25.75 0h13.214v1.881H27.813v6.241h9.976v1.88h-9.976v6.398h11.282v1.881H25.75V.13m20.11 0h13.214v1.881H47.923v6.241h9.976v1.88h-9.976v6.398h11.281v1.881H45.86V.13m20.112 0h6.346c5.745 0 9.714 3.943 9.714 9.088v.052c0 5.145-3.969 9.14-9.714 9.14h-6.346V.13zm6.346 16.374c4.622 0 7.573-3.134 7.573-7.182V9.27c0-4.047-2.951-7.234-7.573-7.234h-4.283v14.468h4.283zM93.522 0h1.933l8.33 18.411h-2.22l-2.141-4.831h-9.95l-2.167 4.831h-2.116L93.522 0zm5.092 11.725l-4.153-9.323-4.178 9.323h8.331zM110.106.13h1.933l11.517 14.651V.13h2.01v18.28h-1.645L112.117 3.42v14.99h-2.011V.13" fill="#7F7F7F"/></svg>