<?xml version="1.0" encoding="UTF-8"?>
<svg width="255px" height="82px" viewBox="0 0 255 82" version="1.1" xmlns="http://www.w3.org/2000/svg" xmlns:xlink="http://www.w3.org/1999/xlink">
    <!-- Generator: Sketch 49.3 (51167) - http://www.bohemiancoding.com/sketch -->
    <title>Meedan black horizontal</title>
    <desc>Created with Sketch.</desc>
    <defs></defs>
    <g id="Meedan-black-horizontal" stroke="none" stroke-width="1" fill="none" fill-rule="evenodd">
        <g id="Group" transform="translate(121.000000, 31.000000)" fill="#000000" fill-rule="nonzero" opacity="0.800000012">
            <polyline id="Fill-12" points="0.922 0.861 3.011 0.861 9.67 10.837 16.329 0.861 18.419 0.861 18.419 19.141 16.356 19.141 16.356 4.334 9.696 14.127 9.592 14.127 2.933 4.361 2.933 19.142 0.922 19.142 0.922 0.861"></polyline>
            <polyline id="Fill-13" points="28.672 0.861 41.886 0.861 41.886 2.742 30.735 2.742 30.735 8.983 40.711 8.983 40.711 10.863 30.735 10.863 30.735 17.261 42.017 17.261 42.017 19.142 28.672 19.142 28.672 0.861"></polyline>
            <polyline id="Fill-14" points="50.782 0.861 63.996 0.861 63.996 2.742 52.845 2.742 52.845 8.983 62.821 8.983 62.821 10.863 52.845 10.863 52.845 17.261 64.126 17.261 64.126 19.142 50.782 19.142 50.782 0.861"></polyline>
            <path d="M71.894,0.861 L78.24,0.861 C83.985,0.861 87.954,4.804 87.954,9.949 L87.954,10.001 C87.954,15.146 83.985,19.141 78.24,19.141 L71.894,19.141 L71.894,0.861 L71.894,0.861 Z M78.24,17.235 C82.862,17.235 85.813,14.101 85.813,10.053 L85.813,10.001 C85.813,5.954 82.862,2.767 78.24,2.767 L73.957,2.767 L73.957,17.235 L78.24,17.235 L78.24,17.235 Z" id="Fill-15"></path>
            <path d="M101.444,0.731 L103.377,0.731 L111.707,19.142 L109.487,19.142 L107.346,14.311 L97.396,14.311 L95.229,19.142 L93.113,19.142 L101.444,0.731 L101.444,0.731 Z M106.536,12.456 L102.383,3.133 L98.205,12.456 L106.536,12.456 L106.536,12.456 Z" id="Fill-16"></path>
            <polyline id="Fill-17" points="118.028 0.861 119.961 0.861 131.478 15.512 131.478 0.861 133.488 0.861 133.488 19.141 131.843 19.141 120.039 4.151 120.039 19.141 118.028 19.141 118.028 0.861"></polyline>
        </g>
        <polyline id="Fill-1" stroke="#000000" fill="#000000" fill-rule="nonzero" points="51.5 28 34 41.0005066 51.5 54 69 41.0005066 51.5 28"></polyline>
        <path d="M18,3 C20.4685517,4.92347428 22.062224,7.95185856 22.062224,11.3596762 L22.062224,31.9553201 L34.3552735,41 L52,28.0173075 L18,3" id="Fill-2" stroke="#000000" fill="#000000" fill-rule="nonzero"></path>
        <path d="M18,79 C20.4685517,77.0764233 22.062224,74.0478777 22.062224,70.6398786 L22.062224,50.0431379 L34.3552735,41 L52,53.9813602 L18,79" id="Fill-3" stroke="#000000" fill="#000000" fill-rule="nonzero"></path>
        <path d="M17.8741165,3.15308578 L17.3591383,2.78315016 C15.6859643,1.65721532 13.6704813,1 11.4994951,1 C5.70144732,1 1,5.69324316 1,11.4811732 C1,14.9920336 2.73073039,18.0966704 5.38539212,19.9997724 L5.38539212,20.0078364 L22,32 L22,11.4811732 C22,8.08623269 20.3813531,5.0692918 17.8741165,3.15308578" id="Fill-4" stroke="#000000" fill="#000000" fill-rule="nonzero"></path>
        <path d="M22,70.517478 L22,50 L5.38459319,61.9905375 L5.38459319,62.0006178 C2.73081362,63.9017657 1,67.0085195 1,70.518486 C1,76.3066042 5.70066359,81 11.5,81 C13.6700808,81 15.6856607,80.3427633 17.359925,79.2167919 L17.8739181,78.8458362 C20.3822851,76.9295678 22,73.9125289 22,70.517478" id="Fill-5" stroke="#000000" fill="#000000" fill-rule="nonzero"></path>
        <path d="M5.38539212,19.5130442 C2.73073039,17.6121905 1,14.5075636 1,11 L1,70 C1,66.4924364 2.73073039,63.3898241 5.38539212,61.4869558 L22,49.4965682 L22,31.5034318 L5.38539212,19.5130442" id="Fill-6" stroke="#000000" fill="#000000" fill-rule="nonzero"></path>
        <path d="M86,3 C83.5314483,4.92347428 81.937776,7.95185856 81.937776,11.3596762 L81.937776,31.9553201 L69.6447265,41 L52,28.0173075 L86,3" id="Fill-7" stroke="#000000" fill="#000000" fill-rule="nonzero"></path>
        <path d="M86,79 C83.5314483,77.0764233 81.937776,74.0478777 81.937776,70.6398786 L81.937776,50.0431379 L69.6447265,41 L52,53.9823721 L86,79" id="Fill-8" stroke="#000000" fill="#000000" fill-rule="nonzero"></path>
        <path d="M82,11.482522 L82,32 L98.6154068,20.0094625 L98.6154068,19.9993822 C101.269186,18.0992424 103,14.9914805 103,11.481514 C103,5.69339577 98.2993364,1 92.5,1 C90.3299192,1 88.3143393,1.65723669 86.640075,2.78320814 L86.1260819,3.15416382 C83.6177149,5.07043215 82,8.08747114 82,11.482522" id="Fill-9" stroke="#000000" fill="#000000" fill-rule="nonzero"></path>
        <path d="M86.1258835,78.8468442 L86.6408617,79.2177999 C88.3140357,80.3427633 90.3295187,81 92.5005049,81 C98.2985527,81 103,76.3066042 103,70.518486 C103,67.0075115 101.26927,63.9037817 98.6146079,62.0006178 L98.6146079,61.9915455 L82,50 L82,70.518486 C82,73.9135369 83.6186469,76.9305759 86.1258835,78.8468442" id="Fill-10" stroke="#000000" fill="#000000" fill-rule="nonzero"></path>
        <path d="M98.6146079,19.5130442 C101.26927,17.6121905 103,14.5075636 103,11 L103,70 C103,66.4924364 101.26927,63.3898241 98.6146079,61.4869558 L82,49.4965682 L82,31.5034318 L98.6146079,19.5130442" id="Fill-11" stroke="#000000" fill="#000000" fill-rule="nonzero"></path>
    </g>
</svg>