<?xml version="1.0" encoding="UTF-8" standalone="no"?>
<svg
   xmlns:dc="http://purl.org/dc/elements/1.1/"
   xmlns:cc="http://creativecommons.org/ns#"
   xmlns:rdf="http://www.w3.org/1999/02/22-rdf-syntax-ns#"
   xmlns:svg="http://www.w3.org/2000/svg"
   xmlns="http://www.w3.org/2000/svg"
   xmlns:sodipodi="http://sodipodi.sourceforge.net/DTD/sodipodi-0.dtd"
   xmlns:inkscape="http://www.inkscape.org/namespaces/inkscape"
   width="119"
   height="90"
   id="svg4250"
   version="1.1"
   inkscape:version="0.91 r13725"
   sodipodi:docname="oii.svg">
  <metadata
     id="metadata38">
    <rdf:RDF>
      <cc:Work
         rdf:about="">
        <dc:format>image/svg+xml</dc:format>
        <dc:type
           rdf:resource="http://purl.org/dc/dcmitype/StillImage" />
      </cc:Work>
    </rdf:RDF>
  </metadata>
  <sodipodi:namedview
     pagecolor="#ffffff"
     bordercolor="#666666"
     borderopacity="1"
     objecttolerance="10"
     gridtolerance="10"
     guidetolerance="10"
     inkscape:pageopacity="0"
     inkscape:pageshadow="2"
     inkscape:window-width="1366"
     inkscape:window-height="744"
     id="namedview36"
     showgrid="false"
     inkscape:zoom="2.394958"
     inkscape:cx="59.5"
     inkscape:cy="45"
     inkscape:window-x="0"
     inkscape:window-y="24"
     inkscape:window-maximized="1"
     inkscape:current-layer="svg4250" />
  <style
     id="style4252">.st1{fill:#bbb}.st2{fill:#fff}</style>
  <defs
     id="defs4254">
    <filter
       id="filter4326"
       color-interpolation-filters="sRGB">
      <feColorMatrix
         values="0.21 0.72 0.072 0 0 0.21 0.72 0.072 0 0 0.21 0.72 0.072 0 0 0 0 0 1 0"
         id="feColorMatrix4328" />
    </filter>
  </defs>
  <g
     id="g4264"
     filter="url(#filter4326)"
     fill="#b3b3b3"
     style="fill:#999999">
    <path
       class="st1"
       d="M15.7 11.4c1.4 1.4 2.1 3.3 2.1 6 0 2.5-.6 4.6-1.8 6.3-1.2 1.7-3.1 2.5-5.7 2.5-2.2 0-3.9-.7-5.1-2.2-1.3-1.5-1.9-3.4-1.9-5.9 0-2.6.7-4.8 2-6.3 1.3-1.6 3.1-2.4 5.4-2.4 1.9-.1 3.6.6 5 2zm-1.6 10.4c.6-1.3 1-2.8 1-4.4 0-1.5-.2-2.7-.7-3.6-.7-1.4-2-2.2-3.8-2.2-1.6 0-2.8.6-3.5 1.9C6.4 14.7 6 16.2 6 18c0 1.7.4 3.1 1.1 4.2.7 1.1 1.9 1.7 3.5 1.7 1.6-.1 2.8-.7 3.5-2.1z"
       id="path4266"
       style="fill:#999999" />
    <path
       class="st1"
       d="M24.1 4h2.6v3h-2.6V4zm0 5.9h2.6v15.7h-2.6V9.9z"
       id="path4268"
       style="fill:#999999" />
    <path
       class="st1"
       d="M33.8 4h2.6v3h-2.6V4zm0 5.9h2.6v15.7h-2.6V9.9z"
       id="path4270"
       style="fill:#999999" />
    <path
       class="st1"
       d="M54.9 11.4c1.4 1.4 2.1 3.3 2.1 6 0 2.5-.6 4.6-1.8 6.3-1.2 1.7-3.1 2.5-5.7 2.5-2.2 0-3.9-.7-5.1-2.2-1.3-1.5-1.9-3.4-1.9-5.9 0-2.6.7-4.8 2-6.3 1.3-1.6 3.1-2.4 5.4-2.4 1.9-.1 3.7.6 5 2zm-1.6 10.4c.6-1.3 1-2.8 1-4.4 0-1.5-.2-2.7-.7-3.6-.7-1.4-2-2.2-3.8-2.2-1.6 0-2.8.6-3.5 1.9-.7 1.2-1.1 2.7-1.1 4.5 0 1.7.4 3.1 1.1 4.2.7 1.1 1.9 1.7 3.5 1.7 1.7-.1 2.9-.7 3.5-2.1z"
       id="path4272"
       style="fill:#999999" />
    <path
       class="st1"
       d="M63.4 4H66v3h-2.6V4zm0 5.9H66v15.7h-2.6V9.9z"
       id="path4274"
       style="fill:#999999" />
    <path
       class="st1"
       d="M73.1 4h2.6v3h-2.6V4zm0 5.9h2.6v15.7h-2.6V9.9z"
       id="path4276"
       style="fill:#999999" />
    <path
       class="st1"
       d="M94.2 11.4c1.4 1.4 2.1 3.3 2.1 6 0 2.5-.6 4.6-1.8 6.3-1.2 1.7-3.1 2.5-5.7 2.5-2.2 0-3.9-.7-5.1-2.2-1.3-1.5-1.9-3.4-1.9-5.9 0-2.6.7-4.8 2-6.3 1.3-1.6 3.1-2.4 5.4-2.4 1.9-.1 3.6.6 5 2zm-1.6 10.4c.6-1.3 1-2.8 1-4.4 0-1.5-.2-2.7-.7-3.6-.7-1.4-2-2.2-3.8-2.2-1.6 0-2.8.6-3.5 1.9-.7 1.2-1.1 2.7-1.1 4.5 0 1.7.4 3.1 1.1 4.2.7 1.1 1.9 1.7 3.5 1.7 1.6-.1 2.8-.7 3.5-2.1z"
       id="path4278"
       style="fill:#999999" />
    <path
       class="st1"
       d="M102.6 4h2.6v3h-2.6V4zm0 5.9h2.6v15.7h-2.6V9.9z"
       id="path4280"
       style="fill:#999999" />
    <path
       class="st1"
       d="M112.3 7h2.6V4h-2.6v3zm0 18.6h2.6V9.9h-2.6v15.7z"
       id="path4282"
       style="fill:#999999" />
    <path
       class="st1"
       d="M15.7 41.5c1.4 1.4 2.1 3.3 2.1 6 0 2.5-.6 4.6-1.8 6.3-1.2 1.7-3.1 2.5-5.7 2.5-2.2 0-3.9-.7-5.1-2.2-1.3-1.5-1.9-3.4-1.9-5.9 0-2.6.7-4.8 2-6.3 1.3-1.6 3.1-2.4 5.4-2.4 1.9 0 3.6.7 5 2zM14.1 52c.6-1.3 1-2.8 1-4.4 0-1.5-.2-2.7-.7-3.6-.7-1.4-2-2.2-3.8-2.2-1.6 0-2.8.6-3.5 1.9-.7 1.2-1.1 2.7-1.1 4.5 0 1.7.4 3.1 1.1 4.2.7 1.1 1.9 1.7 3.5 1.7 1.6-.1 2.8-.8 3.5-2.1z"
       id="path4284"
       style="fill:#999999" />
    <path
       class="st1"
       d="M24.1 34.1h2.6v3h-2.6v-3zm0 5.9h2.6v15.7h-2.6V40z"
       id="path4286"
       style="fill:#999999" />
    <path
       class="st1"
       d="M33.8 34.1h2.6v3h-2.6v-3zm0 5.9h2.6v15.7h-2.6V40z"
       id="path4288"
       style="fill:#999999" />
    <path
       class="st1"
       d="M94.2 41.5c1.4 1.4 2.1 3.3 2.1 6 0 2.5-.6 4.6-1.8 6.3-1.2 1.7-3.1 2.5-5.7 2.5-2.2 0-3.9-.7-5.1-2.2-1.3-1.5-1.9-3.4-1.9-5.9 0-2.6.7-4.8 2-6.3 1.3-1.6 3.1-2.4 5.4-2.4 1.9 0 3.6.7 5 2zM92.6 52c.6-1.3 1-2.8 1-4.4 0-1.5-.2-2.7-.7-3.6-.7-1.4-2-2.2-3.8-2.2-1.6 0-2.8.6-3.5 1.9-.7 1.2-1.1 2.7-1.1 4.5 0 1.7.4 3.1 1.1 4.2.7 1.1 1.9 1.7 3.5 1.7 1.6-.1 2.8-.8 3.5-2.1z"
       id="path4290"
       style="fill:#999999" />
    <path
       class="st1"
       d="M102.6 34.1h2.6v3h-2.6v-3zm0 5.9h2.6v15.7h-2.6V40z"
       id="path4292"
       style="fill:#999999" />
    <path
       class="st1"
       d="M112.3 34.1h2.6v3h-2.6v-3zm0 5.9h2.6v15.7h-2.6V40z"
       id="path4294"
       style="fill:#999999" />
    <path
       class="st1"
       d="M15.7 71.7c1.4 1.4 2.1 3.3 2.1 6 0 2.5-.6 4.6-1.8 6.3-1.2 1.7-3.1 2.5-5.7 2.5-2.2 0-3.9-.7-5.1-2.2-1.3-1.5-1.9-3.4-1.9-5.9 0-2.6.7-4.8 2-6.3 1.3-1.6 3.1-2.4 5.4-2.4 1.9-.1 3.6.6 5 2zm-1.6 10.4c.6-1.3 1-2.8 1-4.4 0-1.5-.2-2.7-.7-3.6-.7-1.4-2-2.2-3.8-2.2-1.6 0-2.8.6-3.5 1.9C6.4 75 6 76.5 6 78.3c0 1.7.4 3.1 1.1 4.2.7 1.1 1.9 1.7 3.5 1.7 1.6-.1 2.8-.8 3.5-2.1z"
       id="path4296"
       style="fill:#999999" />
    <path
       class="st1"
       d="M24.1 64.3h2.6v3h-2.6v-3zm0 5.9h2.6v15.7h-2.6V70.2z"
       id="path4298"
       style="fill:#999999" />
    <path
       class="st1"
       d="M33.8 64.3h2.6v3h-2.6v-3zm0 5.9h2.6v15.7h-2.6V70.2z"
       id="path4300"
       style="fill:#999999" />
    <path
       class="st1"
       d="M54.9 71.7c1.4 1.4 2.1 3.3 2.1 6 0 2.5-.6 4.6-1.8 6.3-1.2 1.7-3.1 2.5-5.7 2.5-2.2 0-3.9-.7-5.1-2.2-1.3-1.5-1.9-3.4-1.9-5.9 0-2.6.7-4.8 2-6.3 1.3-1.6 3.1-2.4 5.4-2.4 1.9-.1 3.7.6 5 2zm-1.6 10.4c.6-1.3 1-2.8 1-4.4 0-1.5-.2-2.7-.7-3.6-.7-1.4-2-2.2-3.8-2.2-1.6 0-2.8.6-3.5 1.9-.7 1.2-1.1 2.7-1.1 4.5 0 1.7.4 3.1 1.1 4.2.7 1.1 1.9 1.7 3.5 1.7 1.7-.1 2.9-.8 3.5-2.1z"
       id="path4302"
       style="fill:#999999" />
    <path
       class="st1"
       d="M63.4 64.3H66v3h-2.6v-3zm0 5.9H66v15.7h-2.6V70.2z"
       id="path4304"
       style="fill:#999999" />
    <path
       class="st1"
       d="M73.1 64.3h2.6v3h-2.6v-3zm0 5.9h2.6v15.7h-2.6V70.2z"
       id="path4306"
       style="fill:#999999" />
    <path
       class="st1"
       d="M94.2 71.7c1.4 1.4 2.1 3.3 2.1 6 0 2.5-.6 4.6-1.8 6.3-1.2 1.7-3.1 2.5-5.7 2.5-2.2 0-3.9-.7-5.1-2.2-1.3-1.5-1.9-3.4-1.9-5.9 0-2.6.7-4.8 2-6.3 1.3-1.6 3.1-2.4 5.4-2.4 1.9-.1 3.6.6 5 2zm-1.6 10.4c.6-1.3 1-2.8 1-4.4 0-1.5-.2-2.7-.7-3.6-.7-1.4-2-2.2-3.8-2.2-1.6 0-2.8.6-3.5 1.9-.7 1.2-1.1 2.7-1.1 4.5 0 1.7.4 3.1 1.1 4.2.7 1.1 1.9 1.7 3.5 1.7 1.6-.1 2.8-.8 3.5-2.1z"
       id="path4308"
       style="fill:#999999" />
    <path
       class="st1"
       d="M102.6 64.3h2.6v3h-2.6v-3zm0 5.9h2.6v15.7h-2.6V70.2z"
       id="path4310"
       style="fill:#999999" />
    <path
       class="st1"
       d="M112.3 64.3h2.6v3h-2.6v-3zm0 5.9h2.6v15.7h-2.6V70.2z"
       id="path4312"
       style="fill:#999999" />
  </g>
  <g
     id="g4314"
     filter="url(#filter4326)"
     fill="#1a1a1a"
     style="fill:#1a1a1a">
    <path
       class="st2"
       d="M54.9 41.5c1.4 1.4 2.1 3.3 2.1 6 0 2.5-.6 4.6-1.8 6.3-1.2 1.7-3.1 2.5-5.7 2.5-2.2 0-3.9-.7-5.1-2.2-1.3-1.5-1.9-3.4-1.9-5.9 0-2.6.7-4.8 2-6.3 1.3-1.6 3.1-2.4 5.4-2.4 1.9 0 3.7.7 5 2zM53.3 52c.6-1.3 1-2.8 1-4.4 0-1.5-.2-2.7-.7-3.6-.7-1.4-2-2.2-3.8-2.2-1.6 0-2.8.6-3.5 1.9-.7 1.2-1.1 2.7-1.1 4.5 0 1.7.4 3.1 1.1 4.2.7 1.1 1.9 1.7 3.5 1.7 1.7-.1 2.9-.8 3.5-2.1z"
       id="path4316"
       style="fill:#1a1a1a" />
    <path
       class="st2"
       d="M63.4 34.1H66v3h-2.6v-3zm0 5.9H66v15.7h-2.6V40z"
       id="path4318"
       style="fill:#1a1a1a" />
    <path
       class="st2"
       d="M73.1 34.1h2.6v3h-2.6v-3zm0 5.9h2.6v15.7h-2.6V40z"
       id="path4320"
       style="fill:#1a1a1a" />
  </g>
</svg>
