<?xml version="1.0" encoding="UTF-8"?>
<svg width="360px" height="360px" viewBox="0 0 360 360" version="1.1" xmlns="http://www.w3.org/2000/svg" xmlns:xlink="http://www.w3.org/1999/xlink">
    <!-- Generator: Sketch 49.3 (51167) - http://www.bohemiancoding.com/sketch -->
    <title>OII_orange_logo_RGB</title>
    <desc>Created with Sketch.</desc>
    <defs></defs>
    <g id="Page-1" stroke="none" stroke-width="1" fill="none" fill-rule="evenodd">
        <g id="OII_orange_logo_RGB" fill="#000000" fill-rule="nonzero">
            <path d="M20.5,64.2 C20.5,99.6 49.2,128.3 84.6,128.3 C120,128.3 148.7,99.6 148.7,64.2 C148.7,28.8 120,0.1 84.6,0.1 C49.2,0.1 20.5,28.8 20.5,64.2" id="Shape"></path>
            <path d="M29.3,241.1 C29.5,240.5 29.6,239.8 29.6,239 C29.6,238.2 29.5,237.5 29.3,236.9 C29.1,236.3 28.8,235.8 28.4,235.4 C28,235 27.6,234.7 27,234.4 C26.5,234.2 25.8,234.1 25.2,234.1 C24.5,234.1 23.9,234.2 23.4,234.4 C22.9,234.6 22.4,234.9 22,235.4 C21.6,235.8 21.3,236.3 21.1,236.9 C20.9,237.5 20.8,238.2 20.8,239 C20.8,239.8 20.9,240.5 21.1,241.1 C21.3,241.7 21.6,242.2 22,242.6 C22.4,243 22.8,243.3 23.4,243.6 C24.5,244 26,244 27.1,243.6 C27.6,243.4 28.1,243.1 28.5,242.6 C28.7,242.2 29,241.7 29.3,241.1 Z M75.8,241.1 C76,240.5 76.1,239.8 76.1,239 C76.1,238.2 76,237.5 75.8,236.9 C75.6,236.3 75.3,235.8 74.9,235.4 C74.5,235 74.1,234.7 73.5,234.4 C73,234.2 72.3,234.1 71.7,234.1 C71,234.1 70.4,234.2 69.9,234.4 C69.4,234.6 68.9,234.9 68.5,235.4 C68.1,235.8 67.8,236.3 67.6,236.9 C67.4,237.5 67.3,238.2 67.3,239 C67.3,239.8 67.4,240.5 67.6,241.1 C67.8,241.7 68.1,242.2 68.5,242.6 C68.9,243 69.3,243.3 69.9,243.6 C71,244 72.5,244 73.6,243.6 C74.1,243.4 74.6,243.1 75,242.6 C75.3,242.2 75.6,241.7 75.8,241.1 Z M89.2,237.7 C89.4,237.5 89.6,237.3 89.7,237 C89.8,236.7 89.9,236.4 89.9,236.1 C89.9,235.4 89.7,234.9 89.3,234.6 C88.8,234.2 88.1,234.1 87.2,234.1 L85.6,234.1 L85.6,238.4 L87.1,238.4 C87.6,238.4 88,238.3 88.4,238.2 C88.7,238.1 89,237.9 89.2,237.7 Z M107.4,241.1 C107.6,240.5 107.7,239.8 107.7,239 C107.7,238.2 107.6,237.5 107.4,236.9 C107.2,236.3 106.9,235.8 106.5,235.4 C106.1,235 105.7,234.7 105.1,234.5 C104.6,234.3 103.9,234.2 103.3,234.2 L100.5,234.2 L100.5,244 L103.3,244 C104,244 104.6,243.9 105.1,243.7 C105.6,243.5 106.1,243.2 106.5,242.8 C106.9,242.2 107.2,241.7 107.4,241.1 Z M118,266.7 C118.2,266.2 118.3,265.6 118.3,265 C118.3,263.8 117.9,262.9 117.1,262.2 C116.3,261.5 115.1,261.2 113.5,261.2 L110.9,261.2 L110.9,269.3 L113.5,269.3 C114.4,269.3 115.1,269.2 115.7,269 C116.3,268.8 116.8,268.5 117.2,268.1 C117.5,267.6 117.8,267.2 118,266.7 Z M211.5,321.3 L193.9,321.3 L193.9,294 L211.5,294 L211.5,298.9 L200.3,298.9 L200.3,305.3 L208.9,305.3 L208.9,310 L200.3,310 L200.3,316.5 L211.5,316.5 L211.5,321.3 Z M200.2,261.4 L192.5,261.4 L192.5,283.7 L186.1,283.7 L186.1,261.4 L178.4,261.4 L178.4,256.4 L200.2,256.4 L200.2,261.4 Z M174.9,283.8 L157.3,283.8 L157.3,256.4 L174.9,256.4 L174.9,261.3 L163.7,261.3 L163.7,267.7 L172.3,267.7 L172.3,272.4 L163.7,272.4 L163.7,278.9 L174.9,278.9 L174.9,283.8 Z M156.4,314.7 C156.9,314.2 157.2,313.5 157.5,312.8 C157.7,312 157.9,311.2 157.9,310.2 L157.9,294 L164.2,294 L164.2,310.2 C164.2,311.9 163.9,313.4 163.4,314.8 C162.9,316.2 162.1,317.4 161.1,318.4 C160.1,319.4 158.9,320.2 157.4,320.8 C155.9,321.4 154.3,321.6 152.5,321.6 C150.7,321.6 149,321.3 147.6,320.8 C146.1,320.2 144.9,319.4 143.9,318.4 C142.9,317.4 142.1,316.2 141.6,314.8 C141.1,313.4 140.8,311.9 140.8,310.2 L140.8,294 L147.1,294 L147.1,310.2 C147.1,311.2 147.2,312 147.5,312.8 C147.7,313.6 148.1,314.2 148.6,314.7 C149.1,315.2 149.6,315.6 150.3,315.9 C151,316.2 151.7,316.3 152.6,316.3 C153.5,316.3 154.2,316.2 154.9,315.9 C155.4,315.6 156,315.2 156.4,314.7 Z M153.3,283.8 L150,283.8 C149.5,283.8 149.1,283.7 148.8,283.6 C148.5,283.4 148.1,283.2 147.8,282.8 L134.9,266.5 C135,267 135,267.5 135,267.9 C135,268.4 135,268.8 135,269.2 L135,283.9 L129.4,283.9 L129.4,256.5 L132.7,256.5 C133,256.5 133.2,256.5 133.4,256.5 C133.6,256.5 133.8,256.6 133.9,256.6 C134.1,256.7 134.2,256.8 134.3,256.9 C134.4,257 134.6,257.2 134.8,257.4 L147.8,273.8 C147.7,273.3 147.7,272.8 147.7,272.3 C147.7,271.8 147.7,271.3 147.7,270.9 L147.7,256.4 L153.3,256.4 L153.3,283.8 Z M119,272.3 C119.4,272.5 119.8,272.8 120.2,273.1 C120.6,273.4 120.9,273.8 121.2,274.2 L127,283.7 L121.3,283.7 C120.2,283.7 119.5,283.3 119,282.5 L114.5,274.6 C114.3,274.3 114.1,274 113.8,273.9 C113.5,273.7 113.2,273.7 112.7,273.7 L111.1,273.7 L111.1,283.8 L104.8,283.8 L104.8,256.4 L113.7,256.4 C115.7,256.4 117.4,256.6 118.8,257 C120.2,257.4 121.3,258 122.2,258.7 C123.1,259.4 123.7,260.3 124.1,261.3 C124.5,262.3 124.7,263.4 124.7,264.5 C124.7,265.4 124.6,266.2 124.3,267 C124.1,267.8 123.7,268.5 123.2,269.2 C122.7,269.9 122.2,270.5 121.5,271 C120.6,271.5 119.8,272 119,272.3 Z M110.4,239 C110.4,240.1 110.2,241 109.9,241.9 C109.6,242.8 109.1,243.5 108.4,244.2 C107.8,244.8 107,245.3 106.1,245.7 C105.2,246 104.3,246.2 103.2,246.2 L97.7,246.2 L97.7,231.8 L103.2,231.8 C104.2,231.8 105.2,232 106.1,232.3 C107,232.6 107.7,233.1 108.4,233.8 C109,234.4 109.5,235.2 109.8,236.1 C110.2,236.9 110.4,237.9 110.4,239 Z M89.6,240 C89.6,240.1 89.7,240.1 89.7,240.2 L94.1,246.2 L91.7,246.2 C91.2,246.2 90.9,246 90.6,245.6 L87.1,240.8 C87,240.7 87,240.6 86.9,240.6 C86.9,240.6 86.8,240.5 86.5,240.5 L85.5,240.5 L85.5,246.2 L82.9,246.2 L82.9,231.8 L87.1,231.8 C88,231.8 88.8,231.9 89.4,232.1 C90.1,232.3 90.6,232.6 91.1,232.9 C91.6,233.3 91.9,233.7 92.1,234.2 C92.3,234.7 92.4,235.3 92.4,235.9 C92.4,236.4 92.3,236.9 92.1,237.4 C91.9,237.9 91.7,238.3 91.4,238.6 C91.1,239 90.7,239.3 90.2,239.5 C90.1,239.7 89.8,239.9 89.6,240 Z M82.8,256.4 L100.4,256.4 L100.4,261.3 L89.2,261.3 L89.2,267.7 L97.8,267.7 L97.8,272.4 L89.2,272.4 L89.2,278.9 L100.4,278.9 L100.4,283.8 L82.8,283.8 L82.8,256.4 Z M78.8,239 C78.8,240.1 78.6,241 78.3,241.9 C78,242.8 77.5,243.6 76.9,244.2 C76.3,244.8 75.5,245.4 74.6,245.7 C73.7,246.1 72.8,246.2 71.7,246.2 C70.7,246.2 69.7,246 68.8,245.7 C67.9,245.3 67.2,244.8 66.6,244.2 C66,243.6 65.5,242.8 65.2,241.9 C64.9,241 64.7,240 64.7,239 C64.7,238 64.9,237 65.2,236.1 C65.5,235.2 66,234.4 66.6,233.8 C67.2,233.2 68,232.6 68.8,232.3 C70.5,231.6 72.8,231.6 74.6,232.3 C75.5,232.7 76.2,233.2 76.9,233.8 C77.5,234.5 78,235.2 78.3,236.1 C78.6,236.9 78.8,237.9 78.8,239 Z M61.6,234.1 L55.1,234.1 L55.1,238.1 L60.7,238.1 L60.7,240.4 L55.1,240.4 L55.1,246.2 L52.5,246.2 L52.5,231.8 L61.7,231.8 L61.7,234.1 L61.6,234.1 Z M48.1,273.8 C48,273.3 48,272.8 48,272.3 C48,271.8 48,271.3 48,270.9 L48,256.4 L53.6,256.4 L53.6,283.8 L50.3,283.8 C49.8,283.8 49.4,283.7 49.1,283.6 C48.8,283.4 48.4,283.2 48.1,282.8 L35.2,266.5 C35.3,267 35.3,267.5 35.3,267.9 C35.3,268.4 35.3,268.8 35.3,269.2 L35.3,283.9 L29.7,283.9 L29.7,256.5 L33,256.5 C33.3,256.5 33.5,256.5 33.7,256.5 C33.9,256.5 34.1,256.6 34.2,256.6 C34.4,256.7 34.5,256.8 34.6,256.9 C34.7,257 34.9,257.2 35.1,257.4 L48.1,273.8 Z M42.9,238.7 L47.8,246.2 L45.2,246.2 C44.9,246.2 44.7,246.1 44.6,246 C44.5,245.9 44.4,245.8 44.3,245.7 L41,240.6 L37.6,245.7 C37.5,245.8 37.4,245.9 37.3,246 C37.1,246.2 36.9,246.2 36.7,246.2 L34.3,246.2 L39.2,238.8 L34.4,231.8 L37,231.8 C37.2,231.8 37.4,231.8 37.5,231.9 C37.6,232 37.7,232.1 37.8,232.2 L41,237.1 L44.3,232.3 C44.4,232.2 44.5,232.1 44.6,232 C44.7,231.9 44.9,231.8 45.1,231.8 L47.6,231.8 L42.9,238.7 Z M32.2,239 C32.2,240.1 32,241 31.7,241.9 C31.4,242.8 30.9,243.6 30.3,244.2 C29.7,244.8 28.9,245.4 28,245.7 C27.1,246.1 26.2,246.2 25.1,246.2 C24,246.2 23.1,246 22.2,245.7 C21.3,245.3 20.6,244.8 20,244.2 C19.4,243.6 18.9,242.8 18.6,241.9 C18.3,241 18.1,240 18.1,239 C18.1,238 18.3,237 18.6,236.1 C18.9,235.2 19.4,234.4 20,233.8 C20.6,233.2 21.4,232.6 22.2,232.3 C23.9,231.6 26.2,231.6 28,232.3 C28.9,232.7 29.6,233.2 30.3,233.8 C30.9,234.5 31.4,235.2 31.7,236.1 C32.1,236.9 32.2,237.9 32.2,239 Z M18.5,256.4 L24.9,256.4 L24.9,283.8 L18.5,283.8 L18.5,256.4 Z M18.5,294 L24.9,294 L24.9,321.4 L18.5,321.4 L18.5,294 Z M29.6,294 L33,294 C33.3,294 33.5,294 33.7,294 C33.9,294 34.1,294.1 34.2,294.1 C34.4,294.2 34.5,294.3 34.6,294.4 C34.7,294.5 34.9,294.7 35.1,294.9 L48.1,311.3 C48,310.8 48,310.3 48,309.8 C48,309.3 48,308.8 48,308.4 L48,294 L53.6,294 L53.6,321.4 L50.3,321.4 C49.8,321.4 49.4,321.3 49.1,321.2 C48.8,321 48.4,320.8 48.1,320.4 L35.1,304 C35.2,304.5 35.2,305 35.2,305.4 C35.2,305.9 35.2,306.3 35.2,306.7 L35.2,321.4 L29.6,321.4 L29.6,294 Z M56.9,318 L58.8,315 C59,314.8 59.1,314.6 59.4,314.5 C59.6,314.4 59.9,314.3 60.2,314.3 C60.6,314.3 61,314.4 61.3,314.7 C61.6,315 62.1,315.2 62.6,315.5 C63.1,315.8 63.6,316.1 64.3,316.3 C64.9,316.5 65.7,316.7 66.5,316.7 C67.7,316.7 68.5,316.4 69.2,315.9 C69.8,315.4 70.2,314.6 70.2,313.5 C70.2,312.9 70,312.3 69.7,311.9 C69.3,311.5 68.9,311.2 68.3,310.9 C67.7,310.6 67.1,310.4 66.4,310.2 C65.7,310 64.9,309.8 64.2,309.5 C63.4,309.3 62.7,309 62,308.6 C61.3,308.2 60.6,307.8 60.1,307.2 C59.5,306.6 59.1,305.9 58.7,305 C58.3,304.1 58.2,303.1 58.2,301.8 C58.2,300.8 58.4,299.8 58.8,298.8 C59.2,297.8 59.8,297 60.6,296.2 C61.4,295.4 62.4,294.8 63.5,294.4 C64.7,293.9 66,293.7 67.5,293.7 C68.3,293.7 69.2,293.8 70,293.9 C70.8,294 71.5,294.2 72.3,294.5 C73,294.8 73.7,295.1 74.3,295.4 C74.9,295.8 75.5,296.2 76,296.6 L74.4,299.5 C74.2,299.8 74,300 73.8,300.2 C73.6,300.3 73.3,300.4 73,300.4 C72.7,300.4 72.4,300.3 72.1,300.1 C71.8,299.9 71.4,299.7 71,299.5 C70.6,299.3 70.1,299.1 69.6,298.9 C69.1,298.7 68.4,298.6 67.8,298.6 C66.6,298.6 65.7,298.9 65.1,299.4 C64.5,299.9 64.2,300.6 64.2,301.5 C64.2,302.1 64.4,302.5 64.7,302.9 C65.1,303.3 65.5,303.6 66.1,303.8 C66.7,304.1 67.3,304.3 68.1,304.5 C68.8,304.7 69.6,305 70.3,305.2 C71.1,305.5 71.8,305.8 72.5,306.1 C73.2,306.5 73.9,306.9 74.5,307.5 C75.1,308.1 75.5,308.7 75.9,309.6 C76.3,310.4 76.4,311.4 76.4,312.5 C76.4,313.8 76.2,314.9 75.7,316 C75.3,317.1 74.6,318.1 73.8,318.9 C73,319.7 71.9,320.4 70.7,320.8 C69.5,321.3 68.1,321.5 66.5,321.5 C65.6,321.5 64.8,321.4 63.9,321.2 C63,321 62.2,320.8 61.3,320.5 C60.5,320.2 59.7,319.8 59,319.4 C58,319.1 57.4,318.6 56.9,318 Z M71,261.4 L71,283.7 L64.7,283.7 L64.7,261.4 L57,261.4 L57,256.4 L78.8,256.4 L78.8,261.4 L71,261.4 Z M78.7,294 L100.5,294 L100.5,299 L92.8,299 L92.8,321.3 L86.4,321.3 L86.4,299 L78.7,299 L78.7,294 Z M104.6,294 L111,294 L111,321.4 L104.6,321.4 L104.6,294 Z M115.1,294 L136.9,294 L136.9,299 L129.2,299 L129.2,321.3 L122.8,321.3 L122.8,299 L115.1,299 L115.1,294 Z M168,294 L189.8,294 L189.8,299 L182.1,299 L182.1,321.3 L175.7,321.3 L175.7,299 L168,299 L168,294 Z M360,360 L360,183.8 L325.2,183.8 L325.2,0 L307.3,0 L307.3,183.8 L231.2,183.8 L231.2,0 L201.1,0 C211.6,19 217.6,40.9 217.6,64.2 C217.6,137.7 158.1,197.2 84.6,197.2 C52.5,197.2 23,185.8 2.84217094e-14,166.8 L2.84217094e-14,360 L360,360 Z" id="Shape"></path>
        </g>
    </g>
</svg>