<svg fill="none" height="350" viewBox="0 0 350 350" width="350" xmlns="http://www.w3.org/2000/svg" xmlns:xlink="http://www.w3.org/1999/xlink"><clipPath id="a"><path d="m0 0h349.1v349.1h-349.1z"/></clipPath><g clip-path="url(#a)"><path d="m174.6 349.2c96.429 0 174.6-78.171 174.6-174.6 0-96.4289-78.171-174.6-174.6-174.6-96.4289 0-174.6 78.1711-174.6 174.6 0 96.429 78.1711 174.6 174.6 174.6z" fill="#3d3d3d"/><g fill="#fff"><path d="m44.5999 152.3 15.9 1.3-.3 4-15.4-1.3c-5.3-.4-7.1 1.8-7.4 5.4-.5 5.5 3.6 8.8 12.2 9.5l9.5.8-.3 4-34.9-2.9.3-4 16.5 1.4c-4.4-1.9-6.9-5.2-6.5-10.2.4-6.2 4-8.5 10.4-8z"/><path d="m60.5999 127.5 1.2-3.5c3.4 1.7 7 5.9 4.3 13.8-2.7 8.2-9.4 9.9-16.6 7.5-7.1-2.4-11.3-8.1-8.6-16 2.4-7.1 8.6-9.5 15.5-7.2.6.2 1.1.4 1.6.7l-6.4 19.1c6.6 1.9 10-.4 11.6-5.2 1.6-4.7.1-7.5-2.6-9.2zm-11.8 13.3 5.1-15.4c-5.5-1.6-8.7.4-10.2 4.8-1.5 4.6-.3 8.2 5.1 10.6z"/><path d="m65.4002 119.1c-3.4-2.1-4.4-5.3-2.4-10.4l2.5-5.9c1-2.5 1-3.8-.6-4.8-2.2-1.3-4.5-1.3-7.1 2.8-2.6 4.2-1.6 6.9 1 8.9l-2.1 3.4c-4.4-2.9-5.3-7.9-1.7-13.8 3.6-5.8 7.9-6.8 11.8-4.4l10.2 6.3c1.5 1 3.2 1.9 5.4 3l-1.9 3.1c-1.9-1-3.6-1.8-5.1-2.8 2 2.4 3.6 6.5.5 11.4-2.5 4.2-6.5 5.8-10.5 3.2zm4.9-17.8-1.8-1.1c.1 1.5-.3 2.9-.9 4.7l-1.5 4c-1.2 3.3-.9 5.3 1.3 6.7 2.4 1.5 4.7.5 6.3-2 3.1-5 .6-9.7-3.4-12.3z"/><path d="m60.6001 76.5 2.6-3 26.2 23.2-2.6 3z"/><path d="m92.2998 85.4-10.4-12.1-3.6 3.1-1.5-1.7 3-4.3-2.3-4.9 1.6-1.4 3.6 4.2 6.2-5.4 2.1 2.4-6.2 5.4 12.1 14.1 6.0002-5.2 2.1 2.5-4.5 3.9c-3.4002 3-5.6002 2.4-8.2002-.6z"/><path d="m121.3 54 7.7 14-3.5 1.9-7.5-13.6c-2.6-4.7-5.4-5-8.6-3.2-4.9 2.7-5.4 7.9-1.2 15.4l4.6 8.4-3.5 1.9-16.8-30.7 3.5-1.9 8 14.5c-.8-4.7.5-8.7 4.9-11.1 5.4-3 9.3-1.3 12.4 4.4z"/><path d="m148.6 47.4.8 2.9-19.2 5.5-.8-2.9z"/><path d="m179.4 23.8 1.6 35-4 .2-.2-4.8c-1.5 3.6-4.6 5.8-9.2 6-7.8.4-11.7-5.1-12.1-12.8s3-13.5 10.8-13.8c4.6-.2 7.8 1.6 9.7 5.1l-.6-14.7zm-2.9 22.6c-.3-7-3.8-9.9-9.1-9.6-5.7.3-8 3.7-7.7 10.4s3 9.9 8.7 9.7c5.2-.3 8.4-3.4 8.1-10.5z"/><path d="m207.2 55.6 3.6.7c-1.2 3.6-5 7.7-13.2 6-8.4-1.7-11-8.2-9.5-15.6 1.5-7.3 6.7-12.2 14.8-10.5 7.4 1.5 10.5 7.4 9 14.5-.1.6-.2 1.1-.4 1.7l-19.7-4c-1.1 6.8 1.7 9.9 6.6 10.9 4.8 1.1 7.5-.7 8.8-3.7zm-14.7-10 15.9 3.2c.9-5.7-1.5-8.6-6-9.5-4.7-1-8.2.6-9.9 6.3z"/><path d="m219.5 59.1c-1.1 3.2-.5 6.5 4.7 8.9 4 1.8 6.2 1.2 7.4-1.4 1-2.2.3-3.9-2.4-5.7l-4.9-3.2c-3.7-2.4-5-5.5-3.4-9 1.9-4.2 6.5-5.3 12.2-2.6 6 2.7 8 7.3 6.3 11.7l-3.6-1.6c.9-2.5.1-5.4-4.1-7.3-3.9-1.8-6.2-1-7.2 1.3-.7 1.6-.5 3.3 2.1 5.1l4.5 2.9c4.9 3.2 5.8 6.3 4.1 10-2.1 4.6-6.4 5.4-12.4 2.7-7.4-3.4-8.8-8.3-6.7-13.1z"/><path d="m251.5 73-7.1.7-4.4 5.7-3.2-2.4 21.4-27.7 3.2 2.4-14.3 18.5c1.2-.3 2.4-.5 3.5-.6l15.5-1.7 3.9 3v.1l-15.1 1.6.7 18.8-4-3.1z"/><path d="m260.6 91.2 3.5 3.8-3.2 3-3.5-3.8z"/><path d="m274.3 93.4c6.2-4.1 13.3-3.8 18 3.2 4.6 7 2 13.7-4.1 17.8-6.3 4.1-13.4 3.9-18.1-3.1-4.7-7.1-2.1-13.7 4.2-17.9zm-1.5 16.1c3.1 4.7 7.2 5.4 13.1 1.5s6.8-7.9 3.7-12.6-7.2-5.5-13.1-1.6-6.8 8-3.7 12.7z"/><path d="m308.2 129.7-3.7 1.5-.4-1c-2.5-7-8.1-6.4-14.7-3.8l-8.5 3.4-1.5-3.7 23.2-9.3 1.5 3.7-6.1 2.5c4.4-.2 8.1 1.5 9.9 5.9z"/><path d="m314.8 161.3-24.7 4.5c-6.5 1.2-10.9-1.3-12.5-10.3-1.3-7.3 1.2-11.8 6.7-13.3l.7 3.9c-3.2.9-5.3 3.4-4.3 8.9 1.1 5.8 3.5 7.9 8.8 6.9l5.3-1c-3.5-1.1-5.6-3.9-6.4-8.3-1.4-7.7 2.8-12.2 10.3-13.6s13 1.4 14.4 9.1c.8 4.5-.4 7.8-3.3 10l4.2-.8zm-12.3-1.8c6.6-1.2 8.7-4.7 7.8-9.9-1-5.6-4.1-7.8-10.7-6.6s-8.8 4.3-7.8 10c.8 5.2 4 7.7 10.7 6.5z"/><path d="m246.7 275.3c1.1-1 2.1-2 3.2-3 .4-.3.8-.6 1.3-.9-.4-1.2-.1-1.7 1.2-2.3.6-.2 1.2-.4 1.6-.8 1-1.1 1.9-2.3 2.9-3.4.5-.6.6-1.4 1.4-1.7.3-.1.7-.8.6-1.1-.2-1 .4-1.1 1-1.4s1.4-.9 1.4-1.4c0-1 .6-1.6 1.1-2.3.9-1.2 1.8-2.5 2.6-3.7 0 0 0-.1 0-.2-.1-.2-.2-.4-.3-.5.2-.2.4-.4.6-.6.5-.8.9-1.8 1.5-2.5 1.6-1.8 2.2-4 3.3-6 0-.1 0-.1 0-.2.4-.7.7-1.4 1.1-2 .1 0 .2.1.3.1-.2-.2-.4-.4-.7-.8.5-.3.8-.5 1.3-.7 0-.1-.1-.3-.2-.5.3 0 .5-.1.5-.1.1-.8.2-1.4.3-2.2.7.8.9.2 1-.2s-.1-.9-.2-1.5c.2.3.3.4.5.6.3-.7.8-1.2.7-1.7-.1-1.7 1.1-2.9 1.5-4.5.1-.5.5-.9 0-1.4-.1-.2.2-.7.3-1.1.1-.3.3-.5.5-.8.2-.4.5-.8.7-1.3.1-.5.2-.9.3-1.3.4-1.5.7-3 1-4.5.2-.8.7-1.7.5-2.4-.4-1.3.5-2.1.8-3.2-.7-.5-.9-1.1.1-1.9-.4.1-.7.1-1.1.2 0-.4.1-.8.1-1.3-.9.5-.5-.3-.6-.4-1.2.1-2.2.1-3.2.1-.8 0-1.5.5-1.6 1.2s0 1.5-.1 2.2c-.3 2.4-.6 4.8-1.2 7.1-.6 2.6-1.5 5-2.4 7.5-.8 2.2-1.7 4.3-2.5 6.4-.4 1-.9 2.1-1.3 3.1.1.1.2.1.3.2.7-1 1.4-2.1 2.1-3.2-.4 1.8-5 10.2-5.8 10.6-.1-.2-.1-.4-.2-.6-.1.1-.3.1-.3.2-.8 1.3-1.5 2.7-2.4 4-1.2 1.8-2.3 3.6-3.6 5.3-1.7 2.2-3.5 4.3-5.2 6.5-1.2 1.5-2.4 2.9-3.7 4.4-1.4 1.6-2.9 3-4.4 4.5-1.1 1.1-2.2 2.1-3.3 3.2-1.7 1.6-3.4 3.1-5.1 4.6-1.1 1-2.1 1.9-3.2 2.8-1.3 1.1-2.8 2-4.1 3-.9.6-1.7 1.3-2.6 1.9-1.1.7-2.2 1.5-3.3 2.2-1.4 1-2.8 2.1-4.3 2.9-3 1.6-6.1 3.1-9.2 4.7-2.6 1.3-5.4 2.3-8.3 3.1-2.1.6-4.2 1.5-6.3 2.2-1.3.4-2.7.5-4 .7-1.3.1-2.7.2-4 .3s-2.6.4-3.9.4c-2 .1-4 0-6 0-2.5-.1-5-.1-7.5-.3-3-.2-5.9-.5-8.9-.9-2.5-.3-4.9-.9-7.4-1.3-2.5-.5-5.1-1-7.6-1.5-.4-.1-.7-.4-1.1-.5-1.1-.2-2.4-.2-3.4-.6-3.1-1-6.1-2.2-9.1-3.4-2.7-1.1-5.5-2.1-8.1-3.3s-5.1-2.6-7.6-4c-.9-.5-1.7-1-2.6-1.5-.4-.2-.8-.5-1.1-.7-1.3-.7-2.5-1.2-3.7-1.9-1.8-1.1-3.5-2.4-5.3-3.6-1.5-1-2.9998-1.7-4.4998-2.8-1.4-1-2.6-2.2-4-3.2-1.4-.9-2.4-2.3-3.9-2.9-.2-.1-.3-.2-.4-.3-.9-1-1.7-2.1-2.8-2.8-.8-.6-1.4-1.5-2.2-2.2-1.1-1.2-2.4-2.2-3.4-3.5-1-1.1-1.9-2.4-2.8-3.6-1.1-1.4-2.2-2.9-3.4-4.3-.5-.6-.9-1.1-1.3-1.9-.4-.9-1.4-1.4-2-2.2-1-1.4-1.8-2.9-2.7-4.3-1.2-1.8-1.4-4.2-3-5.8-.7-.7-.3-2-1.4-2.6-.1-.1 0-.7 0-1.1-1-.3-1.8-2.5-1.2-3.3-.3-.2-.8-.2-1-.5-.4-.8-.7-1.8-1-2.6-.2-.6-.3-1.2-.4-1.8-.2-1.1-1-2-1.5-3.1-.1-.2-.3-.4-.3-.6-.3-1.3-.6-2.6-1-4-.2-.8-.5-1.5-.6-2.3-.1-.4 0-.9-.1-1.4-.2-1-.5-2-.8-3 0-.1.3-.3.5-.4s.4-.1.8-.2c-.9-.3-1.7-.5-1-1.4 0 0-.1-.2-.1-.3 0-.5-.1-1-.1-1.5 0-.2.2-.5.2-.7-.2-1.5-.1-2.9.7-4.2-1.3-.2-.6-2.3-2.1-2.4-1 1.7-.8 3.7-1.7 5.3 0 .1.2.4.1.6 0 .3-.2.7-.2 1 .1 1.5.3 3.1.4 4.6 0 .3-.2.8 0 .9.6.7.2 1-.4 1.3.3 0 .5-.1.6-.1.7 2.3 1.4 4.4 2 6.7-.1 0-.4.1-.7.2s-.6.1-.9.1c.6.1 1.3-.1 1.7.2.3.2.2 1 .3 1.7h.4c-.1.6-.2 1.1-.4 1.8.9-.7 1.2-.5 1.4.3.4 1.5.9 3 1.4 4.4s1.2 2.9 1.9 4.3l1.8 3.6c.1.2 0 .5-.1.8.3.1.7.2.8.4.2 1.3 1.6 2 1.5 3.4 0 .1.2.4.3.4.8.3.6 1 .7 1.6 0 .1-.1.3 0 .3.7.8 1.5 1.6 2.1 2.5.4.5 1.2 1 .6 1.8v.2c.7.9 1.7 1.5 2.3 2.7.6 1.4 1.9 2.4 2.8 3.7.1.1-.1.4-.1.5.7.6 1.3 1.1 1.9 1.7.5.5.7 1.2 1.3 1.6 1.2.9 1.4 2.8 3 3.3 0 0-.1.2 0 .2 1.1 1.3 2.2 2.6 3.4 3.7 1.3 1.3 2.8 2.5 4.2 3.7.4.3.6.9.9 1.2 1.1 1 2.2 1.9 3.3 2.8.4.3 1 .5 1.5.8 1.2.9 2.3 1.9 3.5 2.7 1.1.8 2.3 1.6 3.4998 2.3.3.2.8.3 1.1.6.9.6 1.7 1.3 2.6 1.9.4.3 1.1.2 1.4.5 1 .9 2 1.7 3.1 2.5s2.6.5 3.5 1.7c.5.7 1.7.5 2.1 1.4.3.8 1.1.6 1.7.9.6.4 1.4.5 2.1.9.5.2.9.5 1.4.8.7.3 1.5 1 2.2.9 1.1-.1 1 .3.8.9 1.3.3 2.5.7 3.7 1 0 .1 0 .2-.1.3-.6 0-1.3 0-1.9 0v.3c1.1.7 2.4.2 3.7.2-.3.3-.4.4-.5.4.4.1.8.2 1.2.4.6.3 1.1.8 1.7 1.1.3.1.8-.1 1.1 0 1.5.5 3 1.1 4.5 1.8.5.2.9.6 1.4.8.3-.2.6-.2.9-.1.4.1.9.3 1.3.4.6.2 1.3.3 1.8.6.8.6 1.4 1.5 2.6.7.1-.1.3 0 .5 0 .7.1 1.4.2 2.1.3.8.2 1.6.3 2.4.6.6.3 1.1.8 1.7 1.1.6.4 1.1.5 1.7-.1.2-.2.6-.1.9-.1.7 0 1.3 0 2 .1.2 0 .3.1.5.1.5.1 1 .2 1.5.3h.6c.5.1.9.2 1.4.3.3.1.7.2 1.1.4.6-.5 1.1.6 1.8.6-.2.2-.3.4-.7.7.9.1 1.6.2 2.3.3-.1-.1-.1-.2-.2-.3.1-.1.3-.4.4-.4 1.1 0 2.3 0 3.4.1.6 0 1.3.1 1.9.2 1.5.2 3 .3 4.5.5 1 .1 2.1.2 3-.5 0 0 .2.3.3.3.3.1.7.2 1.1.3.5-.2 1.3-.4 1.4-.2.3.8.7.4 1.1.2.7-.2 1.4-.2 2.1-.2v.2c-.1.1-.3.1-.4.2v.1c2.4-.3 4.9-.7 7.3-1 .7.8 1.7 1.2 2.3.4.7-.8 1.4-1 2.3-1.1.7-.1 1.5-.1 2.2-.2.2 0 .5 0 .7-.1 1-.3 1.9-.5 2.9-.9.6-.2 1.1-.5 1.6-.8.4-.2 1-.7 1.2-.6.7.4 1.3 0 1.9-.1 2.1-.4 4.2-1.1 6.1-2.2.4-.2.9-.6 1.3-.6 1.9 0 2.9-2.3 4.9-2.1 0 0 .1 0 .1-.1.6-.9 1.7-1 2.5-1.5 1.7-1 3.8-1.4 5-3.3 0-.1.2-.1.3-.1.7-.4 1.5-.9 2.3-1.2.4-.2.8-.1 1.2-.2.2 0 .4-.1.6-.1-.2-.2-.4-.4-.6-.7.5-.2.9-.4 1.5-.7-.3.4-.5.7-.6 1 1.1-.6 2.1-1.3 3-2.1.8-.7 2.1-1.1 2.3-2.4 0-.1.3-.2.4-.1.6.4.7-.1.9-.4.3-.5.4-1.2 1.3-.8.1 0 .4-.2.6-.4-.4 0-.6 0-.8 0 0-.1-.1-.2-.1-.3.8-.5 1.5-1.1 2.3-1.6.3-.2.6-.3.9-.4.8-.4 1.2-.8 1.4-1.9.2-1.3 1.1-2.6 2.9-2.4.2-1.4.5-1.8 1.7-2.1.3.2.4.1.5 0zm11.9-19.6c.6-.9 1.3-1.7 1.9-2.5.2-.2.4-.4.6-.5.1.1.2.1.3.2-.5.7-1 1.3-1.4 2-.3.4-.5.7-.8 1.1-.1.1-.4.2-.6.2 0-.2-.1-.4 0-.5zm-19.4 21.2c-.1-.1-.1-.2-.2-.2.1-.2.3-.4.4-.5.8-.7 1.5-1.4 2.3-2.1.5-.4 1.1-.6 1.6-.8-1.2 1.3-2.3 2.8-4.1 3.6zm4.3-3.8c0-.2-.2-.5-.1-.6 1-1 2-1.9 3-2.9.1.1.2.2.3.3-1 1.1-2.1 2.2-3.2 3.2zm3.6-3.4c-.2-1.2.7-1.8 1.4-2.4 2.3-2.1 4.4-4.3 6.3-6.8 1.1-1.4 2.3-2.6 3.4-3.9.1.1.2.1.3.2-.9 1.2-1.7 2.4-2.6 3.5s-1.9 2.2-2.9 3.3-2 2.2-3 3.2c-.9.9-1.9 1.9-2.9 2.9z"/><path d="m297.8 232c0-1.6-.3-3.1-.5-4.7 0-.2-.2-.4-.3-.6s-2.3-4.2-2.3-4.4c0-.5.9.8 1.6 1.5.2-.2.3-.5.1-1-.2-.4 0-1-.1-1.5 0-.2-.3-.3-.3-.3 0-.6 0-1.1-.1-1.6-.1-.6-.4-1.1-.4-1.6-.1-1.1 0-2.2-.2-3.3-.2-1.7-.5-3.4-.8-5.1-.2-1.2-.4-2.4-.8-3.6-.3-.8-.7-1.4 0-1.9-.2 0-.7 0-.8-.1-.5-1.2-.8-2.4-1.3-3.5-.6-1.4-1.1-2.7-1.8-4-.5-.9-1.1-1.7-1.8-2.6l.8-.4c-.2 0-.5-.2-.8-.2-.7.1-.8-.5-1.2-.8-.4-.4-1.1-.6-1.6-.9-.3-.1-.5-.4-.7-.5-.8-.2-1.6-.3-2.5-.4-1.1-.1-2.3-.1-3.5-.1-2.2.1-4.3.5-6.4 1.3-.7.2-1.3.4-2 .6s-1.4.3-2.1.5c-1.3.5-2.6 1-3.9 1.5-.1 0-.1 0-.2 0-1.2.4-2.5.8-3.7 1.3-1.1.4-2.3.9-3.4 1.3-1.4.6-2.6 1.3-3.4 2.2-.2.9-.3 1.6-.4 2.1 1.1.9 2.3 2 3.7.7.5.2 1 .5 1.4.5s.7-.5 1.1-.8c.1.2.2.3.3.6.1-.3.1-.6.1-.7.9-.1 1.7-.1 2.5-.4 1.5-.6 3-1.3 4.5-1.9 2.1-.8 4.3-1.4 6.3-2.3.8-.3 1.7-.4 2.6-.6.8-.2 1.6-.3 2.4-.6 2.4-.8 4.8-.9 7.2.1.5.2 1 .6 1.5 1-.2.3-.3.4-.4.6 1.3.2 2 1.7 1.6 3 .3.3.8.6.7.8-.1 1.1.6 1.9.7 2.9 0 .5.1 1 .2 1.7l.2.1c.1 1.2.2 2.4.4 3.6.1.9.2 1.9.4 2.8.1.6.3 1.2-.3 1.7v.2c.2-.1.4-.2.7-.3-.1.3-.2.5-.1.6.3 1.4.6 2.8.8 4.3.1.9.7 1.8.1 2.4.2.7.4 1.2.4 1.7.2 1.4.3 2.8.4 4.2 0 1.1.1 2.3-.1 3.4-.2 1.7 1.1 2.4 2.1 3.2.5.4 1.5.9 2.2.2.9-.2 1.2-1.1 1.2-1.9z"/><path d="m296.7 224.1c-.1-.1-.2-.2-.3-.3-.1.1-.3.3-.5.4.2 0 .5 0 .8-.1z"/><path d="m296.9 224.1c-.1 0-.1 0-.2 0 .1.1.2.1.2 0z"/></g></g></svg>