<svg xmlns="http://www.w3.org/2000/svg" width="1440" height="1453" fill="none" viewBox="0 0 1440 1453"><path fill="#05D" fill-rule="evenodd" d="M2151 802.043C2151 801.562 2151 801.082 2151 800.601C2151 470.943 1884.39 203.702 1555.5 203.702C1226.61 203.702 960 470.943 960 800.601C960 801.082 960.001 801.562 960.002 802.043H2151Z" clip-rule="evenodd"/><path fill="#003B99" fill-rule="evenodd" d="M2151 800.601C2151 801.081 2151 801.562 2151 802.043C2151 1131.7 1884.39 1398.94 1555.5 1398.94C1226.61 1398.94 960 1131.7 960 802.043C960 801.562 960.001 801.081 960.002 800.601H2151Z" clip-rule="evenodd"/><path fill="#FEFEFE" fill-rule="evenodd" d="M1169.7 -39L1021.55 108.359H1232.32L1232.33 -39H1169.7Z" clip-rule="evenodd"/><path fill="#FEFEFE" fill-rule="evenodd" d="M1021.56 1452.31H1232.32L1232.34 1242.47L1021.56 1452.31Z" clip-rule="evenodd"/><path fill="#FAD103" fill-rule="evenodd" d="M1050.47 895.52H1231.4V714.585H1050.47V895.52Z" clip-rule="evenodd"/><path fill="#008D5E" fill-rule="evenodd" d="M0 1384.06C89.6834 1378.4 160.671 1303.87 160.671 1212.76C160.671 1121.65 89.6834 1047.12 0 1041.46V1384.06Z" clip-rule="evenodd"/><path fill="#008D5E" fill-rule="evenodd" d="M108.87 1452.36C232.803 1444.88 331 1342 331 1216.18C331 1090.37 232.803 987.485 108.87 980V1452.36Z" clip-rule="evenodd"/></svg>