<svg xmlns="http://www.w3.org/2000/svg" width="240" height="100" fill="none" viewBox="0 0 240 100"><rect width="240" height="100" fill="#262626"/><path fill="#fff" fill-rule="evenodd" d="M48 50.9816C48 48.165 48.4845 45.6134 49.4536 43.327C50.4227 41.0405 51.7471 39.0855 53.4268 37.4617C55.1065 35.838 57.085 34.5871 59.3624 33.709C61.6397 32.8308 64.0704 32.3918 66.6546 32.3918C69.3034 32.3918 71.8068 32.8308 74.1649 33.709C76.523 34.5871 78.4934 35.7717 80.0763 37.2629L73.002 46.0111C72.356 45.1495 71.5484 44.4951 70.5794 44.0477C69.6103 43.6004 68.5282 43.3767 67.333 43.3767C66.3639 43.3767 65.4594 43.5506 64.6196 43.8986C63.7797 44.2465 63.0448 44.7519 62.4149 45.4146C61.785 46.0773 61.2924 46.8809 60.9371 47.8253C60.5818 48.7697 60.4041 49.8218 60.4041 50.9816C60.4041 52.1414 60.5899 53.1769 60.9613 54.0882C61.3328 54.9995 61.8335 55.7865 62.4634 56.4492C63.0933 57.112 63.8282 57.6173 64.668 57.9652C65.5079 58.3132 66.3962 58.4871 67.333 58.4871C68.6574 58.4871 69.796 58.2055 70.749 57.6421C71.7019 57.0788 72.4529 56.4161 73.002 55.6539L80.0763 64.3524C78.5257 65.943 76.6199 67.2104 74.3587 68.1548C72.0976 69.0992 69.5296 69.5714 66.6546 69.5714C64.0704 69.5714 61.6397 69.1241 59.3624 68.2294C57.085 67.3347 55.1065 66.0672 53.4268 64.4269C51.7471 62.7866 50.4227 60.8316 49.4536 58.5617C48.4845 56.2918 48 53.7651 48 50.9816V50.9816ZM99.2343 41.7364C101.011 41.7364 102.489 42.0677 103.668 42.7305C104.847 43.3932 105.784 44.2465 106.478 45.2903C107.173 46.3341 107.657 47.5022 107.932 48.7946C108.206 50.0869 108.344 51.3792 108.344 52.6716V68.5773H97.1024V54.6598C97.1024 53.3343 96.9005 52.4065 96.4967 51.8763C96.0929 51.3461 95.4872 51.081 94.6797 51.081C94.0336 51.081 93.4522 51.371 92.9353 51.9509C92.4185 52.5308 92.1601 53.4503 92.1601 54.7095V68.5773H80.9673V31H92.1601V45.3152H92.257C92.903 44.3542 93.8237 43.5175 95.0188 42.805C96.214 42.0926 97.6192 41.7364 99.2343 41.7364V41.7364ZM127.26 52.0254C127.26 51.0976 126.929 50.3354 126.266 49.739C125.604 49.1425 124.708 48.8443 123.577 48.8443C122.35 48.8443 121.397 49.1922 120.718 49.8881C120.04 50.584 119.652 51.2964 119.556 52.0254H127.26ZM136.902 55.7533C136.902 56.1841 136.894 56.6231 136.878 57.0705C136.862 57.5178 136.838 57.8906 136.805 58.1889H119.653C119.685 58.6528 119.838 59.067 120.113 59.4315C120.388 59.796 120.727 60.1108 121.131 60.3759C121.534 60.641 121.987 60.8398 122.487 60.9724C122.988 61.1049 123.497 61.1712 124.014 61.1712C125.047 61.1712 125.911 60.9807 126.606 60.5996C127.3 60.2185 127.825 59.796 128.181 59.3321L136.127 63.4576C134.996 65.3465 133.357 66.8376 131.209 67.9311C129.061 69.0247 126.565 69.5714 123.723 69.5714C121.882 69.5714 120.089 69.2732 118.344 68.6767C116.6 68.0802 115.058 67.1938 113.717 66.0175C112.377 64.8411 111.303 63.3748 110.495 61.6185C109.687 59.8623 109.284 57.8244 109.284 55.5048C109.284 53.3509 109.655 51.4041 110.398 49.6644C111.141 47.9247 112.15 46.4501 113.426 45.2406C114.702 44.0311 116.204 43.095 117.933 42.4322C119.661 41.7695 121.51 41.4381 123.481 41.4381C125.483 41.4381 127.308 41.7944 128.956 42.5068C130.603 43.2193 132.016 44.2134 133.195 45.4891C134.375 46.7649 135.287 48.2809 135.933 50.0372C136.579 51.7934 136.902 53.6988 136.902 55.7533V55.7533ZM152.668 69.5714C150.504 69.5714 148.517 69.24 146.708 68.5773C144.899 67.9146 143.333 66.9702 142.008 65.7441C140.684 64.518 139.65 63.0434 138.907 61.3203C138.164 59.5972 137.793 57.6587 137.793 55.5048C137.793 53.384 138.173 51.4538 138.932 49.7141C139.691 47.9744 140.749 46.4915 142.105 45.2655C143.462 44.0394 145.053 43.095 146.878 42.4322C148.703 41.7695 150.682 41.4381 152.814 41.4381C153.686 41.4381 154.566 41.5127 155.454 41.6618C156.343 41.8109 157.199 42.018 158.022 42.2831C158.846 42.5482 159.605 42.8465 160.3 43.1778C160.994 43.5092 161.584 43.8737 162.068 44.2714L156.496 52.5225C156.108 52.0585 155.6 51.7023 154.97 51.4538C154.34 51.2053 153.734 51.081 153.153 51.081C152.604 51.081 152.071 51.1721 151.554 51.3544C151.037 51.5366 150.577 51.8183 150.173 52.1994C149.769 52.5804 149.438 53.0444 149.18 53.5911C148.921 54.1379 148.792 54.7758 148.792 55.5048C148.792 56.2338 148.921 56.8717 149.18 57.4184C149.438 57.9652 149.769 58.4125 150.173 58.7605C150.577 59.1084 151.037 59.3735 151.554 59.5558C152.071 59.738 152.604 59.8291 153.153 59.8291C153.799 59.8291 154.429 59.7049 155.042 59.4564C155.656 59.2078 156.157 58.8682 156.544 58.4374L162.165 66.4897C161.099 67.3512 159.718 68.0802 158.022 68.6767C156.326 69.2732 154.542 69.5714 152.668 69.5714V69.5714ZM173.812 57.1948V68.5773H162.619V31H173.812V52.4231H173.957L180.014 42.4323H193L184.762 54.2125L192.951 68.5773H179.917L173.957 57.1948H173.812Z" clip-rule="evenodd"/></svg>