<svg xmlns="http://www.w3.org/2000/svg" width="60" height="60" fill="none" viewBox="0 0 60 60"><rect width="58" height="58" x="1" y="1" fill="#fff" stroke="#262626" stroke-width="2"/><path fill="#262626" d="M30.0001 26.5C31.114 26.5 32.1823 26.9424 32.9699 27.7301C33.7576 28.5178 34.2001 29.586 34.2001 30.7C34.2001 31.8139 33.7576 32.8821 32.9699 33.6698C32.1823 34.4575 31.114 34.9 30.0001 34.9C28.8862 34.9 27.8179 34.4575 27.0302 33.6698C26.2426 32.8821 25.8001 31.8139 25.8001 30.7C25.8001 29.586 26.2426 28.5178 27.0302 27.7301C27.8179 26.9424 28.8862 26.5 30.0001 26.5V26.5ZM30.0001 20.2C37.0001 20.2 42.9781 24.554 45.4001 30.7C42.9781 36.846 37.0001 41.2 30.0001 41.2C23.0001 41.2 17.0221 36.846 14.6001 30.7C17.0221 24.554 23.0001 20.2 30.0001 20.2ZM17.6521 30.7C19.9621 35.404 24.7361 38.4 30.0001 38.4C35.2641 38.4 40.0381 35.404 42.3481 30.7C40.0381 25.996 35.2641 23 30.0001 23C24.7361 23 19.9621 25.996 17.6521 30.7Z"/></svg>