<svg xmlns="http://www.w3.org/2000/svg" width="99" height="99" fill="none" viewBox="0 0 99 99"><rect width="99" height="99" fill="#fff"/><path fill="#262626" d="M46.5682 80.9946L37.643 72.6468L34.6038 75.4695L46.5682 86.6598L60.6874 73.454L72.2521 62.6376L69.2342 59.8149L46.5682 80.9946Z"/><path fill="#FF864D" fill-rule="evenodd" d="M69.9613 48.3567C60.1978 48.3567 52.283 40.4418 52.283 30.6783C52.283 20.9149 60.1978 13 69.9613 13C79.7248 13 87.6396 20.9149 87.6396 30.6783C87.6396 40.4418 79.7248 48.3567 69.9613 48.3567Z" clip-rule="evenodd"/><path fill="#FF864D" fill-rule="evenodd" d="M29.0392 48.3567C19.2757 48.3567 11.3608 40.4418 11.3608 30.6783C11.3608 20.9149 19.2757 13 29.0392 13C38.8027 13 46.7175 20.9149 46.7175 30.6783C46.7175 40.4418 38.8027 48.3567 29.0392 48.3567Z" clip-rule="evenodd"/><path fill="#262626" fill-rule="evenodd" d="M82.487 18.3271L57.609 43.2052C60.7924 46.3886 65.1902 48.3576 70.048 48.3576C79.7635 48.3576 87.6394 40.4816 87.6394 30.7662C87.6394 25.9084 85.6704 21.5106 82.487 18.3271Z" clip-rule="evenodd"/><path fill="#262626" fill-rule="evenodd" d="M41.5634 18.3271L16.6854 43.2052C19.8688 46.3886 24.2667 48.3576 29.1244 48.3576C38.8399 48.3576 46.7158 40.4816 46.7158 30.7662C46.7158 25.9084 44.7468 21.5106 41.5634 18.3271Z" clip-rule="evenodd"/></svg>