<svg width="56" height="56" viewBox="0 0 56 56" fill="none" xmlns="http://www.w3.org/2000/svg">
<path d="M28.0001 24.5C29.114 24.5 30.1823 24.9425 30.9699 25.7301C31.7576 26.5178 32.2001 27.586 32.2001 28.7C32.2001 29.8139 31.7576 30.8821 30.9699 31.6698C30.1823 32.4575 29.114 32.9 28.0001 32.9C26.8862 32.9 25.8179 32.4575 25.0302 31.6698C24.2426 30.8821 23.8001 29.8139 23.8001 28.7C23.8001 27.586 24.2426 26.5178 25.0302 25.7301C25.8179 24.9425 26.8862 24.5 28.0001 24.5ZM28.0001 18.2C35.0001 18.2 40.9781 22.554 43.4001 28.7C40.9781 34.846 35.0001 39.2 28.0001 39.2C21.0001 39.2 15.0221 34.846 12.6001 28.7C15.0221 22.554 21.0001 18.2 28.0001 18.2ZM15.6521 28.7C17.9621 33.404 22.7361 36.4 28.0001 36.4C33.2641 36.4 38.0381 33.404 40.3481 28.7C38.0381 23.996 33.2641 21 28.0001 21C22.7361 21 17.9621 23.996 15.6521 28.7Z" fill="#262626"/>
</svg>
