<?xml version="1.0" encoding="UTF-8"?><svg xmlns="http://www.w3.org/2000/svg" width="217" height="40" viewBox="0 0 217 40" fill="none" version="1.2" baseProfile="tiny-ps"><title>MeedanBIMI</title><path d="M61 33.9078V7.86084H66.4194L74.6169 19.9387L83.0949 7.86084H88.3121V33.9078H83.1992V15.6801L74.7669 27.1711H74.1865L66.0803 15.7845V33.9078H61Z" fill="#7F7F7F"></path><path d="M102.94 34.4489C100.629 34.5518 98.327 34.1048 96.2227 33.1446C94.5812 32.3471 93.2409 31.0411 92.4011 29.4209C91.5527 27.6755 91.1346 25.7524 91.1815 23.8123V23.4732C91.1466 21.4548 91.6293 19.461 92.5837 17.6821C93.5345 15.9827 94.963 14.5995 96.6922 13.704C98.7138 12.6927 100.954 12.1976 103.214 12.2627C105.475 12.1791 107.72 12.6752 109.735 13.704C111.4 14.5896 112.763 15.9521 113.648 17.6169C114.531 19.3063 114.979 21.189 114.952 23.095V25.3188H96.3661C96.4553 26.03 96.6852 26.7163 97.0424 27.3377C97.3996 27.9591 97.8769 28.5032 98.4465 28.9383C99.5682 29.7665 101.159 30.1773 103.233 30.1773C104.464 30.2236 105.69 30.001 106.827 29.5252C107.675 29.1417 108.365 28.4787 108.783 27.647H114.652C113.906 29.806 112.408 31.625 110.433 32.7729C108.127 33.9841 105.542 34.5624 102.94 34.4489ZM103.305 16.4039C101.653 16.3275 100.021 16.7848 98.6487 17.7082C97.4776 18.589 96.6869 19.8836 96.4379 21.3276H109.585C109.15 18.0495 107.057 16.4082 103.305 16.4039Z" fill="#7F7F7F"></path><path d="M128.987 34.449C126.676 34.5519 124.374 34.1049 122.27 33.1447C120.631 32.346 119.293 31.0401 118.455 29.4209C117.604 27.6761 117.184 25.753 117.229 23.8124V23.4733C117.192 21.4539 117.677 19.4592 118.637 17.6822C119.588 15.9827 121.017 14.5996 122.746 13.7041C124.767 12.6913 127.008 12.196 129.267 12.2628C131.529 12.1788 133.774 12.675 135.789 13.7041C137.453 14.5906 138.815 15.9529 139.702 17.617C140.582 19.3075 141.03 21.1894 141.006 23.095V25.3189H122.485C122.575 26.0304 122.806 26.7169 123.165 27.3383C123.523 27.9597 124.001 28.5036 124.572 28.9383C125.687 29.7665 127.285 30.1774 129.352 30.1774C130.585 30.2246 131.814 30.002 132.952 29.5253C133.801 29.1426 134.492 28.4794 134.908 27.6471H140.778C140.033 29.8053 138.538 31.6243 136.565 32.773C134.233 33.9971 131.617 34.5758 128.987 34.449ZM129.352 16.404C127.7 16.3294 126.068 16.7866 124.696 17.7083C123.525 18.588 122.736 19.8835 122.491 21.3277H135.639C135.195 18.0496 133.1 16.4083 129.352 16.404Z" fill="#7F7F7F"></path><path d="M153.429 34.4295C151.606 34.4673 149.801 34.0646 148.167 33.2556C146.627 32.4541 145.372 31.197 144.573 29.6558C143.64 27.7626 143.192 25.6673 143.269 23.5581V23.2647C143.206 21.209 143.654 19.1699 144.573 17.3301C145.378 15.7704 146.629 14.4854 148.167 13.6389C149.845 12.7705 151.716 12.3398 153.606 12.3868C155.254 12.3394 156.888 12.7119 158.353 13.4693C159.64 14.1622 160.704 15.2072 161.418 16.4823V7H166.636V33.9078H162.103L161.634 29.6753C160.992 31.1151 159.928 32.3253 158.581 33.1448C157.017 34.0446 155.233 34.4896 153.429 34.4295ZM155.034 29.9362C157.125 29.9362 158.745 29.3688 159.892 28.2341C160.485 27.6042 160.943 26.86 161.238 26.047C161.533 25.234 161.659 24.3693 161.607 23.506V23.2908C161.653 22.416 161.526 21.5408 161.231 20.7158C160.937 19.8908 160.482 19.1324 159.892 18.4844C159.273 17.88 158.534 17.4108 157.724 17.1066C156.913 16.8024 156.048 16.6697 155.184 16.7171C153.012 16.7171 151.408 17.291 150.358 18.4518C149.308 19.6126 148.786 21.2169 148.786 23.2908V23.5451C148.786 25.6842 149.327 27.2884 150.397 28.3449C151.467 29.4014 153.012 29.9362 155.034 29.9362Z" fill="#7F7F7F"></path><path d="M177.227 34.5599C174.688 34.5599 172.77 34.0534 171.475 33.0404C170.831 32.5412 170.317 31.894 169.976 31.1538C169.635 30.4136 169.478 29.6022 169.518 28.7884C169.452 27.7253 169.697 26.6661 170.223 25.7397C170.749 24.8134 171.533 24.0599 172.479 23.5712C173.108 23.2021 173.778 22.9067 174.474 22.6908C175.328 22.4355 176.2 22.2458 177.083 22.1234C178.127 21.9669 179.503 21.7973 181.205 21.6277C182.682 21.5498 184.145 21.2936 185.561 20.8647C185.919 20.7652 186.233 20.5498 186.455 20.2524C186.677 19.955 186.794 19.5923 186.787 19.2213V19.1822C186.784 18.7808 186.68 18.3867 186.486 18.0357C186.291 17.6848 186.011 17.3884 185.672 17.1735C184.928 16.6388 183.624 16.3714 181.759 16.3714C179.663 16.3714 178.161 16.7062 177.253 17.3757C176.794 17.7219 176.417 18.1649 176.149 18.6732C175.88 19.1816 175.727 19.7428 175.701 20.3169H170.105C170.185 19.1594 170.519 18.0337 171.082 17.0194C171.646 16.0052 172.425 15.1272 173.366 14.4476C175.283 13.0606 177.935 12.3672 181.322 12.3672C185 12.3672 187.678 12.9998 189.357 14.2649C191.035 15.5301 191.885 17.5127 191.907 20.2126V33.9078H187.557L187.009 29.421C186.18 30.9568 184.935 32.2273 183.415 33.0861C181.523 34.1271 179.385 34.6364 177.227 34.5599ZM178.942 30.5753C180.369 30.6071 181.781 30.2821 183.05 29.6296C184.153 29.0647 185.098 28.2358 185.802 27.2167C186.43 26.3433 186.776 25.2988 186.794 24.2233V23.4733C186.275 23.875 185.677 24.1618 185.039 24.3146C184.066 24.5659 183.077 24.749 182.079 24.8624C180.5 25.032 179.309 25.195 178.505 25.3515C177.82 25.4556 177.158 25.6762 176.548 26.0037C176.159 26.1945 175.83 26.4904 175.6 26.8579C175.369 27.2255 175.246 27.6502 175.244 28.084V28.1232C175.227 28.4686 175.296 28.8128 175.445 29.1248C175.594 29.4368 175.819 29.7067 176.098 29.9101C176.955 30.4185 177.948 30.6508 178.942 30.5753Z" fill="#7F7F7F"></path><path d="M194.906 33.9402V12.9409H199.471L199.947 17.3234C200.579 15.8611 201.618 14.6114 202.941 13.7235C204.442 12.7641 206.201 12.2862 207.982 12.354C210.825 12.354 213.01 13.1887 214.536 14.8582C216.062 16.5278 216.823 18.7733 216.819 21.595V33.9402H211.412V22.9058C211.496 21.3446 211.095 19.7957 210.264 18.4712C209.495 17.3886 208.149 16.8473 206.228 16.8473C204.206 16.8473 202.715 17.4429 201.754 18.6342C200.789 19.8276 200.313 21.4971 200.313 23.6362V33.9402H194.906Z" fill="#7F7F7F"></path><path fill-rule="evenodd" d="M25.5538 13.4802L16.6453 19.9192L25.5538 26.3582L34.4623 19.9192L25.5538 13.4802Z" fill="#91A000"></path><path fill-rule="evenodd" d="M8.3877 1.07251C9.63396 2.02626 10.4387 3.52821 10.4387 5.21849V15.4333L16.6448 19.9191L25.5533 13.4801L8.3877 1.07251Z" fill="#9DC538"></path><path fill-rule="evenodd" d="M8.3877 38.7654C9.63396 37.8116 10.4387 36.3097 10.4387 34.6194V24.4045L16.6448 19.9192L25.5533 26.3577L8.3877 38.7654Z" fill="#FBD202"></path><path fill-rule="evenodd" d="M8.3877 1.07264L8.13173 0.888047C7.29996 0.327729 6.298 0.000488281 5.21912 0.000488281C2.33681 0.000488281 0 2.33685 0 5.21862C0 6.9667 0.860217 8.512 2.17968 9.4597V9.46389L10.4387 15.4339V5.21862C10.4387 3.52835 9.63397 2.0264 8.3877 1.07264Z" fill="#843F18"></path><path fill-rule="evenodd" d="M10.4387 34.6194V24.405L2.17971 30.3741V30.3793C0.860705 31.3256 0.000488281 32.8723 0.000488281 34.6199C0.000488281 37.5016 2.33683 39.838 5.21961 39.838C6.29802 39.838 7.29998 39.5108 8.13222 38.9505L8.38772 38.7654C9.63446 37.8116 10.4387 36.3097 10.4387 34.6194Z" fill="#EA4918"></path><path fill-rule="evenodd" d="M2.17968 9.45958C0.860217 8.51282 0 6.96612 0 5.21851V34.6114C0 32.8638 0.860217 31.318 2.17968 30.3703L10.4387 24.397V15.4329L2.17968 9.45958Z" fill="#F17522"></path><path fill-rule="evenodd" d="M42.7195 1.07251C41.4732 2.02626 40.6685 3.52821 40.6685 5.21849V15.4333L34.4623 19.9191L25.5538 13.4801L42.7195 1.07251Z" fill="#FBD202"></path><path fill-rule="evenodd" d="M42.7195 38.7654C41.4732 37.8116 40.6685 36.3097 40.6685 34.6194V24.4045L34.4623 19.9192L25.5538 26.3582L42.7195 38.7654Z" fill="#9DC538"></path><path fill-rule="evenodd" d="M40.6689 5.2186V15.433L48.928 9.46387V9.45874C50.247 8.51245 51.1072 6.96575 51.1072 5.21813C51.1072 2.33637 48.7708 0 45.8881 0C44.8096 0 43.8077 0.327241 42.9754 0.887558L42.7199 1.07262C41.4732 2.02637 40.6689 3.52832 40.6689 5.2186Z" fill="#00A013"></path><path fill-rule="evenodd" d="M42.7195 38.7654L42.9754 38.95C43.8072 39.5103 44.8092 39.8375 45.888 39.8375C48.7704 39.8375 51.1072 37.5012 51.1072 34.6194C51.1072 32.8713 50.2469 31.326 48.9275 30.3788V30.3741L40.6685 24.4045V34.6194C40.6685 36.3097 41.4732 37.8116 42.7195 38.7654Z" fill="#01722F"></path><path fill-rule="evenodd" d="M48.9275 9.45958C50.2469 8.51282 51.1072 6.96612 51.1072 5.21851V34.6114C51.1072 32.8638 50.2469 31.318 48.9275 30.3703L40.6685 24.397V15.4329L48.9275 9.45958Z" fill="#37A0DE"></path></svg>