<svg xmlns="http://www.w3.org/2000/svg" width="52" height="40" fill="none" viewBox="0 0 52 40"><path fill="#262626" fill-rule="evenodd" d="M40.7417 24.5038L34.5245 19.9998L40.7417 15.4952V24.5038ZM10.4578 24.5038V15.4962L16.6746 20.0007L10.4578 24.5038ZM45.9706 0C44.8907 0 43.8856 0.328241 43.0524 0.891074L25.5993 13.5347L8.14712 0.891074C7.31302 0.328241 6.30976 0 5.22939 0C2.3411 0 0 2.34592 0 5.24015V34.7613C0 37.6531 2.3411 40 5.22939 40C6.30976 40 7.31348 39.6718 8.14712 39.1085L25.6002 26.4653L43.0524 39.1085C43.8865 39.6713 44.8907 40 45.9711 40C48.8584 40 51.2 37.6541 51.2 34.7613V5.24015C51.1995 2.34592 48.858 0 45.9706 0Z" clip-rule="evenodd"/></svg>