<?xml version="1.0" encoding="UTF-8" standalone="no"?>
<svg width="250px" height="128px" viewBox="0 0 250 128" version="1.1" xmlns="http://www.w3.org/2000/svg" xmlns:xlink="http://www.w3.org/1999/xlink" xmlns:sketch="http://www.bohemiancoding.com/sketch/ns">
    <!-- Generator: Sketch 3.2.2 (9983) - http://www.bohemiancoding.com/sketch -->
    <title>Imported Layers</title>
    <desc>Created with Sketch.</desc>
    <defs></defs>
    <g id="Page-1" stroke="none" stroke-width="1" fill="none" fill-rule="evenodd" sketch:type="MSPage">
        <path d="M0,63.778 L0,0 L250,0 L250,127.556 L0,127.556 L0,63.778 L0,63.778 Z M53.879,91.627 C55.039,91.224 56.6,90.209 57.515,89.264 L58.253,88.503 L57.545,86.81 L56.717,87.604 C55.111,89.144 52.959,89.832 51.22,89.362 C48.415,88.604 46.889,85.137 46.889,79.525 C46.889,73.898 48.453,71.255 51.793,71.237 C53.799,71.226 54.691,72.138 55.33,74.853 C55.576,75.9 55.664,76.023 56.082,75.911 C56.343,75.841 56.781,75.783 57.056,75.781 C57.546,75.778 57.555,75.727 57.555,73.129 L57.555,70.48 L55.944,70.105 C53.467,69.526 50.607,69.431 48.894,69.87 C44.218,71.069 41.568,75.057 41.559,80.909 C41.551,85.813 43.426,89.478 46.789,91.134 C48.967,92.206 51.676,92.394 53.879,91.627 L53.879,91.627 Z M76.438,91.632 C78.116,91.164 79.203,90.574 80.39,89.485 C83.184,86.923 84.437,82.828 83.711,78.628 C82.738,73.004 78.711,69.556 73.111,69.556 C66.693,69.556 62.658,73.928 62.67,80.869 C62.679,86.104 64.976,89.852 69.144,91.43 C71.305,92.249 73.963,92.322 76.438,91.632 L76.438,91.632 Z M71.667,89.907 C69.333,88.507 68.142,84.984 68.128,79.445 C68.119,75.85 68.504,74.124 69.617,72.773 C71.811,70.112 75.569,71.242 77.264,75.073 C78.141,77.056 78.494,78.998 78.503,81.889 C78.516,86.145 77.556,88.864 75.659,89.939 C74.444,90.627 72.845,90.614 71.667,89.907 L71.667,89.907 Z M131,91.741 C133.357,91.234 135.972,89.336 137.201,87.24 C138.527,84.976 139.123,81.568 138.676,78.809 C137.794,73.381 134.11,69.92 128.889,69.617 C125.292,69.408 122.532,70.37 120.468,72.552 C118.539,74.592 117.564,77.427 117.563,81 C117.56,88.794 123.315,93.394 131,91.741 L131,91.741 Z M126.714,89.986 C124.332,88.775 123.035,85.032 123.023,79.334 C123.015,75.243 123.665,73.199 125.38,71.929 C126.283,71.26 128.141,71.17 129.26,71.741 C131.891,73.083 133.362,76.649 133.4,81.778 C133.431,85.874 132.57,88.581 130.847,89.808 C129.819,90.54 127.962,90.62 126.714,89.986 L126.714,89.986 Z M211.549,91.492 C213.153,90.9 214.895,89.178 215.405,87.681 C215.826,86.445 215.894,84.34 215.543,83.404 C214.919,81.74 213.402,80.323 209.057,77.348 C208.111,76.7 207.136,75.845 206.891,75.448 C206.357,74.584 206.31,73.18 206.791,72.493 C207.503,71.477 209.245,70.951 210.649,71.329 C211.68,71.607 212.117,72.152 212.671,73.851 C212.927,74.639 213.161,74.995 213.412,74.982 C213.613,74.972 214.128,74.947 214.556,74.926 L215.333,74.889 L215.333,72.905 C215.333,71.505 215.242,70.83 215.023,70.611 C214.853,70.441 213.753,70.12 212.579,69.899 C206.29,68.716 202.662,70.984 202.669,76.096 C202.673,78.939 203.662,80.309 207.706,83.076 C211.12,85.412 212.263,87.059 211.521,88.573 C210.971,89.696 210.137,90.112 208.433,90.112 C207.084,90.112 206.83,90.043 206.331,89.544 C206.019,89.231 205.523,88.381 205.228,87.655 C204.662,86.257 204.235,86.004 202.973,86.321 C202.464,86.449 202.444,86.528 202.444,88.533 C202.444,89.934 202.535,90.683 202.722,90.827 C202.875,90.945 203.65,91.221 204.444,91.439 C207.527,92.287 209.356,92.3 211.549,91.492 L211.549,91.492 Z M232.575,91.298 C233.783,90.82 233.895,90.717 233.961,90.026 C234.023,89.378 233.977,89.295 233.63,89.428 C233.409,89.513 232.626,89.633 231.892,89.695 C230.181,89.839 229.182,89.365 228.555,88.112 C228.144,87.288 228.106,86.696 228.039,80.056 L227.967,72.889 L232.833,72.889 L232.962,72.249 C233.032,71.896 233.155,71.346 233.236,71.026 L233.382,70.445 L228,70.445 L228,64.667 L225.817,64.667 L225.671,65.533 C225.449,66.843 224.371,68.947 223.58,69.613 C222.868,70.211 221.641,70.664 220.722,70.666 C220.27,70.667 220.222,70.774 220.222,71.778 L220.222,72.889 L222.847,72.889 L222.942,80.056 C223.045,87.801 223.151,88.581 224.308,90.099 C224.621,90.508 225.404,91.112 226.049,91.441 C227.135,91.994 227.373,92.03 229.242,91.928 C230.626,91.853 231.676,91.654 232.575,91.298 L232.575,91.298 Z M34.462,91.642 L35.257,91.51 L35.647,88.478 C35.861,86.81 36.091,85.17 36.157,84.834 C36.275,84.238 36.252,84.223 35.25,84.223 C34.271,84.223 34.222,84.252 34.222,84.85 C34.222,85.963 33.547,87.518 32.765,88.204 C31.73,89.112 30.758,89.331 27.747,89.333 C23.851,89.334 24.127,89.839 24.042,82.547 L23.973,76.608 L26.931,76.711 C30.96,76.851 31.475,77.153 31.882,79.612 C32.008,80.373 32.082,80.445 32.732,80.445 L33.444,80.444 L33.492,70.667 L32.77,70.667 C32.059,70.667 32.044,70.688 31.804,72.047 C31.668,72.822 31.38,73.608 31.148,73.841 C30.402,74.586 27.985,74.862 25.167,74.523 L24,74.383 L24,63.111 L26.722,63.129 C28.219,63.138 29.842,63.266 30.328,63.412 C31.434,63.745 32.127,64.721 32.335,66.237 L32.49,67.358 L34.111,67.223 L34.111,60.778 L14.223,60.778 L14.223,61.339 C14.222,61.848 14.345,61.922 15.567,62.154 C18.337,62.681 18.222,62.074 18.222,76.223 C18.222,89.095 18.212,89.211 16.962,89.846 C16.616,90.021 15.858,90.234 15.278,90.319 C14.351,90.453 14.222,90.538 14.222,91.011 L14.222,91.55 L21.167,91.612 C24.986,91.646 29.361,91.696 30.889,91.724 C32.417,91.751 34.024,91.714 34.462,91.642 L34.462,91.642 Z M99.997,91.278 C99.991,90.803 99.698,90.545 98.778,90.203 C97.44,89.706 97.36,89.278 97.346,82.471 C97.332,75.959 97.418,75.389 98.633,73.97 C99.562,72.885 100.502,72.445 101.893,72.445 C104.998,72.445 105.698,74.66 105.501,83.853 C105.378,89.572 105.282,89.917 103.701,90.317 C103.058,90.48 102.889,90.631 102.889,91.04 L102.889,91.556 L114.031,91.556 L113.96,91.061 C113.903,90.668 113.69,90.533 112.916,90.401 C111.567,90.172 110.936,89.701 110.767,88.797 C110.688,88.378 110.604,85.103 110.58,81.518 C110.543,76.103 110.473,74.812 110.164,73.888 C109.633,72.296 108.646,71.071 107.289,70.32 C106.218,69.726 105.92,69.667 104,69.667 C101.394,69.667 100.351,70.089 98.438,71.913 L97.111,73.179 L97.109,72.09 C97.107,71.491 97.047,70.64 96.974,70.199 L96.841,69.398 L95.43,69.694 C94.323,69.926 89.927,70.444 89.056,70.445 C88.964,70.445 88.889,70.695 88.889,71 C88.889,71.471 88.992,71.556 89.563,71.556 C90.831,71.556 91.724,72.103 91.983,73.038 C92.324,74.265 92.28,88.093 91.932,89.106 C91.625,90 90.902,90.437 89.722,90.442 C88.982,90.445 88.889,90.507 88.889,91 L88.889,91.556 L94.444,91.556 C98.743,91.556 99.999,91.493 99.997,91.278 L99.997,91.278 Z M154.849,91.073 C154.798,90.729 154.508,90.501 153.831,90.276 C153.31,90.103 152.76,89.745 152.609,89.481 C152.413,89.139 152.313,87.196 152.262,82.744 C152.194,76.718 152.21,76.446 152.678,75.357 C153.584,73.25 155.268,72.229 157.369,72.51 C158.557,72.67 159.265,73.38 159.729,74.879 C160.053,75.925 160.111,77.089 160.111,82.556 C160.111,87.273 160.037,89.129 159.836,89.481 C159.684,89.745 159.135,90.103 158.614,90.276 C157.937,90.501 157.646,90.729 157.596,91.073 L157.525,91.556 L167.778,91.556 L167.778,91.01 C167.778,90.565 167.638,90.439 167.014,90.322 C165.448,90.028 165.452,90.048 165.379,82.722 L165.314,76.155 L165.901,74.956 C166.648,73.429 167.792,72.628 169.421,72.493 C171.026,72.36 171.896,72.835 172.52,74.183 C172.98,75.179 173,75.515 173,82.255 C173,88.835 172.973,89.316 172.581,89.75 C172.35,90.005 171.825,90.277 171.414,90.354 C170.813,90.467 170.667,90.599 170.667,91.025 L170.667,91.556 L181.716,91.556 L181.615,91.027 C181.534,90.603 181.339,90.474 180.637,90.38 C179.409,90.216 178.727,89.698 178.457,88.725 C178.321,88.235 178.224,85.266 178.223,81.541 C178.222,74.61 178.122,73.868 176.936,72 C176.511,71.331 175.902,70.78 175.095,70.334 C174.006,69.732 173.695,69.667 171.889,69.667 C170.143,69.667 169.726,69.747 168.608,70.296 C167.904,70.642 166.743,71.492 166.029,72.185 L164.73,73.445 L163.941,72.189 C163.404,71.333 162.81,70.731 162.077,70.3 C161.097,69.724 160.809,69.667 158.889,69.667 C156.34,69.667 155.325,70.081 153.315,71.942 L152,73.159 L151.997,71.747 C151.995,70.97 151.937,70.123 151.868,69.865 C151.746,69.409 151.702,69.404 150.325,69.693 C149.213,69.926 144.818,70.444 143.944,70.445 C143.853,70.445 143.778,70.695 143.778,71 C143.778,71.463 143.884,71.556 144.411,71.556 C145.593,71.556 146.473,72.014 146.802,72.801 C147.263,73.905 147.251,88.123 146.788,89.231 C146.435,90.077 145.753,90.445 144.541,90.445 C143.875,90.445 143.778,90.516 143.778,91 L143.778,91.556 L154.92,91.556 L154.849,91.073 L154.849,91.073 Z M197.468,91.204 C197.394,91.011 197.333,90.774 197.333,90.678 C197.333,90.582 196.872,90.451 196.308,90.387 C194.742,90.21 194.407,89.737 194.203,87.404 C194.109,86.326 194.025,81.834 194.016,77.421 L194,69.398 L192.389,69.678 C191.503,69.832 189.631,70.072 188.23,70.212 C186.828,70.352 185.644,70.504 185.598,70.55 C185.337,70.811 185.868,71.556 186.315,71.556 C187.243,71.556 188.232,72.041 188.548,72.652 C188.962,73.453 189.21,81.86 188.946,86.174 C188.724,89.818 188.553,90.163 186.866,90.384 C185.9,90.51 185.566,90.739 185.559,91.278 C185.556,91.494 186.907,91.556 191.579,91.556 C196.981,91.556 197.589,91.52 197.468,91.204 L197.468,91.204 Z M192.687,64.99 C194.912,63.839 194.647,60.391 192.27,59.563 C189.008,58.426 186.885,63.094 189.844,64.898 C190.702,65.421 191.786,65.456 192.687,64.99 L192.687,64.99 Z M153.444,53.515 C154.612,53.229 156.074,52.369 157.278,51.258 C158.549,50.087 158.733,49.723 158.411,49.015 L158.153,48.449 L157.074,49.458 C154.441,51.921 151.13,52.253 149.035,50.266 C147.763,49.06 146.68,46.012 146.671,43.611 L146.667,42.667 L158.934,42.667 L158.773,41.061 C158.57,39.045 158.2,37.977 157.193,36.506 C155.684,34.303 153.553,33.409 150.261,33.6 C146.127,33.839 143.074,36.697 142.114,41.227 C141.696,43.2 141.696,45.069 142.113,46.841 C142.557,48.721 143.167,49.851 144.5,51.26 C146.702,53.589 149.877,54.39 153.444,53.515 L153.444,53.515 Z M146.557,40.091 C146.917,37.947 147.382,36.788 148.215,35.955 C148.986,35.184 149.163,35.112 150.274,35.112 C151.163,35.112 151.693,35.246 152.245,35.612 C153.1,36.178 154.113,38.051 154.332,39.469 L154.473,40.382 L153.625,40.527 C153.159,40.606 151.345,40.736 149.594,40.816 L146.411,40.96 L146.557,40.091 L146.557,40.091 Z M110.667,52.834 C110.667,52.276 110.593,52.222 109.833,52.219 C108.685,52.215 107.959,51.8 107.5,50.886 C107.146,50.179 107.112,49.126 107.112,38.815 L107.111,27.519 L109.611,27.677 C110.986,27.764 112.478,27.98 112.927,28.157 C113.894,28.539 114.444,29.523 114.444,30.867 C114.444,31.76 114.46,31.778 115.222,31.778 L116,31.778 L116,25.586 L104.333,25.585 L92.667,25.583 L92.665,27.181 C92.664,28.059 92.599,29.46 92.52,30.294 L92.377,31.809 L93.244,31.738 C94.108,31.667 94.112,31.664 94.231,30.556 C94.296,29.945 94.468,29.232 94.613,28.972 C95.029,28.223 96.353,27.845 99.167,27.673 L101.778,27.512 L101.778,38.99 C101.778,51.857 101.811,51.569 100.276,51.989 C99.819,52.115 99.194,52.243 98.889,52.275 C98.481,52.318 98.316,52.482 98.268,52.889 L98.203,53.445 L110.667,53.445 L110.667,52.834 L110.667,52.834 Z M126.667,52.939 C126.667,52.554 126.506,52.402 125.993,52.299 C125.623,52.225 125.123,51.914 124.882,51.608 C124.472,51.087 124.444,50.685 124.444,45.297 C124.444,40.605 124.508,39.39 124.788,38.719 C125.482,37.058 126.768,36.171 128.483,36.171 C130.555,36.171 131.211,37.085 131.583,40.489 C131.872,43.144 131.73,50.484 131.371,51.378 C131.197,51.812 130.882,52.045 130.232,52.22 C129.526,52.41 129.333,52.567 129.333,52.953 L129.333,53.445 L139.333,53.445 L139.333,52.945 C139.333,52.617 139.199,52.444 138.944,52.444 C138.731,52.443 138.197,52.343 137.758,52.221 C136.436,51.854 136.379,51.554 136.238,44.223 C136.116,37.932 136.09,37.624 135.592,36.612 C134.968,35.347 133.655,34.167 132.476,33.814 C132.002,33.672 130.977,33.556 130.196,33.556 C128.526,33.556 126.632,34.357 125.278,35.636 L124.444,36.422 L124.444,24.659 L123.944,24.768 C122.52,25.08 120.774,25.315 118.83,25.458 C117.481,25.557 116.668,25.71 116.67,25.864 C116.677,26.357 117.017,26.601 117.889,26.737 C118.968,26.906 119.486,27.487 119.667,28.732 C119.742,29.246 119.772,34.472 119.735,40.344 C119.657,52.509 119.727,52.047 117.921,52.317 C117.019,52.453 116.502,52.888 116.756,53.298 C116.806,53.379 119.056,53.445 121.757,53.445 L126.667,53.445 L126.667,52.939 L126.667,52.939 Z" id="Imported-Layers" fill="#000000" sketch:type="MSShapeGroup"></path>
    </g>
</svg>