<svg xmlns="http://www.w3.org/2000/svg"><symbol id="acm" viewBox="0 0 502 502"><title>Imported Layers</title><g fill="none" fill-rule="evenodd"><path d="M.735.722h500.937V501.66H.735V.72z" fill="#9E9E9E"/><path d="M84.505 155.642l-9.476-1.37 3.49-11.97h27.18l3.49 11.97-9.35 1.37v9.727h33.913v-9.36l-9.228-1.87-22.57-73.57H82.88l-22.814 73.7-9.228 1.744v9.353h33.665v-9.728zm.126-35.912c3-9.6 6.11-21.447 7.36-26.56h.25c.87 3.617 4.12 15.463 7.23 26.312l3.12 10.598H81.517l3.117-10.35zm90.77 36.286l-11.47-1.744v-27.184c2.12-7.48 6.98-12.096 12.22-12.096 1.37 0 2.245.125 2.745.374l1.373 8.728h9.102v-18.827c-3.243-1.87-7.48-3.242-11.723-3.242-6.982 0-13.466 5.985-14.84 12.094h-.247l-.375-10.85h-5.735l-17.957 2.24v8.98l10.226.87v38.906l-10.23 1.744v9.354h36.91v-9.354m39.643-28.303c-10.848 0-18.33 6.11-18.33 19.827 0 12.72 8.23 19.204 18.83 19.204 6.608 0 9.6-2.37 17.83-7.482h.25l1.497 6.356h7.73l15.09-2.12v-8.23l-9.727-1.247c-.248-1.37-.5-3.614-.5-5.235v-25.06c0-14.09-6.98-21.695-24.19-21.695-8.105 0-14.587 1.745-22.942 4.364v15.58h9.85l1.37-6.236c2.997-.998 6.736-1.746 9.48-1.746 7.73 0 11.224 2.493 11.224 10.1v5.61c-6.236-.248-11.722-1.994-17.46-1.994zm17.46 23.193c-6.736 3.742-8.232 5.238-12.222 5.238-6.36 0-8.973-4.24-8.973-9.85 0-7.107 3.615-9.602 8.85-9.602 2.87 0 7.86.994 12.347 1.245v12.97zm36.277 14.466h13.467l.5-5.738h.25c3.364 3.492 9.85 7.11 16.083 7.11 15.838 0 26.31-11.972 26.31-32.297 0-20.95-8.353-32.543-24.937-32.543-7.107 0-12.096 4.987-16.21 9.35h-.25V75.59h-7.48l-17.957 2.368v8.98l10.224.747v77.684zm15.213-42.025c2.494-3.362 7.107-8.725 11.97-8.725 9.103 0 13.84 5.86 13.84 19.828 0 13.84-6.107 19.576-14.338 19.576-4.114 0-9.228-3.364-11.472-6.23v-24.44zm-188.64 99.73c2.12 0 3.49.128 5.238.75l1.87 9.727h10.476v-21.072c-4.987-1.747-10.1-3.118-16.834-3.118-23.566 0-41.272 16.085-41.272 43.642 0 27.557 14.71 43.643 38.4 43.643 8.98 0 14.715-1.49 21.57-3.86l-3.99-12.844c-6.36 1.994-11.344 2.87-17.455 2.87-13.842 0-22.196-10.85-22.196-29.806 0-18.952 11.345-29.926 24.19-29.926m27.43 62.968v9.356h35.66v-9.352l-10.225-1.743v-51h-7.482l-17.955 2.244v8.98l10.223.87v38.9l-10.223 1.746m26.81-70.953c0-4.863-4.117-8.728-9.353-8.728-5.113 0-9.352 3.865-9.352 8.728 0 4.738 4.24 8.73 9.353 8.73 5.237 0 9.35-3.992 9.35-8.73m40.273 81.55c5.237 0 12.344-1.495 17.83-3.615l-3.74-11.472c-3.865 1.37-7.48 2.244-10.85 2.244-3.49 0-5.61-2-5.61-6.238v-32.67h15.338V233.3h-15.34v-16.586l-15.21 4.988V233.3h-8.353v11.595h8.354v36.91c0 9.975 7.733 14.838 17.583 14.838m31.414-81.55c0 4.738 4.24 8.73 9.354 8.73 5.234 0 9.35-3.992 9.35-8.73 0-4.863-4.116-8.728-9.35-8.728-5.115 0-9.354 3.865-9.354 8.728m27.556 70.95l-10.224-1.744v-51h-7.485l-17.954 2.24v8.98l10.225.87v38.91l-10.225 1.745v9.354h35.663v-9.354m19.948-40.278h19.577v.25c-3.367 3.74-8.605 9.473-11.722 13.09L256.3 284.05v11.347h50.875V274.32h-9.352l-1.62 8.604H274.01v-.25c2.49-2.742 5.86-6.358 8.602-9.725l23.69-28.31v-11.35h-48.007v20.074h9.103l1.372-7.606m101.994 17.833c0-20.45-8.23-31.672-25.935-31.672-17.21 0-28.56 11.723-28.56 32.17 0 20.703 10.6 32.548 31.55 32.548 8.353 0 13.964-1.245 20.075-2.99l-2.62-11.348c-5.487 1.497-10.35 2.62-17.83 2.62-9.603 0-16.96-6.61-16.96-17.83h40.276v-3.49zm-12.842-5.984h-27.31c.625-8.98 6.485-15.09 14.217-15.09 8.473 0 13.09 6.485 13.09 14.84v.25zM441.34 252c0-13.84-7.728-20.076-17.83-20.076-8.105 0-16.334 4.615-19.825 10.724h-.25l-.872-9.35H396.7l-17.955 2.243v8.98l10.226.87v38.91l-10.22 1.748v9.354h33.17v-9.353l-7.73-1.745v-31.05c3.865-5.236 8.23-8.853 14.46-8.853 4.118 0 7.485 2.87 7.485 10.1v29.8l-6.734 1.743v9.354h32.173v-9.354l-10.23-1.745V252M114.31 357.585c-5.61 10.475-11.347 21.572-13.217 25.81h-.245c-1.62-4.112-7.233-15.086-12.97-25.81l-8.853-16.96H54.33v9.354l10.224 1.74v62.595L54.33 416.06v9.354h36.41v-9.355l-10.225-1.746V393.49c0-9.352-.123-20.7-.374-24.69h.258c1.37 3.12 6.858 13.968 12.22 24.068l4.862 9.35h7.107l4.988-9.35c5.114-9.48 10.474-20.328 12.22-24.067h.25c-.25 3.99-.374 15.214-.374 24.565v20.95l-10.224 1.744v9.353h36.41v-9.355l-10.224-1.746V351.72l10.226-1.746v-9.355h-24.82l-8.73 16.96m69.193 4.362c-17.207 0-28.555 11.72-28.555 32.17 0 20.7 10.6 32.546 31.548 32.546 8.354 0 13.966-1.247 20.076-2.994l-2.62-11.346c-5.485 1.498-10.35 2.62-17.83 2.62-9.602 0-16.96-6.61-16.96-17.83h40.28v-3.492c0-20.45-8.232-31.673-25.94-31.673zm13.094 25.687h-27.31c.625-8.98 6.486-15.09 14.216-15.09 8.48 0 13.094 6.485 13.094 14.84v.25zm78.425-51.997h-7.606L249.46 338v8.98l10.35.748v22.942h-.25c-4.115-4.24-8.98-8.73-16.335-8.73-16.46 0-24.94 11.598-24.94 32.548 0 20.326 10.6 32.296 26.436 32.296 6.61 0 12.97-4.86 16.09-8.602h.25l.75 7.48h8.106l15.337-2.118v-8.232l-10.224-1.247v-78.43zM259.81 406.96c-1.998 2.62-7.36 6.983-11.35 6.983-8.355 0-14.59-5.61-14.59-19.45 0-13.97 4.864-19.83 13.966-19.83 4.613 0 9.228 4.365 11.97 8.107v24.19zm57.35-43.642h-7.485l-17.956 2.243v8.98l10.22.87v38.91l-10.225 1.748v9.353h35.663v-9.354l-10.225-1.745v-51m-7.98-26.934c-5.115 0-9.354 3.865-9.354 8.728 0 4.738 4.24 8.73 9.353 8.73 5.233 0 9.35-3.992 9.35-8.73 0-4.863-4.117-8.728-9.35-8.728m77.053 72.448V383.77c0-14.09-6.982-21.695-24.19-21.695-8.106 0-14.588 1.744-22.943 4.364v15.58h9.85l1.37-6.236c2.995-.998 6.735-1.746 9.48-1.746 7.73 0 11.222 2.493 11.222 10.1v5.61c-6.237-.248-11.723-1.994-17.46-1.994-10.848 0-18.33 6.11-18.33 19.828 0 12.72 8.23 19.203 18.83 19.203 6.608 0 9.6-2.37 17.83-7.48h.25l1.497 6.36h7.732l15.086-2.12v-8.23l-9.73-1.25c-.246-1.37-.5-3.613-.5-5.234zm-15.21 2.12c-6.736 3.74-8.232 5.236-12.222 5.236-6.357 0-8.975-4.24-8.975-9.85 0-7.11 3.617-9.6 8.853-9.6 2.868 0 7.857.993 12.346 1.244v12.967z" fill="#FFF"/></g></symbol><symbol id="app-store-badge-135x40" viewBox="0 0 135 40"><path fill="#A6A6A6" d="M130.197 40H4.73A4.739 4.739 0 0 1 0 35.267V4.727A4.734 4.734 0 0 1 4.73 0h125.467C132.803 0 135 2.12 135 4.726v30.54c0 2.606-2.197 4.734-4.803 4.734z"/><path d="M134.032 35.268a3.83 3.83 0 0 1-3.834 3.83H4.728a3.835 3.835 0 0 1-3.838-3.83V4.725A3.84 3.84 0 0 1 4.73.89h125.467c2.12 0 3.834 1.72 3.834 3.835l.005 30.543z"/><path d="M30.128 19.784c-.03-3.223 2.64-4.79 2.76-4.864-1.51-2.203-3.852-2.504-4.675-2.528-1.967-.207-3.875 1.177-4.877 1.177-1.022 0-2.565-1.16-4.228-1.127-2.14.033-4.142 1.272-5.24 3.196-2.266 3.923-.576 9.69 1.595 12.86 1.086 1.552 2.355 3.286 4.016 3.225 1.62-.067 2.23-1.036 4.19-1.036 1.942 0 2.512 1.036 4.206.997 1.743-.028 2.84-1.56 3.89-3.127 1.254-1.78 1.758-3.53 1.778-3.62-.04-.014-3.387-1.29-3.42-5.154zm-3.2-9.478c.874-1.093 1.472-2.58 1.306-4.09-1.265.057-2.847.876-3.758 1.945-.806.946-1.526 2.49-1.34 3.94 1.42.108 2.88-.715 3.792-1.79zm26.717 21.198h-2.27l-1.245-3.91h-4.324l-1.185 3.91h-2.21l4.287-13.308h2.646l4.306 13.308zm-3.89-5.55L48.63 22.48c-.12-.355-.342-1.19-.67-2.507h-.04c-.132.566-.343 1.402-.633 2.507l-1.105 3.475h3.573zm14.907.634c0 1.632-.44 2.922-1.323 3.87-.79.842-1.775 1.263-2.946 1.263-1.264 0-2.172-.45-2.725-1.36h-.04v5.057H55.5v-10.35c0-1.025-.027-2.08-.08-3.16h1.876l.12 1.523h.04c.71-1.15 1.79-1.72 3.237-1.72 1.132 0 2.077.446 2.833 1.34.758.897 1.136 2.075 1.136 3.536zm-2.172.078c0-.934-.21-1.704-.632-2.31-.46-.632-1.08-.948-1.856-.948-.526 0-1.004.176-1.43.523-.43.35-.71.81-.84 1.377-.066.264-.1.48-.1.65v1.6c0 .698.215 1.287.643 1.768s.984.72 1.668.72c.803 0 1.428-.31 1.875-.927.448-.62.672-1.435.672-2.45zm13.21-.078c0 1.632-.442 2.922-1.325 3.87-.79.842-1.77 1.263-2.94 1.263-1.265 0-2.173-.45-2.725-1.36h-.04v5.057h-2.132v-10.35c0-1.025-.027-2.08-.08-3.16h1.876l.12 1.523h.04c.71-1.15 1.788-1.72 3.237-1.72 1.135 0 2.08.446 2.838 1.34.755.897 1.134 2.075 1.134 3.536zm-2.173.078c0-.934-.21-1.704-.633-2.31-.46-.632-1.078-.948-1.855-.948-.53 0-1.008.176-1.436.523-.428.35-.707.81-.838 1.377-.066.264-.1.48-.1.65v1.6c0 .698.214 1.287.64 1.768.428.48.984.72 1.67.72.803 0 1.428-.31 1.875-.927.45-.62.673-1.435.673-2.45zm14.513 1.106c0 1.132-.394 2.053-1.183 2.764-.867.777-2.074 1.165-3.625 1.165-1.432 0-2.58-.272-3.45-.825l.495-1.777c.936.566 1.963.85 3.082.85.8 0 1.424-.182 1.873-.544.447-.36.67-.847.67-1.453 0-.54-.184-.995-.553-1.364-.366-.37-.98-.712-1.835-1.03-2.33-.868-3.494-2.14-3.494-3.815 0-1.093.41-1.99 1.227-2.69.814-.697 1.9-1.046 3.258-1.046 1.21 0 2.217.212 3.02.633l-.533 1.738c-.75-.407-1.597-.61-2.546-.61-.75 0-1.336.184-1.756.552a1.58 1.58 0 0 0-.534 1.205c0 .528.203.96.61 1.305.356.316 1 .658 1.937 1.027 1.146.46 1.987 1 2.528 1.62.54.615.81 1.386.81 2.306zm7.048-4.264h-2.35v4.66c0 1.184.414 1.776 1.244 1.776.38 0 .697-.033.947-.1l.055 1.62c-.42.157-.973.236-1.658.236-.843 0-1.5-.257-1.976-.77-.472-.514-.71-1.376-.71-2.587v-4.837h-1.4v-1.6h1.4V20.15l2.094-.633v2.39h2.35v1.6zm10.602 3.12c0 1.474-.42 2.685-1.263 3.632-.883.975-2.055 1.46-3.516 1.46-1.404 0-2.525-.466-3.36-1.4s-1.255-2.113-1.255-3.534c0-1.487.43-2.705 1.293-3.652.86-.948 2.023-1.422 3.484-1.422 1.408 0 2.54.467 3.396 1.402.818.907 1.226 2.078 1.226 3.513zm-2.21.07c0-.887-.19-1.646-.573-2.28-.447-.766-1.086-1.15-1.914-1.15-.857 0-1.508.385-1.955 1.15-.383.634-.572 1.405-.572 2.317 0 .885.19 1.644.572 2.276.46.77 1.105 1.15 1.936 1.15.814 0 1.453-.39 1.914-1.17.393-.642.59-1.41.59-2.293zm9.14-2.915c-.21-.04-.435-.06-.67-.06-.75 0-1.33.284-1.74.85-.354.5-.532 1.133-.532 1.896v5.03h-2.13l.02-6.574a52.97 52.97 0 0 0-.08-3.02h1.856l.078 1.834h.06c.224-.63.58-1.14 1.065-1.52a2.577 2.577 0 0 1 1.54-.514c.198 0 .376.015.534.04v2.033zm9.536 2.47c0 .38-.025.703-.078.966h-6.396c.025.944.334 1.67.928 2.17.54.446 1.236.67 2.092.67.947 0 1.81-.15 2.588-.454l.334 1.48c-.908.395-1.98.592-3.217.592-1.488 0-2.656-.44-3.506-1.314-.844-.876-1.27-2.05-1.27-3.525 0-1.447.396-2.65 1.187-3.613.828-1.027 1.947-1.54 3.355-1.54 1.383 0 2.43.513 3.14 1.54.564.814.847 1.822.847 3.02zm-2.033-.554c.014-.636-.125-1.18-.414-1.64-.37-.596-.94-.89-1.7-.89-.7 0-1.267.29-1.7.87-.355.46-.566 1.01-.63 1.655h4.44zM49.05 10.01c0 1.176-.353 2.062-1.058 2.657-.653.55-1.58.824-2.783.824-.6 0-1.11-.022-1.537-.074v-6.43c.557-.09 1.157-.137 1.805-.137 1.145 0 2.01.25 2.59.746.652.563.98 1.368.98 2.416zm-1.105.028c0-.763-.202-1.348-.606-1.756-.408-.407-.998-.61-1.775-.61-.33 0-.61.02-.844.067v4.885c.13.02.366.03.71.03.802 0 1.42-.224 1.857-.67s.655-1.096.655-1.95zm6.965 1c0 .724-.208 1.32-.622 1.784-.434.48-1.01.718-1.727.718-.69 0-1.24-.23-1.65-.69-.41-.458-.615-1.037-.615-1.735 0-.73.21-1.33.635-1.794s.993-.694 1.71-.694c.69 0 1.248.23 1.67.688.4.447.6 1.023.6 1.727zm-1.088.033c0-.43-.094-.804-.28-1.115-.22-.376-.534-.564-.94-.564-.422 0-.742.188-.962.564-.188.31-.28.69-.28 1.138 0 .437.093.81.28 1.12.227.377.543.565.95.565.4 0 .715-.19.94-.574.195-.317.292-.693.292-1.13zm8.943-2.35l-1.475 4.715h-.96l-.61-2.047c-.156-.51-.282-1.02-.38-1.523h-.02c-.09.518-.216 1.025-.378 1.523l-.65 2.047h-.97L55.935 8.72h1.077l.533 2.24c.13.53.235 1.035.32 1.513h.02c.077-.394.206-.896.388-1.503l.67-2.25h.853l.64 2.202c.156.537.282 1.054.38 1.552h.028c.07-.485.178-1.002.32-1.552l.572-2.202h1.03zm5.433 4.715H67.15v-2.7c0-.832-.316-1.248-.95-1.248a.947.947 0 0 0-.757.343c-.193.23-.29.5-.29.807v2.796h-1.05v-3.366c0-.414-.012-.863-.037-1.35h.92l.05.738h.03c.12-.23.303-.418.542-.57a1.78 1.78 0 0 1 .95-.264c.44 0 .806.144 1.097.43.362.35.543.87.543 1.56v2.823zm2.89 0H70.04v-6.88h1.048v6.878zm6.17-2.396c0 .724-.207 1.32-.62 1.784-.435.48-1.01.718-1.728.718-.693 0-1.244-.23-1.654-.69-.41-.457-.615-1.036-.615-1.734 0-.73.215-1.33.64-1.794s.993-.696 1.71-.696c.693 0 1.25.23 1.67.688.4.447.6 1.023.6 1.727zm-1.088.033c0-.433-.094-.806-.28-1.117-.22-.376-.534-.564-.94-.564-.422 0-.742.188-.96.564-.19.31-.282.69-.282 1.138 0 .436.094.81.28 1.12.228.376.544.564.952.564.4 0 .713-.19.94-.574.194-.318.29-.694.29-1.13zm6.16 2.363h-.94l-.08-.543h-.028c-.322.433-.78.65-1.377.65-.445 0-.805-.143-1.076-.427-.25-.258-.37-.58-.37-.96 0-.576.24-1.015.72-1.32.482-.303 1.16-.452 2.033-.445v-.09c0-.62-.326-.93-.98-.93-.464 0-.874.117-1.228.35l-.213-.69c.438-.27.98-.406 1.617-.406 1.232 0 1.85.65 1.85 1.95v1.736c0 .47.023.843.07 1.12zm-1.088-1.62v-.727c-1.156-.02-1.734.296-1.734.95 0 .245.066.43.2.552a.75.75 0 0 0 .513.183c.23 0 .45-.073.645-.218a.89.89 0 0 0 .38-.743zm7.043 1.62h-.93l-.05-.757h-.028c-.297.575-.803.863-1.514.863-.568 0-1.04-.223-1.416-.67s-.562-1.024-.562-1.735c0-.763.203-1.38.61-1.853.396-.44.88-.66 1.456-.66.637 0 1.08.213 1.33.64h.02v-2.71h1.05v5.608c0 .46.01.882.038 1.27zm-1.085-1.99v-.786c0-.14-.01-.25-.03-.33a1.192 1.192 0 0 0-.38-.638 1.032 1.032 0 0 0-.7-.257c-.39 0-.697.155-.922.466-.223.31-.336.71-.336 1.195 0 .466.107.844.322 1.135.227.31.533.465.916.465.344 0 .62-.13.828-.388.202-.24.3-.527.3-.863zm10.048-.408c0 .725-.207 1.32-.62 1.785-.435.48-1.01.718-1.728.718-.69 0-1.242-.23-1.654-.69-.41-.457-.615-1.036-.615-1.734 0-.73.215-1.33.64-1.794s.993-.695 1.712-.695c.69 0 1.248.23 1.668.688.4.447.6 1.023.6 1.727zm-1.086.034c0-.432-.094-.805-.28-1.116-.222-.376-.534-.564-.942-.564-.42 0-.74.187-.96.563-.19.31-.282.69-.282 1.138 0 .437.094.81.28 1.12.228.377.544.565.952.565.4 0 .715-.19.94-.574.194-.317.292-.693.292-1.13zm6.72 2.364h-1.046v-2.7c0-.832-.316-1.248-.95-1.248-.312 0-.563.114-.757.343s-.295.5-.295.808v2.796h-1.05v-3.366c0-.414-.01-.863-.036-1.35h.92l.05.738h.03c.12-.23.303-.418.54-.57.286-.175.603-.264.95-.264.44 0 .807.143 1.098.428.36.35.54.87.54 1.562v2.822zm7.054-3.93h-1.154v2.29c0 .583.205.874.61.874.19 0 .345-.016.468-.05l.027.796c-.207.078-.48.117-.814.117-.414 0-.736-.125-.97-.377-.233-.252-.35-.676-.35-1.27v-2.38h-.688V8.72h.69v-.865l1.026-.31v1.173h1.158v.786zm5.548 3.93h-1.05v-2.68c0-.845-.315-1.268-.948-1.268-.486 0-.818.245-1 .735-.03.104-.05.23-.05.378v2.836h-1.046v-6.88h1.047v2.84h.02c.33-.516.803-.774 1.416-.774.434 0 .793.142 1.078.427.36.35.537.88.537 1.58v2.8zm5.723-2.58c0 .188-.014.346-.04.475h-3.142c.014.466.164.82.455 1.067.266.22.61.33 1.03.33a3.47 3.47 0 0 0 1.27-.223l.164.728c-.447.195-.973.29-1.582.29-.73 0-1.305-.213-1.72-.643-.42-.43-.626-1.008-.626-1.73 0-.713.193-1.305.582-1.777.406-.503.955-.755 1.648-.755.678 0 1.193.252 1.54.756.282.4.42.896.42 1.484zm-1-.27c.008-.312-.06-.58-.203-.806-.182-.29-.46-.437-.834-.437a.997.997 0 0 0-.834.428c-.174.228-.277.5-.31.816h2.18z" fill="#FFF"/></symbol><symbol id="awards" viewBox="0 0 160 160"><title>awards</title><path d="M27.6 94.27c-4.474 8.653-11.187 17.267-14.41 21.198a75.038 75.038 0 0 1-8.67-32.36C9.28 84.905 19.4 89.013 27.6 94.27zM13.207 44.995c3.228 3.94 9.928 12.55 14.396 21.192-8.2 5.256-18.32 9.36-23.08 11.154a75.013 75.013 0 0 1 8.684-32.345zm26.568-28.653c.827 5.038 2.322 15.824 1.87 25.53-9.708.45-20.498-1.048-25.534-1.875a76.131 76.131 0 0 1 23.664-23.655zm5.165 32.413l13.576 19.087-23.335-2.215c2.844-2.32 5.218-4.805 6.718-7.406 1.492-2.586 2.453-5.864 3.04-9.465zm18.75-17.617c-2.41 3.258-5.003 5.967-7.69 7.52-2.686 1.553-6.33 2.446-10.36 2.903.37-8.7-.694-17.887-1.54-23.517 4.452 3.548 11.87 9.064 19.59 13.095zm13.42-26.37c-1.8 4.768-5.9 14.87-11.153 23.062-8.637-4.465-17.236-11.16-21.18-14.393A75.02 75.02 0 0 1 77.112 4.77zm2.883 3.666c2.07 5.276 5.732 13.767 10.4 21.135-3.706 1.61-7.297 2.655-10.394 2.656h-.007c-3.1 0-6.7-1.05-10.416-2.666 4.667-7.348 8.336-15.83 10.418-21.126zm35.227 5.004c-3.947 3.233-12.56 9.938-21.206 14.403C88.758 19.617 84.66 9.49 82.884 4.77a75.004 75.004 0 0 1 32.338 8.668zm-.885 28.196c-4.01-.458-7.635-1.35-10.313-2.894-2.707-1.56-5.32-4.3-7.743-7.59 7.714-4.024 15.133-9.534 19.593-13.085-.85 5.654-1.916 14.862-1.536 23.57zm10.492 23.992l-23.345 2.216 13.558-19.06c.59 3.584 1.55 6.846 3.04 9.423 1.508 2.606 3.892 5.096 6.746 7.42zm-4.624-49.297a76.115 76.115 0 0 1 23.735 23.745c-5.027.827-15.862 2.333-25.6 1.874-.468-9.724 1.035-20.562 1.866-25.62zm35.272 61c-4.742-1.79-14.86-5.892-23.07-11.15 4.46-8.628 11.15-17.224 14.39-21.18a75.014 75.014 0 0 1 8.68 32.33zm-8.654 38.11c-3.23-3.942-9.956-12.576-14.427-21.242 8.246-5.266 18.39-9.364 23.083-11.128a74.985 74.985 0 0 1-8.656 32.37zM120.14 144.21c-.825-4.998-2.346-15.884-1.885-25.666 9.767-.468 20.654 1.05 25.685 1.878a76.152 76.152 0 0 1-23.8 23.788zm-5.17-32.597l-13.484-18.96 23.192 2.204c-2.826 2.31-5.186 4.786-6.68 7.375-1.48 2.567-2.437 5.813-3.027 9.38zm-18.68 17.692c2.414-3.272 5.015-5.993 7.71-7.55 2.664-1.54 6.268-2.432 10.257-2.893-.372 8.662.682 17.81 1.526 23.456-4.468-3.555-11.836-9.018-19.494-13.014zm-13.433 26.424c1.778-4.722 5.888-14.878 11.163-23.115 8.668 4.48 17.3 11.207 21.232 14.43a74.997 74.997 0 0 1-32.395 8.686zm-2.865-3.718c-2.082-5.3-5.746-13.774-10.41-21.115 3.715-1.617 7.315-2.665 10.417-2.667h.008c3.096 0 6.687 1.045 10.394 2.657-4.667 7.355-8.333 15.838-10.41 21.125zm-35.245-4.967c3.93-3.22 12.552-9.94 21.215-14.417 5.265 8.214 9.374 18.353 11.163 23.102a75.037 75.037 0 0 1-32.378-8.684zm.896-28.146c4.026.457 7.668 1.35 10.356 2.9 2.688 1.55 5.283 4.26 7.694 7.522-7.723 4.033-15.147 9.55-19.6 13.097.85-5.63 1.917-14.816 1.55-23.52zM35.22 94.864l23.295-2.213-13.57 19.08c-.588-3.617-1.552-6.91-3.053-9.506-1.494-2.584-3.85-5.053-6.67-7.36zm-4.31 1.676c3.258 2.41 5.967 5 7.52 7.686 1.552 2.686 2.444 6.33 2.9 10.36-8.702-.37-17.887.695-23.515 1.54 3.547-4.45 9.062-11.868 13.094-19.586zM32 80.222c.002 3.105-1.05 6.708-2.668 10.428-7.354-4.672-15.843-8.342-21.14-10.424 5.297-2.08 13.787-5.748 21.14-10.42 1.617 3.716 2.666 7.315 2.668 10.416zm-1.09-16.305c-4.03-7.72-9.543-15.14-13.09-19.59 4.847.728 12.33 1.624 19.868 1.624 1.217 0 2.434-.026 3.643-.077-.456 4.024-1.348 7.663-2.897 10.35-1.55 2.69-4.26 5.284-7.522 7.694zm24.282 16.33L33.887 89.99c1.3-3.43 2.115-6.768 2.113-9.77 0-2.984-.806-6.3-2.095-9.71l21.287 9.737zm12.404 21.484l-2.21 23.292c-2.316-2.832-4.794-5.197-7.39-6.693-2.585-1.493-5.86-2.454-9.46-3.042l19.06-13.557zm22.13 24.593c-3.41-1.29-6.73-2.097-9.72-2.097h-.01c-2.988.002-6.31.81-9.724 2.102L80 105.055l9.727 21.268zm21.682-11.074c-3.58.59-6.836 1.55-9.41 3.038-2.592 1.5-5.07 3.866-7.385 6.7l-2.208-23.256 19.003 13.517zm14.747-25.24l-21.346-9.763 21.3-9.742c-1.287 3.406-2.09 6.72-2.087 9.7 0 3.013.822 6.363 2.132 9.805zm2.945-26.097c-3.274-2.416-5.996-5.016-7.553-7.71-1.54-2.663-2.43-6.267-2.89-10.254a90.5 90.5 0 0 0 3.69.078c7.486 0 14.917-.882 19.764-1.606-3.553 4.468-9.015 11.835-13.01 19.49zm13.09 52.172c-5.65-.85-14.887-1.926-23.62-1.545.46-4.01 1.35-7.634 2.894-10.313 1.566-2.715 4.317-5.335 7.623-7.767 4.027 7.727 9.548 15.16 13.103 19.625zm-14.167-35.88c-.002-3.098 1.044-6.693 2.657-10.403 7.34 4.657 15.802 8.317 21.09 10.397-5.266 2.064-13.74 5.72-21.1 10.377-1.606-3.7-2.646-7.283-2.647-10.373zM92.405 58.76l2.21-23.277c2.322 2.845 4.808 5.22 7.41 6.722 2.57 1.482 5.82 2.444 9.392 3.033L92.405 58.76zM70.25 34.12c3.422 1.296 6.75 2.106 9.744 2.106h.01c2.995 0 6.326-.813 9.75-2.11L80 55.437 70.25 34.12zM48.5 45.177c3.617-.588 6.908-1.555 9.504-3.056 2.59-1.497 5.066-3.86 7.38-6.692l2.214 23.334L48.5 45.178zm15.812 23.91L53.146 53.393 68.84 64.556a2 2 0 0 0 3.15-1.82l-1.82-19.174 8.012 17.516a2 2 0 0 0 3.638-.001l8.01-17.517-1.82 19.174a2 2 0 0 0 3.15 1.818l15.695-11.164-11.165 15.7a2.007 2.007 0 0 0-.102 2.16 2.014 2.014 0 0 0 1.922.99l19.174-1.82-17.516 8.01a2 2 0 0 0 0 3.637l17.516 8.012-19.174-1.822a2.013 2.013 0 0 0-1.922.992c-.39.677-.35 1.52.103 2.16l11.165 15.694L91.16 95.938a2.003 2.003 0 0 0-2.16-.102 1.997 1.997 0 0 0-.99 1.92l1.82 19.176-8.01-17.515a1.998 1.998 0 1 0-3.638 0l-8.01 17.516 1.82-19.174a1.997 1.997 0 0 0-.992-1.92 1.99 1.99 0 0 0-2.16.1l-15.694 11.165L64.31 91.407a2.003 2.003 0 0 0 .102-2.16 2.005 2.005 0 0 0-1.922-.99l-19.173 1.82 17.515-8.01a2.001 2.001 0 0 0 0-3.638l-17.515-8.01 19.173 1.82c.78.07 1.53-.313 1.922-.99.39-.68.35-1.523-.102-2.16zm-24.547 75.058a76.15 76.15 0 0 1-23.68-23.688c5.023-.826 15.832-2.328 25.56-1.875.45 9.727-1.053 20.54-1.88 25.563zm-28.75-24.335c.032.074.074.143.115.213.026.043.05.087.078.128.023.033.046.064.07.095a80.128 80.128 0 0 0 28.73 28.726 1.85 1.85 0 0 0 .29.183c.025.013.05.03.077.04.034.018.068.035.104.05a79.038 79.038 0 0 0 39.52 10.555 79.044 79.044 0 0 0 39.537-10.564c.16-.066.31-.152.452-.26a80.148 80.148 0 0 0 28.73-28.725c.143-.174.25-.365.326-.568 6.67-11.634 10.506-25.09 10.506-39.435a79.03 79.03 0 0 0-10.427-39.297 1.977 1.977 0 0 0-.542-.942 80.112 80.112 0 0 0-28.427-28.39c-.048-.048-.103-.088-.156-.13l-.025-.022a1.991 1.991 0 0 0-.664-.336A79.009 79.009 0 0 0 80.295.703a1.982 1.982 0 0 0-.56 0 79.037 79.037 0 0 0-39.088 10.452c-.022.007-.043.017-.065.024-.06.02-.12.04-.178.065-.06.027-.115.06-.172.094-.056.03-.113.062-.165.1-.053.037-.1.08-.15.124-.015.014-.032.025-.047.04a80.143 80.143 0 0 0-28.52 28.522c-.005.007-.01.015-.017.022-.037.044-.076.087-.11.133-.044.062-.08.127-.118.193-.026.048-.054.094-.077.143-.03.066-.054.137-.077.207A78.995 78.995 0 0 0 .448 80.247a79.028 79.028 0 0 0 10.533 39.48l.035.084z" fill="#E6B335" fill-rule="evenodd"/></symbol><symbol id="bridge-white" viewBox="0 0 7601 2513"><title>Bridge white</title><path d="M538 662v211h154.975c40.359 0 73.452-9.297 99.281-27.89C818.086 826.514 831 797.815 831 759.01c0-32.337-13.722-56.59-41.165-72.758C762.39 670.084 726.069 662 680.868 662H538zm0 582v233h172.201c45.274 0 82.059-10.113 110.355-30.339 28.296-20.225 42.444-49.755 42.444-88.588 0-22.653-6.063-41.26-18.19-55.823-12.127-14.563-27.083-26.293-44.87-35.193-17.786-8.9-36.784-14.967-56.996-18.203-20.212-3.236-39.21-4.854-56.996-4.854H538zm585.319-206.452c40.436 9.7 80.063 25.464 118.882 47.29 38.82 21.827 73.594 49.311 104.326 82.455 30.731 33.144 54.993 71.542 72.785 115.194 17.792 43.653 26.688 92.155 26.688 145.509 0 93.772-19.005 172.589-57.015 236.451-38.01 63.862-88.15 115.598-150.423 155.21-62.272 39.61-133.44 67.903-213.503 84.879-80.064 16.976-162.15 25.464-246.257 25.464H0V213h706.017c69.55 0 143.548 5.254 221.995 15.763 78.446 10.51 150.827 31.527 217.142 63.054 66.316 31.527 121.309 77.604 164.98 138.233 43.672 60.629 65.507 140.254 65.507 238.877 0 92.155-23.049 168.142-69.146 227.963-46.098 59.82-107.156 104.28-183.176 133.383v7.275zM1496 654.963h538.504v145.556h4.851c27.491-51.754 68.324-94.611 122.498-128.575C2216.027 637.981 2279.498 621 2352.269 621c43.663 0 79.24 4.043 106.731 12.13l-43.662 475.481c-17.789-4.852-37.599-8.49-59.43-10.917-21.831-2.425-41.64-3.638-59.43-3.638-72.77 0-130.987 21.024-174.65 63.074-43.662 42.05-65.493 93.802-65.493 155.259V1931H1496V654.963zM2531 655h560v1276h-560V655zm-10-368.787c0-38.809 7.685-75.596 23.054-110.362 15.37-34.766 36.402-65.085 63.097-90.957 26.694-25.873 57.838-46.49 93.43-61.851C2736.176 7.68 2774.195 0 2814.642 0c38.828 0 75.23 7.68 109.204 23.043 33.975 15.361 64.31 35.978 91.004 61.85 26.695 25.873 47.727 56.192 63.097 90.958 15.37 34.766 23.054 71.553 23.054 110.362 0 40.425-7.685 78.02-23.054 112.787-15.37 34.766-36.402 64.68-63.097 89.745-26.694 25.064-57.029 44.872-91.004 59.425C2889.87 562.723 2853.47 570 2814.64 570c-40.446 0-78.465-7.277-114.058-21.83-35.593-14.553-66.737-34.361-93.431-59.425-26.695-25.064-47.727-54.979-63.097-89.745-15.37-34.766-23.054-72.361-23.054-112.787zm622 1001.94c0-82.483 12.53-163.348 37.592-242.597 25.061-79.249 61.844-150.41 110.35-213.486 48.506-63.076 109.138-114.02 181.897-152.836 72.76-38.816 156.835-58.224 252.23-58.224 61.44 0 122.88 11.726 184.322 35.177 61.44 23.451 110.754 57.01 147.942 100.678h4.85V97H4620v1834.036h-502.035v-133.428h-4.85c-37.188 51.754-91.352 92.591-162.494 122.511-71.142 29.921-146.326 44.881-225.552 44.881-95.395 0-179.47-19.408-252.23-58.223-72.759-38.816-133.39-90.165-181.896-154.05-48.507-63.884-85.29-136.258-110.351-217.124-25.061-80.867-37.592-163.349-37.592-247.45zm519-.08c0 61.463 17.791 112.816 53.375 154.06 35.584 41.245 87.34 61.867 155.273 61.867 66.315 0 119.285-21.026 158.912-63.08 39.627-42.053 59.44-93.001 59.44-152.846 0-56.61-19.813-105.941-59.44-147.994-39.627-42.054-92.597-63.08-158.912-63.08-67.932 0-119.69 21.026-155.273 63.08-35.584 42.053-53.375 91.384-53.375 147.994zm1020-.022c0-82.472 12.53-163.326 37.592-242.564 25.061-79.238 61.845-150.39 110.35-213.456 48.506-63.067 109.138-114.005 181.897-152.816C5084.6 640.405 5168.674 621 5264.07 621c67.908 0 134.603 12.937 200.086 38.81 65.483 25.874 119.243 67.11 161.282 123.708h7.276V654.959H6159v1144.903c0 139.07-22.636 254.691-67.908 346.866-45.272 92.175-105.5 165.348-180.684 219.52-75.184 54.174-160.473 92.175-255.868 114.006-95.395 21.83-192.405 32.746-291.034 32.746-121.265 0-242.528-15.767-363.793-47.3-121.265-31.533-227.168-78.024-317.713-139.474l244.954-371.123c61.44 46.896 126.115 81.258 194.023 103.09 67.908 21.83 132.582 32.745 194.023 32.745 40.422 0 78.822-5.255 115.201-15.766 36.38-10.511 68.312-25.874 95.799-46.087 27.487-20.214 49.314-45.279 65.483-75.195 16.168-29.917 24.253-64.28 24.253-103.09v-55.79h-7.276c-30.72 35.576-76.396 67.11-137.029 94.6-60.632 27.491-129.752 41.236-207.362 41.236-98.629 0-184.321-17.383-257.08-52.151-72.76-34.768-133.391-81.663-181.897-140.687-48.506-59.025-84.48-127.346-107.925-204.967-23.445-77.62-35.167-159.283-35.167-244.99zm520 .023c0 61.462 17.791 112.815 53.375 154.06 35.584 41.244 87.34 61.866 155.273 61.866 66.315 0 119.285-21.026 158.912-63.08 39.627-42.053 59.44-93.001 59.44-152.846 0-56.61-19.813-105.941-59.44-147.994-39.627-42.054-92.597-63.08-158.912-63.08-67.932 0-119.69 21.026-155.273 63.08-35.584 42.053-53.375 91.384-53.375 147.994zM7118 1123c0-45.209-16.589-82.344-49.767-111.406-33.179-29.063-78.09-43.594-134.736-43.594-61.501 0-109.245 16.953-143.233 50.86-33.987 33.906-53.409 68.619-58.264 104.14h386zm483 181.629c0 21.024-.404 42.451-1.213 64.284-.809 21.832-2.022 40.025-3.64 54.58h-858.915c1.617 22.64 9.3 42.856 23.05 60.645 13.749 17.79 30.733 33.152 50.952 46.09 20.22 12.938 42.865 22.64 67.937 29.11a304.714 304.714 0 0 0 76.429 9.703c51.762 0 95.03-9.3 129.808-27.897 34.777-18.598 61.062-39.217 78.855-61.858l397.916 201.341c-56.614 92.18-138.704 164.954-246.271 218.322-107.567 53.368-232.521 80.051-374.866 80.051-92.2 0-181.973-14.555-269.32-43.664-87.349-29.11-164.586-72.37-231.714-129.78-67.129-57.411-120.911-128.971-161.35-214.683C6238.219 1505.16 6218 1405.704 6218 1292.5c0-105.118 18.602-200.128 55.805-285.03 37.204-84.904 87.752-156.869 151.645-215.897 63.893-59.028 139.108-104.713 225.647-137.057C6737.637 622.172 6830.24 606 6928.911 606c100.288 0 191.678 17.385 274.173 52.155 82.495 34.77 153.262 83.285 212.303 145.547 59.04 62.263 104.736 136.249 137.087 221.96 32.35 85.712 48.526 178.7 48.526 278.967z" fill="#FFF" fill-rule="evenodd"/></symbol><symbol id="check-white" viewBox="0 0 7259 1882"><title>Check white</title><path d="M0 975c0-137.425 24.26-261.914 72.78-373.47 48.52-111.557 114.829-206.945 198.93-286.166 84.101-79.222 183.161-140.254 297.183-183.098C682.914 89.422 804.617 68 934.003 68c132.621 0 257.962 21.422 376.027 64.266 118.065 42.844 216.72 100.643 295.97 173.397l-354.193 426.824c-32.347-42.036-72.78-73.967-121.3-95.793-48.52-21.826-102.699-32.74-162.54-32.74-48.52 0-93.805 8.488-135.855 25.464-42.05 16.976-78.844 41.632-110.382 73.967-31.538 32.335-56.202 71.541-73.993 117.619-17.79 46.078-26.686 97.41-26.686 153.996 0 56.587 9.3 107.11 27.9 151.57 18.598 44.462 43.667 82.86 75.205 115.195 31.538 32.335 68.331 56.99 110.382 73.966 42.05 16.976 86.526 25.464 133.429 25.464 66.31 0 123.32-13.742 171.032-41.227 47.71-27.485 85.313-59.82 112.808-97.005L1606 1627.36c-77.632 77.605-173.053 139.445-286.266 185.523C1206.521 1858.96 1077.945 1882 934.003 1882c-129.386 0-251.089-21.826-365.11-65.479C454.87 1772.87 355.81 1711.028 271.71 1631c-84.101-80.03-150.41-175.418-198.93-286.166C24.26 1234.085 0 1110.808 0 975zm2564.142-451c88.909 0 162.864 16.173 221.867 48.519 59.003 32.345 105.882 73.99 140.637 124.935 34.755 50.944 59.003 107.953 72.743 171.027C3013.13 931.556 3020 994.63 3020 1057.704V1834h-562.549v-679.26c0-64.69-10.103-109.974-30.31-135.851-20.206-25.877-50.515-38.815-90.929-38.815-32.33 0-61.427 14.151-87.292 42.454-25.864 28.302-38.796 73.182-38.796 134.639V1834H1650V0h560.124v698.667h4.85c32.33-46.902 78.4-87.738 138.212-122.51 59.811-34.771 130.13-52.157 210.956-52.157zM3968 1026c0-45.209-16.589-82.344-49.767-111.406-33.179-29.063-78.09-43.594-134.736-43.594-61.502 0-109.245 16.953-143.233 50.86-33.987 33.906-53.409 68.619-58.264 104.14h386zm483 181.629c0 21.024-.404 42.451-1.213 64.284-.809 21.832-2.022 40.025-3.64 54.58h-858.915c1.617 22.64 9.3 42.856 23.05 60.645 13.749 17.79 30.733 33.152 50.952 46.09 20.22 12.938 42.865 22.64 67.937 29.11a304.714 304.714 0 0 0 76.429 9.703c51.762 0 95.03-9.3 129.808-27.897 34.777-18.598 61.062-39.217 78.855-61.858l397.916 201.341c-56.614 92.18-138.704 164.954-246.271 218.322-107.567 53.368-232.521 80.051-374.866 80.051-92.2 0-181.973-14.555-269.32-43.664-87.349-29.11-164.586-72.37-231.714-129.78-67.128-57.411-120.911-128.971-161.35-214.683C3088.219 1408.16 3068 1308.704 3068 1195.5c0-105.118 18.602-200.128 55.805-285.03 37.204-84.904 87.752-156.869 151.645-215.897 63.893-59.028 139.108-104.713 225.647-137.057C3587.637 525.172 3680.24 509 3778.91 509c100.289 0 191.68 17.385 274.174 52.155 82.495 34.77 153.262 83.285 212.303 145.547 59.04 62.263 104.736 136.249 137.087 221.96 32.35 85.712 48.526 178.7 48.526 278.967zM5239.612 1882c-108.337 0-207.78-16.172-298.33-48.516-90.55-32.344-168.972-78.434-235.268-138.27-66.296-59.837-118.038-131.801-155.229-215.896-37.19-84.095-55.785-178.7-55.785-283.818 0-103.501 19-197.702 56.998-282.605 37.999-84.903 90.954-157.272 158.867-217.109 67.913-59.836 147.547-105.926 238.906-138.27C5041.131 525.172 5140.17 509 5246.89 509c43.658 0 87.72 3.639 132.186 10.916 44.467 7.277 87.316 17.385 128.55 30.323 41.232 12.937 79.23 27.492 113.995 43.664s64.275 33.96 88.53 53.367l-278.927 402.682c-19.404-22.64-44.871-40.025-76.402-52.154-31.53-12.13-61.849-18.194-90.954-18.194-27.489 0-54.168 4.447-80.04 13.342-25.872 8.895-48.913 22.64-69.125 41.239-20.212 18.597-36.786 41.238-49.722 67.922-12.936 26.684-19.403 57.814-19.403 93.393s6.467 66.71 19.403 93.393c12.936 26.684 29.51 48.516 49.722 65.497 20.212 16.98 43.253 29.918 69.125 38.812 25.872 8.895 52.551 13.342 80.04 13.342 32.34 0 63.87-6.064 94.592-18.193 30.723-12.13 55.785-28.705 75.19-49.73L5715 1731.602c-53.36 42.047-122.485 77.625-207.376 106.735-84.89 29.11-174.227 43.664-268.012 43.664zm1058.756-603.537V1834H5738V0h560.368v1045.574h7.278l303.23-487.611H7259l-412.392 574.944L7256.574 1834h-652.55l-298.378-555.537h-7.278z" fill="#FFF" fill-rule="evenodd"/></symbol><symbol id="checkdesk-white" viewBox="0 0 636 119"><title>Imported Layers</title><g fill="#FFF" fill-rule="evenodd"><path d="M54.767 51.496c-1.2-4.408-5.88-11.365-15.11-11.365-9.218 0-16.566 7.36-16.566 20.73 0 12.03 6.29 20.85 16.84 20.85 10.16 0 14.05-7.75 16.05-13.1l13.77 7.22C64.53 90.267 51.3 96.68 39.66 96.68c-18.58 0-33.145-14.302-33.145-35.425 0-20.453 14.705-35.426 33.69-35.426 16.837 0 25.394 11.232 28.867 18.982l-14.3 6.684M91.864.296V34.65c5.084-5.078 12.04-8.822 21.26-8.822 8.283 0 14.705 3.21 18.308 7.223 5.49 5.88 5.62 12.7 5.62 20.32v41.31h-15.77V57.91c-.262-6.014-.262-7.484-1.07-9.492-.533-1.332-2.81-7.352-11.634-7.352-10.287 0-15.098 8.29-16.176 12.168-.534 2.14-.534 3.207-.534 10.696v30.744h-16.05V.296h16.045m119.167 79.41c-8.28 11.097-18.97 16.974-32.61 16.974-17.514 0-34.354-11.092-34.354-35.694 0-22.455 14.434-35.158 33.287-35.158 17.643 0 24.99 10.565 26.33 12.566 5.486 7.756 6.684 19.387 6.815 26.07h-49.463c1.873 10.56 8.425 16.58 18.984 16.58 10.96 0 15.38-6.417 17.38-9.226l13.63 7.887zm-18.177-27.01c-1.47-10.42-7.88-14.034-14.97-14.034-8.553 0-14.442 4.947-16.313 14.035h31.283zm73.3-1.2c-1.198-4.408-5.878-11.365-15.1-11.365-9.23 0-16.575 7.36-16.575 20.73 0 12.03 6.28 20.85 16.838 20.85 10.156 0 14.04-7.75 16.045-13.1l13.77 7.22c-5.21 14.438-18.45 20.856-30.07 20.856-18.59 0-33.153-14.302-33.153-35.425 0-20.453 14.706-35.426 33.688-35.426 16.84 0 25.398 11.235 28.87 18.985l-14.31 6.68M303.38.298v53.07l26.07-25.53h20.45l-25.525 25.53 28.072 41.31H332.93L312.743 64.73l-9.362 9.225v20.72h-15.9V.295h15.907"/><path d="M415.394.297v94.38H399.49V88.26c-4.953 6.013-11.635 8.42-18.58 8.42-15.914 0-29.683-11.897-29.683-33.952 0-19.92 11.234-36.9 30.347-36.9 6.553 0 12.834 1.873 17.916 7.49V.298h15.904zM395.746 46.82c-2.404-3.613-6.422-6.15-11.766-6.15-10.83 0-16.045 9.758-16.045 20.316 0 1.203.14 21.26 15.772 21.26 8.295 0 15.783-6.15 15.643-20.59-.13-4.277-.665-10.428-3.604-14.836zM489.9 79.705c-8.285 11.098-18.972 16.975-32.613 16.975-17.514 0-34.352-11.092-34.352-35.694 0-22.455 14.434-35.158 33.286-35.158 17.65 0 25 10.565 26.34 12.566 5.486 7.756 6.683 19.387 6.814 26.07H439.91c1.872 10.56 8.425 16.58 18.984 16.58 10.96 0 15.38-6.417 17.38-9.226l13.63 7.887zm-18.177-27.008c-1.47-10.422-7.88-14.035-14.967-14.035-8.557 0-14.446 4.947-16.316 14.035h31.283zm32.67 22.196c4.017 4.947 10.027 8.556 19.257 8.556 9.22 0 13.237-4.55 13.237-7.89 0-4.28-4.822-5.35-6.957-5.75-2.276-.54-13.235-2.54-15.64-3.21-15.905-3.748-18.855-12.97-18.855-18.98 0-11.37 10.297-21.798 28.618-21.798 10.156 0 17.502 3.21 22.053 6.418 3.34 2.14 5.486 4.413 6.814 6.02l-11.365 10.56c-1.87-3.61-6.41-10.16-18.178-10.16-7.62 0-11.092 3.342-11.092 6.82 0 4.81 4.942 6.15 13.498 7.62 13.9 2.54 17.787 3.21 22.063 6.552 4.136 3.205 6.814 8.555 6.814 14.166 0 10.426-9.36 22.86-30.074 22.86-11.9 0-23.664-3.74-32.09-11.9l11.897-9.89m71.31-74.59v53.07l26.07-25.53h20.452L596.7 53.368l28.07 41.31h-19.514L585.062 64.73l-9.36 9.225v20.72H559.8V.295h15.903M5.456 118.883H629.37c6.572 0 8.94-8.36 1.064-8.36H6.52c-6.572 0-8.94 8.36-1.064 8.36"/></g></symbol><symbol id="economist" viewBox="0 0 220 69"><title>Page-1</title><path d="M39.88 67.627c1.16-.403 2.72-1.418 3.635-2.363l.738-.76-.708-1.694-.828.794c-1.606 1.54-3.758 2.228-5.497 1.758-2.805-.758-4.33-4.225-4.33-9.837 0-5.627 1.563-8.27 4.903-8.288 2.006-.01 2.898.9 3.537 3.616.246 1.047.334 1.17.752 1.058.26-.07.7-.12.974-.13.49 0 .5-.05.5-2.65v-2.65l-1.612-.37c-2.477-.58-5.337-.673-7.05-.234-4.676 1.2-7.326 5.188-7.335 11.04-.01 4.904 1.86 8.57 5.23 10.225 2.17 1.07 4.88 1.26 7.09.493zm22.558.005c1.678-.468 2.765-1.058 3.952-2.147 2.794-2.562 4.047-6.657 3.32-10.857-.972-5.624-5-9.072-10.6-9.072-6.417 0-10.452 4.372-10.44 11.313.01 5.23 2.306 8.98 6.474 10.56 2.16.82 4.82.89 7.294.2zm-4.77-1.725c-2.335-1.4-3.526-4.923-3.54-10.462-.01-3.595.376-5.32 1.49-6.672 2.193-2.66 5.95-1.53 7.646 2.3.877 1.983 1.23 3.925 1.24 6.816.012 4.25-.948 6.97-2.845 8.05-1.22.68-2.82.67-4-.04zM117 67.74c2.357-.506 4.972-2.404 6.2-4.5 1.327-2.264 1.923-5.672 1.476-8.43-.882-5.43-4.566-8.89-9.787-9.193-3.6-.21-6.36.753-8.428 2.935-1.93 2.04-2.904 4.875-2.905 8.448-.003 7.794 5.752 12.394 13.437 10.74zm-4.286-1.754c-2.382-1.21-3.68-4.954-3.69-10.652-.01-4.09.64-6.135 2.356-7.405.903-.67 2.76-.76 3.88-.19 2.63 1.34 4.102 4.91 4.14 10.032.03 4.096-.83 6.803-2.553 8.03-1.028.732-2.885.812-4.133.178zm84.835 1.506c1.6-.592 3.34-2.314 3.85-3.81.42-1.237.49-3.342.14-4.278-.626-1.664-2.14-3.08-6.488-6.056-.946-.648-1.92-1.503-2.166-1.9-.535-.864-.58-2.268-.1-2.955.71-1.016 2.453-1.542 3.86-1.164 1.03.27 1.465.82 2.02 2.52.255.79.49 1.14.74 1.13l1.144-.06.778-.037V48.9c0-1.4-.09-2.074-.31-2.293-.17-.17-1.27-.49-2.444-.71-6.29-1.185-9.92 1.083-9.91 6.195.002 2.843.99 4.213 5.035 6.98 3.413 2.336 4.556 3.983 3.814 5.497-.55 1.12-1.383 1.54-3.087 1.54-1.35 0-1.603-.07-2.1-.57-.31-.316-.808-1.166-1.1-1.89-.57-1.4-.996-1.65-2.258-1.336-.51.13-.53.208-.53 2.213 0 1.4.09 2.15.28 2.294.15.12.926.395 1.72.613 3.083.846 4.912.86 7.105.05zm21.02-.194c1.21-.478 1.32-.58 1.385-1.272.062-.648.016-.73-.33-.598-.22.085-1.005.205-1.74.267-1.71.144-2.71-.33-3.336-1.583-.41-.824-.45-1.416-.516-8.056l-.074-7.167h4.868l.13-.64c.07-.36.192-.91.273-1.23l.15-.58H214v-5.78h-2.183l-.146.867c-.22 1.31-1.3 3.414-2.09 4.08-.71.6-1.94 1.05-2.852 1.053-.452 0-.5.11-.5 1.113v1.11h2.625l.095 7.168c.103 7.747.21 8.527 1.366 10.045.313.408 1.096 1.012 1.74 1.34 1.087.554 1.325.59 3.194.488 1.384-.075 2.434-.274 3.333-.63zm-198.114.344l.795-.132.39-3.032c.215-1.668.445-3.308.51-3.644.12-.596.096-.61-.906-.61-.98 0-1.03.028-1.03.626 0 1.113-.675 2.668-1.457 3.354-1.035.908-2.007 1.127-5.018 1.13-3.897 0-3.62.505-3.706-6.787l-.07-5.94 2.96.104c4.03.14 4.544.45 4.95 2.908.127.76.2.833.85.833h.713l.05-9.78h-.72c-.71 0-.727.02-.967 1.38-.135.776-.423 1.56-.655 1.795-.746.746-3.163 1.022-5.98.683L10 50.383V39.11l2.722.02c1.497.008 3.12.136 3.606.282 1.106.333 1.8 1.31 2.007 2.825l.155 1.12 1.62-.134v-6.445H.224v.56c0 .51.122.584 1.344.816 2.77.527 2.655-.08 2.655 14.07 0 12.87-.01 12.987-1.26 13.622-.346.175-1.104.388-1.684.473-.93.13-1.06.212-1.06.69v.54l6.943.06c3.82.03 8.194.08 9.722.11 1.526.025 3.133-.01 3.57-.08zm65.535-.364c-.005-.475-.3-.733-1.22-1.075-1.336-.497-1.416-.925-1.43-7.732-.014-6.51.07-7.08 1.287-8.5.93-1.08 1.87-1.52 3.26-1.52 3.105 0 3.805 2.216 3.61 11.41-.124 5.72-.22 6.063-1.8 6.463-.644.163-.81.314-.81.723v.517h11.14l-.07-.497c-.06-.392-.27-.527-1.046-.66-1.35-.228-1.98-.7-2.15-1.603-.077-.42-.16-3.694-.185-7.28-.038-5.414-.108-6.705-.417-7.63-.53-1.59-1.518-2.816-2.875-3.567-1.074-.594-1.37-.653-3.29-.653-2.608 0-3.65.42-5.564 2.245l-1.32 1.263v-1.09c-.004-.6-.064-1.45-.137-1.89l-.133-.8-1.41.295c-1.102.232-5.5.75-6.37.75-.09 0-.166.25-.166.556 0 .47.103.557.674.557 1.268 0 2.16.547 2.42 1.482.34 1.226.297 15.054-.05 16.067-.308.894-1.03 1.33-2.21 1.336-.74.003-.834.065-.834.558v.557h5.553c4.3 0 5.555-.063 5.553-.278zm54.853-.205c-.052-.344-.342-.572-1.02-.797-.52-.173-1.07-.53-1.22-.795-.197-.34-.297-2.28-.348-6.73-.07-6.026-.053-6.3.415-7.387.907-2.107 2.59-3.13 4.69-2.847 1.19.16 1.898.87 2.36 2.37.326 1.046.384 2.21.384 7.677 0 4.715-.075 6.57-.276 6.923-.153.265-.7.623-1.223.796-.677.224-.968.45-1.018.796l-.07.483h10.25v-.547c0-.444-.14-.57-.763-.687-1.566-.294-1.562-.274-1.635-7.6l-.068-6.567.587-1.2c.746-1.528 1.89-2.33 3.52-2.464 1.604-.133 2.474.342 3.1 1.69.46.996.48 1.332.48 8.072 0 6.58-.03 7.06-.42 7.494-.23.256-.757.528-1.168.605-.6.113-.746.245-.746.67v.532h11.05l-.102-.53c-.08-.424-.276-.553-.978-.647-1.228-.162-1.91-.68-2.18-1.653-.136-.49-.233-3.46-.234-7.185 0-6.93-.1-7.67-1.287-9.54-.426-.67-1.035-1.22-1.84-1.664-1.09-.602-1.4-.667-3.208-.667-1.747 0-2.164.08-3.282.63-.704.345-1.865 1.195-2.58 1.888l-1.298 1.26-.79-1.255c-.536-.858-1.13-1.46-1.863-1.89-.98-.577-1.27-.634-3.19-.634-2.55 0-3.564.415-5.574 2.276L138 49.16l-.003-1.413c-.002-.777-.06-1.624-.13-1.882-.12-.456-.165-.46-1.542-.172-1.112.233-5.507.75-6.38.752-.092 0-.167.25-.167.555 0 .463.106.556.633.556 1.19 0 2.07.458 2.398 1.245.46 1.11.45 15.33-.014 16.43-.353.85-1.035 1.22-2.247 1.22-.665 0-.762.07-.762.556v.557h11.143l-.07-.483zm42.618.13c-.073-.192-.134-.43-.134-.525 0-.096-.46-.227-1.023-.29-1.566-.178-1.9-.65-2.105-2.984-.094-1.078-.178-5.57-.187-9.983L180 45.4l-1.61.28c-.887.154-2.76.394-4.16.534-1.402.14-2.586.292-2.632.338-.26.26.27 1.006.717 1.006.928 0 1.917.485 2.233 1.096.414.8.662 9.208.398 13.522-.222 3.644-.393 3.99-2.08 4.21-.966.126-1.3.355-1.307.894-.01.216 1.34.278 6.02.278 5.4 0 6.01-.036 5.882-.352zm-4.78-26.213c2.225-1.15 1.96-4.6-.417-5.427-3.262-1.137-5.385 3.53-2.426 5.335a2.91 2.91 0 0 0 2.843.092zm-39.24-11.475c1.17-.286 2.63-1.146 3.835-2.257 1.27-1.17 1.455-1.535 1.133-2.243l-.26-.566-1.08 1.002c-2.63 2.463-5.942 2.795-8.037.808-1.27-1.205-2.35-4.253-2.36-6.654l-.004-.944h12.267l-.16-1.606c-.203-2.014-.573-3.082-1.58-4.553-1.51-2.203-3.64-3.097-6.932-2.906-4.13.24-7.184 3.1-8.144 7.63-.418 1.97-.418 3.84 0 5.612.443 1.88 1.053 3.01 2.386 4.42 2.204 2.33 5.38 3.13 8.946 2.253zm-6.886-13.424c.36-2.14.825-3.3 1.658-4.13.77-.77.948-.842 2.06-.842.888 0 1.418.134 1.97.5.855.566 1.868 2.44 2.087 3.857l.14.913-.85.145c-.467.08-2.28.21-4.03.29l-3.185.144.145-.87zm-35.89 12.75c0-.557-.074-.61-.834-.614-1.146-.004-1.872-.42-2.33-1.333-.355-.708-.39-1.76-.39-12.07V3.52l2.5.157c1.375.087 2.867.303 3.316.48.967.382 1.517 1.366 1.517 2.71 0 .893.016.91.778.91h.78v-6.19L90.34 1.585l-11.666-.002-.002 1.6c0 .88-.066 2.28-.145 3.114L78.38 7.81l.867-.073c.864-.07.868-.074.987-1.182.067-.61.24-1.324.384-1.584.416-.75 1.74-1.122 4.554-1.3l2.61-.16v11.48c0 12.87.034 12.58-1.5 13a10.82 10.82 0 0 1-1.388.29c-.41.043-.574.207-.622.614l-.065.555H96.67v-.61zm16 .106c0-.385-.16-.537-.674-.64-.37-.074-.87-.385-1.11-.69-.41-.52-.44-.924-.44-6.31 0-4.694.067-5.91.347-6.58.694-1.66 1.98-2.548 3.695-2.548 2.073 0 2.73.916 3.1 4.32.29 2.655.148 9.995-.21 10.89-.174.433-.49.666-1.14.84-.705.19-.9.348-.9.734v.49h10v-.5c0-.326-.132-.5-.387-.5-.213 0-.747-.1-1.186-.222-1.327-.366-1.38-.666-1.52-7.997-.127-6.29-.15-6.6-.65-7.61-.624-1.266-1.937-2.446-3.116-2.8-.474-.14-1.5-.257-2.28-.257-1.67 0-3.564.8-4.918 2.08l-.835.786V.66l-.5.108c-1.423.312-3.17.547-5.113.69-1.35.1-2.163.252-2.16.406.006.493.346.737 1.22.873 1.077.17 1.595.75 1.776 1.995.075.514.105 5.74.068 11.612-.077 12.165-.007 11.703-1.813 11.973-.9.136-1.417.57-1.163.98.05.082 2.3.148 5 .148h4.91v-.506z" fill-rule="evenodd"/></symbol><symbol id="fb" viewBox="0 0 267 267"><title>Imported Layers</title><path d="M252.164 0H14.73C6.594 0 0 6.593 0 14.73v237.434c0 8.135 6.594 14.73 14.73 14.73h127.826V163.54h-34.78v-40.28h34.78V93.553c0-34.473 21.055-53.244 51.807-53.244 14.73 0 27.39 1.095 31.08 1.585V77.92l-21.328.01c-16.725 0-19.963 7.948-19.963 19.61v25.717h39.887l-5.197 40.28H184.15V266.89h68.013c8.135 0 14.73-6.594 14.73-14.73V14.73c0-8.137-6.595-14.73-14.73-14.73" fill="#FFF" fill-rule="evenodd"/></symbol><symbol id="first-draft" viewBox="0 0 497 266"><title>firstdraft</title><g fill="none" fill-rule="evenodd"><path d="M104.71 45.174V7.784H18.037L6.764 18.824V135.26h42.084V89.59h54.61V51.95H48.85v-6.776h55.863z" fill="#CCC"/><path d="M98.7 39.402V2.764H23.797L1.002 24.847V129.49h41.834V83.82h54.36V46.427h-54.36V39.4H98.7z" fill="#FFF"/><path d="M93.69 34.885V2.515H23.045L1.002 24.595v100.378h37.075v-45.67h54.36v-32.37h-54.36v-12.05H93.69z" fill="#000"/><path d="M112.978 132.753V10.293h37.075v122.46h-37.075zm114.982 0l-16.784-38.645H197.9v38.645h-37.076V11.045h65.132c28.557 0 43.838 18.57 43.838 41.406 0 21.08-12.275 32.38-22.045 37.14l22.04 43.42h-41.83v-.25zm4.258-80.553c0-6.525-5.76-9.536-12.024-9.536h-22.546v19.323h22.546c6.263-.25 12.024-3.012 12.024-9.787zm43.338 63.238l19.288-27.604c9.27 8.783 22.796 15.81 39.33 15.81 7.014 0 13.527-1.757 13.527-6.525 0-11.8-68.13.25-68.13-48.19 0-20.83 17.286-40.653 50.6-40.653 20.04 0 37.83 5.772 51.857 17.064l-19.79 26.35c-10.52-8.03-24.3-12.046-35.82-12.046-7.266 0-9.27 2.26-9.27 5.52 0 11.544 67.887 1.757 67.887 47.18 0 26.85-20.04 42.66-52.856 42.66-25.8-.25-43.587-7.78-56.613-19.574zm150.304 17.315v-90.09h-32.82v-32.37H495.5v32.37h-32.567v90.09H425.86z" stroke="#CCC" stroke-width="2.076" fill="#CCC"/><path d="M107.467 126.98V5.526h36.323V126.98h-36.323zm114.23 0l-16.784-38.644h-13.277v38.645h-36.323V5.53h64.63c28.558 0 43.84 18.067 43.84 41.154 0 21.08-12.276 32.37-22.046 37.14l22.045 43.413h-42.085v-.25zm4.51-80.552c0-6.524-5.763-9.536-12.025-9.536h-22.546v19.323h22.546c6.262 0 12.024-3.01 12.024-9.787zm43.336 63.238l19.29-27.604c9.268 8.783 22.795 15.81 39.33 15.81 7.013 0 13.526-1.757 13.526-6.525 0-11.794-68.14.25-68.14-48.18 0-20.83 17.28-40.654 50.6-40.654 20.04 0 37.822 5.772 51.85 17.064l-19.79 26.35c-10.52-8.03-24.3-12.046-35.82-12.046-7.266 0-9.27 2.26-9.27 5.53 0 11.543 67.89 1.756 67.89 47.177 0 26.85-20.04 42.66-52.858 42.66-25.802-.25-43.588-7.78-56.615-19.573zm150.554 17.314V36.893H387.53V5.525h101.706v31.367H456.67v90.09h-36.573z" stroke="#FFF" stroke-width="2.076" fill="#FFF"/><path d="M104.71 124.974V2.514h37.076v122.46H104.71zm114.983 0L202.91 86.328h-13.28v38.646h-37.074V2.514h65.13c28.558 0 43.84 19.07 43.84 41.907 0 21.08-12.275 32.38-22.045 37.14l22.05 43.42h-41.84zm4.26-80.553c0-6.52-5.763-9.53-12.026-9.53h-22.545v19.32h22.545c6.263 0 12.025-3.01 12.025-9.784zm43.337 63.24l19.288-27.6c9.268 8.783 22.796 15.81 39.33 15.81 7.013 0 13.526-1.757 13.526-6.525 0-11.794-68.137.25-68.137-48.18C271.297 20.335 288.582.51 321.9.51c20.04 0 37.823 5.77 51.852 17.063l-19.79 26.35c-10.522-8.03-24.3-12.046-35.823-12.046-7.27 0-9.27 2.258-9.27 5.52 0 11.544 67.883 1.757 67.883 47.178 0 26.85-20.04 42.66-52.858 42.66-25.803 0-43.59-7.78-56.615-19.574zm150.302 17.32V34.89h-32.816V2.517h102.456v32.37h-32.565v90.09h-37.075z" fill="#000"/><path d="M16.032 17.32L4.76 28.61h22.545V6.027L16.032 17.32z" fill="#FFF"/><path d="M7.515 264.75V164.12h44.84c31.564 0 55.112 18.07 55.112 50.19s-23.548 50.44-55.11 50.44H7.514zm69.14-50.44c0-13.552-7.766-23.59-24.05-23.59H38.078v47.68h14.53c15.03-.25 24.048-11.543 24.048-24.09zm94.94 50.44l-13.777-31.62h-11.022v31.62h-30.562V164.12h53.608c23.548 0 36.073 15.81 36.073 34.63 0 17.316-10.02 26.6-18.036 30.616L206.16 265h-34.57v-.25zm3.508-66.25c0-5.52-4.76-7.78-10.02-7.78h-18.538v15.81h18.538c5.26-.25 10.02-2.51 10.02-8.03zm112.227 66.25l-3.508-11.795H247.75l-3.508 11.794h-34.57l37.075-100.63h38.328l37.074 100.63h-34.82zm-21.795-70.767l-10.02 32.372h19.79l-9.77-32.372z" stroke="#CCC" stroke-width="1.708" fill="#CCC"/><path d="M2.756 259.98V159.856h44.59c31.563 0 55.11 17.566 55.11 49.687 0 32.12-23.547 50.44-55.11 50.44H2.756zm68.888-50.438c0-13.55-7.765-23.59-24.048-23.59h-14.53v47.68h14.53c15.03-.25 24.048-11.543 24.048-24.09zm94.942 50.438l-13.778-31.618h-11.022v31.62h-30.06V159.854h53.357c23.547 0 36.073 15.056 36.073 33.877 0 17.32-10.02 26.6-18.037 30.62l18.28 35.637h-34.82zm3.507-66.248c0-5.52-4.76-7.78-10.02-7.78h-18.538v15.81h18.538c5.26 0 10.02-2.51 10.02-8.03z" stroke="#FFF" stroke-width="1.708" fill="#FFF"/><path d="M.752 258.475V157.847h44.84c31.564 0 55.11 18.068 55.11 50.19 0 32.12-23.546 50.438-55.11 50.438H.752zm69.14-50.44c0-13.55-7.767-23.588-24.05-23.588h-14.53v47.68h14.53c15.03-.252 24.05-11.544 24.05-24.09zm94.94 50.44l-13.777-31.618h-11.023v31.618h-30.56V157.847h53.607c23.54 0 36.07 15.81 36.07 34.63 0 17.315-10.02 26.6-18.04 30.615l18.284 35.634h-34.57v-.25zm3.507-66.25c0-5.52-4.76-7.778-10.02-7.778h-18.54v15.81h18.53c5.26-.25 10.02-2.51 10.02-8.03z" fill="#000"/><path d="M325.907 264.75V164.12h76.154v26.6h-45.84v10.038h44.84v26.6h-44.84V265h-30.31v-.25zm112.226 0v-74.03H411.08v-26.6h84.168v26.6h-26.804v74.03h-30.31z" stroke="#CCC" stroke-width="1.708" fill="#CCC"/><path d="M282.32 259.98l-3.508-11.793H242.74l-3.508 11.794h-34.57l37.075-100.12h38.328l37.075 100.12h-34.82zm-21.795-70.765l-10.02 32.372h19.79l-9.77-32.372zm60.873 70.765V159.856H397.3v25.847h-45.84v10.038h44.84v26.6h-44.84v37.64h-30.062zm111.725 0v-74.027H406.57v-25.847h83.92v25.847h-26.805v74.028h-30.562z" stroke="#FFF" stroke-width="1.708" fill="#FFF"/><path d="M280.566 258.475l-3.507-11.794h-36.08l-3.51 11.8H202.9l37.076-100.63h38.078l37.075 100.63h-34.57zm-21.794-71.017l-10.02 32.372h19.79l-9.77-32.372zm60.37 71.017V157.847h76.155v26.6h-45.842v10.038h44.84v26.6h-44.84v37.64h-30.312v-.25zm112.228 0v-74.028h-27.055v-26.6h84.17v26.6H461.68v74.028h-30.31z" fill="#000"/></g></symbol><symbol id="github" viewBox="0 0 111 108"><title>Imported Layers</title><path d="M55.092 0C24.672 0 0 24.752 0 55.287c0 24.423 15.785 45.146 37.68 52.457 2.756.51 3.76-1.198 3.76-2.664 0-1.314-.047-4.79-.074-9.405-15.325 3.343-18.56-7.41-18.56-7.41-2.505-6.386-6.117-8.087-6.117-8.087-5.004-3.43.377-3.36.377-3.36 5.53.39 8.44 5.7 8.44 5.7 4.917 8.446 12.896 6.006 16.035 4.59.5-3.573 1.925-6.006 3.497-7.39C32.804 78.32 19.94 73.58 19.94 52.395c0-6.038 2.148-10.973 5.673-14.84-.565-1.397-2.456-7.017.54-14.63 0 0 4.628-1.486 15.15 5.668 4.397-1.225 9.11-1.84 13.794-1.86 4.68.02 9.39.635 13.795 1.86C79.41 21.44 84.03 22.926 84.03 22.926c3.005 7.613 1.114 13.233.55 14.63 3.53 3.867 5.66 8.802 5.66 14.84 0 21.236-12.88 25.91-25.153 27.28 1.978 1.707 3.737 5.08 3.737 10.236 0 7.392-.064 13.355-.064 15.168 0 1.48.99 3.197 3.788 2.657 21.874-7.324 37.646-28.03 37.646-52.45C110.194 24.752 85.524 0 55.092 0" fill="#FFF" fill-rule="evenodd"/></symbol><symbol id="ibm" viewBox="0 0 1000 400"><title>Imported Layers</title><path d="M0 27.367h194.648V0H0v27.367zM222.227 0v27.367H499.61S471.275 0 433.75 0H222.227zm331.796 0v27.367h167.813L711.876 0H554.022zm288.125 0l-9.96 27.367h166.29V0h-156.33zM0 80.59h194.648V53.22H0v27.37zm222.227-27.33v27.33h309.57s-3.616-21.064-9.922-27.33H222.227zm331.796 0v27.33h186.21l-9.217-27.33H554.023zm268.204 0l-9.22 27.33h185.47V53.26h-176.25zm-766.29 80.59h84.297v-27.406H55.937v27.406zm222.227 0h84.297v-27.406h-84.29v27.406zm166.29-27.406v27.406h84.296s5.352-14.473 5.352-27.406h-89.65zm165.507 0v27.406h149.46l-9.96-27.406h-139.5zm193.91 0l-10 27.406h150.2v-27.406h-140.2zM55.94 187.072h84.296v-27.367h-84.3v27.367zm222.226-27.367v27.367H493.48s18.01-14.042 23.75-27.367H278.163zm331.797 0v27.367h84.298v-15.234l5.35 15.234h154.42l5.744-15.234v15.234h84.297v-27.367H785.82l-8.398 23.18-8.438-23.18H609.96zM55.94 240.295h84.296v-27.367h-84.3v27.367zm222.226-27.367v27.367H517.23c-5.74-13.282-23.75-27.367-23.75-27.367H278.163zm331.797 27.367h84.298v-27.367h-84.3v27.367zm99.61-27.367l10.196 27.367h115.78l9.682-27.367H709.57zm150.196 27.367h84.29v-27.367h-84.29v27.367zM55.94 293.517h84.297V266.15h-84.3v27.367zm222.227 0h84.297V266.15h-84.296v27.367zm166.29-27.367v27.367H534.1c0-12.915-5.352-27.367-5.352-27.367H444.45zm165.507 27.367h84.298V266.15H609.96v27.367zm118.75-27.367l9.884 27.367h77.617l9.962-27.367h-97.46zm131.056 27.367h84.297V266.15H859.77v27.367zM1.523 346.777H196.17v-27.405H1.524v27.406zm220.704-27.405v27.406h299.648c6.306-6.276 9.922-27.406 9.922-27.406h-309.57zm333.32 27.406h138.71v-27.406h-138.71v27.406zm192.344-27.406l10.16 27.406h39.49l9.53-27.406h-59.18zm111.88 27.406H1000v-27.406H859.766v27.406zM1.525 400H196.17v-27.367H1.524V400zm220.704-27.367v27.328H433.75c37.526 0 65.86-27.32 65.86-27.32H222.226zM555.548 400h138.71v-27.367h-138.71V400zm211.6-27.367l9.766 27.29 1.68.038 9.922-27.32h-21.368zM859.765 400H1000v-27.367H859.766V400z" fill-rule="evenodd"/></symbol><symbol id="kf" viewBox="0 0 280 38"><title>Imported Layers</title><g fill-rule="evenodd"><path d="M54.71 30.875V28.63c.465-.11.958-.193 1.37-.247l-5.532-6.626V28.3c.575.054 1.232.164 1.807.33v2.245h-7.75v-2.22c.713-.163 1.56-.3 2.383-.354V14.97c-.822-.054-1.67-.19-2.382-.355v-2.217h7.75v2.245c-.576.165-1.233.275-1.808.33v6.13l5.476-6.216c-.44-.028-1.013-.11-1.424-.247v-2.245h7.502v2.245c-.547.11-1.204.22-1.697.274l-5.86 6.357 6.243 7.09c.52.06 1.177.17 1.725.278v2.246H54.71m19.468 0V22.17c0-1.396-.383-2.245-1.67-2.245-1.78 0-3.176 2-3.176 4.38v4a11.49 11.49 0 0 1 2 .327v2.244h-7.887v-2.22a15.6 15.6 0 0 1 2.382-.354v-8.35a27.62 27.62 0 0 0-2.382-.275v-2.19c1.752-.22 3.86-.3 5.695-.247 0 .63-.055 1.726-.19 2.465h.026c.82-1.588 2.41-2.71 4.627-2.71 3.067 0 4.053 1.943 4.053 4.325v6.98c.794.054 1.588.192 2.218.356v2.22h-5.696m6.436 0v-2.22a15.6 15.6 0 0 1 2.382-.355v-8.35a27.62 27.62 0 0 0-2.382-.27v-2.19c1.752-.22 3.86-.3 5.886-.246V28.3c.767.054 1.56.192 2.22.356v2.22h-8.106zm4.134-15.637c-1.177 0-2.163-.93-2.163-2.11 0-1.18.986-2.14 2.163-2.14 1.205 0 2.19.93 2.19 2.135 0 1.15-.985 2.11-2.19 2.11zM95.564 37.74c-3.614 0-5.832-1.396-5.832-4.053 0-1.423.986-2.737 2.108-3.34-.82-.383-1.34-1.15-1.34-2.08 0-1.068.683-2.027 1.614-2.436-1.26-.686-2.026-1.945-2.026-3.725 0-2.74 2.026-5.147 5.996-5.147.877 0 1.48.11 2.218.302h4.628v2.738h-1.862c.438.41.684 1.013.684 1.726 0 2.9-1.943 4.9-5.832 4.9a4.85 4.85 0 0 1-1.068-.11c-.438.19-.657.546-.657.875 0 .63.52.794 2.11.85l2.107.08c2.93.11 4.628 1.37 4.628 4 0 2.928-2.958 5.42-7.476 5.42zm1.862-6.71l-2.354-.08h-.63c-.794.575-1.26 1.314-1.26 2.08 0 1.26 1.15 2.028 2.902 2.028 2.273 0 3.478-.987 3.478-2.273 0-.985-.63-1.696-2.136-1.75zm-1.478-11.52c-1.588 0-2.52 1.014-2.52 2.384 0 1.452.877 2.354 2.52 2.354 1.533 0 2.464-.875 2.464-2.326 0-1.45-.85-2.41-2.464-2.41zm18.402 11.365v-8.708c0-1.396-.385-2.245-1.67-2.245-1.78 0-3.178 2-3.178 4.408v3.97c.685.054 1.397.164 2 .33v2.245h-7.694v-2.22c.656-.163 1.45-.3 2.217-.354V13.57a27.74 27.74 0 0 0-2.3-.275v-2.19c1.697-.22 3.778-.302 5.777-.247v5.888c0 .82-.054 1.944-.22 2.765h.028c.795-1.5 2.355-2.512 4.49-2.512 3.068 0 4.053 1.944 4.053 4.326v6.98a13.96 13.96 0 0 1 2.19.357v2.22h-5.694m12.24.27c-3.018 0-3.95-1.092-3.95-4.27v-6.9h-2.355v-2.71h2.355v-4.19l3.478-.93v5.12h3.312v2.71h-3.313v5.97c0 1.75.41 2.245 1.614 2.245.578 0 1.098-.05 1.56-.19l.25 2.767c-.876.22-2 .38-2.957.38m19.768-14.02c-.11-.63-.217-1.23-.272-1.89h-3.696v5.096h3.095a8.75 8.75 0 0 1 .3-1.506h2.274v5.722h-2.273a8.176 8.176 0 0 1-.3-1.507h-3.096V28.3c.823.054 1.67.192 2.38.356v2.22h-8.32v-2.22c.71-.164 1.56-.302 2.38-.355V14.97a15.39 15.39 0 0 1-2.38-.355v-2.217h12.57v4.737h-2.66m10.52 14.015c-3.86 0-6.35-2-6.35-6.79 0-4.3 2.82-7.366 6.954-7.366 3.862 0 6.353 2.11 6.353 6.79 0 4.3-2.848 7.365-6.955 7.365zm.358-11.2c-1.59 0-3.096 1.204-3.096 4.08 0 2.71.99 4.133 3.04 4.133 1.728 0 3.04-1.396 3.04-4.08 0-2.71-.983-4.134-2.982-4.134zM175.6 30.9c0-.684.055-1.7.165-2.465h-.055c-.794 1.588-2.383 2.71-4.6 2.71-3.094 0-4.08-1.944-4.08-4.326v-6.87a26.08 26.08 0 0 0-2.19-.28v-2.217c1.588-.19 3.67-.273 5.694-.22v8.737c0 1.397.384 2.246 1.67 2.246 1.78 0 3.178-2 3.178-4.383V19.92c-.576-.08-1.316-.19-2-.246V17.43a43.972 43.972 0 0 1 5.476-.192V28.19c.658.11 1.507.22 2.218.274v2.22c-1.587.19-3.695.273-5.476.218m16.978-.027v-8.708c0-1.396-.385-2.245-1.67-2.245-1.78 0-3.178 2-3.178 4.38v4a11.43 11.43 0 0 1 1.998.327v2.24h-7.884v-2.22a15.36 15.36 0 0 1 2.38-.355v-8.35c-.656-.11-1.586-.22-2.38-.276v-2.19c1.753-.22 3.86-.3 5.694-.247 0 .63-.054 1.726-.19 2.465h.027c.82-1.59 2.41-2.71 4.628-2.71 3.065 0 4.052 1.94 4.052 4.323v6.99a12.48 12.48 0 0 1 2.217.356v2.22h-5.694m15.854.026c0-.684.054-1.56.164-2.3h-.055c-.71 1.506-2.213 2.574-4.3 2.574-3.31 0-4.95-2.49-4.95-6.38 0-4.6 2.683-7.777 7.2-7.777.577 0 1.123.02 1.727.11v-3.56a29.25 29.25 0 0 0-2.383-.28V11.1c1.727-.22 3.86-.3 5.86-.246V28.19c.66.11 1.56.22 2.246.274v2.19c-1.588.22-3.697.303-5.504.248zm-.22-10.898a8.544 8.544 0 0 0-1.834-.22c-2 0-3.423 1.26-3.423 4.628 0 2.547.74 3.86 2.328 3.86 1.834 0 2.93-2.134 2.93-4.462v-3.806zm14.87 10.898c0-.794 0-1.616.11-2.328l-.03-.027c-.656 1.533-2.326 2.6-4.352 2.6-2.437 0-3.888-1.504-3.888-3.695 0-3.26 3.23-4.792 7.858-4.846v-.794c0-1.453-.575-2.274-2.41-2.274-.657 0-1.424.137-2 .328-.053.522-.135 1.18-.272 1.782h-2.19v-3.972a16.465 16.465 0 0 1 4.71-.712c4.462 0 5.694 1.753 5.694 4.738v6.49c.658.11 1.506.218 2.218.272v2.22c-1.588.19-3.696.273-5.45.218zm-.3-6.05c-3.123 0-4.52.683-4.52 2.08 0 .903.63 1.56 1.643 1.56 1.725 0 2.875-1.615 2.875-3.286v-.355zm12.266 6.295c-3.013 0-3.944-1.093-3.944-4.27v-6.9h-2.354v-2.71h2.354v-4.19l3.478-.932v5.12h3.313v2.712h-3.313v5.97c0 1.75.41 2.244 1.616 2.244.574 0 1.095-.05 1.56-.19l.247 2.77c-.877.22-2 .38-2.957.38m4.217-.27v-2.22c.71-.164 1.56-.3 2.382-.355v-8.35c-.66-.11-1.59-.22-2.384-.274v-2.19c1.752-.22 3.86-.3 5.886-.247V28.3a13.4 13.4 0 0 1 2.22.356v2.22h-8.11zm4.135-15.64c-1.176 0-2.162-.93-2.162-2.11 0-1.176.986-2.135 2.163-2.135 1.21 0 2.19.93 2.19 2.136 0 1.15-.98 2.11-2.19 2.11zm11.337 15.907c-3.86 0-6.352-2-6.352-6.79 0-4.3 2.82-7.365 6.954-7.365 3.86 0 6.35 2.11 6.35 6.79 0 4.3-2.85 7.365-6.96 7.365zm.357-11.198c-1.59 0-3.095 1.2-3.095 4.08 0 2.71.98 4.13 3.032 4.13 1.726 0 3.04-1.4 3.04-4.08 0-2.71-.985-4.137-2.984-4.137zm18.674 10.92V22.16c0-1.396-.384-2.245-1.67-2.245-1.78 0-3.176 2-3.176 4.38v4c.657.052 1.395.162 1.998.327v2.244h-7.885v-2.22c.71-.163 1.56-.3 2.382-.354v-8.35c-.657-.11-1.59-.22-2.382-.275v-2.19c1.75-.22 3.86-.3 5.694-.247 0 .63-.06 1.726-.198 2.465h.027c.822-1.587 2.41-2.71 4.627-2.71 3.07 0 4.054 1.944 4.054 4.326V28.3c.794.054 1.588.192 2.22.356v2.22h-5.697M.33.963h9.354L.33 15.213 9.685 30.76H.33V.963"/><path d="M17.584.963H34.37V7.07H17.585v5.246H34.37v6.095H17.585v12.35L7.578 15.22 17.584.968"/></g></symbol><symbol id="kiva" viewBox="0 0 184 98"><title>Imported Layers</title><g fill-rule="evenodd"><path d="M22.99 89.756h14C35.016 55.466 21.466 24.286.175.06c14.657 23.083 23.15 50.463 23.15 79.836 0 3.316-.12 6.6-.334 9.86"/><path d="M70.318 33.858s-4.396 6.077-16.81 6.983c-12.41.91-15.514 12.42-16.422 16.04-.902 3.62-4.472 4.575-4.472 4.575l.335 1.34s4.02-1.376 5.3-3.975c1.272-2.607 5.17 1.643 13.57-2.607 8.406-4.25 17.33-11.617 18.492-22.35"/><path d="M32.95 62.79s4.914 4.554 8.018 5.463c3.103.905 31.03 1.16 38.784 29.347 0 .65-2.064-3.488-16.934-5.558-14.87-2.065-21.85-8.793-23.79-22.24 0 0-2.517-3.803-5.33-3.803-.75.75-.75-3.21-.75-3.21m50.605-24.11h6.412v52.36h-6.412V38.68zm39.304 52.354h-6.865L96.682 38.68h6.94l15.763 44.438 15.846-44.436h6.87l-19.24 52.356m60.89 0h-6.41V71.573H153.2V91.04h-6.415V55.884c0-10.413 7.843-18.486 18.48-18.486 10.713 0 18.486 8.072 18.486 18.485V91.04zm-6.41-35.155c0-6.79-4.978-12.374-12.07-12.374-6.87 0-12.07 5.582-12.07 12.373v9.507h24.138v-9.506z"/></g></symbol><symbol id="meedan-logo-nav" viewBox="0 0 253 80"><title>Slice 1</title><g fill="none" fill-rule="evenodd"><path d="M126.922 30.86h2.09l6.658 9.977 6.66-9.976h2.09v18.28h-2.064v-14.8l-6.66 9.794h-.104l-6.66-9.766V49.15h-2.01V30.87m25.75-.005h13.214v1.884h-11.15v6.24h9.975v1.88h-9.97v6.4h11.28v1.88h-13.343V30.87m20.11-.003H186v1.883h-11.15v6.24h9.974v1.88h-9.974v6.4h11.28v1.88h-13.344V30.87m20.11-.002h6.347c5.745 0 9.714 3.945 9.714 9.09V40c0 5.146-3.97 9.14-9.714 9.14h-6.346V30.86zm6.347 16.376c4.622 0 7.573-3.134 7.573-7.182V40c0-4.046-2.95-7.233-7.573-7.233h-4.283v14.468h4.28zm21.204-16.505h1.933l8.33 18.41h-2.22l-2.14-4.83h-9.95l-2.17 4.83h-2.118l8.33-18.41zm5.092 11.725l-4.156-9.322-4.178 9.323h8.33zm11.49-11.6h1.932l11.52 14.653V30.87h2.01v18.28h-1.646l-11.807-15v14.99h-2.013V30.86" fill="#7F7F7F"/><path d="M51.705 27.032l-17.748 12.83 17.748 12.83 17.748-12.83-17.748-12.83" fill="#91A000"/><path d="M17.505 2.307a10.383 10.383 0 0 1 4.086 8.262v20.35l12.37 8.94 17.747-12.83L17.507 2.3" fill="#9DC538"/><path d="M17.505 77.417a10.383 10.383 0 0 0 4.086-8.262V48.8l12.37-8.937 17.75 12.83-34.2 24.724" fill="#FBD202"/><path d="M17.505 2.307l-.51-.367A10.345 10.345 0 0 0 11.192.17C5.45.17.794 4.828.794 10.57c0 3.482 1.714 6.562 4.343 8.45v.008L21.59 30.925V10.57a10.38 10.38 0 0 0-4.085-8.263" fill="#843F18"/><path d="M21.59 69.155V48.8L5.138 60.697v.01a10.382 10.382 0 0 0-4.342 8.45c0 5.742 4.655 10.398 10.398 10.398 2.15 0 4.145-.652 5.803-1.77l.51-.367a10.38 10.38 0 0 0 4.085-8.262" fill="#EB4918"/><path d="M5.137 19.02a10.384 10.384 0 0 1-4.343-8.45v58.57c0-3.483 1.714-6.563 4.343-8.452L21.59 48.785V30.923L5.138 19.02" fill="#F17522"/><path d="M85.904 2.307a10.383 10.383 0 0 0-4.086 8.262v20.35l-12.365 8.94-17.748-12.83L85.905 2.3" fill="#FBD202"/><path d="M85.904 77.417a10.383 10.383 0 0 1-4.086-8.262V48.8l-12.365-8.937-17.748 12.83 34.2 24.724" fill="#9DC538"/><path d="M81.82 10.57v20.353l16.453-11.895v-.01a10.38 10.38 0 0 0 4.342-8.45C102.615 4.826 97.96.17 92.217.17c-2.15 0-4.145.652-5.803 1.77l-.51.367a10.38 10.38 0 0 0-4.085 8.262" fill="#00A013"/><path d="M85.904 77.417l.51.368a10.352 10.352 0 0 0 5.803 1.768c5.742 0 10.398-4.656 10.398-10.398 0-3.483-1.714-6.562-4.343-8.45v-.01L81.818 48.8v20.355c0 3.368 1.603 6.36 4.086 8.262" fill="#01722F"/><path d="M98.272 19.02a10.384 10.384 0 0 0 4.343-8.45v58.57c0-3.483-1.714-6.563-4.343-8.452L81.818 48.785V30.923L98.272 19.02" fill="#37A0DE"/></g></symbol><symbol id="meedan-logo-text" viewBox="0 0 127 111"><title>Imported Layers</title><g fill="none" fill-rule="evenodd"><path d="M63.705 27.032l-17.748 12.83 17.748 12.83 17.748-12.83-17.748-12.83" fill="#91A000"/><path d="M29.505 2.307a10.383 10.383 0 0 1 4.086 8.262v20.35l12.37 8.94 17.747-12.83L29.507 2.3" fill="#9DC538"/><path d="M29.505 77.417a10.383 10.383 0 0 0 4.086-8.262V48.8l12.37-8.937 17.75 12.83-34.2 24.724" fill="#FBD202"/><path d="M29.505 2.307l-.51-.367A10.345 10.345 0 0 0 23.192.17c-5.742 0-10.398 4.657-10.398 10.4 0 3.482 1.714 6.562 4.343 8.45v.008L33.59 30.925V10.57a10.38 10.38 0 0 0-4.085-8.263" fill="#843F18"/><path d="M33.59 69.155V48.8L17.138 60.697v.01a10.382 10.382 0 0 0-4.342 8.45c0 5.742 4.655 10.398 10.398 10.398 2.15 0 4.145-.652 5.803-1.77l.51-.367a10.38 10.38 0 0 0 4.085-8.262" fill="#EB4918"/><path d="M17.137 19.02a10.384 10.384 0 0 1-4.343-8.45v58.57c0-3.483 1.714-6.563 4.343-8.452L33.59 48.785V30.923L17.138 19.02" fill="#F17522"/><path d="M97.904 2.307a10.383 10.383 0 0 0-4.086 8.262v20.35l-12.365 8.94-17.748-12.83L97.905 2.3" fill="#FBD202"/><path d="M97.904 77.417a10.383 10.383 0 0 1-4.086-8.262V48.8l-12.365-8.937-17.748 12.83 34.2 24.724" fill="#9DC538"/><path d="M93.82 10.57v20.353l16.453-11.895v-.01a10.38 10.38 0 0 0 4.342-8.45c0-5.742-4.655-10.398-10.398-10.398-2.15 0-4.145.652-5.803 1.77l-.51.367a10.38 10.38 0 0 0-4.085 8.262" fill="#00A013"/><path d="M97.904 77.417l.51.368a10.352 10.352 0 0 0 5.803 1.768c5.742 0 10.398-4.656 10.398-10.398 0-3.483-1.714-6.562-4.343-8.45v-.01L93.818 48.8v20.355c0 3.368 1.603 6.36 4.086 8.262" fill="#01722F"/><path d="M110.272 19.02a10.384 10.384 0 0 0 4.343-8.45v58.57c0-3.483-1.714-6.563-4.343-8.452L93.818 48.785V30.923l16.454-11.903" fill="#37A0DE"/><path d="M.922 91.86h2.09l6.658 9.977 6.66-9.976h2.09v18.28h-2.064v-14.8l-6.66 9.794h-.104l-6.66-9.766v14.782H.922V91.87m25.75-.005h13.214v1.884h-11.15v6.24h9.975v1.88h-9.97v6.4h11.28v1.88H26.67V91.87m20.11-.003h13.214v1.883h-11.15v6.24h9.975v1.88h-9.977v6.4h11.28v1.88h-13.34V91.87m20.11-.002h6.346c5.744 0 9.713 3.945 9.713 9.09v.05c0 5.147-3.97 9.14-9.714 9.14H66.89V91.86zm6.346 16.376c4.62 0 7.572-3.134 7.572-7.182V101c0-4.046-2.95-7.233-7.573-7.233h-4.284v14.468h4.283zm21.203-16.51h1.933l8.33 18.413h-2.22l-2.14-4.83h-9.95l-2.168 4.83h-2.12l8.33-18.41zm5.092 11.727l-4.153-9.32-4.178 9.322h8.33zm11.492-11.594h1.933l11.52 14.653V91.87h2.01v18.28h-1.642l-11.808-15v14.99h-2.012V91.86" fill="#7F7F7F"/></g></symbol><symbol id="meedan" viewBox="0 0 1024 799"><title>Imported Layers</title><g fill="none" fill-rule="evenodd"><path d="M512.495 270L334 399l178.495 129L691 399 512.495 270" fill="#91A000"/><path d="M168 21c24.975 19.13 41.11 49.253 41.11 83.154V309.03L333.475 399 512 269.855 168 21" fill="#9DC538"/><path d="M168 777c24.975-19.13 41.11-49.254 41.11-83.156v-204.88L333.475 399 512 528.138 168 777" fill="#FBD202"/><path d="M167.928 21.536l-5.125-3.708C146.15 6.573 126.09 0 104.49 0 46.795 0 0 46.93 0 104.813c0 35.112 17.222 66.15 43.64 85.187v.084L209 310V104.813c0-33.952-16.12-64.12-41.072-83.277" fill="#843F18"/><path d="M209 694.175V489L43.632 608.9v.104C17.232 628.012 0 659.08 0 694.184 0 752.07 46.787 799 104.495 799c21.592 0 41.653-6.573 58.316-17.828l5.116-3.718C192.888 758.297 209 728.127 209 694.174" fill="#EB4918"/><path d="M43.64 188.986C17.22 170.014 0 139.02 0 104v589c0-35.02 17.222-65.986 43.64-84.986L209 488.316V308.684L43.64 188.986" fill="#F17522"/><path d="M856 21c-24.966 19.13-41.102 49.253-41.102 83.154V309.03L690.526 399 512 269.855 856 21" fill="#FBD202"/><path d="M856 777c-24.966-19.13-41.102-49.254-41.102-83.156v-204.88L690.526 399 512 528.148 856 777" fill="#9DC538"/><path d="M815 104.825V310l165.36-119.9v-.104c26.408-19.008 43.64-50.076 43.64-85.18C1024 46.93 977.213 0 919.495 0c-21.59 0-41.652 6.573-58.315 17.828l-5.116 3.718C831.112 40.703 815 70.873 815 104.826" fill="#00A013"/><path d="M856.063 777.464l5.124 3.708C877.84 792.427 897.9 799 919.5 799c57.706 0 104.5-46.93 104.5-104.816 0-35.113-17.232-66.154-43.648-85.18v-.094L815 489v205.184c0 33.952 16.12 64.122 41.063 83.28" fill="#01722F"/><path d="M980.352 188.986C1006.768 170.014 1024 139.02 1024 104v589c0-35.02-17.232-65.986-43.648-84.986L815 488.316V308.684l165.352-119.698" fill="#37A0DE"/></g></symbol><symbol id="ng" viewBox="0 0 177 53"><title>Imported Layers</title><path d="M.504.56H36.54v51.636H.504V.56zm5.194 46.436h25.63V5.76H5.698v41.236zm54.78-23.27h-2.23c-2.928-4.135-5.83-8.244-8.73-12.89h-.023v12.89H47.03V5.754h2.232c2.928 4.107 5.827 8.188 8.7 12.81h.053V5.754h2.463v17.972m5.856-7.113c.715-2.363 1.435-4.545 2.078-7.32h.052c.718 2.775 1.36 4.958 2.028 7.32h-4.158zm1.178-10.86l-6.21 17.974h2.67l1.562-4.905h5.422l1.41 4.905h3.443L70.08 5.753h-2.568zm11.196 17.974V8.163h-4.726v-2.41h12.53v2.41H81.79v15.564h-3.083M87.51 5.753h3.06v17.974h-3.06V5.753zm12.56 15.71c-3.214 0-4.34-3.542-4.34-6.984 0-3.318 1.28-6.47 4.34-6.47 3.055 0 4.334 3.152 4.334 6.47 0 3.44-1.127 6.98-4.333 6.98zm0 2.568c4.698 0 7.623-4.18 7.623-9.55 0-5.03-3.23-9.03-7.622-9.03-4.382 0-7.63 4.004-7.63 9.035 0 5.37 2.936 9.55 7.637 9.55zm22.95-.3h-2.232c-2.928-4.134-5.832-8.243-8.73-12.89h-.025v12.89h-2.46V5.755h2.23c2.926 4.107 5.827 8.188 8.697 12.81h.055V5.754h2.466v17.972m5.86-7.113c.72-2.363 1.435-4.545 2.08-7.32h.053c.72 2.775 1.36 4.958 2.026 7.32h-4.16zm1.183-10.86l-6.213 17.974h2.672l1.56-4.905h5.42l1.414 4.905h3.44L132.63 5.753h-2.57zm9.187 0h3.06v15.56h6.083v2.414h-9.145V5.753M58.585 38.76v7.42c-1.646.643-3.367 1.103-5.108 1.103-5.29 0-8.628-4.108-8.628-9.397 0-4.906 3.33-9.192 8.722-9.192 1.666 0 3.336.62 4.363 1.388l-1 2.13c-.82-.51-2.108-.945-3.287-.945-3.284 0-5.52 2.593-5.52 6.677 0 4.26 2.57 6.773 5.214 6.773.817 0 1.515-.1 2.16-.435v-5.52h3.075v-.002m11.02-7.34h-5.14v4.926h5.03v2.414h-5.03v5.8h6.057v2.417h-9.14V29.002H69.6v2.418m9.5 13.295c-3.213 0-4.344-3.54-4.344-6.984 0-3.302 1.284-6.46 4.344-6.46 3.053 0 4.334 3.158 4.334 6.467 0 3.444-1.132 6.985-4.334 6.985zm0 2.567c4.696 0 7.62-4.184 7.62-9.552 0-5.03-3.232-9.038-7.62-9.038-4.396 0-7.628 4.007-7.628 9.038 0 5.37 2.922 9.552 7.628 9.552zm22.408-8.522v7.42c-1.646.643-3.36 1.103-5.11 1.103-5.287 0-8.626-4.108-8.626-9.397 0-4.906 3.34-9.192 8.732-9.192 1.67 0 3.336.62 4.36 1.388l-1.002 2.13c-.82-.51-2.097-.945-3.28-.945-3.29 0-5.525 2.593-5.525 6.677 0 4.26 2.57 6.773 5.212 6.773.82 0 1.51-.1 2.154-.435v-5.52h3.08v-.002m5.912-7.34h1.356c1.815 0 2.845 1.048 2.845 2.898 0 2.412-1.46 3.49-2.927 3.566-.31.03-1.027.057-1.28.08V31.42zm7.802 15.557l-3.63-7.444c1.98-1.05 3.114-3.187 3.114-5.343 0-3.495-2.134-5.188-5.576-5.188h-4.8v17.975h3.09v-6.78h1.383l2.896 6.78h3.52zm5.08-7.114c.717-2.365 1.436-4.545 2.08-7.318h.052c.718 2.773 1.358 4.953 2.027 7.318h-4.16zm1.18-10.86l-6.215 17.974h2.67l1.57-4.906h5.42l1.406 4.91h3.445l-5.73-17.972h-2.565zm14.07 0h-4.8v17.974h3.08v-6.78h1.383c3.67 0 5.907-2.978 5.907-6.007 0-3.496-2.133-5.188-5.575-5.188zm-.43 8.882c-.32.028-1.076.053-1.29.074v-6.54h1.383c1.795 0 2.825 1.042 2.825 2.892 0 2.412-1.46 3.49-2.923 3.567zm20.277 9.092h-3.082v-8.65h-6.395v8.65h-3.045V29.002h3.045v6.907h6.398v-6.86h3.083v17.92M158.354 29h3.06v17.975h-3.06V29.002zm16.922 3.263c-.746-.463-1.974-1-3.16-1-3.138 0-5.415 2.593-5.415 6.677 0 4.26 2.514 6.773 5.493 6.773a5.82 5.82 0 0 0 3.08-.9l.85 2.236c-.93.64-2.568 1.23-4.056 1.23-5.29 0-8.63-4.11-8.63-9.4 0-4.905 3.31-9.19 8.676-9.19 1.595 0 3.08.67 4.138 1.39l-.974 2.184" fill-rule="evenodd"/></symbol><symbol id="nlb"><title>Layer 1</title><path d="M441.004 1.256h-20.9v98.6h60.8v-19.3h-39.9v-79.3zm80.6 56.5l-12.1 1.1c-11.8 1.1-24.9 3.7-24.9 21.4 0 9.9 5.6 20.9 22.2 20.9 7.8 0 14.5-2.7 19.3-6.7l2.9 5.1h12.7v-42.6c0-14.7-4.6-24.9-28.1-24.9-9.4 0-19.3 2.4-23.6 4.3v17.7c5.9-2.4 15.3-5.1 23.6-5.1 5.6 0 7.8 1.6 7.8 4.6l.2 4.2zm0 11.5v14.5c-2.1 2.1-5.6 3.2-9.4 3.2-4.6 0-7.5-2.9-7.5-7.8 0-5.1 2.4-8 8.3-8.8l8.6-1.1zm41.2 30.3l3.5-5.4c4.6 4 10.7 7 21.2 7 17.1 0 25.4-10.4 25.4-34.6s-8.3-34.6-25.4-34.6c-7.2 0-12.6 1.9-16.3 4.3v-35.1h-20.9v98.6l12.5-.2zm8.6-47.7s4-2.7 9.4-2.7c9.6 0 11.8 6.4 11.8 17.7 0 11.2-2.1 17.7-11.8 17.7-5.4 0-9.4-2.7-9.4-2.7v-30z"/><path fill="#A51C30" d="M73.804 99.556V.956h-20.6l.5 58.9-31.9-58.9h-20.6v98.6h20.6l-.5-58.9 31.9 58.9h20.6zm8.8-84.6c0 7 5.4 12.6 12.6 12.6 7 0 12.6-5.4 12.6-12.6 0-7-5.6-12.6-12.6-12.6-7.2 0-12.6 5.6-12.6 12.6zm22.8 84.6v-65.6h-20.6v65.6h20.6zm67.7-25.7c1.6-20.6-.3-41.5-28.4-41.5-20.4 0-30.8 11-30.8 34.6s10.4 34.6 32.1 34.6c7.8 0 17.1-1.3 24.6-4.6v-16.4c-4.8 2.4-12.1 4.3-22 4.3-10.2 0-14.7-2.4-14.2-11h38.7zm-28.1-26c8 0 9.6 5.9 8.3 13.1h-18.7c.2-8.3 3.5-13.1 10.4-13.1zm131 51.7v-45.5c0-11.8-4.8-22-22-22-7.8 0-16.6 1.9-21.2 5.4-2.1-2.9-6.4-5.4-15.3-5.4-6.7 0-15.8 2.4-20.6 6.4l-2.7-4.8h-12.5v65.6h20.9v-46.6c1.3-1.3 5.4-3.5 9.6-3.5 4 0 5.9 1.9 5.9 5.4v45.3h20.9v-47.1c1.3-1.3 5.4-3.5 9.6-3.5 4 0 5.9 1.9 5.9 5.4v45.3h21.4v-.4h.1zm43.4-41.8l-12.1 1.1c-11.8 1.1-24.9 3.7-24.9 21.4 0 9.9 5.6 20.9 22.2 20.9 7.8 0 14.5-2.7 19.3-6.7l2.9 5.1h12.6v-42.6c0-14.7-4.6-24.9-28.1-24.9-9.4 0-19.3 2.4-23.6 4.3v17.7c5.9-2.4 15.3-5.1 23.6-5.1 5.6 0 7.8 1.6 7.8 4.6l.3 4.2zm0 11.5v14.5c-2.1 2.1-5.6 3.2-9.4 3.2-4.6 0-7.5-2.9-7.5-7.8 0-5.1 2.4-8 8.3-8.8l8.6-1.1zm30-35.3v65.6h20.9v-46.9c1.9-1.3 6.7-3.5 11.8-3.5 5.6 0 7.2 3.2 7.2 8v42.4h20.9v-45.5c0-12.6-5.1-22-23-22-7.2 0-15.5 2.1-22.8 6.4l-2.7-4.8-12.3.3z"/></symbol><symbol id="twitter" viewBox="0 0 274 223"><title>Imported Layers</title><path d="M189.28 0c-30.978 0-56.09 25.113-56.09 56.088 0 4.396.495 8.676 1.45 12.782C88.027 66.53 46.698 44.2 19.033 10.266c-4.828 8.285-7.593 17.92-7.593 28.2 0 19.457 9.9 36.626 24.95 46.684a55.85 55.85 0 0 1-25.404-7.016c-.004.235-.005.47-.005.706 0 27.176 19.335 49.846 44.994 54.998a56.205 56.205 0 0 1-25.33.96c7.137 22.284 27.85 38.5 52.395 38.954-19.197 15.043-43.382 24.01-69.66 24.01-4.527 0-8.992-.266-13.38-.783 24.822 15.913 54.305 25.198 85.98 25.198 103.17 0 159.585-85.467 159.585-159.587 0-2.43-.055-4.85-.162-7.254A114.016 114.016 0 0 0 273.39 26.3a112.107 112.107 0 0 1-32.215 8.832c11.58-6.94 20.475-17.933 24.662-31.03a112.306 112.306 0 0 1-35.617 13.61C219.99 6.813 205.41 0 189.28 0" fill="#FFF" fill-rule="evenodd"/></symbol><symbol id="youtube" viewBox="0 0 244 172"><title>Imported Layers</title><g fill="none" fill-rule="evenodd"><path d="M96.837 49.04l57.73 38.664 8.1-4.216-65.83-34.448" fill="#E0E0E0"/><path d="M241.382 37.146s-2.38-16.838-9.685-24.253c-9.265-9.733-19.65-9.78-24.41-10.35C173.192.07 122.052.07 122.052.07h-.106s-51.14 0-85.233 2.472c-4.763.57-15.143.618-24.41 10.35C4.997 20.31 2.62 37.147 2.62 37.147S.186 56.92.186 76.694v18.538c0 19.774 2.436 39.548 2.436 39.548S5 151.618 12.304 159.033c9.268 9.733 21.442 9.425 26.863 10.445 19.49 1.875 82.834 2.455 82.834 2.455s51.193-.078 85.286-2.55c4.762-.57 15.146-.617 24.41-10.35 7.305-7.415 9.686-24.253 9.686-24.253s2.433-19.774 2.433-39.548V76.694c0-19.774-2.433-39.548-2.433-39.548zm-144.534 80.55l-.01-68.656 65.83 34.448-65.82 34.21z" fill="#FFF"/></g></symbol></svg>