<svg width="280" height="38" viewBox="0 0 280 38" xmlns="http://www.w3.org/2000/svg"><title>Imported Layers</title><g fill="#000" fill-rule="evenodd"><path d="M54.71 30.875V28.63c.465-.11.958-.193 1.37-.247l-5.532-6.626V28.3c.575.054 1.232.164 1.807.33v2.245h-7.75v-2.22c.713-.163 1.56-.3 2.383-.354V14.966c-.822-.054-1.67-.19-2.382-.355v-2.218h7.75v2.245c-.576.164-1.233.274-1.808.328V21.1l5.476-6.216c-.44-.028-1.013-.11-1.424-.247v-2.245h7.502v2.245c-.547.11-1.204.22-1.697.274l-5.86 6.354 6.243 7.09c.52.056 1.177.167 1.725.275v2.245H54.71M74.178 30.875v-8.708c0-1.396-.383-2.245-1.67-2.245-1.78 0-3.176 2-3.176 4.38v4c.657.052 1.396.162 2 .327v2.245h-7.887v-2.22c.712-.163 1.56-.3 2.382-.354v-8.35c-.657-.11-1.588-.22-2.382-.275v-2.19c1.752-.22 3.86-.3 5.695-.247 0 .63-.055 1.726-.19 2.465h.026c.82-1.588 2.41-2.71 4.627-2.71 3.067 0 4.053 1.943 4.053 4.325V28.3c.794.054 1.588.192 2.218.356v2.22h-5.696M80.614 30.875v-2.22c.712-.163 1.56-.3 2.382-.354v-8.35c-.657-.11-1.588-.22-2.382-.275v-2.19c1.752-.22 3.86-.3 5.886-.247V28.3c.767.054 1.56.192 2.22.356v2.22h-8.106zm4.134-15.636c-1.177 0-2.163-.93-2.163-2.11 0-1.176.986-2.135 2.163-2.135 1.205 0 2.19.93 2.19 2.136 0 1.15-.985 2.11-2.19 2.11zM95.564 37.747c-3.614 0-5.832-1.396-5.832-4.053 0-1.423.986-2.737 2.108-3.34-.82-.383-1.34-1.15-1.34-2.082 0-1.067.683-2.026 1.614-2.435-1.26-.686-2.026-1.945-2.026-3.725 0-2.74 2.026-5.148 5.996-5.148.877 0 1.48.11 2.218.302h4.628v2.738h-1.862c.438.41.684 1.013.684 1.726 0 2.902-1.943 4.9-5.832 4.9-.383 0-.684-.027-1.068-.108-.438.19-.657.546-.657.875 0 .63.52.794 2.11.85l2.107.08c2.93.11 4.628 1.37 4.628 4 0 2.928-2.958 5.42-7.476 5.42zm1.862-6.71l-2.354-.08h-.63c-.794.575-1.26 1.314-1.26 2.08 0 1.26 1.15 2.028 2.902 2.028 2.273 0 3.478-.988 3.478-2.274 0-.985-.63-1.696-2.136-1.752zm-1.478-11.526c-1.588 0-2.52 1.013-2.52 2.383 0 1.452.877 2.354 2.52 2.354 1.533 0 2.464-.875 2.464-2.326 0-1.45-.85-2.41-2.464-2.41zM114.35 30.875v-8.708c0-1.396-.385-2.245-1.67-2.245-1.78 0-3.178 2-3.178 4.408v3.97c.685.054 1.397.164 2 .33v2.245h-7.694v-2.22c.656-.163 1.45-.3 2.217-.354V13.57c-.657-.11-1.56-.22-2.3-.275v-2.19c1.697-.22 3.778-.302 5.777-.247v5.888c0 .82-.054 1.944-.22 2.765h.028c.795-1.505 2.355-2.518 4.49-2.518 3.068 0 4.053 1.944 4.053 4.326V28.3c.713.054 1.534.192 2.19.356v2.22h-5.694M126.59 31.147c-3.013 0-3.944-1.093-3.944-4.27v-6.9h-2.356v-2.71h2.356v-4.19l3.477-.932v5.12h3.313v2.712h-3.313v5.97c0 1.75.41 2.244 1.615 2.244.576 0 1.096-.053 1.56-.19l.248 2.765c-.876.22-2 .382-2.957.382M146.358 17.13c-.11-.63-.218-1.233-.273-1.89h-3.697v5.092h3.094c.054-.52.165-1.04.3-1.506h2.274v5.723h-2.273c-.136-.467-.247-.96-.3-1.507h-3.095V28.3c.822.054 1.67.192 2.38.356v2.22h-8.322v-2.22c.71-.164 1.56-.302 2.382-.355V14.966c-.82-.054-1.67-.19-2.382-.355v-2.218h12.57v4.737h-2.658M156.873 31.147c-3.86 0-6.353-2-6.353-6.79 0-4.3 2.822-7.365 6.955-7.365 3.862 0 6.353 2.11 6.353 6.79 0 4.3-2.848 7.365-6.955 7.365zm.356-11.198c-1.59 0-3.095 1.204-3.095 4.08 0 2.71.986 4.133 3.04 4.133 1.724 0 3.04-1.396 3.04-4.08 0-2.71-.987-4.134-2.986-4.134zM175.602 30.902c0-.684.055-1.7.165-2.465h-.055c-.794 1.588-2.383 2.71-4.6 2.71-3.094 0-4.08-1.944-4.08-4.326v-6.87c-.658-.11-1.478-.22-2.19-.275v-2.218c1.588-.19 3.67-.273 5.694-.22v8.737c0 1.396.384 2.245 1.67 2.245 1.78 0 3.178-2 3.178-4.382v-3.916c-.576-.082-1.316-.192-2-.247V17.43c1.616-.164 3.588-.246 5.476-.192V28.19c.658.11 1.507.22 2.218.274v2.22c-1.587.19-3.695.273-5.476.218M192.58 30.875v-8.708c0-1.396-.385-2.245-1.67-2.245-1.78 0-3.178 2-3.178 4.38v4c.658.052 1.397.162 1.998.327v2.245h-7.884v-2.22c.712-.163 1.56-.3 2.38-.354v-8.35c-.656-.11-1.586-.22-2.38-.275v-2.19c1.753-.22 3.86-.3 5.694-.247 0 .63-.054 1.726-.19 2.465h.027c.82-1.588 2.41-2.71 4.628-2.71 3.065 0 4.052 1.943 4.052 4.325V28.3c.794.054 1.587.192 2.217.356v2.22h-5.694M208.434 30.902c0-.684.054-1.56.164-2.3h-.055c-.712 1.506-2.218 2.574-4.3 2.574-3.312 0-4.955-2.49-4.955-6.38 0-4.6 2.683-7.777 7.2-7.777.577 0 1.123.027 1.727.11v-3.56c-.657-.11-1.59-.22-2.383-.275v-2.19c1.726-.22 3.86-.302 5.86-.247V28.19c.658.11 1.56.22 2.245.274v2.19c-1.587.22-3.696.303-5.503.248zm-.22-10.898c-.63-.138-1.232-.22-1.834-.22-2 0-3.423 1.26-3.423 4.628 0 2.547.74 3.86 2.328 3.86 1.834 0 2.93-2.134 2.93-4.462v-3.806zM223.083 30.902c0-.794 0-1.616.11-2.328l-.028-.027c-.657 1.533-2.327 2.6-4.353 2.6-2.437 0-3.888-1.504-3.888-3.695 0-3.26 3.23-4.792 7.858-4.846v-.794c0-1.453-.575-2.274-2.41-2.274-.657 0-1.424.137-2 .328-.053.522-.135 1.18-.272 1.782h-2.19v-3.972c1.423-.438 3.094-.712 4.71-.712 4.462 0 5.694 1.753 5.694 4.738v6.49c.658.11 1.506.218 2.218.272v2.22c-1.588.19-3.696.273-5.45.218zm-.3-6.05c-3.122 0-4.518.683-4.518 2.08 0 .903.63 1.56 1.642 1.56 1.725 0 2.875-1.615 2.875-3.286v-.355zM235.05 31.147c-3.013 0-3.944-1.093-3.944-4.27v-6.9h-2.354v-2.71h2.354v-4.19l3.478-.932v5.12h3.313v2.712h-3.313v5.97c0 1.75.41 2.244 1.616 2.244.574 0 1.095-.053 1.56-.19l.247 2.765c-.877.22-2 .382-2.957.382M239.267 30.875v-2.22c.71-.163 1.56-.3 2.382-.354v-8.35c-.66-.11-1.59-.22-2.383-.275v-2.19c1.752-.22 3.86-.3 5.886-.247V28.3c.767.054 1.562.192 2.22.356v2.22h-8.106zM243.4 15.24c-1.176 0-2.162-.93-2.162-2.11 0-1.176.986-2.135 2.163-2.135 1.206 0 2.19.93 2.19 2.136 0 1.15-.984 2.11-2.19 2.11zM254.737 31.147c-3.86 0-6.352-2-6.352-6.79 0-4.3 2.82-7.365 6.954-7.365 3.86 0 6.353 2.11 6.353 6.79 0 4.3-2.848 7.365-6.956 7.365zm.357-11.198c-1.59 0-3.095 1.204-3.095 4.08 0 2.71.985 4.133 3.038 4.133 1.726 0 3.04-1.396 3.04-4.08 0-2.71-.985-4.134-2.984-4.134zM273.768 30.875v-8.708c0-1.396-.384-2.245-1.67-2.245-1.78 0-3.176 2-3.176 4.38v4c.657.052 1.395.162 1.998.327v2.245h-7.885v-2.22c.71-.163 1.56-.3 2.382-.354v-8.35c-.657-.11-1.59-.22-2.382-.275v-2.19c1.75-.22 3.86-.3 5.694-.247 0 .63-.054 1.726-.192 2.465h.027c.822-1.588 2.41-2.71 4.627-2.71 3.068 0 4.054 1.943 4.054 4.325V28.3c.793.054 1.587.192 2.218.356v2.22h-5.696M.33.963h9.354L.33 15.213 9.685 30.76H.33V.963"/><path d="M17.584.963H34.37V7.07H17.585v5.246H34.37v6.095H17.585v12.35L7.578 15.213 17.584.963"/></g></svg>