<?xml version="1.0" encoding="UTF-8" standalone="no"?>
<svg width="175px" height="64px" viewBox="0 0 175 64" version="1.1" xmlns="http://www.w3.org/2000/svg" xmlns:xlink="http://www.w3.org/1999/xlink" xmlns:sketch="http://www.bohemiancoding.com/sketch/ns">
    <!-- Generator: Sketch 3.2.2 (9983) - http://www.bohemiancoding.com/sketch -->
    <title>Imported Layers</title>
    <desc>Created with Sketch.</desc>
    <defs></defs>
    <g id="Page-1" stroke="none" stroke-width="1" fill="none" fill-rule="evenodd" sketch:type="MSPage">
        <g id="Imported-Layers" sketch:type="MSLayerGroup" fill="#000000">
            <path d="M28.472,1.791 L44.871,18.189 L41.614,21.33 L24.751,4.466 L24.751,4.233 L24.518,3.885 L24.518,3.652 L24.402,3.536 L24.402,2.489 L24.518,2.373 L24.518,2.14 L24.983,1.791 L24.983,1.558 L25.332,1.21 L25.565,1.21 L25.681,0.977 L27.077,0.977 L27.426,1.21 L27.658,1.21 L28.007,1.558 L28.24,1.558 L28.472,1.791 L28.472,1.791 Z M38.125,1.908 L49.522,13.421 L46.266,16.678 L34.869,5.28 L34.869,5.048 L34.287,4.466 L34.287,4.117 L34.055,3.885 L34.055,2.489 L34.403,2.14 L34.403,1.908 L34.985,1.326 L35.218,1.326 L35.45,1.21 L36.73,1.21 L36.962,1.326 L37.311,1.326 L37.776,1.791 L37.893,1.791 L38.125,1.908 L38.125,1.908 Z M21.029,3.885 L40.102,22.841 L36.962,26.214 L17.424,6.559 L17.191,6.21 L17.191,5.862 L16.959,5.629 L16.959,4.699 L17.191,4.466 L17.191,4.233 L17.424,4.117 L17.424,3.885 L18.005,3.303 L18.122,3.303 L18.354,3.071 L20.099,3.071 L20.448,3.536 L20.68,3.536 L21.029,3.885 L21.029,3.885 Z M19.169,11.444 L35.45,27.726 L32.077,30.866 L15.68,14.352 L15.68,14.119 L15.214,13.77 L15.214,13.537 L15.098,13.421 L15.098,12.258 L15.214,11.793 L15.214,11.444 L15.68,11.095 L15.796,11.095 L16.261,10.63 L16.61,10.63 L16.842,10.514 L17.54,10.514 L17.773,10.63 L18.005,10.63 L18.354,10.863 L18.587,10.863 L19.169,11.444 L19.169,11.444 Z" id="Fill-2" sketch:type="MSShapeGroup"></path>
            <path d="M1.724,36.1 L18.005,19.585 L21.262,22.841 L4.747,39.24 L4.166,39.821 L4.05,39.821 L3.817,39.937 L3.468,39.937 L3.235,40.17 L2.305,40.17 L2.072,39.937 L1.84,39.937 L1.724,39.821 L1.491,39.821 L1.142,39.356 L1.142,39.24 L0.909,39.007 L0.909,38.774 L0.677,38.658 L0.677,37.612 L0.909,37.495 L0.909,36.914 L1.258,36.448 L1.258,36.332 L1.491,36.332 L1.724,36.1 L1.724,36.1 Z M1.724,26.331 L13.121,14.933 L16.377,18.073 L4.166,30.285 L3.584,30.285 L3.468,30.517 L2.421,30.517 L2.305,30.285 L2.072,30.285 L1.84,30.052 L1.724,30.052 L1.142,29.47 L1.142,29.122 L0.909,28.889 L0.909,27.726 L1.142,27.377 L1.142,27.144 L1.491,26.796 L1.491,26.563 L1.724,26.331 L1.724,26.331 Z M3.584,43.31 L22.657,24.47 L25.914,27.493 L6.375,47.148 L6.143,47.148 L5.794,47.381 L5.329,47.381 L5.213,47.497 L4.747,47.497 L4.631,47.381 L4.05,47.381 L3.584,46.915 L3.468,46.915 L3.235,46.799 L3.235,46.567 L3.003,46.334 L2.887,45.985 L2.887,44.589 L3.003,44.473 L3.003,44.24 L3.235,44.008 L3.235,43.892 L3.468,43.659 L3.468,43.426 L3.584,43.31 L3.584,43.31 Z M11.144,45.404 L27.426,29.122 L30.566,32.378 L14.284,48.66 L13.935,48.892 L13.47,49.241 L13.353,49.241 L13.121,49.474 L11.958,49.474 L11.725,49.241 L11.376,49.241 L11.144,49.125 L11.027,49.125 L11.027,48.892 L10.446,48.311 L10.446,47.962 L10.213,47.497 L10.213,47.148 L10.446,46.915 L10.446,46.334 L10.563,46.218 L10.563,45.985 L11.144,45.404 L11.144,45.404 Z" id="Fill-3" sketch:type="MSShapeGroup"></path>
            <path d="M35.799,62.848 L19.284,46.567 L22.657,43.31 L39.288,59.941 L39.288,60.174 L39.637,60.523 L39.637,60.755 L39.87,61.104 L39.87,62.267 L39.637,62.499 L39.637,62.848 L38.94,63.662 L38.474,63.662 L38.358,63.779 L37.195,63.779 L36.962,63.662 L36.613,63.662 L35.799,62.848 L35.799,62.848 Z M26.147,62.848 L14.633,51.451 L18.005,48.078 L29.984,60.174 L29.984,60.29 L30.217,60.755 L30.217,62.267 L29.984,62.499 L29.984,62.616 L29.17,63.43 L29.054,63.43 L28.821,63.662 L27.426,63.662 L27.309,63.43 L27.077,63.43 L26.728,63.198 L26.263,62.848 L26.147,62.848 L26.147,62.848 Z M43.126,60.871 L24.169,41.915 L27.426,38.658 L46.615,57.848 L46.615,57.964 L47.08,58.429 L47.08,58.778 L47.197,59.01 L47.197,60.29 L47.08,60.523 L47.08,60.755 L46.266,61.453 L45.918,61.453 L45.685,61.685 L44.522,61.685 L44.289,61.453 L43.94,61.453 L43.591,61.104 L43.359,61.104 L43.126,60.871 L43.126,60.871 Z M45.103,53.312 L29.054,37.03 L32.077,34.006 L48.36,50.056 L48.825,50.404 L48.825,50.87 L49.174,51.218 L49.174,52.731 L48.941,52.963 L48.941,53.312 L48.592,53.777 L48.36,53.777 L48.243,53.893 L48.011,53.893 L47.778,54.126 L47.662,54.126 L47.429,54.358 L47.08,54.358 L46.615,54.126 L46.266,54.126 L46.034,53.893 L45.918,53.893 L45.452,53.777 L45.103,53.312 L45.103,53.312 Z" id="Fill-4" sketch:type="MSShapeGroup"></path>
            <path d="M62.781,28.656 L46.266,45.171 L43.126,41.915 L59.99,25.051 L60.455,24.818 L60.571,24.818 L60.803,24.586 L61.967,24.586 L62.199,24.818 L62.316,24.818 L62.548,25.051 L62.781,25.051 L63.362,25.633 L63.362,25.749 L63.478,25.982 L63.478,27.377 L63.362,27.726 L63.362,27.958 L63.129,28.075 L63.129,28.307 L62.781,28.656 L62.781,28.656 Z M62.548,38.425 L51.151,49.823 L47.778,46.567 L59.641,34.704 L59.99,34.704 L60.222,34.588 L60.455,34.588 L60.571,34.355 L61.967,34.355 L62.199,34.588 L62.316,34.588 L63.129,35.285 L63.129,35.518 L63.362,35.751 L63.362,37.263 L63.129,37.612 L62.897,37.844 L62.897,38.076 L62.781,38.076 L62.781,38.193 L62.548,38.425 L62.548,38.425 Z M60.571,21.33 L41.614,40.403 L38.358,37.03 L57.547,17.841 L57.664,17.841 L57.896,17.608 L58.245,17.492 L58.477,17.492 L58.71,17.259 L59.99,17.259 L60.222,17.492 L60.571,17.608 L61.152,18.189 L61.152,18.422 L61.385,18.655 L61.385,20.167 L61.152,20.515 L61.152,20.748 L60.571,21.33 L60.571,21.33 Z M53.012,19.352 L36.962,35.751 L33.706,32.378 L50.336,15.747 L50.569,15.747 L50.918,15.282 L52.663,15.282 L52.895,15.515 L53.012,15.515 L53.593,16.096 L53.593,16.329 L53.826,16.445 L53.826,16.678 L54.058,16.91 L54.058,17.841 L53.826,18.073 L53.826,18.189 L53.593,18.422 L53.593,18.771 L53.012,19.352 L53.012,19.352 Z" id="Fill-5" sketch:type="MSShapeGroup"></path>
            <path d="M163.961,48.078 L163.38,48.66 L162.565,49.125 L161.868,49.823 L161.286,50.056 L160.705,50.404 L160.239,50.87 L159.658,50.986 L159.076,51.451 L157.914,51.799 L157.565,51.799 L157.332,52.032 L155.472,52.032 L155.238,51.799 L155.006,51.799 L154.308,51.451 L154.076,51.218 L153.727,50.986 L153.494,50.637 L153.262,50.404 L152.68,49.241 L152.68,48.543 L152.564,48.078 L152.564,47.381 L152.68,46.915 L152.68,46.218 L152.913,45.752 L152.913,45.636 L153.145,45.404 L153.145,45.171 L153.494,44.473 L153.843,44.24 L154.076,43.892 L154.308,43.659 L154.424,43.31 L154.89,43.077 L155.238,42.496 L156.053,42.147 L156.634,41.566 L157.216,41.101 L157.914,40.751 L158.495,40.403 L159.309,40.17 L159.89,39.821 L160.472,39.589 L163.961,38.193 L163.961,48.078 L163.961,48.078 Z M172.916,49.125 L172.916,49.474 L172.335,50.637 L172.335,50.87 L171.521,51.568 L171.288,51.568 L171.172,51.799 L170.939,51.799 L170.59,52.032 L170.009,52.032 L169.543,51.799 L169.427,51.799 L168.845,51.218 L168.613,50.87 L168.613,50.637 L168.381,50.288 L168.381,35.518 L168.264,34.937 L168.264,33.425 L168.032,33.192 L168.032,32.843 L167.799,32.378 L167.799,32.029 L167.217,30.866 L167.101,30.634 L166.636,29.936 L166.52,29.703 L166.287,29.703 L165.706,29.122 L165.124,28.656 L164.31,28.307 L163.728,27.958 L163.147,27.726 L162.565,27.726 L161.868,27.493 L161.286,27.377 L156.634,27.377 L156.053,27.493 L155.472,27.493 L154.89,27.726 L154.308,27.726 L153.494,28.075 L153.262,28.075 L152.913,28.307 L152.564,28.54 L151.982,28.656 L151.75,28.889 L150.587,29.47 L150.354,29.936 L150.005,30.052 L149.656,30.517 L149.423,30.866 L149.075,31.215 L149.075,31.447 L148.842,31.797 L148.609,32.029 L148.493,32.378 L148.493,33.773 L148.609,34.006 L148.609,34.122 L148.842,34.122 L148.842,34.355 L149.075,34.355 L149.191,34.704 L149.656,34.704 L150.005,34.937 L150.587,34.937 L150.819,34.704 L151.401,34.704 L151.401,34.588 L151.517,34.588 L152.099,34.006 L152.331,33.541 L152.564,33.425 L152.564,33.192 L152.68,32.843 L152.68,32.61 L152.913,32.029 L152.913,31.447 L153.145,31.215 L153.145,30.866 L153.262,30.634 L153.262,30.517 L154.308,29.47 L154.657,29.354 L154.89,29.354 L155.588,28.889 L156.053,28.889 L156.402,28.656 L159.542,28.656 L159.89,28.889 L160.239,28.889 L160.705,29.122 L160.821,29.122 L161.286,29.354 L161.402,29.354 L161.868,29.47 L163.147,30.866 L163.147,31.215 L163.38,31.447 L163.38,31.68 L163.612,32.029 L163.612,32.261 L163.728,32.843 L163.728,34.122 L163.961,34.704 L163.961,36.681 L159.076,38.658 L156.751,39.821 L156.053,39.937 L155.472,40.403 L154.89,40.519 L153.727,41.333 L152.564,41.915 L152.099,42.263 L151.517,42.496 L151.168,42.845 L150.819,43.077 L150.005,43.892 L149.656,44.008 L149.423,44.473 L149.075,44.589 L148.609,45.404 L148.493,45.636 L148.26,45.985 L148.028,46.218 L147.912,46.567 L147.912,46.915 L147.679,47.148 L147.679,47.497 L147.447,48.078 L147.447,49.823 L147.679,50.288 L147.679,50.404 L147.912,50.87 L147.912,50.986 L148.028,51.218 L148.26,51.568 L148.26,51.799 L149.191,52.731 L150.005,53.195 L150.354,53.544 L150.935,53.777 L152.099,54.126 L152.68,54.126 L153.145,54.358 L154.424,54.358 L155.588,53.893 L156.402,53.893 L156.983,53.777 L157.565,53.312 L158.379,53.195 L158.96,52.963 L159.542,52.614 L160.239,52.149 L161.984,50.986 L162.798,50.637 L163.961,49.823 L163.961,50.404 L164.193,50.87 L164.193,51.218 L164.31,51.568 L164.543,51.799 L164.891,52.614 L165.124,52.731 L165.124,52.963 L165.357,53.195 L165.473,53.195 L166.054,53.777 L166.287,53.777 L166.868,53.893 L167.217,54.126 L168.032,54.126 L168.381,54.358 L169.427,54.358 L169.776,54.126 L170.009,54.126 L170.59,53.893 L170.706,53.893 L171.172,53.777 L171.288,53.777 L171.521,53.544 L171.869,53.312 L172.335,52.963 L172.684,52.731 L172.916,52.614 L172.916,52.381 L173.265,52.032 L173.265,51.568 L173.498,51.451 L173.614,50.986 L173.847,50.404 L173.847,50.056 L174.079,49.474 L174.079,49.125 L172.916,49.125 L172.916,49.125 Z M138.143,48.311 L138.026,48.66 L137.212,49.474 L136.98,49.823 L136.631,50.056 L135.7,50.986 L135.235,51.218 L135.119,51.451 L134.305,51.568 L134.072,51.799 L133.723,52.032 L133.491,52.149 L133.142,52.149 L132.909,52.381 L132.793,52.381 L132.211,52.614 L131.746,52.614 L131.165,52.731 L128.838,52.731 L128.257,52.614 L127.908,52.381 L127.676,52.381 L126.164,51.568 L125.931,51.451 L125.582,51.218 L124.187,49.823 L123.838,49.125 L123.489,48.543 L123.256,48.078 L122.907,46.915 L122.442,46.334 L122.442,45.636 L122.326,45.054 L122.093,44.24 L122.093,43.426 L121.861,42.728 L121.861,39.007 L122.093,38.193 L122.093,37.263 L122.326,36.914 L122.326,36.332 L122.442,35.867 L122.675,35.285 L122.675,34.704 L122.907,34.355 L123.024,33.773 L123.489,33.425 L123.605,32.843 L123.838,32.378 L124.187,32.029 L124.652,31.447 L125.35,30.634 L125.582,30.634 L125.931,30.285 L127.094,29.703 L127.327,29.703 L127.908,29.47 L128.257,29.354 L129.304,29.354 L130.002,29.122 L130.816,29.354 L131.746,29.354 L132.211,29.47 L134.538,30.285 L135.119,30.634 L135.7,30.866 L136.049,31.215 L136.398,31.447 L136.98,31.797 L137.561,32.378 L138.143,32.843 L138.143,48.311 L138.143,48.311 Z M138.143,31.099 L136.98,29.936 L136.398,29.703 L136.049,29.354 L135.468,29.122 L134.886,28.656 L134.305,28.54 L133.723,28.075 L133.374,28.075 L133.142,27.958 L132.793,27.958 L132.328,27.726 L131.746,27.493 L131.165,27.493 L130.467,27.377 L127.327,27.377 L126.164,27.726 L125.582,27.726 L125.001,28.075 L124.419,28.307 L123.256,28.656 L122.907,29.122 L122.326,29.47 L121.861,29.936 L121.279,30.285 L119.535,32.029 L119.418,32.61 L118.953,32.959 L118.255,34.122 L118.255,34.588 L118.023,34.704 L117.79,35.285 L117.674,36.1 L117.441,36.681 L117.209,37.495 L117.092,38.076 L117.092,38.425 L116.86,38.774 L116.86,43.31 L117.209,44.822 L117.441,45.404 L117.674,46.218 L117.79,46.799 L118.255,47.381 L118.372,47.962 L118.837,48.543 L118.953,49.125 L119.418,49.707 L119.768,50.056 L120.116,50.637 L120.93,51.451 L121.512,51.799 L121.861,52.149 L122.442,52.614 L122.907,52.963 L123.489,53.195 L123.838,53.544 L124.419,53.777 L125.582,54.126 L125.931,54.358 L126.513,54.358 L127.094,54.475 L128.257,54.475 L128.722,54.707 L129.304,54.475 L131.048,54.475 L131.397,54.358 L131.746,54.358 L132.909,53.777 L133.374,53.777 L133.723,53.544 L134.305,53.195 L135.119,52.731 L135.7,52.381 L136.282,52.149 L136.98,51.451 L138.026,50.637 L138.608,50.056 L138.608,52.963 L138.724,53.544 L138.724,54.358 L138.957,54.707 L139.538,54.475 L140.12,54.475 L142.097,54.126 L143.26,54.126 L144.423,53.893 L145.702,53.893 L146.865,53.777 L146.865,52.381 L144.772,52.381 L144.423,52.149 L143.957,52.149 L143.26,51.451 L143.26,51.218 L143.027,50.986 L142.795,50.404 L142.795,49.241 L142.679,48.311 L142.679,11.095 L142.097,11.095 L142.097,11.212 L140.352,11.676 L139.306,11.793 L138.608,11.793 L137.793,12.025 L136.863,12.258 L135.816,12.258 L134.886,12.374 L133.956,12.374 L133.956,13.77 L135.235,13.77 L135.816,14.003 L136.398,14.003 L136.863,14.119 L136.98,14.119 L137.212,14.352 L137.445,14.352 L137.445,14.584 L137.561,14.7 L137.793,14.7 L137.793,15.166 L138.026,15.515 L138.026,15.747 L138.143,16.329 L138.143,31.099 L138.143,31.099 Z M111.975,27.377 L111.045,27.377 L110.58,27.493 L110.231,27.493 L109.301,27.958 L108.486,28.075 L106.742,28.307 L105.23,28.54 L104.067,28.889 L102.671,28.889 L102.671,30.285 L104.183,30.285 L104.765,30.517 L105.346,30.517 L105.811,30.634 L106.16,30.634 L106.393,30.866 L106.509,30.866 L106.509,31.099 L106.974,31.447 L106.974,31.68 L107.091,31.797 L107.091,32.029 L107.323,32.61 L107.323,33.425 L107.556,34.122 L107.556,48.892 L107.323,49.474 L107.323,50.404 L107.091,50.637 L107.091,50.87 L106.974,50.986 L106.974,51.218 L106.742,51.451 L106.742,51.568 L106.509,51.568 L106.16,52.032 L105.811,52.032 L105.579,52.149 L102.671,52.149 L102.671,53.544 L116.279,53.544 L116.279,52.149 L113.953,52.149 L113.72,52.032 L113.371,52.032 L113.138,51.799 L112.906,51.799 L112.557,51.451 L112.557,51.218 L112.324,50.986 L112.324,50.87 L112.208,50.637 L112.208,50.288 L111.975,49.707 L111.975,27.377 L111.975,27.377 Z M73.945,53.195 L75.573,53.195 L75.922,51.568 L76.155,50.986 L76.271,50.637 L76.271,50.404 L76.736,50.056 L76.853,49.707 L76.853,49.241 L77.085,49.125 L78.83,50.87 L79.411,51.218 L79.993,51.799 L80.574,52.149 L81.388,52.614 L82.319,52.963 L83.482,53.544 L84.063,53.777 L84.412,53.893 L84.994,53.893 L85.575,54.126 L86.157,54.126 L86.738,54.358 L90.809,54.358 L91.39,54.126 L92.204,53.893 L92.786,53.893 L93.368,53.777 L94.181,53.544 L94.763,53.195 L95.344,52.963 L95.693,52.731 L96.275,52.381 L96.856,52.149 L97.205,51.799 L97.787,51.451 L98.949,50.288 L99.415,49.707 L99.764,49.241 L99.996,48.66 L100.345,48.311 L100.694,47.148 L101.16,46.567 L101.276,45.985 L101.276,45.404 L101.741,44.24 L101.741,40.17 L101.276,39.007 L101.276,38.425 L101.16,37.844 L100.694,37.263 L100.578,36.681 L100.345,36.332 L99.996,35.751 L99.764,35.285 L97.787,33.425 L97.205,32.959 L96.856,32.61 L95.693,31.797 L95.112,31.68 L93.949,30.866 L92.786,30.285 L91.39,29.703 L88.483,28.307 L86.622,27.493 L85.808,26.912 L84.878,26.563 L84.063,26.214 L83.133,25.633 L81.97,25.051 L81.737,24.586 L81.388,24.47 L80.924,24.004 L80.574,23.888 L80.342,23.423 L79.76,22.841 L78.597,20.515 L78.597,20.167 L78.481,19.818 L78.481,17.841 L78.597,17.492 L78.597,17.259 L78.83,16.678 L78.83,16.445 L79.063,16.096 L79.411,15.747 L79.411,15.282 L79.76,14.933 L79.993,14.584 L80.342,14.352 L80.924,13.77 L81.388,13.537 L81.505,13.421 L82.319,12.956 L82.668,12.956 L83.133,12.84 L83.482,12.84 L83.715,12.607 L84.645,12.607 L85.227,12.374 L86.157,12.374 L86.622,12.607 L87.552,12.607 L87.901,12.84 L88.367,12.84 L88.716,12.956 L89.297,13.188 L89.646,13.188 L90.111,13.421 L90.46,13.77 L91.623,14.352 L91.972,14.7 L92.437,14.933 L93.135,15.747 L93.368,16.096 L94.181,16.91 L94.298,17.259 L94.763,17.608 L94.879,18.189 L95.344,18.655 L95.693,19.818 L95.926,20.167 L96.275,20.748 L96.507,21.33 L96.624,22.143 L96.856,22.725 L98.019,22.725 L98.019,11.676 L96.856,11.676 L96.624,12.374 L96.507,12.84 L96.507,13.188 L96.275,13.421 L96.275,13.77 L95.926,14.119 L95.693,14.584 L95.693,14.7 L95.112,15.282 L93.368,13.537 L92.786,13.188 L92.437,12.956 L91.274,12.258 L90.46,12.025 L89.878,11.676 L89.064,11.444 L88.716,11.212 L88.367,11.212 L87.32,11.095 L86.04,11.095 L85.459,10.863 L84.878,11.095 L83.715,11.095 L83.133,11.212 L82.319,11.212 L81.97,11.444 L80.807,11.793 L80.574,12.025 L80.342,12.025 L79.76,12.258 L79.411,12.607 L78.83,12.84 L78.481,13.188 L78.016,13.421 L76.853,14.584 L76.853,14.7 L76.271,15.282 L76.155,15.747 L75.69,16.096 L75.573,16.445 L75.341,17.026 L75.341,17.259 L75.108,17.492 L74.992,17.841 L74.76,18.422 L74.76,18.771 L74.527,19.352 L74.527,19.818 L74.411,20.399 L74.411,22.143 L74.527,22.841 L74.527,23.423 L74.76,24.004 L74.76,24.47 L74.992,24.818 L75.341,25.982 L75.573,26.331 L75.922,26.912 L76.155,27.493 L76.736,28.075 L76.853,28.54 L78.83,30.517 L79.411,30.866 L79.76,31.099 L80.226,31.447 L80.807,31.797 L81.156,32.029 L82.086,32.61 L83.133,32.959 L83.715,33.425 L84.063,33.541 L86.04,34.355 L86.622,34.588 L87.32,34.937 L88.367,35.285 L88.716,35.518 L89.646,35.867 L91.972,37.03 L92.553,37.495 L93.368,38.076 L93.949,38.425 L94.298,38.658 L95.461,39.821 L95.693,40.17 L96.042,40.403 L96.624,41.566 L96.856,41.682 L96.856,42.147 L97.089,42.496 L97.089,42.845 L97.205,43.426 L97.205,46.218 L97.089,46.567 L97.089,46.915 L96.856,47.381 L96.624,47.497 L96.624,47.962 L96.275,48.66 L95.693,49.241 L95.461,49.707 L95.344,49.823 L95.112,50.288 L94.763,50.404 L94.181,50.986 L93.716,51.218 L93.368,51.568 L92.204,52.149 L91.623,52.381 L91.274,52.381 L90.693,52.614 L90.227,52.614 L89.646,52.731 L88.716,52.731 L87.901,52.963 L87.204,52.731 L86.04,52.731 L85.459,52.614 L84.994,52.614 L84.645,52.381 L84.412,52.381 L83.249,51.799 L82.668,51.568 L82.319,51.451 L82.086,51.218 L80.924,50.404 L79.993,49.474 L79.644,48.892 L79.063,48.543 L78.597,47.962 L78.481,47.381 L77.667,46.218 L77.434,45.752 L77.318,45.171 L76.853,44.589 L76.736,44.008 L76.271,43.077 L76.271,42.496 L76.155,41.915 L75.69,40.403 L75.573,39.821 L73.945,39.821 L73.945,53.195 L73.945,53.195 Z M105.346,20.167 L105.579,20.399 L105.579,21.097 L105.811,21.33 L105.811,21.679 L106.393,22.26 L106.509,22.725 L106.974,22.841 L107.091,22.841 L107.323,23.074 L107.556,23.074 L107.672,23.307 L109.65,23.307 L109.882,23.074 L110.231,22.841 L110.463,22.841 L110.463,22.725 L110.58,22.725 L110.812,22.26 L111.394,21.679 L111.626,21.33 L111.626,21.097 L111.743,20.748 L111.743,19.352 L111.626,19.236 L111.626,18.771 L111.394,18.655 L111.161,18.189 L110.231,17.259 L109.882,17.026 L109.65,17.026 L109.301,16.91 L107.905,16.91 L107.672,17.026 L107.323,17.026 L106.974,17.492 L106.742,17.492 L105.928,18.189 L105.811,18.655 L105.811,18.771 L105.579,19.236 L105.579,19.818 L105.346,20.167 L105.346,20.167 Z" id="Fill-6" sketch:type="MSShapeGroup"></path>
        </g>
    </g>
</svg>