<?xml version="1.0" encoding="UTF-8" standalone="no"?>
<svg width="274px" height="223px" viewBox="0 0 274 223" version="1.1" xmlns="http://www.w3.org/2000/svg" xmlns:xlink="http://www.w3.org/1999/xlink" xmlns:sketch="http://www.bohemiancoding.com/sketch/ns">
    <!-- Generator: Sketch 3.2.2 (9983) - http://www.bohemiancoding.com/sketch -->
    <title>Imported Layers</title>
    <desc>Created with Sketch.</desc>
    <defs></defs>
    <g id="Page-1" stroke="none" stroke-width="1" fill="none" fill-rule="evenodd" sketch:type="MSPage">
        <path d="M189.279,0 C158.302,0 133.189,25.113 133.189,56.088 C133.189,60.484 133.685,64.764 134.641,68.87 C88.026,66.531 46.697,44.201 19.032,10.266 C14.204,18.551 11.439,28.185 11.439,38.465 C11.439,57.923 21.341,75.092 36.391,85.15 C27.197,84.859 18.548,82.336 10.986,78.134 C10.982,78.369 10.981,78.603 10.981,78.84 C10.981,106.016 30.315,128.686 55.974,133.838 C51.267,135.119 46.312,135.805 41.197,135.805 C37.582,135.805 34.068,135.453 30.644,134.799 C37.781,157.082 58.495,173.299 83.039,173.752 C63.843,188.795 39.658,197.762 13.38,197.762 C8.853,197.762 4.388,197.496 0,196.979 C24.822,212.893 54.305,222.178 85.98,222.178 C189.149,222.178 245.565,136.711 245.565,62.591 C245.565,60.16 245.51,57.741 245.403,55.336 C256.361,47.427 265.87,37.548 273.39,26.3 C263.331,30.761 252.522,33.777 241.175,35.132 C252.756,28.191 261.65,17.199 265.837,4.101 C255,10.529 242.996,15.197 230.22,17.713 C219.989,6.811 205.411,0 189.279,0" id="Imported-Layers" fill="#FFFFFF" sketch:type="MSShapeGroup"></path>
    </g>
</svg>