<svg width="160" height="160" viewBox="0 0 160 160" xmlns="http://www.w3.org/2000/svg"><title>awards</title><path d="M27.6 94.27c-4.474 8.653-11.187 17.267-14.41 21.198-5.15-9.73-8.232-20.71-8.67-32.36C9.28 84.905 19.4 89.013 27.6 94.27zM13.207 44.995c3.228 3.94 9.928 12.55 14.396 21.192-8.2 5.256-18.32 9.36-23.08 11.154.444-11.645 3.53-22.62 8.684-32.345zm26.568-28.653c.827 5.038 2.322 15.824 1.87 25.53-9.708.45-20.498-1.048-25.534-1.875 6.03-9.536 14.127-17.63 23.664-23.655zm5.165 32.413l13.576 19.087-23.335-2.215c2.844-2.32 5.218-4.805 6.718-7.406 1.492-2.586 2.453-5.864 3.04-9.465zm18.75-17.617c-2.41 3.258-5.003 5.967-7.69 7.52-2.686 1.553-6.33 2.446-10.36 2.903.37-8.7-.694-17.887-1.54-23.517 4.452 3.548 11.87 9.064 19.59 13.095zM77.11 4.768c-1.8 4.768-5.9 14.87-11.153 23.062-8.637-4.465-17.236-11.16-21.18-14.393C54.503 8.29 65.472 5.21 77.112 4.77zm2.883 3.666c2.07 5.276 5.732 13.767 10.4 21.135-3.706 1.61-7.297 2.655-10.394 2.656h-.007c-3.1 0-6.7-1.05-10.416-2.666 4.667-7.348 8.336-15.83 10.418-21.126zm35.227 5.004c-3.947 3.233-12.56 9.938-21.206 14.403C88.758 19.617 84.66 9.49 82.884 4.77c11.642.44 22.614 3.52 32.338 8.668zm-.885 28.196c-4.01-.458-7.635-1.35-10.313-2.894-2.707-1.56-5.32-4.3-7.743-7.59 7.714-4.024 15.133-9.534 19.593-13.085-.85 5.654-1.916 14.862-1.536 23.57zm10.492 23.992l-23.345 2.216 13.558-19.06c.59 3.584 1.55 6.846 3.04 9.423 1.508 2.606 3.892 5.096 6.746 7.42zm-4.624-49.297c9.573 6.042 17.697 14.17 23.735 23.745-5.027.827-15.862 2.333-25.6 1.874-.468-9.724 1.035-20.562 1.866-25.62zm35.272 61c-4.742-1.79-14.86-5.892-23.07-11.15 4.46-8.628 11.15-17.224 14.39-21.18 5.15 9.72 8.235 20.69 8.68 32.33zm-8.654 38.11c-3.23-3.942-9.956-12.576-14.427-21.242 8.246-5.266 18.39-9.364 23.083-11.128-.43 11.653-3.508 22.637-8.656 32.37zM120.14 144.21c-.825-4.998-2.346-15.884-1.885-25.666 9.767-.468 20.654 1.05 25.685 1.878-6.053 9.598-14.2 17.74-23.8 23.788zm-5.17-32.597l-13.484-18.96 23.192 2.204c-2.826 2.31-5.186 4.786-6.68 7.375-1.48 2.567-2.437 5.813-3.027 9.38zm-18.68 17.692c2.414-3.272 5.015-5.993 7.71-7.55 2.664-1.54 6.268-2.432 10.257-2.893-.372 8.662.682 17.81 1.526 23.456-4.468-3.555-11.836-9.018-19.494-13.014zm-13.433 26.424c1.778-4.722 5.888-14.878 11.163-23.115 8.668 4.48 17.3 11.207 21.232 14.43-9.74 5.162-20.732 8.25-32.395 8.686zm-2.865-3.718c-2.082-5.3-5.746-13.774-10.41-21.115 3.715-1.617 7.315-2.665 10.417-2.667h.008c3.096 0 6.687 1.045 10.394 2.657-4.667 7.355-8.333 15.838-10.41 21.125zm-35.245-4.967c3.93-3.22 12.552-9.94 21.215-14.417 5.265 8.214 9.374 18.353 11.163 23.102-11.657-.44-22.643-3.526-32.378-8.684zm.896-28.146c4.026.457 7.668 1.35 10.356 2.9 2.688 1.55 5.283 4.26 7.694 7.522-7.723 4.033-15.147 9.55-19.6 13.097.85-5.63 1.917-14.816 1.55-23.52zM35.22 94.864l23.295-2.213-13.57 19.08c-.588-3.617-1.552-6.91-3.053-9.506-1.494-2.584-3.85-5.053-6.67-7.36zm-4.31 1.676c3.258 2.41 5.967 5 7.52 7.686 1.552 2.686 2.444 6.33 2.9 10.36-8.702-.37-17.887.695-23.515 1.54 3.547-4.45 9.062-11.868 13.094-19.586zM32 80.222c.002 3.105-1.05 6.708-2.668 10.428-7.354-4.672-15.843-8.342-21.14-10.424 5.297-2.08 13.787-5.748 21.14-10.42 1.617 3.716 2.666 7.315 2.668 10.416zm-1.09-16.305c-4.03-7.72-9.543-15.14-13.09-19.59 4.847.728 12.33 1.624 19.868 1.624 1.217 0 2.434-.026 3.643-.077-.456 4.024-1.348 7.663-2.897 10.35-1.55 2.69-4.26 5.284-7.522 7.694zm24.282 16.33L33.887 89.99c1.3-3.43 2.115-6.768 2.113-9.77 0-2.984-.806-6.3-2.095-9.71l21.287 9.737zm12.404 21.484l-2.21 23.292c-2.316-2.832-4.794-5.197-7.39-6.693-2.585-1.493-5.86-2.454-9.46-3.042l19.06-13.557zm22.13 24.593c-3.41-1.29-6.73-2.097-9.72-2.097h-.01c-2.988.002-6.31.81-9.724 2.102L80 105.055l9.727 21.268zm21.682-11.074c-3.58.59-6.836 1.55-9.41 3.038-2.592 1.5-5.07 3.866-7.385 6.7l-2.208-23.256 19.003 13.517zm14.747-25.24l-21.346-9.763 21.3-9.742c-1.287 3.406-2.09 6.72-2.087 9.7 0 3.013.822 6.363 2.132 9.805zm2.945-26.097c-3.274-2.416-5.996-5.016-7.553-7.71-1.54-2.663-2.43-6.267-2.89-10.254 1.224.05 2.457.078 3.69.078 7.486 0 14.917-.882 19.764-1.606-3.553 4.468-9.015 11.835-13.01 19.49zm13.09 52.172c-5.65-.85-14.887-1.926-23.62-1.545.46-4.01 1.35-7.634 2.894-10.313 1.566-2.715 4.317-5.335 7.623-7.767 4.027 7.727 9.548 15.16 13.103 19.625zm-14.167-35.88c-.002-3.098 1.044-6.693 2.657-10.403 7.34 4.657 15.802 8.317 21.09 10.397-5.266 2.064-13.74 5.72-21.1 10.377-1.606-3.7-2.646-7.283-2.647-10.373zM92.405 58.76l2.21-23.277c2.322 2.845 4.808 5.22 7.41 6.722 2.57 1.482 5.82 2.444 9.392 3.033L92.405 58.76zM70.25 34.12c3.422 1.296 6.75 2.106 9.744 2.106h.01c2.995 0 6.326-.813 9.75-2.11L80 55.437 70.25 34.12zM48.5 45.177c3.617-.588 6.908-1.555 9.504-3.056 2.59-1.497 5.066-3.86 7.38-6.692l2.214 23.334-19.098-13.585zm15.812 23.91L53.146 53.393 68.84 64.556c.64.454 1.483.492 2.16.103.678-.393 1.066-1.144.99-1.923l-1.82-19.174 8.012 17.516c.325.71 1.036 1.167 1.818 1.167s1.493-.456 1.82-1.168l8.01-17.517-1.82 19.174c-.075.78.313 1.53.99 1.922.678.388 1.52.35 2.16-.104l15.695-11.164L95.69 69.088c-.452.637-.492 1.48-.102 2.16.393.677 1.147 1.06 1.922.99l19.174-1.82-17.516 8.01c-.712.326-1.168 1.036-1.168 1.82 0 .78.456 1.492 1.168 1.817l17.516 8.012-19.174-1.822c-.775-.07-1.53.314-1.922.992-.39.677-.35 1.52.103 2.16l11.165 15.694L91.16 95.938c-.64-.454-1.482-.492-2.16-.102-.677.39-1.065 1.142-.99 1.92l1.82 19.176-8.01-17.515c-.327-.712-1.038-1.168-1.82-1.168s-1.493.456-1.818 1.168l-8.01 17.516 1.82-19.174c.074-.78-.314-1.53-.992-1.92-.31-.18-.655-.27-1-.27-.407 0-.813.125-1.16.37l-15.694 11.165L64.31 91.407c.453-.638.493-1.482.102-2.16-.39-.678-1.142-1.06-1.922-.99l-19.173 1.82 17.515-8.01c.712-.326 1.168-1.037 1.168-1.82 0-.782-.456-1.492-1.168-1.818l-17.515-8.01 19.173 1.82c.78.07 1.53-.313 1.922-.99.39-.68.35-1.523-.102-2.16zm-24.547 75.058c-9.546-6.033-17.65-14.14-23.68-23.688 5.023-.826 15.832-2.328 25.56-1.875.45 9.727-1.053 20.54-1.88 25.563zM11.015 119.81c.032.074.074.143.115.213.026.043.05.087.078.128.023.033.046.064.07.095 6.938 11.872 16.856 21.79 28.73 28.726.008.008.017.014.026.02.082.062.17.114.264.163.025.013.05.03.077.04.034.018.068.035.104.05 11.652 6.7 25.14 10.555 39.52 10.555 14.386 0 27.88-3.858 39.537-10.564.16-.066.31-.152.452-.26 11.873-6.936 21.79-16.853 28.73-28.725.143-.174.25-.365.326-.568 6.67-11.634 10.506-25.09 10.506-39.435 0-14.288-3.805-27.695-10.427-39.297-.085-.35-.27-.674-.542-.942-6.9-11.713-16.705-21.507-28.427-28.39-.048-.048-.103-.088-.156-.13l-.025-.022c-.194-.15-.417-.264-.664-.336C107.787 4.55 94.478.755 80.295.703c-.19-.028-.376-.025-.56 0C65.525.75 52.19 4.555 40.647 11.155c-.022.007-.043.017-.065.024-.06.02-.12.04-.178.065-.06.027-.115.06-.172.094-.056.03-.113.062-.165.1-.053.037-.1.08-.15.124-.015.014-.032.025-.047.04-11.77 6.908-21.612 16.75-28.52 28.522-.005.007-.01.015-.017.022-.037.044-.076.087-.11.133-.044.062-.08.127-.118.193-.026.048-.054.094-.077.143-.03.066-.054.137-.077.207C4.28 52.453.448 65.907.448 80.247c0 14.363 3.846 27.837 10.533 39.48l.035.084z" fill="#E6B335" fill-rule="evenodd"/></svg>