<svg width="1188" height="308" viewBox="0 0 1188 308" xmlns="http://www.w3.org/2000/svg"><title>Imported Layers</title><g fill="none" fill-rule="evenodd"><path d="M374.998 27.195h62.445c8.678 0 17.063.886 25.157 2.665 8.084 1.775 15.283 4.736 21.6 8.875 6.31 4.144 11.343 9.572 15.09 16.28 3.75 6.706 5.627 14.992 5.627 24.856 0 11.45-3.21 21.265-9.62 29.45-6.41 8.19-15.536 13.662-27.372 16.425v.59c14.798 1.185 26.385 6.365 34.77 15.536 8.386 9.17 12.58 21.456 12.58 36.847 0 3.352-.842 8.286-2.518 14.793-1.676 6.51-5.175 12.974-10.504 19.382-5.326 6.413-13.02 11.987-23.085 16.724-10.06 4.732-23.48 7.1-40.246 7.1h-63.924V27.196zm21.31 91.74h42.91a61.36 61.36 0 0 0 15.24-1.925c5.034-1.276 9.568-3.404 13.613-6.36 4.047-2.962 7.35-6.757 9.918-11.395 2.562-4.633 3.847-10.307 3.847-17.016 0-2.17-.443-5.23-1.333-9.175-.884-3.945-2.86-7.89-5.917-11.84-3.06-3.942-7.543-7.346-13.46-10.208-5.924-2.86-13.914-4.295-23.975-4.295h-40.84v72.21zm0 98.252h40.84c7.692 0 14.89-.79 21.6-2.372 6.705-1.574 12.53-3.99 17.463-7.247 4.93-3.258 8.83-7.35 11.694-12.283 2.858-4.926 4.29-10.85 4.29-17.755 0-13.805-4.44-24.07-13.32-30.778-8.876-6.705-21.9-10.062-39.06-10.062H396.31v80.497zm153.172-75.76c0-6.116-.145-12.327-.44-18.645-.298-6.314-.547-14.5-.74-24.563h19.233v25.746h.593c1.38-3.752 3.352-7.35 5.918-10.805 2.562-3.45 5.67-6.557 9.322-9.32 3.65-2.76 7.887-4.977 12.727-6.658 4.83-1.676 10.306-2.514 16.422-2.514 5.523 0 10.358.59 14.502 1.773l-3.847 19.24c-2.566-.99-6.318-1.483-11.248-1.483-7.5 0-13.908 1.435-19.233 4.29-5.33 2.86-9.768 6.514-13.318 10.95-3.555 4.44-6.172 9.223-7.844 14.355-1.68 5.132-2.52 10.06-2.52 14.794v78.127h-19.53v-95.29m122.128-96.477c0 4.143-1.478 7.547-4.44 10.212-2.956 2.663-6.214 3.995-9.764 3.995-3.55 0-6.808-1.332-9.765-3.997-2.964-2.666-4.44-6.07-4.44-10.213 0-4.14 1.476-7.543 4.44-10.208 2.955-2.665 6.213-3.993 9.763-3.993s6.808 1.328 9.765 3.992c2.96 2.664 4.438 6.068 4.438 10.207zm-23.97 53.274h19.53v138.5h-19.53V98.22zM77.38 150.756L.227 200.21v53.808l90-55.986h102.66l94.29 56.17 1.014-.36v-53.38l-82.505-49.707H77.38zM.227.256v53.807L77.38 103.48h128.303l82.508-49.666V.434L287.18 2.2l-94.29 58.302H90.228L.226.257z" fill="#FFF"/><path d="M77.38 150.755L.227 200.21v53.808l90-55.986h102.66l94.29 56.17 1.014-.36v-53.38l-82.505-49.707H77.38zM.227.257v53.806L77.38 103.48h128.303l82.508-49.666V.434L287.18 2.2l-94.29 58.302H90.228L.226.257z"/><path d="M845.855 236.715H826.32V213.63h-.588c-3.16 4.742-6.91 8.786-11.248 12.134-4.34 3.36-8.875 6.12-13.612 8.286a65.228 65.228 0 0 1-14.65 4.74c-5.03.98-9.814 1.475-14.352 1.475-10.853 0-20.768-1.822-29.742-5.47-8.98-3.654-16.72-8.73-23.23-15.242-6.512-6.51-11.592-14.21-15.24-23.084-3.655-8.878-5.477-18.544-5.477-29.006 0-10.457 1.825-20.123 5.48-28.998 3.65-8.88 8.73-16.577 15.24-23.084 6.51-6.512 14.25-11.588 23.23-15.24 8.974-3.65 18.89-5.472 29.742-5.472 4.54 0 9.323.49 14.35 1.475a65.673 65.673 0 0 1 14.653 4.736c4.737 2.177 9.27 4.936 13.612 8.29 4.337 3.354 8.09 7.394 11.248 12.13h.59V12.993h19.533v223.723zm-126.365-69.25c0 7.7 1.23 14.902 3.697 21.603 2.467 6.713 5.97 12.533 10.508 17.463 4.535 4.937 10.01 8.835 16.423 11.69 6.408 2.866 13.66 4.297 21.752 4.297 7.887 0 15.24-1.43 22.048-4.294 6.804-2.857 12.675-6.755 17.61-11.69 4.93-4.93 8.776-10.75 11.54-17.462 2.758-6.7 4.142-13.903 4.142-21.6 0-7.694-1.384-14.893-4.143-21.6-2.763-6.707-6.61-12.526-11.54-17.465-4.934-4.925-10.805-8.828-17.61-11.69-6.807-2.854-14.16-4.29-22.047-4.29-8.093 0-15.344 1.436-21.752 4.29-6.413 2.862-11.888 6.765-16.423 11.69-4.538 4.94-8.04 10.758-10.508 17.463-2.467 6.71-3.697 13.908-3.697 21.6zm174.778 97.07c5.717 7.694 13.17 13.857 22.34 18.495 9.177 4.633 19.385 6.954 30.633 6.954 9.86 0 18.248-1.43 25.154-4.29 6.907-2.862 12.477-6.76 16.724-11.69 4.238-4.934 7.293-10.702 9.172-17.312 1.873-6.61 2.81-13.663 2.81-21.16v-24.86h-.59c-6.317 9.474-14.01 16.18-23.084 20.125-9.077 3.95-18.644 5.918-28.706 5.918-10.062 0-19.488-1.775-28.264-5.325-8.78-3.55-16.423-8.437-22.934-14.648-6.512-6.215-11.643-13.663-15.387-22.345-3.752-8.678-5.626-18.05-5.626-28.113 0-10.062 1.776-19.43 5.326-28.113 3.55-8.68 8.433-16.273 14.648-22.785 6.215-6.51 13.612-11.587 22.195-15.24 8.583-3.65 18-5.472 28.263-5.472 4.143 0 8.532.392 13.17 1.183 4.632.79 9.27 2.17 13.907 4.143 4.636 1.972 9.22 4.69 13.764 8.135 4.535 3.456 8.777 7.844 12.727 13.17h.59V98.22h19.535v137.31c0 7.497-.94 15.486-2.815 23.97-1.88 8.485-5.524 16.277-10.948 23.382-5.428 7.1-12.975 13.018-22.64 17.755-9.667 4.735-22.3 7.103-37.88 7.103-13.808 0-26.144-2.273-36.992-6.808-10.852-4.543-20.716-11.544-29.59-21.013l14.5-15.388zm3.55-98.844c0 7.305 1.333 14.165 3.993 20.57 2.668 6.416 6.317 12.037 10.954 16.868 4.634 4.84 10.062 8.682 16.277 11.545 6.215 2.863 12.97 4.294 20.27 4.294 7.104 0 13.86-1.285 20.273-3.85 6.408-2.562 12.08-6.168 17.015-10.806 4.93-4.63 8.73-10.207 11.394-16.714 2.667-6.51 3.896-13.81 3.703-21.902 0-7.293-1.182-14.152-3.55-20.565-2.37-6.41-5.824-12.035-10.36-16.87-4.542-4.83-10.06-8.678-16.572-11.545-6.51-2.853-13.812-4.288-21.9-4.288-7.3 0-14.055 1.435-20.27 4.29-6.215 2.866-11.643 6.713-16.277 11.544-4.637 4.836-8.286 10.46-10.95 16.87-2.66 6.413-3.994 13.27-3.994 20.566zm174.538 7.105c.593 6.907 2.265 13.422 5.033 19.534 2.76 6.115 6.406 11.39 10.944 15.83 4.54 4.44 9.77 7.945 15.688 10.507 5.918 2.562 12.326 3.847 19.233 3.847 10.457 0 19.483-2.412 27.082-7.25 7.59-4.832 13.36-10.406 17.307-16.72l15.094 12.43c-8.286 10.457-17.415 17.952-27.374 22.487-9.962 4.54-20.67 6.81-32.11 6.81-10.26 0-19.78-1.828-28.556-5.473-8.78-3.653-16.327-8.733-22.636-15.24-6.318-6.516-11.3-14.21-14.948-23.085-3.654-8.877-5.472-18.543-5.472-29s1.775-20.123 5.326-29.003c3.55-8.88 8.48-16.574 14.797-23.086 6.31-6.506 13.71-11.586 22.195-15.24 8.48-3.644 17.652-5.47 27.52-5.47 10.457 0 19.827 1.878 28.113 5.62 8.287 3.753 15.245 8.73 20.867 14.945 5.622 6.21 9.91 13.516 12.872 21.897 2.957 8.39 4.44 17.313 4.44 26.78v8.88h-115.418zm94.11-15.98c0-13.216-3.947-23.918-11.838-32.11-7.89-8.184-18.94-12.28-33.146-12.28-6.318 0-12.43 1.234-18.348 3.697-5.918 2.473-11.097 5.774-15.537 9.917-4.436 4.142-7.986 8.88-10.655 14.21-2.66 5.323-3.993 10.846-3.993 16.567h93.513z" fill="#FFF"/></g></svg>