<svg width="636" height="119" viewBox="0 0 636 119" xmlns="http://www.w3.org/2000/svg"><title>Imported Layers</title><g fill="#E4BA2A" fill-rule="evenodd"><path d="M54.767 51.496c-1.2-4.408-5.88-11.365-15.11-11.365-9.218 0-16.566 7.356-16.566 20.727 0 12.03 6.285 20.852 16.84 20.852 10.157 0 14.044-7.75 16.046-13.1l13.77 7.22c-5.216 14.433-18.45 20.85-30.088 20.85-18.58 0-33.145-14.303-33.145-35.426 0-20.453 14.705-35.426 33.69-35.426 16.837 0 25.394 11.234 28.867 18.984l-14.303 6.684M91.863.296V34.65c5.084-5.078 12.04-8.822 21.26-8.822 8.283 0 14.705 3.21 18.308 7.223 5.487 5.88 5.618 12.7 5.618 20.32v41.31h-15.77V57.91c-.263-6.014-.263-7.484-1.068-9.492-.536-1.332-2.81-7.352-11.637-7.352-10.287 0-15.098 8.29-16.176 12.168-.533 2.14-.533 3.207-.533 10.696v30.744H75.818V.296h16.045m119.167 79.41c-8.28 11.097-18.97 16.974-32.61 16.974-17.514 0-34.354-11.092-34.354-35.694 0-22.455 14.434-35.158 33.287-35.158 17.643 0 24.99 10.565 26.33 12.566 5.486 7.756 6.684 19.387 6.815 26.07h-49.463c1.873 10.56 8.425 16.58 18.984 16.58 10.96 0 15.38-6.417 17.38-9.226l13.63 7.887zm-18.177-27.01c-1.47-10.42-7.88-14.034-14.97-14.034-8.553 0-14.442 4.947-16.313 14.035h31.283zm73.3-1.2c-1.198-4.408-5.878-11.365-15.1-11.365-9.23 0-16.575 7.356-16.575 20.727 0 12.03 6.28 20.852 16.838 20.852 10.156 0 14.04-7.75 16.045-13.1l13.77 7.22c-5.213 14.434-18.45 20.852-30.074 20.852-18.592 0-33.154-14.302-33.154-35.425 0-20.453 14.706-35.426 33.688-35.426 16.84 0 25.397 11.234 28.868 18.984l-14.303 6.684M303.38.298v53.07l26.07-25.53h20.45l-25.525 25.53 28.072 41.31H332.93L312.743 64.73l-9.362 9.225v20.72h-15.903V.295h15.904"/><path d="M415.394.297v94.38H399.49V88.26c-4.953 6.013-11.635 8.42-18.58 8.42-15.914 0-29.683-11.897-29.683-33.952 0-19.92 11.234-36.9 30.347-36.9 6.553 0 12.834 1.873 17.916 7.49V.298h15.904zM395.746 46.82c-2.404-3.613-6.422-6.15-11.766-6.15-10.83 0-16.045 9.758-16.045 20.316 0 1.203.14 21.26 15.772 21.26 8.295 0 15.783-6.15 15.643-20.59-.13-4.277-.665-10.428-3.604-14.836zM489.9 79.705c-8.285 11.098-18.972 16.975-32.613 16.975-17.514 0-34.352-11.092-34.352-35.694 0-22.455 14.434-35.158 33.286-35.158 17.65 0 24.997 10.565 26.335 12.566 5.486 7.756 6.683 19.387 6.814 26.07h-49.464c1.873 10.56 8.426 16.58 18.985 16.58 10.96 0 15.38-6.417 17.38-9.226l13.63 7.887zm-18.177-27.008c-1.47-10.422-7.88-14.035-14.967-14.035-8.557 0-14.446 4.947-16.316 14.035h31.283zm32.67 22.196c4.017 4.947 10.027 8.556 19.257 8.556 9.22 0 13.237-4.548 13.237-7.89 0-4.28-4.822-5.35-6.957-5.75-2.276-.537-13.235-2.54-15.64-3.21-15.905-3.743-18.855-12.967-18.855-18.98 0-11.365 10.297-21.793 28.618-21.793 10.156 0 17.502 3.21 22.053 6.418 3.34 2.14 5.486 4.412 6.814 6.02l-11.365 10.558c-1.87-3.61-6.41-10.162-18.178-10.162-7.62 0-11.092 3.343-11.092 6.82 0 4.812 4.942 6.15 13.498 7.62 13.9 2.54 17.787 3.21 22.063 6.553 4.136 3.205 6.814 8.555 6.814 14.166 0 10.427-9.36 22.86-30.074 22.86-11.9 0-23.664-3.74-32.09-11.898l11.897-9.89M575.703.297v53.07l26.07-25.53h20.452L596.7 53.367l28.07 41.31h-19.514L585.062 64.73l-9.36 9.225v20.72H559.8V.295h15.903M5.456 118.885H629.37c6.572 0 8.94-8.36 1.064-8.36H6.52c-6.572 0-8.94 8.36-1.064 8.36"/></g></svg>