<?xml version="1.0" encoding="UTF-8" standalone="no"?>
<svg width="497px" height="266px" viewBox="0 0 497 266" version="1.1" xmlns="http://www.w3.org/2000/svg" xmlns:xlink="http://www.w3.org/1999/xlink" xmlns:sketch="http://www.bohemiancoding.com/sketch/ns">
    <!-- Generator: Sketch 3.3.3 (12081) - http://www.bohemiancoding.com/sketch -->
    <title>firstdraft</title>
    <desc>Created with Sketch.</desc>
    <defs>
        <linearGradient x1="50.0843243%" y1="100.009836%" x2="50.0843243%" y2="0.0993852459%" id="linearGradient-1">
            <stop stop-color="#141414" offset="0%"></stop>
            <stop stop-color="#000000" offset="100%"></stop>
        </linearGradient>
        <linearGradient x1="49.6560811%" y1="100.009836%" x2="49.6560811%" y2="0.0993852459%" id="linearGradient-2">
            <stop stop-color="#141414" offset="0%"></stop>
            <stop stop-color="#000000" offset="100%"></stop>
        </linearGradient>
        <linearGradient x1="49.9852874%" y1="100.009836%" x2="49.9852874%" y2="0.0993852459%" id="linearGradient-3">
            <stop stop-color="#141414" offset="0%"></stop>
            <stop stop-color="#000000" offset="100%"></stop>
        </linearGradient>
        <linearGradient x1="50.0249428%" y1="99.9653465%" x2="50.0249428%" y2="0.231089109%" id="linearGradient-4">
            <stop stop-color="#141414" offset="0%"></stop>
            <stop stop-color="#000000" offset="100%"></stop>
        </linearGradient>
        <linearGradient x1="49.9371638%" y1="100.009836%" x2="49.9371638%" y2="0.0993852459%" id="linearGradient-5">
            <stop stop-color="#141414" offset="0%"></stop>
            <stop stop-color="#000000" offset="100%"></stop>
        </linearGradient>
        <linearGradient x1="50.0310777%" y1="99.905985%" x2="50.0310777%" y2="-0.16159601%" id="linearGradient-6">
            <stop stop-color="#141414" offset="0%"></stop>
            <stop stop-color="#000000" offset="100%"></stop>
        </linearGradient>
        <linearGradient x1="49.9874652%" y1="99.6574627%" x2="49.9874652%" y2="-0.16119403%" id="linearGradient-7">
            <stop stop-color="#141414" offset="0%"></stop>
            <stop stop-color="#000000" offset="100%"></stop>
        </linearGradient>
        <linearGradient x1="49.8122768%" y1="99.905985%" x2="49.8122768%" y2="-0.16159601%" id="linearGradient-8">
            <stop stop-color="#141414" offset="0%"></stop>
            <stop stop-color="#000000" offset="100%"></stop>
        </linearGradient>
        <linearGradient x1="50.1638158%" y1="99.6574627%" x2="50.1638158%" y2="-0.16119403%" id="linearGradient-9">
            <stop stop-color="#141414" offset="0%"></stop>
            <stop stop-color="#000000" offset="100%"></stop>
        </linearGradient>
        <linearGradient x1="50.0889881%" y1="99.905985%" x2="50.0889881%" y2="-0.16159601%" id="linearGradient-10">
            <stop stop-color="#141414" offset="0%"></stop>
            <stop stop-color="#000000" offset="100%"></stop>
        </linearGradient>
    </defs>
    <g id="Page-1" stroke="none" stroke-width="1" fill="none" fill-rule="evenodd" sketch:type="MSPage">
        <g id="firstdraft" sketch:type="MSLayerGroup" transform="translate(0.000000, -1.000000)">
            <path d="M104.711111,46.1735849 L104.711111,8.78301887 L18.0363636,8.78301887 L6.76363636,19.8245283 L6.76363636,136.262264 L48.8484848,136.262264 L48.8484848,90.590566 L103.458586,90.590566 L103.458586,52.9490566 L48.8484848,52.9490566 L48.8484848,46.1735849 L104.711111,46.1735849 Z" id="XMLID_90_" fill="#CCCCCC" sketch:type="MSShapeGroup"></path>
            <path d="M98.6989899,40.4018868 L98.6989899,3.76415094 L23.7979798,3.76415094 L1.0020202,25.8471698 L1.0020202,130.490566 L42.8363636,130.490566 L42.8363636,84.8188679 L97.1959596,84.8188679 L97.1959596,47.4283019 L42.8363636,47.4283019 L42.8363636,40.4018868 L98.6989899,40.4018868 Z" id="XMLID_89_" fill="#FFFFFF" sketch:type="MSShapeGroup"></path>
            <g id="XMLID_81_" transform="translate(0.000000, 2.509434)" fill="url(#linearGradient-1)" sketch:type="MSShapeGroup">
                <g id="XMLID_92_">
                    <path d="M93.6888889,33.3754717 L93.6888889,1.00377358 L23.0464646,1.00377358 L1.0020202,23.0867925 L1.0020202,123.464151 L38.0767677,123.464151 L38.0767677,77.7924528 L92.4363636,77.7924528 L92.4363636,45.4207547 L38.0767677,45.4207547 L38.0767677,33.3754717 L93.6888889,33.3754717 Z" id="XMLID_93_"></path>
                </g>
            </g>
            <path d="M112.977778,133.75283 L112.977778,11.2924528 L150.052525,11.2924528 L150.052525,133.75283 L112.977778,133.75283 L112.977778,133.75283 Z" id="XMLID_79_" stroke="#CCCCCC" stroke-width="2.0756" fill="#CCCCCC" sketch:type="MSShapeGroup"></path>
            <path d="M227.959596,133.75283 L211.175758,95.1075472 L197.89899,95.1075472 L197.89899,133.75283 L160.824242,133.75283 L160.824242,12.045283 L225.955556,12.045283 C254.513131,12.045283 269.793939,30.6150943 269.793939,53.4509434 C269.793939,74.5301887 257.519192,85.8226415 247.749495,90.590566 L269.793939,134.003774 L227.959596,134.003774 L227.959596,133.75283 Z M232.218182,53.2 C232.218182,46.6754717 226.456566,43.6641509 220.193939,43.6641509 L197.648485,43.6641509 L197.648485,62.9867925 L220.193939,62.9867925 C226.456566,62.7358491 232.218182,59.9754717 232.218182,53.2 L232.218182,53.2 Z" id="XMLID_76_" stroke="#CCCCCC" stroke-width="2.0756" fill="#CCCCCC" sketch:type="MSShapeGroup"></path>
            <path d="M275.555556,116.437736 L294.844444,88.8339623 C304.113131,97.6169811 317.640404,104.643396 334.173737,104.643396 C341.187879,104.643396 347.70101,102.886792 347.70101,98.1188679 C347.70101,86.3245283 279.563636,98.3698113 279.563636,49.9377358 C279.563636,29.109434 296.848485,9.28490566 330.165657,9.28490566 C350.206061,9.28490566 367.991919,15.0566038 382.020202,26.3490566 L362.230303,52.6981132 C351.709091,44.6679245 337.931313,40.6528302 326.408081,40.6528302 C319.143434,40.6528302 317.139394,42.9113208 317.139394,46.1735849 C317.139394,57.7169811 385.026263,47.9301887 385.026263,93.3509434 C385.026263,120.201887 364.985859,136.011321 332.169697,136.011321 C306.367677,135.760377 288.581818,128.232075 275.555556,116.437736 L275.555556,116.437736 Z" id="XMLID_74_" stroke="#CCCCCC" stroke-width="2.0756" fill="#CCCCCC" sketch:type="MSShapeGroup"></path>
            <path d="M425.858586,133.75283 L425.858586,43.6641509 L393.042424,43.6641509 L393.042424,11.2924528 L495.49899,11.2924528 L495.49899,43.6641509 L462.933333,43.6641509 L462.933333,133.75283 L425.858586,133.75283 L425.858586,133.75283 Z" id="XMLID_72_" stroke="#CCCCCC" stroke-width="2.0756" fill="#CCCCCC" sketch:type="MSShapeGroup"></path>
            <path d="M107.466667,127.981132 L107.466667,6.5245283 L143.789899,6.5245283 L143.789899,127.981132 L107.466667,127.981132 L107.466667,127.981132 Z" id="XMLID_70_" stroke="#FFFFFF" stroke-width="2.0756" fill="#FFFFFF" sketch:type="MSShapeGroup"></path>
            <path d="M221.69697,127.981132 L204.913131,89.3358491 L191.636364,89.3358491 L191.636364,127.981132 L155.313131,127.981132 L155.313131,6.5245283 L219.943434,6.5245283 C248.50101,6.5245283 263.781818,24.5924528 263.781818,47.6792453 C263.781818,68.7584906 251.507071,80.0509434 241.737374,84.8188679 L263.781818,128.232075 L221.69697,128.232075 L221.69697,127.981132 Z M226.206061,47.4283019 C226.206061,40.9037736 220.444444,37.8924528 214.181818,37.8924528 L191.636364,37.8924528 L191.636364,57.2150943 L214.181818,57.2150943 C220.444444,57.2150943 226.206061,54.2037736 226.206061,47.4283019 L226.206061,47.4283019 Z" id="XMLID_67_" stroke="#FFFFFF" stroke-width="2.0756" fill="#FFFFFF" sketch:type="MSShapeGroup"></path>
            <path d="M269.543434,110.666038 L288.832323,83.0622642 C298.10101,91.845283 311.628283,98.8716981 328.161616,98.8716981 C335.175758,98.8716981 341.688889,97.1150943 341.688889,92.3471698 C341.688889,80.5528302 273.551515,92.5981132 273.551515,44.1660377 C273.551515,23.3377358 290.836364,3.51320755 324.153535,3.51320755 C344.193939,3.51320755 361.979798,9.28490566 376.008081,20.5773585 L356.218182,46.9264151 C345.69697,38.8962264 331.919192,34.8811321 320.39596,34.8811321 C313.131313,34.8811321 311.127273,37.1396226 311.127273,40.4018868 C311.127273,51.945283 379.014141,42.1584906 379.014141,87.5792453 C379.014141,114.430189 358.973737,130.239623 326.157576,130.239623 C300.355556,129.988679 282.569697,122.460377 269.543434,110.666038 L269.543434,110.666038 Z" id="XMLID_65_" stroke="#FFFFFF" stroke-width="2.0756" fill="#FFFFFF" sketch:type="MSShapeGroup"></path>
            <path d="M420.09697,127.981132 L420.09697,37.8924528 L387.531313,37.8924528 L387.531313,6.5245283 L489.236364,6.5245283 L489.236364,37.8924528 L456.670707,37.8924528 L456.670707,127.981132 L420.09697,127.981132 L420.09697,127.981132 Z" id="XMLID_63_" stroke="#FFFFFF" stroke-width="2.0756" fill="#FFFFFF" sketch:type="MSShapeGroup"></path>
            <path d="M104.711111,125.973585 L104.711111,3.51320755 L141.785859,3.51320755 L141.785859,125.973585 L104.711111,125.973585 L104.711111,125.973585 Z" id="XMLID_61_" fill="url(#linearGradient-2)" sketch:type="MSShapeGroup"></path>
            <path d="M219.692929,125.973585 L202.909091,87.3283019 L189.632323,87.3283019 L189.632323,125.973585 L152.557576,125.973585 L152.557576,3.51320755 L217.688889,3.51320755 C246.246465,3.51320755 261.527273,22.5849057 261.527273,45.4207547 C261.527273,66.5 249.252525,77.7924528 239.482828,82.5603774 L261.527273,125.973585 L219.692929,125.973585 L219.692929,125.973585 Z M223.951515,45.4207547 C223.951515,38.8962264 218.189899,35.8849057 211.927273,35.8849057 L189.381818,35.8849057 L189.381818,55.2075472 L211.927273,55.2075472 C218.189899,55.2075472 223.951515,52.1962264 223.951515,45.4207547 L223.951515,45.4207547 Z" id="XMLID_58_" fill="url(#linearGradient-3)" sketch:type="MSShapeGroup"></path>
            <path d="M267.288889,108.658491 L286.577778,81.054717 C295.846465,89.8377358 309.373737,96.8641509 325.907071,96.8641509 C332.921212,96.8641509 339.434343,95.1075472 339.434343,90.3396226 C339.434343,78.545283 271.29697,90.590566 271.29697,42.1584906 C271.29697,21.3301887 288.581818,1.50566038 321.89899,1.50566038 C341.939394,1.50566038 359.725253,7.27735849 373.753535,18.5698113 L353.963636,44.9188679 C343.442424,36.8886792 329.664646,32.8735849 318.141414,32.8735849 C310.876768,32.8735849 308.872727,35.1320755 308.872727,38.3943396 C308.872727,49.9377358 376.759596,40.1509434 376.759596,85.5716981 C376.759596,112.422642 356.719192,128.232075 323.90303,128.232075 C298.10101,128.232075 280.315152,120.45283 267.288889,108.658491 L267.288889,108.658491 Z" id="XMLID_56_" fill="url(#linearGradient-4)" sketch:type="MSShapeGroup"></path>
            <path d="M417.591919,125.973585 L417.591919,35.8849057 L384.775758,35.8849057 L384.775758,3.51320755 L487.232323,3.51320755 L487.232323,35.8849057 L454.666667,35.8849057 L454.666667,125.973585 L417.591919,125.973585 L417.591919,125.973585 Z" id="XMLID_54_" fill="url(#linearGradient-5)" sketch:type="MSShapeGroup"></path>
            <path d="M16.0323232,18.3188679 L4.75959596,29.6113208 L27.3050505,29.6113208 L27.3050505,7.02641509 L16.0323232,18.3188679 Z" id="XMLID_53_" fill="#FFFFFF" sketch:type="MSShapeGroup"></path>
            <path d="M7.51515152,265.749057 L7.51515152,165.120755 L52.3555556,165.120755 C83.9191919,165.120755 107.466667,183.188679 107.466667,215.309434 C107.466667,247.430189 83.9191919,265.749057 52.3555556,265.749057 L7.51515152,265.749057 L7.51515152,265.749057 Z M76.6545455,215.309434 C76.6545455,201.758491 68.8888889,191.720755 52.6060606,191.720755 L38.0767677,191.720755 L38.0767677,239.4 L52.6060606,239.4 C67.6363636,239.149057 76.6545455,227.856604 76.6545455,215.309434 L76.6545455,215.309434 Z" id="XMLID_49_" stroke="#CCCCCC" stroke-width="1.7083" fill="#CCCCCC" sketch:type="MSShapeGroup"></path>
            <path d="M171.59596,265.749057 L157.818182,234.130189 L146.79596,234.130189 L146.79596,265.749057 L116.234343,265.749057 L116.234343,165.120755 L169.842424,165.120755 C193.389899,165.120755 205.915152,180.930189 205.915152,199.750943 C205.915152,217.066038 195.894949,226.350943 187.878788,230.366038 L206.165657,266 L171.59596,266 L171.59596,265.749057 Z M175.10303,199.5 C175.10303,193.979245 170.343434,191.720755 165.082828,191.720755 L146.545455,191.720755 L146.545455,207.530189 L165.082828,207.530189 C170.343434,207.279245 175.10303,205.020755 175.10303,199.5 L175.10303,199.5 Z" id="XMLID_46_" stroke="#CCCCCC" stroke-width="1.7083" fill="#CCCCCC" sketch:type="MSShapeGroup"></path>
            <path d="M287.329293,265.749057 L283.822222,253.954717 L247.749495,253.954717 L244.242424,265.749057 L209.672727,265.749057 L246.747475,165.120755 L285.074747,165.120755 L322.149495,265.749057 L287.329293,265.749057 L287.329293,265.749057 Z M265.535354,194.983019 L255.515152,227.354717 L275.305051,227.354717 L265.535354,194.983019 L265.535354,194.983019 Z" id="XMLID_43_" stroke="#CCCCCC" stroke-width="1.7083" fill="#CCCCCC" sketch:type="MSShapeGroup"></path>
            <path d="M2.75555556,260.981132 L2.75555556,160.854717 L47.3454545,160.854717 C78.9090909,160.854717 102.456566,178.420755 102.456566,210.541509 C102.456566,242.662264 78.9090909,260.981132 47.3454545,260.981132 L2.75555556,260.981132 L2.75555556,260.981132 Z M71.6444444,210.541509 C71.6444444,196.990566 63.8787879,186.95283 47.5959596,186.95283 L33.0666667,186.95283 L33.0666667,234.632075 L47.5959596,234.632075 C62.6262626,234.381132 71.6444444,223.088679 71.6444444,210.541509 L71.6444444,210.541509 Z" id="XMLID_40_" stroke="#FFFFFF" stroke-width="1.7083" fill="#FFFFFF" sketch:type="MSShapeGroup"></path>
            <path d="M166.585859,260.981132 L152.808081,229.362264 L141.785859,229.362264 L141.785859,260.981132 L111.725253,260.981132 L111.725253,160.854717 L165.082828,160.854717 C188.630303,160.854717 201.155556,175.911321 201.155556,194.732075 C201.155556,212.04717 191.135354,221.332075 183.119192,225.34717 L201.406061,260.981132 L166.585859,260.981132 L166.585859,260.981132 Z M170.092929,194.732075 C170.092929,189.211321 165.333333,186.95283 160.072727,186.95283 L141.535354,186.95283 L141.535354,202.762264 L160.072727,202.762264 C165.333333,202.762264 170.092929,200.25283 170.092929,194.732075 L170.092929,194.732075 Z" id="XMLID_37_" stroke="#FFFFFF" stroke-width="1.7083" fill="#FFFFFF" sketch:type="MSShapeGroup"></path>
            <path d="M0.751515152,259.475472 L0.751515152,158.84717 L45.5919192,158.84717 C77.1555556,158.84717 100.70303,176.915094 100.70303,209.035849 C100.70303,241.156604 77.1555556,259.475472 45.5919192,259.475472 L0.751515152,259.475472 L0.751515152,259.475472 Z M69.8909091,209.035849 C69.8909091,195.484906 62.1252525,185.44717 45.8424242,185.44717 L31.3131313,185.44717 L31.3131313,233.126415 L45.8424242,233.126415 C60.8727273,232.875472 69.8909091,221.583019 69.8909091,209.035849 L69.8909091,209.035849 Z" id="XMLID_34_" fill="url(#linearGradient-6)" sketch:type="MSShapeGroup"></path>
            <path d="M164.832323,259.475472 L151.054545,227.856604 L140.032323,227.856604 L140.032323,259.475472 L109.470707,259.475472 L109.470707,158.84717 L163.078788,158.84717 C186.626263,158.84717 199.151515,174.656604 199.151515,193.477358 C199.151515,210.792453 189.131313,220.077358 181.115152,224.092453 L199.40202,259.726415 L164.832323,259.726415 L164.832323,259.475472 Z M168.339394,193.226415 C168.339394,187.70566 163.579798,185.44717 158.319192,185.44717 L139.781818,185.44717 L139.781818,201.256604 L158.319192,201.256604 C163.579798,201.00566 168.339394,198.74717 168.339394,193.226415 L168.339394,193.226415 Z" id="XMLID_31_" fill="url(#linearGradient-7)" sketch:type="MSShapeGroup"></path>
            <path d="M325.907071,265.749057 L325.907071,165.120755 L402.060606,165.120755 L402.060606,191.720755 L356.218182,191.720755 L356.218182,201.758491 L401.058586,201.758491 L401.058586,228.358491 L356.218182,228.358491 L356.218182,266 L325.907071,266 L325.907071,265.749057 Z" id="XMLID_29_" stroke="#CCCCCC" stroke-width="1.7083" fill="#CCCCCC" sketch:type="MSShapeGroup"></path>
            <path d="M438.133333,265.749057 L438.133333,191.720755 L411.078788,191.720755 L411.078788,165.120755 L495.248485,165.120755 L495.248485,191.720755 L468.444444,191.720755 L468.444444,265.749057 L438.133333,265.749057 L438.133333,265.749057 Z" id="XMLID_27_" stroke="#CCCCCC" stroke-width="1.7083" fill="#CCCCCC" sketch:type="MSShapeGroup"></path>
            <path d="M282.319192,260.981132 L278.812121,249.186792 L242.739394,249.186792 L239.232323,260.981132 L204.662626,260.981132 L241.737374,160.854717 L280.064646,160.854717 L317.139394,260.981132 L282.319192,260.981132 L282.319192,260.981132 Z M260.525253,190.215094 L250.505051,222.586792 L270.294949,222.586792 L260.525253,190.215094 L260.525253,190.215094 Z" id="XMLID_24_" stroke="#FFFFFF" stroke-width="1.7083" fill="#FFFFFF" sketch:type="MSShapeGroup"></path>
            <path d="M321.39798,260.981132 L321.39798,160.854717 L397.30101,160.854717 L397.30101,186.701887 L351.458586,186.701887 L351.458586,196.739623 L396.29899,196.739623 L396.29899,223.339623 L351.458586,223.339623 L351.458586,260.981132 L321.39798,260.981132 L321.39798,260.981132 Z" id="XMLID_22_" stroke="#FFFFFF" stroke-width="1.7083" fill="#FFFFFF" sketch:type="MSShapeGroup"></path>
            <path d="M433.123232,260.981132 L433.123232,186.95283 L406.569697,186.95283 L406.569697,161.10566 L490.488889,161.10566 L490.488889,186.95283 L463.684848,186.95283 L463.684848,260.981132 L433.123232,260.981132 L433.123232,260.981132 Z" id="XMLID_18_" stroke="#FFFFFF" stroke-width="1.7083" fill="#FFFFFF" sketch:type="MSShapeGroup"></path>
            <path d="M280.565657,259.475472 L277.058586,247.681132 L240.985859,247.681132 L237.478788,259.475472 L202.909091,259.475472 L239.983838,158.84717 L278.060606,158.84717 L315.135354,259.475472 L280.565657,259.475472 L280.565657,259.475472 Z M258.771717,188.458491 L248.751515,220.830189 L268.541414,220.830189 L258.771717,188.458491 L258.771717,188.458491 Z" id="XMLID_13_" fill="url(#linearGradient-8)" sketch:type="MSShapeGroup"></path>
            <path d="M319.143434,259.475472 L319.143434,158.84717 L395.29697,158.84717 L395.29697,185.44717 L349.454545,185.44717 L349.454545,195.484906 L394.294949,195.484906 L394.294949,222.084906 L349.454545,222.084906 L349.454545,259.726415 L319.143434,259.726415 L319.143434,259.475472 Z" id="XMLID_9_" fill="url(#linearGradient-9)" sketch:type="MSShapeGroup"></path>
            <path d="M431.369697,259.475472 L431.369697,185.44717 L404.315152,185.44717 L404.315152,158.84717 L488.484848,158.84717 L488.484848,185.44717 L461.680808,185.44717 L461.680808,259.475472 L431.369697,259.475472 L431.369697,259.475472 Z" id="XMLID_5_" fill="url(#linearGradient-10)" sketch:type="MSShapeGroup"></path>
        </g>
    </g>
</svg>