<svg width="111" height="108" viewBox="0 0 111 108" xmlns="http://www.w3.org/2000/svg"><title>Imported Layers</title><path d="M55.092 0C24.672 0 0 24.752 0 55.287c0 24.423 15.785 45.146 37.68 52.457 2.756.51 3.76-1.198 3.76-2.664 0-1.314-.047-4.79-.074-9.405-15.325 3.343-18.56-7.41-18.56-7.41-2.505-6.386-6.117-8.087-6.117-8.087-5.004-3.43.377-3.36.377-3.36 5.53.39 8.44 5.7 8.44 5.7 4.917 8.446 12.896 6.006 16.035 4.59.5-3.573 1.925-6.006 3.497-7.39C32.804 78.32 19.94 73.58 19.94 52.395c0-6.038 2.148-10.973 5.673-14.84-.565-1.397-2.456-7.017.54-14.63 0 0 4.628-1.486 15.15 5.668 4.397-1.225 9.11-1.84 13.794-1.86 4.68.02 9.39.635 13.795 1.86C79.41 21.44 84.03 22.926 84.03 22.926c3.005 7.613 1.114 13.233.55 14.63 3.53 3.867 5.66 8.802 5.66 14.84 0 21.236-12.88 25.91-25.153 27.28 1.978 1.707 3.737 5.08 3.737 10.236 0 7.392-.064 13.355-.064 15.168 0 1.48.99 3.197 3.788 2.657 21.874-7.324 37.646-28.03 37.646-52.45C110.194 24.752 85.524 0 55.092 0" fill="#FFF" fill-rule="evenodd"/></svg>