<svg width="184" height="98" viewBox="0 0 184 98" xmlns="http://www.w3.org/2000/svg"><title>Imported Layers</title><g fill-rule="evenodd"><path d="M22.99 89.756h14C35.016 55.466 21.466 24.286.175.06c14.657 23.083 23.15 50.463 23.15 79.836 0 3.316-.12 6.6-.334 9.86"/><path d="M70.318 33.858s-4.396 6.077-16.81 6.983c-12.41.906-15.514 12.414-16.422 16.035-.902 3.62-4.472 4.575-4.472 4.575l.335 1.34s4.025-1.377 5.3-3.976c1.277-2.606 5.173 1.644 13.575-2.606 8.406-4.25 17.328-11.617 18.492-22.35"/><path d="M32.95 62.79s4.914 4.554 8.018 5.463c3.103.905 31.03 1.16 38.784 29.347 0 .65-2.064-3.488-16.934-5.558-14.87-2.065-21.85-8.793-23.79-22.24 0 0-2.517-3.803-5.33-3.803-.75.75-.75-3.21-.75-3.21m50.605-24.107h6.412V91.04h-6.412V38.682zm39.304 52.357h-6.865l-19.31-52.357h6.94l15.763 44.438 15.846-44.436h6.867l-19.24 52.356m60.89 0h-6.413V71.573h-24.138V91.04h-6.414V55.884c0-10.413 7.843-18.486 18.48-18.486 10.713 0 18.486 8.072 18.486 18.485V91.04zm-6.413-35.155c0-6.79-4.977-12.374-12.07-12.374-6.87 0-12.068 5.585-12.068 12.376v9.507h24.138v-9.507z"/></g></svg>