<?xml version="1.0" encoding="UTF-8" standalone="no"?>
<svg width="253px" height="80px" viewBox="0 0 253 80" version="1.1" xmlns="http://www.w3.org/2000/svg" xmlns:xlink="http://www.w3.org/1999/xlink" xmlns:sketch="http://www.bohemiancoding.com/sketch/ns">
    <!-- Generator: Sketch 3.3.3 (12081) - http://www.bohemiancoding.com/sketch -->
    <title>Slice 1</title>
    <desc>Created with Sketch.</desc>
    <defs></defs>
    <g id="Page-1" stroke="none" stroke-width="1" fill="none" fill-rule="evenodd" sketch:type="MSPage">
        <g id="Meedan-logo-text" sketch:type="MSLayerGroup">
            <g id="Group" transform="translate(126.000000, 30.000000)" fill="#7F7F7F" sketch:type="MSShapeGroup">
                <path d="M0.922,0.861 L3.011,0.861 L9.67,10.837 L16.329,0.861 L18.419,0.861 L18.419,19.141 L16.356,19.141 L16.356,4.334 L9.696,14.127 L9.592,14.127 L2.933,4.361 L2.933,19.142 L0.922,19.142 L0.922,0.861" id="Fill-12"></path>
                <path d="M26.672,0.861 L39.886,0.861 L39.886,2.742 L28.735,2.742 L28.735,8.983 L38.711,8.983 L38.711,10.863 L28.735,10.863 L28.735,17.261 L40.017,17.261 L40.017,19.142 L26.672,19.142 L26.672,0.861" id="Fill-13"></path>
                <path d="M46.782,0.861 L59.996,0.861 L59.996,2.742 L48.845,2.742 L48.845,8.983 L58.821,8.983 L58.821,10.863 L48.845,10.863 L48.845,17.261 L60.126,17.261 L60.126,19.142 L46.782,19.142 L46.782,0.861" id="Fill-14"></path>
                <path d="M66.894,0.861 L73.24,0.861 C78.985,0.861 82.954,4.804 82.954,9.949 L82.954,10.001 C82.954,15.146 78.985,19.141 73.24,19.141 L66.894,19.141 L66.894,0.861 L66.894,0.861 Z M73.24,17.235 C77.862,17.235 80.813,14.101 80.813,10.053 L80.813,10.001 C80.813,5.954 77.862,2.767 73.24,2.767 L68.957,2.767 L68.957,17.235 L73.24,17.235 L73.24,17.235 Z" id="Fill-15"></path>
                <path d="M94.444,0.731 L96.377,0.731 L104.707,19.142 L102.487,19.142 L100.346,14.311 L90.396,14.311 L88.229,19.142 L86.113,19.142 L94.444,0.731 L94.444,0.731 Z M99.536,12.456 L95.383,3.133 L91.205,12.456 L99.536,12.456 L99.536,12.456 Z" id="Fill-16"></path>
                <path d="M111.028,0.861 L112.961,0.861 L124.478,15.512 L124.478,0.861 L126.488,0.861 L126.488,19.141 L124.843,19.141 L113.039,4.151 L113.039,19.141 L111.028,19.141 L111.028,0.861" id="Fill-17"></path>
            </g>
            <g id="Page-1" sketch:type="MSShapeGroup">
                <g id="Imported-Layers">
                    <path d="M51.705,27.032 L33.957,39.863 L51.705,52.693 L69.453,39.863 L51.705,27.032" id="Fill-1" fill="#91A000"></path>
                    <path d="M17.505,2.307 C19.988,4.208 21.591,7.201 21.591,10.569 L21.591,30.924 L33.956,39.863 L51.704,27.032 L17.505,2.307" id="Fill-2" fill="#9DC538"></path>
                    <path d="M17.505,77.417 C19.988,75.516 21.591,72.523 21.591,69.155 L21.591,48.8 L33.956,39.863 L51.704,52.692 L17.505,77.417" id="Fill-3" fill="#FBD202"></path>
                    <path d="M17.505,2.307 L16.995,1.94 C15.338,0.823 13.342,0.171 11.192,0.171 C5.45,0.171 0.794,4.827 0.794,10.569 C0.794,14.052 2.508,17.132 5.137,19.02 L5.137,19.028 L21.591,30.925 L21.591,10.569 C21.591,7.201 19.988,4.208 17.505,2.307" id="Fill-4" fill="#843F18"></path>
                    <path d="M21.591,69.155 L21.591,48.801 L5.137,60.696 L5.137,60.706 C2.509,62.592 0.795,65.674 0.795,69.156 C0.795,74.898 5.45,79.554 11.193,79.554 C13.342,79.554 15.338,78.902 16.996,77.785 L17.505,77.417 C19.989,75.516 21.591,72.523 21.591,69.155" id="Fill-5" fill="#EB4918"></path>
                    <path d="M5.137,19.02 C2.508,17.133 0.794,14.051 0.794,10.569 L0.794,69.139 C0.794,65.657 2.508,62.577 5.137,60.688 L21.591,48.785 L21.591,30.923 L5.137,19.02" id="Fill-6" fill="#F17522"></path>
                    <path d="M85.904,2.307 C83.421,4.208 81.818,7.201 81.818,10.569 L81.818,30.924 L69.453,39.863 L51.705,27.032 L85.904,2.307" id="Fill-7" fill="#FBD202"></path>
                    <path d="M85.904,77.417 C83.421,75.516 81.818,72.523 81.818,69.155 L81.818,48.8 L69.453,39.863 L51.705,52.693 L85.904,77.417" id="Fill-8" fill="#9DC538"></path>
                    <path d="M81.819,10.569 L81.819,30.923 L98.273,19.028 L98.273,19.018 C100.901,17.133 102.615,14.05 102.615,10.568 C102.615,4.826 97.96,0.17 92.217,0.17 C90.068,0.17 88.072,0.822 86.414,1.939 L85.905,2.307 C83.421,4.208 81.819,7.201 81.819,10.569" id="Fill-9" fill="#00A013"></path>
                    <path d="M85.904,77.417 L86.414,77.785 C88.071,78.901 90.067,79.553 92.217,79.553 C97.959,79.553 102.615,74.897 102.615,69.155 C102.615,65.672 100.901,62.593 98.272,60.705 L98.272,60.696 L81.818,48.8 L81.818,69.155 C81.818,72.523 83.421,75.516 85.904,77.417" id="Fill-10" fill="#01722F"></path>
                    <path d="M98.272,19.02 C100.901,17.133 102.615,14.051 102.615,10.569 L102.615,69.139 C102.615,65.657 100.901,62.577 98.272,60.688 L81.818,48.785 L81.818,30.923 L98.272,19.02" id="Fill-11" fill="#37A0DE"></path>
                </g>
            </g>
        </g>
    </g>
</svg>