<svg width="253" height="80" viewBox="0 0 253 80" xmlns="http://www.w3.org/2000/svg"><title>Slice 1</title><g fill="none" fill-rule="evenodd"><path d="M126.922 30.86h2.09l6.658 9.977 6.66-9.976h2.09v18.28h-2.064V34.337l-6.66 9.793h-.104l-6.66-9.767v14.782h-2.01v-18.28m25.75-.004h13.214v1.883h-11.15v6.24h9.975v1.88h-9.973v6.4h11.282v1.88h-13.346v-18.28m20.11-.002h13.213v1.883h-11.15v6.24h9.975v1.88h-9.974v6.4h11.28v1.88h-13.343v-18.28m20.11-.002h6.347c5.745 0 9.714 3.945 9.714 9.09V40c0 5.146-3.97 9.14-9.714 9.14h-6.346V30.86zm6.347 16.376c4.622 0 7.573-3.134 7.573-7.182V40c0-4.046-2.95-7.233-7.573-7.233h-4.283v14.468h4.282zm21.204-16.505h1.933l8.33 18.413h-2.22l-2.14-4.83h-9.95l-2.17 4.83h-2.117l8.33-18.41zm5.092 11.727l-4.153-9.323-4.178 9.323h8.33zM237.03 30.86h1.933l11.52 14.653v-14.65h2.01v18.28h-1.646L239.04 34.15v14.99h-2.012V30.86" fill="#7F7F7F"/><path d="M51.705 27.032l-17.748 12.83 17.748 12.83 17.748-12.83-17.748-12.83" fill="#91A000"/><path d="M17.505 2.307a10.383 10.383 0 0 1 4.086 8.262V30.92l12.368 8.94L51.704 27.03l-34.2-24.725" fill="#9DC538"/><path d="M17.505 77.417a10.383 10.383 0 0 0 4.086-8.262V48.8l12.368-8.937 17.748 12.83-34.2 24.724" fill="#FBD202"/><path d="M17.505 2.307l-.51-.367A10.345 10.345 0 0 0 11.192.17C5.45.17.794 4.828.794 10.57c0 3.482 1.714 6.562 4.343 8.45v.008L21.59 30.925V10.57a10.38 10.38 0 0 0-4.085-8.263" fill="#843F18"/><path d="M21.59 69.155V48.8L5.138 60.697v.01a10.382 10.382 0 0 0-4.342 8.45c0 5.742 4.655 10.398 10.398 10.398 2.15 0 4.145-.652 5.803-1.77l.51-.367a10.38 10.38 0 0 0 4.085-8.262" fill="#EB4918"/><path d="M5.137 19.02a10.384 10.384 0 0 1-4.343-8.45v58.57c0-3.483 1.714-6.563 4.343-8.452L21.59 48.785V30.923L5.138 19.02" fill="#F17522"/><path d="M85.904 2.307a10.383 10.383 0 0 0-4.086 8.262V30.92l-12.365 8.94L51.705 27.03l34.2-24.725" fill="#FBD202"/><path d="M85.904 77.417a10.383 10.383 0 0 1-4.086-8.262V48.8l-12.365-8.937-17.748 12.83 34.2 24.724" fill="#9DC538"/><path d="M81.82 10.57v20.353l16.453-11.895v-.01a10.38 10.38 0 0 0 4.342-8.45C102.615 4.826 97.96.17 92.217.17c-2.15 0-4.145.652-5.803 1.77l-.51.367a10.38 10.38 0 0 0-4.085 8.262" fill="#00A013"/><path d="M85.904 77.417l.51.368a10.352 10.352 0 0 0 5.803 1.768c5.742 0 10.398-4.656 10.398-10.398 0-3.483-1.714-6.562-4.343-8.45v-.01L81.818 48.8v20.355c0 3.368 1.603 6.36 4.086 8.262" fill="#01722F"/><path d="M98.272 19.02a10.384 10.384 0 0 0 4.343-8.45v58.57c0-3.483-1.714-6.563-4.343-8.452L81.818 48.785V30.923L98.272 19.02" fill="#37A0DE"/></g></svg>