<svg width="615" height="102" xmlns="http://www.w3.org/2000/svg"><title>Layer 1</title><path d="M441.004 1.256h-20.9v98.6h60.8v-19.3h-39.9v-79.3zm80.6 56.5l-12.1 1.1c-11.8 1.1-24.9 3.7-24.9 21.4 0 9.9 5.6 20.9 22.2 20.9 7.8 0 14.5-2.7 19.3-6.7l2.9 5.1h12.7v-42.6c0-14.7-4.6-24.9-28.1-24.9-9.4 0-19.3 2.4-23.6 4.3v17.7c5.9-2.4 15.3-5.1 23.6-5.1 5.6 0 7.8 1.6 7.8 4.6l.2 4.2zm0 11.5v14.5c-2.1 2.1-5.6 3.2-9.4 3.2-4.6 0-7.5-2.9-7.5-7.8 0-5.1 2.4-8 8.3-8.8l8.6-1.1zm41.2 30.3l3.5-5.4c4.6 4 10.7 7 21.2 7 17.1 0 25.4-10.4 25.4-34.6s-8.3-34.6-25.4-34.6c-7.2 0-12.6 1.9-16.3 4.3v-35.1h-20.9v98.6l12.5-.2zm8.6-47.7s4-2.7 9.4-2.7c9.6 0 11.8 6.4 11.8 17.7 0 11.2-2.1 17.7-11.8 17.7-5.4 0-9.4-2.7-9.4-2.7v-30z"/><path fill="#A51C30" d="M73.804 99.556V.956h-20.6l.5 58.9-31.9-58.9h-20.6v98.6h20.6l-.5-58.9 31.9 58.9h20.6zm8.8-84.6c0 7 5.4 12.6 12.6 12.6 7 0 12.6-5.4 12.6-12.6 0-7-5.6-12.6-12.6-12.6-7.2 0-12.6 5.6-12.6 12.6zm22.8 84.6v-65.6h-20.6v65.6h20.6zm67.7-25.7c1.6-20.6-.3-41.5-28.4-41.5-20.4 0-30.8 11-30.8 34.6s10.4 34.6 32.1 34.6c7.8 0 17.1-1.3 24.6-4.6v-16.4c-4.8 2.4-12.1 4.3-22 4.3-10.2 0-14.7-2.4-14.2-11h38.7zm-28.1-26c8 0 9.6 5.9 8.3 13.1h-18.7c.2-8.3 3.5-13.1 10.4-13.1zm131 51.7v-45.5c0-11.8-4.8-22-22-22-7.8 0-16.6 1.9-21.2 5.4-2.1-2.9-6.4-5.4-15.3-5.4-6.7 0-15.8 2.4-20.6 6.4l-2.7-4.8h-12.5v65.6h20.9v-46.6c1.3-1.3 5.4-3.5 9.6-3.5 4 0 5.9 1.9 5.9 5.4v45.3h20.9v-47.1c1.3-1.3 5.4-3.5 9.6-3.5 4 0 5.9 1.9 5.9 5.4v45.3h21.4v-.4h.1zm43.4-41.8l-12.1 1.1c-11.8 1.1-24.9 3.7-24.9 21.4 0 9.9 5.6 20.9 22.2 20.9 7.8 0 14.5-2.7 19.3-6.7l2.9 5.1h12.6v-42.6c0-14.7-4.6-24.9-28.1-24.9-9.4 0-19.3 2.4-23.6 4.3v17.7c5.9-2.4 15.3-5.1 23.6-5.1 5.6 0 7.8 1.6 7.8 4.6l.3 4.2zm0 11.5v14.5c-2.1 2.1-5.6 3.2-9.4 3.2-4.6 0-7.5-2.9-7.5-7.8 0-5.1 2.4-8 8.3-8.8l8.6-1.1zm30-35.3v65.6h20.9v-46.9c1.9-1.3 6.7-3.5 11.8-3.5 5.6 0 7.2 3.2 7.2 8v42.4h20.9v-45.5c0-12.6-5.1-22-23-22-7.2 0-15.5 2.1-22.8 6.4l-2.7-4.8-12.3.3z"/></svg>