<svg width="175" height="64" viewBox="0 0 175 64" xmlns="http://www.w3.org/2000/svg"><title>Imported Layers</title><path d="M28.472 1.79l16.4 16.4-3.258 3.14L24.75 4.466v-.233l-.232-.348v-.233l-.116-.116V2.49l.116-.117V2.14l.465-.35v-.23l.35-.348h.232L25.68.98h1.398l.35.232h.23l.35.348h.233l.233.233zm9.653.118L49.522 13.42l-3.256 3.258L34.87 5.28v-.232l-.583-.582v-.35l-.232-.23V2.488l.348-.35v-.232l.582-.582h.233l.232-.116h1.28l.232.116h.35l.464.465h.117l.232.117zM21.03 3.885L40.1 22.84l-3.14 3.374L17.424 6.56l-.233-.35v-.348l-.23-.233V4.7l.23-.234v-.233l.235-.116v-.232l.58-.582h.118l.232-.232H20.1l.348.467h.232l.35.35zm-1.86 7.56l16.28 16.28-3.373 3.14L15.68 14.353v-.233l-.466-.35v-.233l-.116-.116v-1.16l.116-.465v-.35l.466-.348h.116l.465-.465h.35l.233-.116h.698l.234.116h.232l.35.233h.232l.582.58zM1.724 36.1l16.28-16.515 3.258 3.256-16.515 16.4-.58.58H4.05l-.233.118h-.35l-.232.233h-.93l-.233-.232H1.84l-.116-.116H1.49l-.348-.464v-.116L.91 39.01v-.234l-.234-.116v-1.046l.232-.117v-.58l.348-.467v-.116h.233l.233-.232zm0-9.77L13.12 14.934l3.257 3.14-12.21 12.212h-.583l-.116.232H2.42l-.115-.232h-.233l-.232-.233h-.116l-.582-.582v-.347L.91 28.89v-1.164l.232-.35v-.232l.35-.348v-.233l.232-.232zm1.86 16.98l19.073-18.84 3.257 3.023-19.54 19.655h-.23l-.35.233H5.33l-.117.118h-.466l-.116-.116h-.58l-.465-.465H3.47l-.234-.116v-.232l-.232-.233-.116-.35V44.59l.116-.117v-.233l.232-.232v-.116l.233-.233v-.235l.115-.116zm7.56 2.094l16.282-16.282 3.14 3.256L14.284 48.66l-.35.232-.464.35h-.117l-.232.232h-1.16l-.233-.233h-.35l-.23-.114h-.118v-.233l-.58-.58v-.35l-.235-.465v-.35l.233-.232v-.58l.117-.117v-.234l.58-.58zM35.8 62.848l-16.516-16.28 3.373-3.258 16.63 16.63v.234l.35.35v.23l.233.35v1.163l-.233.232v.347l-.697.814h-.466l-.116.118h-1.163l-.233-.118h-.35l-.813-.814zm-9.653 0L14.633 51.45l3.372-3.372 11.98 12.096v.116l.232.465v1.512l-.233.232v.115l-.814.814h-.116l-.233.23h-1.393l-.117-.23h-.233l-.35-.233-.464-.35h-.116zm16.98-1.977l-18.96-18.954 3.257-3.257 19.19 19.19v.115l.464.465v.348l.117.232v1.28l-.117.233v.232l-.814.698h-.348l-.233.232H44.52l-.233-.232h-.35l-.35-.35h-.23l-.234-.232zm1.976-7.557L29.053 37.03l3.024-3.024 16.283 16.05.465.348v.466l.35.348v1.513l-.234.234v.35l-.347.464h-.232l-.116.116h-.232l-.232.233h-.116l-.233.232h-.35l-.464-.233h-.35l-.23-.233h-.117l-.467-.116-.35-.465zM62.78 28.656L46.267 45.17l-3.14-3.255L59.99 25.05l.465-.232h.116l.234-.232h1.164l.232.232h.116l.232.233h.233l.583.584v.116l.116.232v1.395l-.117.35v.23l-.233.118v.232l-.35.35zm-.232 9.77L51.15 49.822l-3.372-3.256L59.64 34.704h.35l.232-.116h.233l.116-.233h1.398l.232.233h.116l.813.697v.233l.23.233v1.514l-.232.35-.233.23v.233h-.116v.117l-.233.232zM60.57 21.33L41.615 40.403 38.36 37.03l19.19-19.19h.115l.232-.232.35-.116h.23l.234-.233h1.28l.233.23.35.117.58.58v.234l.233.234v1.512l-.233.348v.233l-.58.582zm-7.558-1.978l-16.05 16.4-3.256-3.374 16.63-16.63h.233l.347-.466h1.745l.232.233h.117l.58.58v.234l.235.114v.233l.232.232v.93l-.232.232v.116l-.233.232v.35l-.58.58zM163.96 48.078l-.58.582-.815.465-.697.698-.582.233-.58.348-.467.466-.583.116-.582.465-1.162.35h-.35l-.232.233h-1.86l-.233-.233h-.232l-.698-.35-.232-.232-.35-.232-.232-.35-.232-.232-.58-1.163v-.696l-.117-.465v-.698l.116-.465v-.697l.232-.466v-.116l.232-.232v-.233l.35-.697.348-.233.233-.348.232-.233.116-.35.466-.233.347-.58.815-.35.58-.58.583-.467.698-.35.58-.347.815-.233.58-.35.582-.23 3.49-1.397v9.885zm8.956 1.047v.35l-.58 1.162v.233l-.815.698h-.23l-.117.23h-.233l-.35.234h-.58l-.467-.233h-.116l-.582-.583-.232-.348v-.234l-.232-.35v-14.77l-.115-.58v-1.512l-.232-.233v-.35l-.233-.463v-.35l-.583-1.162-.116-.232-.463-.698-.116-.233h-.232l-.58-.58-.583-.467-.814-.35-.58-.348-.58-.232h-.584l-.697-.233-.583-.116h-4.652l-.58.116h-.582l-.582.233h-.58l-.815.35h-.232l-.35.23-.348.234-.582.115-.232.233-1.162.58-.233.466-.35.116-.348.465-.233.35-.348.348v.232l-.233.35-.233.232-.117.348v1.395l.116.233v.116h.23v.232h.234l.116.35h.466l.35.232h.58l.233-.233h.58v-.115h.116l.582-.582.23-.465.234-.115v-.233l.116-.35v-.232l.233-.58v-.583l.233-.232v-.35l.117-.23v-.118l1.046-1.047.35-.116h.232l.698-.465h.465l.35-.234h3.14l.348.233h.35l.465.232h.116l.465.232h.116l.467.116 1.28 1.396v.35l.232.23v.234l.23.35v.23l.117.583v1.28l.233.58v1.977l-4.884 1.978-2.325 1.163-.696.117-.58.466-.583.117-1.162.813-1.163.582-.465.348-.583.233-.35.35-.348.23-.816.816-.35.115-.232.465-.348.116-.466.814-.117.232-.232.35-.232.232-.116.35v.347l-.233.234v.35l-.233.58v1.745l.232.464v.116l.232.466v.116l.116.232.232.35v.23l.93.933.815.465.35.35.58.232 1.165.35h.58l.465.23h1.28l1.163-.464h.814l.58-.116.583-.465.814-.118.58-.232.582-.35.697-.464 1.744-1.164.814-.35 1.164-.813v.58l.233.466v.348l.117.35.233.23.348.816.234.117v.233l.232.232h.116l.58.582h.234l.58.116.35.233h.815l.35.232h1.045l.35-.232h.232l.58-.233h.116l.466-.116h.116l.233-.233.35-.23.465-.35.35-.23.23-.12v-.232l.35-.348v-.464l.233-.117.116-.465.232-.582v-.348l.232-.582v-.35h-1.164zm-34.773-.814l-.117.35-.814.815-.232.35-.35.232-.93.93-.465.232-.116.232-.816.118-.233.23-.35.234-.23.117h-.35l-.232.23h-.117l-.58.235h-.465l-.58.117h-2.328l-.58-.116-.35-.233h-.232l-1.512-.812-.233-.116-.348-.232-1.395-1.395-.35-.698-.348-.583-.235-.465-.35-1.163-.464-.58v-.7l-.115-.58-.233-.816v-.814l-.232-.698v-3.72l.233-.815v-.93l.233-.35v-.58l.116-.466.233-.58v-.58l.232-.35.117-.583.465-.348.114-.583.233-.465.35-.35.464-.58.7-.814h.23l.35-.35 1.163-.58h.233l.58-.234.35-.116h1.047l.698-.232.815.232h.93l.465.116 2.328.815.58.35.582.23.35.35.348.23.582.35.58.58.583.467V48.31zm0-17.21l-1.163-1.163-.582-.233-.35-.35-.58-.23-.582-.467-.58-.116-.583-.464h-.35l-.23-.117h-.35l-.465-.233-.582-.233h-.58l-.7-.116h-3.14l-1.162.35h-.582l-.58.348-.583.232-1.165.35-.35.465-.58.348-.465.467-.58.35-1.745 1.743-.117.58-.465.35-.698 1.162v.466l-.232.116-.233.58-.116.816-.233.58-.23.815-.117.58v.35l-.232.35v4.535l.35 1.512.23.582.235.814.116.58.466.583.117.583.465.58.116.583.465.582.35.35.347.58.814.814.583.35.35.35.58.464.465.35.582.23.348.35.58.233 1.164.35.35.23h.58l.582.117h1.163l.465.232.582-.233h1.744l.35-.117h.348l1.163-.58h.463l.35-.234.58-.35.815-.463.58-.35.582-.23.698-.7 1.046-.813.582-.58v2.906l.116.58v.815l.233.35.58-.232h.583l1.977-.35h1.163l1.163-.232h1.28l1.163-.116v-1.4h-2.093l-.35-.23h-.465l-.697-.7v-.232l-.233-.232-.232-.582V49.24l-.116-.93V11.096h-.583v.117l-1.745.464-1.047.117h-.698l-.815.232-.93.233h-1.047l-.93.115h-.93v1.396h1.28l.58.234h.582l.465.116h.117l.232.232h.232v.232l.116.116h.233v.466l.234.35v.23l.117.583V31.1zm-26.168-3.722h-.93l-.465.116h-.35l-.93.465-.814.116-1.744.232-1.512.233-1.163.35h-1.396v1.396h1.514l.582.232h.58l.466.117h.35l.233.232h.116v.233l.465.347v.233l.117.117v.232l.233.58v.814l.233.697v14.77l-.233.583v.93l-.232.233v.233l-.116.115v.232l-.232.233v.118h-.233l-.35.464h-.35l-.23.117h-2.91v1.393h13.61V52.15h-2.327l-.233-.118h-.35l-.232-.233h-.232l-.35-.35v-.233l-.232-.232v-.116l-.116-.234v-.35l-.233-.58v-22.33zm-38.03 25.818h1.628l.35-1.627.232-.583.116-.35v-.232l.467-.348.117-.35v-.465l.232-.115 1.745 1.745.58.348.584.58.58.35.815.466.93.35 1.163.58.58.233.35.115h.582l.58.233h.583l.58.232h4.072l.58-.232.814-.233h.582l.582-.116.813-.234.584-.35.58-.23.35-.233.582-.35.58-.23.35-.35.582-.35 1.162-1.162.465-.58.35-.466.23-.58.35-.35.35-1.162.465-.58.116-.583v-.58l.465-1.166v-4.07l-.463-1.163v-.58l-.116-.58-.465-.583-.116-.582-.234-.348-.35-.58-.23-.467-1.978-1.86-.582-.466-.35-.35-1.162-.813-.58-.116-1.164-.814-1.164-.58-1.396-.583-2.907-1.396-1.86-.813-.815-.58-.93-.35-.815-.35-.93-.58-1.163-.582-.233-.464-.35-.115-.463-.466-.35-.117-.232-.465-.582-.582-1.163-2.325v-.347l-.116-.35v-1.976l.118-.348v-.234l.233-.582v-.233l.234-.35.348-.347v-.465l.35-.35.233-.348.35-.232.58-.582.465-.233.117-.116.814-.464h.35l.464-.116h.35l.232-.233h.93l.582-.233h.93l.465.234h.93l.35.233h.465l.35.116.58.232h.35l.464.233.35.35 1.163.582.35.348.464.233.697.815.233.35.813.813.118.35.466.348.116.58.464.467.35 1.163.232.35.35.58.23.582.118.813.232.583h1.163v-11.05h-1.163l-.232.7-.117.465v.348l-.232.233v.35l-.35.35-.232.463v.116l-.58.58-1.745-1.744-.583-.35-.35-.23-1.162-.7-.814-.232-.58-.35-.815-.23-.348-.233h-.35l-1.046-.116h-1.28l-.58-.232-.58.232h-1.164l-.582.117h-.814l-.35.233-1.163.35-.233.23h-.232l-.582.234-.35.35-.58.232-.35.347-.464.233-1.163 1.164v.116l-.582.582-.114.465-.465.35-.116.348-.232.58v.234l-.232.23-.116.35-.232.58v.35l-.233.58v.467l-.117.58v1.745l.117.698v.583l.233.58v.467l.232.348.35 1.164.23.35.35.58.233.58.58.583.118.465 1.977 1.977.58.35.35.232.466.346.58.35.35.232.93.58 1.046.35.582.465.348.116 1.977.814.582.233.698.35 1.047.347.35.233.93.35 2.325 1.162.58.464.816.58.58.35.35.233 1.164 1.163.233.35.35.233.58 1.163.233.116v.465l.233.35v.348l.115.58v2.793l-.116.35v.347l-.234.466-.232.118v.465l-.35.698-.58.58-.233.468-.116.116-.232.465-.35.115-.58.582-.466.232-.35.35-1.163.58-.58.232h-.35l-.58.234h-.467l-.58.117h-.93l-.816.233-.696-.232H86.04l-.58-.116h-.466l-.35-.233h-.232l-1.163-.58-.583-.232-.35-.117-.232-.232-1.162-.814-.93-.93-.35-.582-.58-.35-.467-.58-.116-.58-.813-1.164-.233-.466-.116-.58-.465-.583-.117-.582-.465-.93v-.582l-.114-.58-.465-1.512-.116-.582h-1.628V53.21zm31.4-33.028l.234.232v.697l.23.233v.35l.582.58.116.465.464.116h.117l.232.235h.233l.116.233h1.98l.23-.233.35-.233h.23v-.115h.12l.23-.465.583-.58.232-.35V21.1l.117-.35v-1.396l-.117-.116v-.465l-.232-.115-.233-.466-.93-.93-.348-.234h-.232l-.35-.116h-1.395l-.233.116h-.35l-.348.466h-.232l-.814.697-.117.466v.116l-.23.466v.582l-.233.35z" fill-rule="evenodd"/></svg>