<svg width="274" height="223" viewBox="0 0 274 223" xmlns="http://www.w3.org/2000/svg"><title>Imported Layers</title><path d="M189.28 0c-30.978 0-56.09 25.113-56.09 56.088 0 4.396.495 8.676 1.45 12.782C88.027 66.53 46.698 44.2 19.033 10.266c-4.828 8.285-7.593 17.92-7.593 28.2 0 19.457 9.9 36.626 24.95 46.684a55.85 55.85 0 0 1-25.404-7.016c-.004.235-.005.47-.005.706 0 27.176 19.335 49.846 44.994 54.998a56.205 56.205 0 0 1-25.33.96c7.137 22.284 27.85 38.5 52.395 38.954-19.197 15.043-43.382 24.01-69.66 24.01-4.527 0-8.992-.266-13.38-.783 24.822 15.913 54.305 25.198 85.98 25.198 103.17 0 159.585-85.467 159.585-159.587 0-2.43-.055-4.85-.162-7.254A114.016 114.016 0 0 0 273.39 26.3a112.107 112.107 0 0 1-32.215 8.832c11.58-6.94 20.475-17.933 24.662-31.03a112.306 112.306 0 0 1-35.617 13.61C219.99 6.813 205.41 0 189.28 0" fill="#FFF" fill-rule="evenodd"/></svg>