<svg width="175" height="64" viewBox="0 0 175 64" xmlns="http://www.w3.org/2000/svg"><title>Imported Layers</title><desc>Created with Sketch.</desc><g fill="none" fill-rule="evenodd"><g fill="#000"><path d="M28.472 1.79l16.4 16.4-3.258 3.14L24.75 4.466v-.233l-.232-.348v-.233l-.116-.116V2.49l.116-.117V2.14l.465-.35V1.56l.35-.348h.232l.116-.233h1.397l.35.233h.23l.35.348h.233l.232.233zm9.653.118L49.522 13.42l-3.256 3.258L34.87 5.28v-.232l-.583-.582v-.35l-.232-.23V2.488l.348-.35v-.232l.582-.582h.233l.232-.116h1.28l.232.116h.35l.464.465h.117l.232.118zM21.03 3.885L40.1 22.84l-3.14 3.374L17.424 6.56l-.233-.35v-.348l-.23-.233V4.7l.23-.234v-.233l.234-.116v-.232l.58-.582h.118l.232-.232H20.1l.348.466h.232l.35.35zm-1.86 7.56l16.28 16.28-3.373 3.14L15.68 14.353v-.233l-.466-.35v-.233l-.116-.116V12.26l.116-.465v-.35l.466-.348h.116l.465-.465h.35l.232-.116h.698l.233.116h.232l.35.233h.232l.582.58z"/><path d="M1.724 36.1l16.28-16.515 3.258 3.256-16.515 16.4-.58.58H4.05l-.233.117h-.35l-.232.233h-.93l-.233-.233H1.84l-.116-.116H1.49l-.348-.464v-.116l-.233-.233v-.233l-.233-.116v-1.046l.232-.117v-.58l.348-.467v-.116h.233l.234-.232zm0-9.77L13.12 14.934l3.257 3.14-12.21 12.212h-.583l-.116.232H2.42l-.115-.232h-.233l-.232-.233h-.116l-.582-.582v-.348L.91 28.89v-1.164l.232-.35v-.232l.35-.348v-.233l.232-.232zm1.86 16.98l19.073-18.84 3.257 3.023-19.54 19.655h-.23l-.35.233H5.33l-.117.117h-.466l-.116-.116h-.58l-.466-.465h-.116l-.233-.116v-.233l-.232-.233-.116-.35V44.59l.116-.117v-.233l.232-.232v-.116l.233-.233v-.234l.116-.116zm7.56 2.094l16.282-16.282 3.14 3.256L14.284 48.66l-.35.232-.464.35h-.117l-.232.232H11.96l-.233-.233h-.35l-.23-.115h-.118v-.233l-.58-.58v-.35l-.234-.465v-.35l.233-.232v-.58l.117-.117v-.233l.58-.58z"/><path d="M35.8 62.848l-16.516-16.28 3.373-3.258 16.63 16.63v.234l.35.35v.23l.233.35v1.163l-.233.232v.348l-.697.814h-.466l-.116.117h-1.163l-.233-.118h-.35l-.813-.814zm-9.653 0L14.633 51.45l3.372-3.372 11.98 12.096v.116l.232.465v1.512l-.233.232v.116l-.814.814h-.116l-.233.232h-1.394l-.117-.232h-.233l-.35-.232-.464-.35h-.116zm16.98-1.977L24.168 41.916l3.256-3.257 19.19 19.19v.116l.464.465v.348l.117.232v1.28l-.117.233v.232l-.814.698h-.348l-.233.232h-1.163l-.233-.232h-.35l-.35-.35h-.23l-.234-.232zm1.976-7.558L29.053 37.03l3.024-3.024 16.283 16.05.465.348v.466l.35.348v1.513l-.234.233v.35l-.348.464h-.232l-.117.116h-.232l-.232.233h-.116l-.233.232h-.35l-.465-.232h-.35l-.23-.233h-.117l-.466-.116-.35-.465z"/><path d="M62.78 28.656L46.267 45.17l-3.14-3.255L59.99 25.05l.465-.232h.116l.233-.232h1.164l.232.232h.116l.232.233h.233l.582.583v.116l.116.232v1.395l-.116.35v.23l-.233.118v.232l-.35.35zm-.232 9.77L51.15 49.822l-3.372-3.256L59.64 34.704h.35l.232-.116h.233l.116-.233h1.397l.232.233h.116l.813.697v.233l.232.233v1.513l-.233.35-.233.23v.233h-.116v.117l-.232.232zM60.57 21.33L41.615 40.403l-3.256-3.373 19.19-19.19h.116l.232-.232.35-.116h.23l.234-.233h1.28l.232.232.35.116.58.58v.234l.233.233v1.512l-.233.348v.233l-.58.582zm-7.558-1.978l-16.05 16.4-3.256-3.374 16.63-16.63h.233l.348-.466h1.745l.232.233h.117l.58.58v.234l.234.115v.233l.232.232v.93l-.232.233v.116l-.233.232v.35l-.58.58z"/><path d="M163.96 48.078l-.58.582-.815.465-.697.698-.582.233-.58.348-.467.466-.582.116-.582.465-1.162.35h-.35l-.232.232h-1.86l-.234-.233h-.232l-.698-.35-.232-.232-.35-.232-.232-.35-.232-.232-.582-1.163v-.697l-.116-.465v-.697l.116-.465v-.697l.233-.466v-.116l.232-.232v-.233l.35-.697.348-.233.233-.348.232-.233.116-.35.466-.233.348-.58.815-.35.58-.58.583-.466.698-.35.58-.347.815-.233.58-.35.582-.23 3.49-1.397v9.885zm8.956 1.047v.35l-.58 1.162v.233l-.815.698h-.232l-.116.23h-.233l-.35.234h-.58l-.467-.233h-.116l-.582-.582-.232-.348v-.233l-.232-.35v-14.77l-.116-.58v-1.512l-.232-.233v-.35l-.233-.464v-.35l-.583-1.162-.116-.232-.464-.698-.116-.233h-.233l-.58-.58-.583-.467-.814-.35-.582-.348-.58-.232h-.583l-.697-.233-.582-.116h-4.652l-.58.116h-.582l-.582.233h-.582l-.814.35h-.232l-.35.23-.348.234-.582.116-.232.233-1.163.58-.233.466-.35.116-.348.465-.233.35-.348.348v.232l-.233.35-.233.232-.117.348v1.395l.116.233v.116h.232v.233h.233l.116.35h.466l.35.232h.58l.233-.233h.58v-.116h.117l.582-.582.23-.465.234-.115v-.233l.116-.35v-.232l.233-.58v-.583l.232-.232v-.35l.117-.23v-.118l1.046-1.047.35-.116h.232l.698-.465h.465l.35-.234h3.14l.347.233h.35l.465.232h.116l.466.232h.116l.466.116 1.28 1.396v.35l.232.23v.234l.232.35v.23l.116.583v1.28l.233.58v1.978l-4.884 1.978-2.325 1.163-.697.117-.58.466-.583.116-1.163.813-1.163.582-.465.348-.583.233-.35.35-.348.23-.815.816-.35.116-.232.465-.348.116-.466.814-.117.232-.233.35-.232.232-.116.35v.347l-.233.233v.35l-.233.58v1.745l.232.465v.116l.232.466v.116l.116.232.232.35v.23l.93.933.815.465.35.35.58.232 1.164.35h.58l.465.23h1.28l1.163-.464h.814l.58-.116.583-.465.814-.117.58-.232.582-.35.697-.464 1.744-1.164.814-.35 1.163-.813v.58l.233.467v.348l.117.35.233.23.348.816.234.117v.233l.233.232h.116l.58.582h.234l.58.116.35.233h.815l.35.232h1.045l.35-.232h.232l.58-.233h.116l.466-.116h.116l.233-.233.35-.232.465-.35.35-.23.23-.118v-.233l.35-.348v-.464l.233-.117.116-.464.233-.582v-.348l.232-.582v-.35h-1.164zm-34.773-.814l-.117.35-.814.814-.232.35-.35.232-.93.93-.465.232-.116.233-.815.118-.233.23-.35.234-.23.117h-.35l-.233.23h-.117l-.582.234h-.464l-.58.117h-2.328l-.58-.116-.35-.233h-.232l-1.512-.812-.233-.117-.348-.232-1.395-1.395-.35-.698-.348-.582-.234-.465-.35-1.163-.464-.58v-.7l-.116-.58-.233-.815v-.814l-.232-.698v-3.72l.233-.815v-.93l.233-.35v-.58l.116-.466.233-.582v-.58l.232-.35.117-.582.465-.348.115-.582.233-.465.35-.35.464-.58.698-.814h.232l.35-.35 1.162-.58h.233l.58-.234.35-.116h1.047l.698-.232.814.232h.93l.465.116 2.328.815.58.35.582.23.35.35.348.232.582.35.58.58.583.466V48.31zm0-17.21l-1.163-1.164-.582-.233-.35-.35-.58-.23-.582-.467-.58-.116-.583-.465h-.35l-.23-.117h-.35l-.465-.232-.582-.233h-.58l-.7-.116h-3.14l-1.162.35h-.582l-.58.348-.583.232-1.164.35-.35.465-.58.348-.465.466-.58.35-1.745 1.743-.117.58-.465.35-.698 1.162v.466l-.232.116-.233.58-.116.816-.233.58-.23.815-.118.58v.35l-.232.35v4.535l.35 1.512.23.582.234.814.116.58.465.583.117.582.465.58.116.583.465.582.35.35.348.58.814.814.582.35.35.35.58.464.465.35.582.23.348.35.58.233 1.164.35.35.23h.58l.582.118h1.163l.465.232.582-.232h1.744l.35-.117h.348l1.163-.58h.464l.35-.234.58-.35.815-.463.58-.35.582-.23.698-.7 1.046-.813.582-.58v2.906l.116.58v.815l.233.35.58-.233h.583l1.977-.35h1.163l1.163-.232h1.28l1.162-.116V52.38h-2.093l-.35-.23h-.465l-.697-.7v-.232l-.233-.232-.232-.582V49.24l-.116-.93V11.096h-.583v.117l-1.745.464-1.046.117h-.698l-.815.232-.93.233h-1.047l-.93.116h-.93v1.396h1.28l.58.233h.582l.465.116h.117l.232.232h.233v.232l.116.116h.233v.466l.233.35v.23l.117.583V31.1zm-26.168-3.723h-.93l-.465.116h-.35l-.93.465-.814.117-1.744.232-1.512.233-1.163.35h-1.396v1.395h1.513l.582.232h.58l.466.117h.35l.233.232h.116v.233l.464.347v.233l.117.117v.232l.233.58v.815l.233.697v14.77l-.233.582v.93l-.232.233v.233l-.116.116v.232l-.232.233v.118h-.233l-.35.464h-.35l-.23.117h-2.91v1.394h13.61V52.15h-2.327l-.233-.118h-.35l-.232-.233h-.232l-.35-.35v-.232l-.232-.232v-.116l-.116-.233v-.35l-.233-.58v-22.33zm-38.03 25.818h1.628l.35-1.627.232-.582.116-.35v-.232l.466-.348.117-.35v-.465l.232-.115 1.745 1.745.58.348.583.58.58.35.815.466.93.35 1.164.58.58.233.35.116h.582l.58.233h.583l.58.232h4.072l.58-.232.814-.233h.582l.582-.116.813-.233.583-.35.58-.23.35-.233.582-.35.58-.23.35-.35.582-.35 1.162-1.162.465-.58.35-.467.23-.58.35-.35.35-1.162.465-.58.116-.583v-.58l.465-1.165v-4.07l-.464-1.163v-.582l-.116-.58-.466-.582-.116-.582-.233-.348-.35-.58-.23-.467-1.978-1.86-.582-.466-.35-.35-1.162-.813-.58-.117-1.164-.814-1.164-.58-1.396-.583-2.907-1.396-1.86-.814-.815-.58-.93-.35-.815-.35-.93-.58-1.163-.582-.233-.464-.35-.116-.463-.466-.35-.116-.232-.465-.582-.582-1.163-2.325v-.348l-.116-.35v-1.976l.117-.348v-.233l.233-.582v-.233l.233-.35.348-.348v-.465l.35-.35.233-.348.35-.232.58-.582.465-.233.117-.116.814-.464h.348l.465-.116h.35l.232-.233h.93l.582-.233h.93l.465.233h.93l.35.233h.465l.35.116.58.232h.35l.464.233.35.35 1.163.582.35.348.464.233.698.814.233.35.813.813.118.35.465.348.116.58.464.467.35 1.163.232.35.35.58.23.582.118.813.232.582h1.163v-11.05h-1.164l-.232.7-.117.465v.348l-.232.233v.35l-.35.35-.232.464v.116l-.58.582-1.745-1.745-.582-.35-.35-.23-1.162-.7-.814-.232-.582-.35-.814-.23-.348-.233h-.35l-1.046-.117h-1.28l-.58-.232-.582.232h-1.163l-.582.117h-.814l-.35.232-1.163.35-.233.23h-.232l-.582.234-.35.35-.58.232-.35.348-.464.233-1.163 1.164v.116l-.582.582-.115.465-.465.35-.117.348-.232.58v.234l-.232.232-.116.35-.232.58v.35l-.233.58v.466l-.116.58v1.745l.117.698v.583l.233.58v.467l.232.348.35 1.164.23.35.35.58.233.58.58.583.118.465 1.977 1.977.58.35.35.232.466.347.58.35.35.232.93.58 1.047.35.582.465.348.116 1.977.815.582.233.698.35 1.047.347.35.233.93.35 2.325 1.162.58.465.816.58.58.35.35.233 1.163 1.163.233.35.35.233.58 1.163.233.116v.465l.233.35v.348l.115.58v2.793l-.116.35v.347l-.234.466-.232.117v.465l-.35.698-.58.58-.233.467-.116.116-.232.465-.35.116-.58.582-.466.232-.348.35-1.164.58-.58.233h-.35l-.58.234h-.467l-.58.117h-.93l-.816.233-.696-.232H86.04l-.58-.116h-.466l-.35-.233h-.232l-1.163-.58-.582-.232-.35-.117-.232-.232-1.162-.814-.93-.93-.35-.582-.58-.35-.467-.58-.116-.58-.813-1.164-.233-.466-.116-.58-.465-.583-.117-.582-.465-.93v-.582l-.115-.58-.465-1.513-.117-.582h-1.628v13.375zm31.4-33.028l.234.232v.697l.23.233v.35l.583.58.116.465.464.116h.117l.233.234h.233l.116.233h1.978l.232-.233.35-.233h.23v-.115h.118l.232-.465.582-.58.232-.35v-.233l.117-.35v-1.395l-.117-.116v-.465l-.232-.115-.233-.466-.93-.93-.348-.234h-.232l-.35-.116h-1.395l-.233.116h-.35l-.348.466h-.232l-.814.697-.117.465v.116l-.23.466v.582l-.234.35z"/></g></g></svg>